*
G04 Mass Parameters ***
*
G04 Image ***
*
%INC:\MYWORKS\HOMELIGHTING\02_HW\HOMELIGHTING_FINAL.SMT*%
%ICAS*%
%MOIN*%
%IPPOS*%
%ASAXBY*%
G74*%FSLAN2X34Y34*%
*
G04 Aperture Definitions ***
*
%ADD10C,0.0600*%
%ADD11R,0.0700X0.0500*%
%ADD12R,0.0600X0.0600*%
%ADD13R,0.0480X0.0860*%
%ADD14R,0.0500X0.0700*%
%ADD15R,0.0760X0.0480*%
%ADD16C,0.0620*%
%ADD17R,0.0620X0.0620*%
%ADD18C,0.0720*%
%ADD19C,0.1200*%
%ADD20C,0.0580*%
%ADD21R,0.0580X0.0580*%
%ADD22C,0.0750*%
%ADD23R,0.0750X0.0750*%
%ADD24R,0.0500X0.0500*%
%ADD25O,0.0180X0.0700*%
%ADD26R,0.0180X0.0700*%
%ADD27O,0.0700X0.0180*%
%ADD28R,0.0700X0.0180*%
%ADD29C,0.0400*%
%ADD30C,0.0260*%
%ADD31C,0.0010*%
%ADD32C,0.0120*%
%ADD33C,0.0180*%
%ADD34C,0.0400*%
%ADD35C,0.0600*%
%ADD36C,0.0080*%
%ADD37C,0.0800*%
%ADD38C,0.0400*%
%ADD39C,0.0320*%
%ADD40C,0.0060*%
%ADD41R,0.0750X0.0550*%
%ADD42R,0.0550X0.0750*%
%ADD43C,0.0670*%
%ADD44R,0.0670X0.0670*%
%ADD45C,0.0740*%
%ADD46C,0.1250*%
%ADD47R,0.0720X0.0720*%
%ADD48C,0.0420*%
%ADD49C,0.0420*%
*
G04 Plot Data ***
*
G54D36*
G01X0020640Y0069040D02*
Y0067520D01*
X0021600Y0066560D01*
Y0064720D01*
X0022560Y0063760D01*
Y0062480D01*
X0023760D02*
X0022560D01*
X0023760Y0062800D02*
Y0062480D01*
Y0062800D02*
X0022880D01*
Y0063920D02*
Y0062800D01*
X0021920Y0064880D02*
X0022880Y0063920D01*
X0021920Y0066720D02*
Y0064880D01*
X0020960Y0067680D02*
X0021920Y0066720D01*
X0020960Y0069920D02*
Y0067680D01*
Y0069920D02*
X0019280D01*
Y0069280D01*
X0020640D02*
X0019280D01*
X0020640D02*
Y0069040D01*
X0023748Y0062800D02*
Y0062480D01*
X0023676Y0062800D02*
Y0062480D01*
X0023604Y0062800D02*
Y0062480D01*
X0023532Y0062800D02*
Y0062480D01*
X0023460Y0062800D02*
Y0062480D01*
X0023388Y0062800D02*
Y0062480D01*
X0023316Y0062800D02*
Y0062480D01*
X0023244Y0062800D02*
Y0062480D01*
X0023172Y0062800D02*
Y0062480D01*
X0023100Y0062800D02*
Y0062480D01*
X0023028Y0062800D02*
Y0062480D01*
X0022956Y0062800D02*
Y0062480D01*
X0022884Y0062800D02*
Y0062480D01*
X0022812Y0063988D02*
Y0062480D01*
X0022740Y0064060D02*
Y0062480D01*
X0022668Y0064132D02*
Y0062480D01*
X0022596Y0064204D02*
Y0062480D01*
X0022524Y0064276D02*
Y0063796D01*
X0022452Y0064348D02*
Y0063868D01*
X0022380Y0064420D02*
Y0063940D01*
X0022308Y0064492D02*
Y0064012D01*
X0022236Y0064564D02*
Y0064084D01*
X0022164Y0064636D02*
Y0064156D01*
X0022092Y0064708D02*
Y0064228D01*
X0022020Y0064780D02*
Y0064300D01*
X0021948Y0064852D02*
Y0064372D01*
X0021876Y0066764D02*
Y0064444D01*
X0021804Y0066836D02*
Y0064516D01*
X0021732Y0066908D02*
Y0064588D01*
X0021660Y0066980D02*
Y0064660D01*
X0021588Y0067052D02*
Y0066572D01*
X0021516Y0067124D02*
Y0066644D01*
X0021444Y0067196D02*
Y0066716D01*
X0021372Y0067268D02*
Y0066788D01*
X0021300Y0067340D02*
Y0066860D01*
X0021228Y0067412D02*
Y0066932D01*
X0021156Y0067484D02*
Y0067004D01*
X0021084Y0067556D02*
Y0067076D01*
X0021012Y0067628D02*
Y0067148D01*
X0020940Y0069920D02*
Y0067220D01*
X0020868Y0069920D02*
Y0067292D01*
X0020796Y0069920D02*
Y0067364D01*
X0020724Y0069920D02*
Y0067436D01*
X0020652Y0069920D02*
Y0067508D01*
X0020580Y0069920D02*
Y0069280D01*
X0020508Y0069920D02*
Y0069280D01*
X0020436Y0069920D02*
Y0069280D01*
X0020364Y0069920D02*
Y0069280D01*
X0020292Y0069920D02*
Y0069280D01*
X0020220Y0069920D02*
Y0069280D01*
X0020148Y0069920D02*
Y0069280D01*
X0020076Y0069920D02*
Y0069280D01*
X0020004Y0069920D02*
Y0069280D01*
X0019932Y0069920D02*
Y0069280D01*
X0019860Y0069920D02*
Y0069280D01*
X0019788Y0069920D02*
Y0069280D01*
X0019716Y0069920D02*
Y0069280D01*
X0019644Y0069920D02*
Y0069280D01*
X0019572Y0069920D02*
Y0069280D01*
X0019500Y0069920D02*
Y0069280D01*
X0019428Y0069920D02*
Y0069280D01*
X0019356Y0069920D02*
Y0069280D01*
X0020960Y0069900D02*
X0019280D01*
X0020960Y0069828D02*
X0019280D01*
X0020960Y0069756D02*
X0019280D01*
X0020960Y0069684D02*
X0019280D01*
X0020960Y0069612D02*
X0019280D01*
X0020960Y0069540D02*
X0019280D01*
X0020960Y0069468D02*
X0019280D01*
X0020960Y0069396D02*
X0019280D01*
X0020960Y0069324D02*
X0019280D01*
X0020960Y0069252D02*
X0020640D01*
X0020960Y0069180D02*
X0020640D01*
X0020960Y0069108D02*
X0020640D01*
X0020960Y0069036D02*
X0020640D01*
X0020960Y0068964D02*
X0020640D01*
X0020960Y0068892D02*
X0020640D01*
X0020960Y0068820D02*
X0020640D01*
X0020960Y0068748D02*
X0020640D01*
X0020960Y0068676D02*
X0020640D01*
X0020960Y0068604D02*
X0020640D01*
X0020960Y0068532D02*
X0020640D01*
X0020960Y0068460D02*
X0020640D01*
X0020960Y0068388D02*
X0020640D01*
X0020960Y0068316D02*
X0020640D01*
X0020960Y0068244D02*
X0020640D01*
X0020960Y0068172D02*
X0020640D01*
X0020960Y0068100D02*
X0020640D01*
X0020960Y0068028D02*
X0020640D01*
X0020960Y0067956D02*
X0020640D01*
X0020960Y0067884D02*
X0020640D01*
X0020960Y0067812D02*
X0020640D01*
X0020960Y0067740D02*
X0020640D01*
X0020972Y0067668D02*
X0020640D01*
X0021044Y0067596D02*
X0020640D01*
X0021116Y0067524D02*
X0020640D01*
X0021188Y0067452D02*
X0020708D01*
X0021260Y0067380D02*
X0020780D01*
X0021332Y0067308D02*
X0020852D01*
X0021404Y0067236D02*
X0020924D01*
X0021476Y0067164D02*
X0020996D01*
X0021548Y0067092D02*
X0021068D01*
X0021620Y0067020D02*
X0021140D01*
X0021692Y0066948D02*
X0021212D01*
X0021764Y0066876D02*
X0021284D01*
X0021836Y0066804D02*
X0021356D01*
X0021908Y0066732D02*
X0021428D01*
X0021920Y0066660D02*
X0021500D01*
X0021920Y0066588D02*
X0021572D01*
X0021920Y0066516D02*
X0021600D01*
X0021920Y0066444D02*
X0021600D01*
X0021920Y0066372D02*
X0021600D01*
X0021920Y0066300D02*
X0021600D01*
X0021920Y0066228D02*
X0021600D01*
X0021920Y0066156D02*
X0021600D01*
X0021920Y0066084D02*
X0021600D01*
X0021920Y0066012D02*
X0021600D01*
X0021920Y0065940D02*
X0021600D01*
X0021920Y0065868D02*
X0021600D01*
X0021920Y0065796D02*
X0021600D01*
X0021920Y0065724D02*
X0021600D01*
X0021920Y0065652D02*
X0021600D01*
X0021920Y0065580D02*
X0021600D01*
X0021920Y0065508D02*
X0021600D01*
X0021920Y0065436D02*
X0021600D01*
X0021920Y0065364D02*
X0021600D01*
X0021920Y0065292D02*
X0021600D01*
X0021920Y0065220D02*
X0021600D01*
X0021920Y0065148D02*
X0021600D01*
X0021920Y0065076D02*
X0021600D01*
X0021920Y0065004D02*
X0021600D01*
X0021920Y0064932D02*
X0021600D01*
X0021940Y0064860D02*
X0021600D01*
X0022012Y0064788D02*
X0021600D01*
X0022084Y0064716D02*
X0021604D01*
X0022156Y0064644D02*
X0021676D01*
X0022228Y0064572D02*
X0021748D01*
X0022300Y0064500D02*
X0021820D01*
X0022372Y0064428D02*
X0021892D01*
X0022444Y0064356D02*
X0021964D01*
X0022516Y0064284D02*
X0022036D01*
X0022588Y0064212D02*
X0022108D01*
X0022660Y0064140D02*
X0022180D01*
X0022732Y0064068D02*
X0022252D01*
X0022804Y0063996D02*
X0022324D01*
X0022876Y0063924D02*
X0022396D01*
X0022880Y0063852D02*
X0022468D01*
X0022880Y0063780D02*
X0022540D01*
X0022880Y0063708D02*
X0022560D01*
X0022880Y0063636D02*
X0022560D01*
X0022880Y0063564D02*
X0022560D01*
X0022880Y0063492D02*
X0022560D01*
X0022880Y0063420D02*
X0022560D01*
X0022880Y0063348D02*
X0022560D01*
X0022880Y0063276D02*
X0022560D01*
X0022880Y0063204D02*
X0022560D01*
X0022880Y0063132D02*
X0022560D01*
X0022880Y0063060D02*
X0022560D01*
X0022880Y0062988D02*
X0022560D01*
X0022880Y0062916D02*
X0022560D01*
X0022880Y0062844D02*
X0022560D01*
X0023760Y0062772D02*
X0022560D01*
X0023760Y0062700D02*
X0022560D01*
X0023760Y0062628D02*
X0022560D01*
X0023760Y0062556D02*
X0022560D01*
X0024320Y0069920D02*
Y0068560D01*
X0028240D02*
X0024320D01*
X0028240D02*
X0028640Y0068160D01*
Y0062800D01*
X0029760D02*
X0028640D01*
X0029760D02*
Y0062560D01*
X0028320D01*
Y0068000D02*
Y0062560D01*
X0028080Y0068240D02*
X0028320Y0068000D01*
X0028080Y0068240D02*
X0024000D01*
Y0069200D02*
Y0068240D01*
Y0069200D02*
X0022640D01*
Y0069920D02*
Y0069200D01*
X0024320Y0069920D02*
X0022640D01*
X0029700Y0062800D02*
Y0062560D01*
X0029628Y0062800D02*
Y0062560D01*
X0029556Y0062800D02*
Y0062560D01*
X0029484Y0062800D02*
Y0062560D01*
X0029412Y0062800D02*
Y0062560D01*
X0029340Y0062800D02*
Y0062560D01*
X0029268Y0062800D02*
Y0062560D01*
X0029196Y0062800D02*
Y0062560D01*
X0029124Y0062800D02*
Y0062560D01*
X0029052Y0062800D02*
Y0062560D01*
X0028980Y0062800D02*
Y0062560D01*
X0028908Y0062800D02*
Y0062560D01*
X0028836Y0062800D02*
Y0062560D01*
X0028764Y0062800D02*
Y0062560D01*
X0028692Y0062800D02*
Y0062560D01*
X0028620Y0068180D02*
Y0062560D01*
X0028548Y0068252D02*
Y0062560D01*
X0028476Y0068324D02*
Y0062560D01*
X0028404Y0068396D02*
Y0062560D01*
X0028332Y0068468D02*
Y0062560D01*
X0028260Y0068540D02*
Y0068060D01*
X0028188Y0068560D02*
Y0068132D01*
X0028116Y0068560D02*
Y0068204D01*
X0028044Y0068560D02*
Y0068240D01*
X0027972Y0068560D02*
Y0068240D01*
X0027900Y0068560D02*
Y0068240D01*
X0027828Y0068560D02*
Y0068240D01*
X0027756Y0068560D02*
Y0068240D01*
X0027684Y0068560D02*
Y0068240D01*
X0027612Y0068560D02*
Y0068240D01*
X0027540Y0068560D02*
Y0068240D01*
X0027468Y0068560D02*
Y0068240D01*
X0027396Y0068560D02*
Y0068240D01*
X0027324Y0068560D02*
Y0068240D01*
X0027252Y0068560D02*
Y0068240D01*
X0027180Y0068560D02*
Y0068240D01*
X0027108Y0068560D02*
Y0068240D01*
X0027036Y0068560D02*
Y0068240D01*
X0026964Y0068560D02*
Y0068240D01*
X0026892Y0068560D02*
Y0068240D01*
X0026820Y0068560D02*
Y0068240D01*
X0026748Y0068560D02*
Y0068240D01*
X0026676Y0068560D02*
Y0068240D01*
X0026604Y0068560D02*
Y0068240D01*
X0026532Y0068560D02*
Y0068240D01*
X0026460Y0068560D02*
Y0068240D01*
X0026388Y0068560D02*
Y0068240D01*
X0026316Y0068560D02*
Y0068240D01*
X0026244Y0068560D02*
Y0068240D01*
X0026172Y0068560D02*
Y0068240D01*
X0026100Y0068560D02*
Y0068240D01*
X0026028Y0068560D02*
Y0068240D01*
X0025956Y0068560D02*
Y0068240D01*
X0025884Y0068560D02*
Y0068240D01*
X0025812Y0068560D02*
Y0068240D01*
X0025740Y0068560D02*
Y0068240D01*
X0025668Y0068560D02*
Y0068240D01*
X0025596Y0068560D02*
Y0068240D01*
X0025524Y0068560D02*
Y0068240D01*
X0025452Y0068560D02*
Y0068240D01*
X0025380Y0068560D02*
Y0068240D01*
X0025308Y0068560D02*
Y0068240D01*
X0025236Y0068560D02*
Y0068240D01*
X0025164Y0068560D02*
Y0068240D01*
X0025092Y0068560D02*
Y0068240D01*
X0025020Y0068560D02*
Y0068240D01*
X0024948Y0068560D02*
Y0068240D01*
X0024876Y0068560D02*
Y0068240D01*
X0024804Y0068560D02*
Y0068240D01*
X0024732Y0068560D02*
Y0068240D01*
X0024660Y0068560D02*
Y0068240D01*
X0024588Y0068560D02*
Y0068240D01*
X0024516Y0068560D02*
Y0068240D01*
X0024444Y0068560D02*
Y0068240D01*
X0024372Y0068560D02*
Y0068240D01*
X0024300Y0069920D02*
Y0068240D01*
X0024228Y0069920D02*
Y0068240D01*
X0024156Y0069920D02*
Y0068240D01*
X0024084Y0069920D02*
Y0068240D01*
X0024012Y0069920D02*
Y0068240D01*
X0023940Y0069920D02*
Y0069200D01*
X0023868Y0069920D02*
Y0069200D01*
X0023796Y0069920D02*
Y0069200D01*
X0023724Y0069920D02*
Y0069200D01*
X0023652Y0069920D02*
Y0069200D01*
X0023580Y0069920D02*
Y0069200D01*
X0023508Y0069920D02*
Y0069200D01*
X0023436Y0069920D02*
Y0069200D01*
X0023364Y0069920D02*
Y0069200D01*
X0023292Y0069920D02*
Y0069200D01*
X0023220Y0069920D02*
Y0069200D01*
X0023148Y0069920D02*
Y0069200D01*
X0023076Y0069920D02*
Y0069200D01*
X0023004Y0069920D02*
Y0069200D01*
X0022932Y0069920D02*
Y0069200D01*
X0022860Y0069920D02*
Y0069200D01*
X0022788Y0069920D02*
Y0069200D01*
X0022716Y0069920D02*
Y0069200D01*
X0024320Y0069908D02*
X0022640D01*
X0024320Y0069836D02*
X0022640D01*
X0024320Y0069764D02*
X0022640D01*
X0024320Y0069692D02*
X0022640D01*
X0024320Y0069620D02*
X0022640D01*
X0024320Y0069548D02*
X0022640D01*
X0024320Y0069476D02*
X0022640D01*
X0024320Y0069404D02*
X0022640D01*
X0024320Y0069332D02*
X0022640D01*
X0024320Y0069260D02*
X0022640D01*
X0024320Y0069188D02*
X0024000D01*
X0024320Y0069116D02*
X0024000D01*
X0024320Y0069044D02*
X0024000D01*
X0024320Y0068972D02*
X0024000D01*
X0024320Y0068900D02*
X0024000D01*
X0024320Y0068828D02*
X0024000D01*
X0024320Y0068756D02*
X0024000D01*
X0024320Y0068684D02*
X0024000D01*
X0024320Y0068612D02*
X0024000D01*
X0028260Y0068540D02*
X0024000D01*
X0028332Y0068468D02*
X0024000D01*
X0028404Y0068396D02*
X0024000D01*
X0028476Y0068324D02*
X0024000D01*
X0028548Y0068252D02*
X0024000D01*
X0028620Y0068180D02*
X0028140D01*
X0028640Y0068108D02*
X0028212D01*
X0028640Y0068036D02*
X0028284D01*
X0028640Y0067964D02*
X0028320D01*
X0028640Y0067892D02*
X0028320D01*
X0028640Y0067820D02*
X0028320D01*
X0028640Y0067748D02*
X0028320D01*
X0028640Y0067676D02*
X0028320D01*
X0028640Y0067604D02*
X0028320D01*
X0028640Y0067532D02*
X0028320D01*
X0028640Y0067460D02*
X0028320D01*
X0028640Y0067388D02*
X0028320D01*
X0028640Y0067316D02*
X0028320D01*
X0028640Y0067244D02*
X0028320D01*
X0028640Y0067172D02*
X0028320D01*
X0028640Y0067100D02*
X0028320D01*
X0028640Y0067028D02*
X0028320D01*
X0028640Y0066956D02*
X0028320D01*
X0028640Y0066884D02*
X0028320D01*
X0028640Y0066812D02*
X0028320D01*
X0028640Y0066740D02*
X0028320D01*
X0028640Y0066668D02*
X0028320D01*
X0028640Y0066596D02*
X0028320D01*
X0028640Y0066524D02*
X0028320D01*
X0028640Y0066452D02*
X0028320D01*
X0028640Y0066380D02*
X0028320D01*
X0028640Y0066308D02*
X0028320D01*
X0028640Y0066236D02*
X0028320D01*
X0028640Y0066164D02*
X0028320D01*
X0028640Y0066092D02*
X0028320D01*
X0028640Y0066020D02*
X0028320D01*
X0028640Y0065948D02*
X0028320D01*
X0028640Y0065876D02*
X0028320D01*
X0028640Y0065804D02*
X0028320D01*
X0028640Y0065732D02*
X0028320D01*
X0028640Y0065660D02*
X0028320D01*
X0028640Y0065588D02*
X0028320D01*
X0028640Y0065516D02*
X0028320D01*
X0028640Y0065444D02*
X0028320D01*
X0028640Y0065372D02*
X0028320D01*
X0028640Y0065300D02*
X0028320D01*
X0028640Y0065228D02*
X0028320D01*
X0028640Y0065156D02*
X0028320D01*
X0028640Y0065084D02*
X0028320D01*
X0028640Y0065012D02*
X0028320D01*
X0028640Y0064940D02*
X0028320D01*
X0028640Y0064868D02*
X0028320D01*
X0028640Y0064796D02*
X0028320D01*
X0028640Y0064724D02*
X0028320D01*
X0028640Y0064652D02*
X0028320D01*
X0028640Y0064580D02*
X0028320D01*
X0028640Y0064508D02*
X0028320D01*
X0028640Y0064436D02*
X0028320D01*
X0028640Y0064364D02*
X0028320D01*
X0028640Y0064292D02*
X0028320D01*
X0028640Y0064220D02*
X0028320D01*
X0028640Y0064148D02*
X0028320D01*
X0028640Y0064076D02*
X0028320D01*
X0028640Y0064004D02*
X0028320D01*
X0028640Y0063932D02*
X0028320D01*
X0028640Y0063860D02*
X0028320D01*
X0028640Y0063788D02*
X0028320D01*
X0028640Y0063716D02*
X0028320D01*
X0028640Y0063644D02*
X0028320D01*
X0028640Y0063572D02*
X0028320D01*
X0028640Y0063500D02*
X0028320D01*
X0028640Y0063428D02*
X0028320D01*
X0028640Y0063356D02*
X0028320D01*
X0028640Y0063284D02*
X0028320D01*
X0028640Y0063212D02*
X0028320D01*
X0028640Y0063140D02*
X0028320D01*
X0028640Y0063068D02*
X0028320D01*
X0028640Y0062996D02*
X0028320D01*
X0028640Y0062924D02*
X0028320D01*
X0028640Y0062852D02*
X0028320D01*
X0029760Y0062780D02*
X0028320D01*
X0029760Y0062708D02*
X0028320D01*
X0029760Y0062636D02*
X0028320D01*
X0022480Y0066160D02*
Y0065440D01*
X0023840D02*
X0022480D01*
X0023840D02*
X0024960Y0064320D01*
Y0057440D01*
X0025680D02*
X0024960D01*
X0025680Y0057760D02*
Y0057440D01*
Y0057760D02*
X0025280D01*
Y0064400D02*
Y0057760D01*
X0024240Y0065440D02*
X0025280Y0064400D01*
X0024240Y0066160D02*
Y0065440D01*
Y0066160D02*
X0022480D01*
X0025280Y0061836D02*
X0024960D01*
X0025652Y0057760D02*
Y0057440D01*
X0025580Y0057760D02*
Y0057440D01*
X0025508Y0057760D02*
Y0057440D01*
X0025436Y0057760D02*
Y0057440D01*
X0025364Y0057760D02*
Y0057440D01*
X0025292Y0057760D02*
Y0057440D01*
X0025220Y0064460D02*
Y0057440D01*
X0025148Y0064532D02*
Y0057440D01*
X0025076Y0064604D02*
Y0057440D01*
X0025004Y0064676D02*
Y0057440D01*
X0024932Y0064748D02*
Y0064348D01*
X0024860Y0064820D02*
Y0064420D01*
X0024788Y0064892D02*
Y0064492D01*
X0024716Y0064964D02*
Y0064564D01*
X0024644Y0065036D02*
Y0064636D01*
X0024572Y0065108D02*
Y0064708D01*
X0024500Y0065180D02*
Y0064780D01*
X0024428Y0065252D02*
Y0064852D01*
X0024356Y0065324D02*
Y0064924D01*
X0024284Y0065396D02*
Y0064996D01*
X0024212Y0066160D02*
Y0065068D01*
X0024140Y0066160D02*
Y0065140D01*
X0024068Y0066160D02*
Y0065212D01*
X0023996Y0066160D02*
Y0065284D01*
X0023924Y0066160D02*
Y0065356D01*
X0023852Y0066160D02*
Y0065428D01*
X0023780Y0066160D02*
Y0065440D01*
X0023708Y0066160D02*
Y0065440D01*
X0023636Y0066160D02*
Y0065440D01*
X0023564Y0066160D02*
Y0065440D01*
X0023492Y0066160D02*
Y0065440D01*
X0023420Y0066160D02*
Y0065440D01*
X0023348Y0066160D02*
Y0065440D01*
X0023276Y0066160D02*
Y0065440D01*
X0023204Y0066160D02*
Y0065440D01*
X0023132Y0066160D02*
Y0065440D01*
X0023060Y0066160D02*
Y0065440D01*
X0022988Y0066160D02*
Y0065440D01*
X0022916Y0066160D02*
Y0065440D01*
X0022844Y0066160D02*
Y0065440D01*
X0022772Y0066160D02*
Y0065440D01*
X0022700Y0066160D02*
Y0065440D01*
X0022628Y0066160D02*
Y0065440D01*
X0022556Y0066160D02*
Y0065440D01*
X0024240Y0066084D02*
X0022480D01*
X0024240Y0066012D02*
X0022480D01*
X0024240Y0065940D02*
X0022480D01*
X0024240Y0065868D02*
X0022480D01*
X0024240Y0065796D02*
X0022480D01*
X0024240Y0065724D02*
X0022480D01*
X0024240Y0065652D02*
X0022480D01*
X0024240Y0065580D02*
X0022480D01*
X0024240Y0065508D02*
X0022480D01*
X0024244Y0065436D02*
X0023844D01*
X0024316Y0065364D02*
X0023916D01*
X0024388Y0065292D02*
X0023988D01*
X0024460Y0065220D02*
X0024060D01*
X0024532Y0065148D02*
X0024132D01*
X0024604Y0065076D02*
X0024204D01*
X0024676Y0065004D02*
X0024276D01*
X0024748Y0064932D02*
X0024348D01*
X0024820Y0064860D02*
X0024420D01*
X0024892Y0064788D02*
X0024492D01*
X0024964Y0064716D02*
X0024564D01*
X0025036Y0064644D02*
X0024636D01*
X0025108Y0064572D02*
X0024708D01*
X0025180Y0064500D02*
X0024780D01*
X0025252Y0064428D02*
X0024852D01*
X0025280Y0064356D02*
X0024924D01*
X0025280Y0064284D02*
X0024960D01*
X0025280Y0064212D02*
X0024960D01*
X0025280Y0064140D02*
X0024960D01*
X0025280Y0064068D02*
X0024960D01*
X0025280Y0063996D02*
X0024960D01*
X0025280Y0063924D02*
X0024960D01*
X0025280Y0063852D02*
X0024960D01*
X0025280Y0063780D02*
X0024960D01*
X0025280Y0063708D02*
X0024960D01*
X0025280Y0063636D02*
X0024960D01*
X0025280Y0063564D02*
X0024960D01*
X0025280Y0063492D02*
X0024960D01*
X0025280Y0063420D02*
X0024960D01*
X0025280Y0063348D02*
X0024960D01*
X0025280Y0063276D02*
X0024960D01*
X0025280Y0063204D02*
X0024960D01*
X0025280Y0063132D02*
X0024960D01*
X0025280Y0063060D02*
X0024960D01*
X0025280Y0062988D02*
X0024960D01*
X0025280Y0062916D02*
X0024960D01*
X0025280Y0062844D02*
X0024960D01*
X0025280Y0062772D02*
X0024960D01*
X0025280Y0062700D02*
X0024960D01*
X0025280Y0062628D02*
X0024960D01*
X0025280Y0062556D02*
X0024960D01*
X0025280Y0062484D02*
X0024960D01*
X0025280Y0062412D02*
X0024960D01*
X0025280Y0062340D02*
X0024960D01*
X0025280Y0062268D02*
X0024960D01*
X0025280Y0062196D02*
X0024960D01*
X0025280Y0062124D02*
X0024960D01*
X0025280Y0062052D02*
X0024960D01*
X0025280Y0061980D02*
X0024960D01*
X0025280Y0061908D02*
X0024960D01*
X0025280Y0061764D02*
X0024960D01*
X0025280Y0061692D02*
X0024960D01*
X0025280Y0061620D02*
X0024960D01*
X0025280Y0061548D02*
X0024960D01*
X0025280Y0061476D02*
X0024960D01*
X0025280Y0061404D02*
X0024960D01*
X0025280Y0061332D02*
X0024960D01*
X0025280Y0061260D02*
X0024960D01*
X0025280Y0061188D02*
X0024960D01*
X0025280Y0061116D02*
X0024960D01*
X0025280Y0061044D02*
X0024960D01*
X0025280Y0060972D02*
X0024960D01*
X0025280Y0060900D02*
X0024960D01*
X0025280Y0060828D02*
X0024960D01*
X0025280Y0060756D02*
X0024960D01*
X0025280Y0060684D02*
X0024960D01*
X0025280Y0060612D02*
X0024960D01*
X0025280Y0060540D02*
X0024960D01*
X0025280Y0060468D02*
X0024960D01*
X0025280Y0060396D02*
X0024960D01*
X0025280Y0060324D02*
X0024960D01*
X0025280Y0060252D02*
X0024960D01*
X0025280Y0060180D02*
X0024960D01*
X0025280Y0060108D02*
X0024960D01*
X0025280Y0060036D02*
X0024960D01*
X0025280Y0059964D02*
X0024960D01*
X0025280Y0059892D02*
X0024960D01*
X0025280Y0059820D02*
X0024960D01*
X0025280Y0059748D02*
X0024960D01*
X0025280Y0059676D02*
X0024960D01*
X0025280Y0059604D02*
X0024960D01*
X0025280Y0059532D02*
X0024960D01*
X0025280Y0059460D02*
X0024960D01*
X0025280Y0059388D02*
X0024960D01*
X0025280Y0059316D02*
X0024960D01*
X0025280Y0059244D02*
X0024960D01*
X0025280Y0059172D02*
X0024960D01*
X0025280Y0059100D02*
X0024960D01*
X0025280Y0059028D02*
X0024960D01*
X0025280Y0058956D02*
X0024960D01*
X0025280Y0058884D02*
X0024960D01*
X0025280Y0058812D02*
X0024960D01*
X0025280Y0058740D02*
X0024960D01*
X0025280Y0058668D02*
X0024960D01*
X0025280Y0058596D02*
X0024960D01*
X0025280Y0058524D02*
X0024960D01*
X0025280Y0058452D02*
X0024960D01*
X0025280Y0058380D02*
X0024960D01*
X0025280Y0058308D02*
X0024960D01*
X0025280Y0058236D02*
X0024960D01*
X0025280Y0058164D02*
X0024960D01*
X0025280Y0058092D02*
X0024960D01*
X0025280Y0058020D02*
X0024960D01*
X0025280Y0057948D02*
X0024960D01*
X0025280Y0057876D02*
X0024960D01*
X0025280Y0057804D02*
X0024960D01*
X0025680Y0057732D02*
X0024960D01*
X0025680Y0057660D02*
X0024960D01*
X0025680Y0057588D02*
X0024960D01*
X0025680Y0057516D02*
X0024960D01*
X0019788Y0057760D02*
Y0057440D01*
X0019716Y0066160D02*
Y0057440D01*
X0019644Y0066160D02*
Y0057440D01*
X0019572Y0066160D02*
Y0057440D01*
X0019500Y0066160D02*
Y0057440D01*
X0019428Y0066160D02*
Y0065440D01*
X0019356Y0066160D02*
Y0065440D01*
X0020880Y0066084D02*
X0019280D01*
X0020880Y0066012D02*
X0019280D01*
X0020880Y0065940D02*
X0019280D01*
X0020880Y0065868D02*
X0019280D01*
X0020880Y0065796D02*
X0019280D01*
X0020880Y0065724D02*
X0019280D01*
X0020880Y0065652D02*
X0019280D01*
X0020880Y0065580D02*
X0019280D01*
X0020880Y0065508D02*
X0019280D01*
X0019760Y0065436D02*
X0019440D01*
X0019760Y0065364D02*
X0019440D01*
X0019760Y0065292D02*
X0019440D01*
X0019760Y0065220D02*
X0019440D01*
X0019760Y0065148D02*
X0019440D01*
X0019760Y0065076D02*
X0019440D01*
X0019760Y0065004D02*
X0019440D01*
X0019760Y0064932D02*
X0019440D01*
X0019760Y0064860D02*
X0019440D01*
X0019760Y0064788D02*
X0019440D01*
X0019760Y0064716D02*
X0019440D01*
X0019760Y0064644D02*
X0019440D01*
X0019760Y0064572D02*
X0019440D01*
X0019760Y0064500D02*
X0019440D01*
X0019760Y0064428D02*
X0019440D01*
X0019760Y0064356D02*
X0019440D01*
X0019760Y0064284D02*
X0019440D01*
X0019760Y0064212D02*
X0019440D01*
X0019760Y0064140D02*
X0019440D01*
X0019760Y0064068D02*
X0019440D01*
X0019760Y0063996D02*
X0019440D01*
X0019760Y0063924D02*
X0019440D01*
X0019760Y0063852D02*
X0019440D01*
X0019760Y0063780D02*
X0019440D01*
X0019760Y0063708D02*
X0019440D01*
X0019760Y0063636D02*
X0019440D01*
X0019760Y0063564D02*
X0019440D01*
X0019760Y0063492D02*
X0019440D01*
X0019760Y0063420D02*
X0019440D01*
X0019760Y0063348D02*
X0019440D01*
X0019760Y0063276D02*
X0019440D01*
X0019760Y0063204D02*
X0019440D01*
X0019760Y0063132D02*
X0019440D01*
X0019760Y0063060D02*
X0019440D01*
X0019760Y0062988D02*
X0019440D01*
X0019760Y0062916D02*
X0019440D01*
X0019760Y0062844D02*
X0019440D01*
X0019760Y0062772D02*
X0019440D01*
X0019760Y0062700D02*
X0019440D01*
X0019760Y0062628D02*
X0019440D01*
X0019760Y0062556D02*
X0019440D01*
X0019760Y0062484D02*
X0019440D01*
X0019760Y0062412D02*
X0019440D01*
X0019760Y0062340D02*
X0019440D01*
X0019760Y0062268D02*
X0019440D01*
X0019760Y0062196D02*
X0019440D01*
X0019760Y0062124D02*
X0019440D01*
X0019760Y0062052D02*
X0019440D01*
X0019760Y0061980D02*
X0019440D01*
X0019760Y0061908D02*
X0019440D01*
X0019788Y0066160D02*
Y0065440D01*
X0019760Y0061764D02*
X0019440D01*
X0019760Y0061692D02*
X0019440D01*
X0019760Y0061620D02*
X0019440D01*
X0019760Y0061548D02*
X0019440D01*
X0019760Y0061476D02*
X0019440D01*
X0019760Y0061404D02*
X0019440D01*
X0019760Y0061332D02*
X0019440D01*
X0019760Y0061260D02*
X0019440D01*
X0019760Y0061188D02*
X0019440D01*
X0019760Y0061116D02*
X0019440D01*
X0019760Y0061044D02*
X0019440D01*
X0019760Y0060972D02*
X0019440D01*
X0019760Y0060900D02*
X0019440D01*
X0019760Y0060828D02*
X0019440D01*
X0019760Y0060756D02*
X0019440D01*
X0019760Y0060684D02*
X0019440D01*
X0019760Y0060612D02*
X0019440D01*
X0019760Y0060540D02*
X0019440D01*
X0019760Y0060468D02*
X0019440D01*
X0019760Y0060396D02*
X0019440D01*
X0019760Y0060324D02*
X0019440D01*
X0019760Y0060252D02*
X0019440D01*
X0019760Y0060180D02*
X0019440D01*
X0019760Y0060108D02*
X0019440D01*
X0019760Y0060036D02*
X0019440D01*
X0019760Y0059964D02*
X0019440D01*
X0019760Y0059892D02*
X0019440D01*
X0019760Y0059820D02*
X0019440D01*
X0019760Y0059748D02*
X0019440D01*
X0019760Y0059676D02*
X0019440D01*
X0019760Y0059604D02*
X0019440D01*
X0019760Y0059532D02*
X0019440D01*
X0019760Y0059460D02*
X0019440D01*
X0019760Y0059388D02*
X0019440D01*
X0019760Y0059316D02*
X0019440D01*
X0019760Y0059244D02*
X0019440D01*
X0019760Y0059172D02*
X0019440D01*
X0019760Y0059100D02*
X0019440D01*
X0019760Y0059028D02*
X0019440D01*
X0019760Y0058956D02*
X0019440D01*
X0019760Y0058884D02*
X0019440D01*
X0019760Y0058812D02*
X0019440D01*
X0019760Y0058740D02*
X0019440D01*
X0019760Y0058668D02*
X0019440D01*
X0019760Y0058596D02*
X0019440D01*
X0019760Y0058524D02*
X0019440D01*
X0019760Y0058452D02*
X0019440D01*
X0019760Y0058380D02*
X0019440D01*
X0019760Y0058308D02*
X0019440D01*
X0019760Y0058236D02*
X0019440D01*
X0019760Y0058164D02*
X0019440D01*
X0019760Y0058092D02*
X0019440D01*
X0019760Y0058020D02*
X0019440D01*
X0019760Y0057948D02*
X0019440D01*
X0019760Y0057876D02*
X0019440D01*
X0019760Y0057804D02*
X0019440D01*
X0020240Y0057732D02*
X0019440D01*
X0020240Y0057660D02*
X0019440D01*
X0020240Y0057588D02*
X0019440D01*
X0020240Y0057516D02*
X0019440D01*
X0020220Y0066160D02*
Y0065440D01*
X0020148Y0066160D02*
Y0065440D01*
X0020076Y0066160D02*
Y0065440D01*
X0020004Y0066160D02*
Y0065440D01*
X0019932Y0066160D02*
Y0065440D01*
X0019860Y0066160D02*
Y0065440D01*
X0020880D02*
X0020000D01*
X0020880Y0066160D02*
Y0065440D01*
Y0066160D02*
X0019280D01*
Y0065440D01*
X0019440D02*
X0019280D01*
X0019440D02*
Y0057440D01*
X0020240D02*
X0019440D01*
X0020240Y0057760D02*
Y0057440D01*
Y0057760D02*
X0019760D01*
Y0065440D02*
Y0057760D01*
X0020000Y0065440D02*
X0019760D01*
Y0061836D02*
X0019440D01*
X0020868Y0066160D02*
Y0065440D01*
X0020796Y0066160D02*
Y0065440D01*
X0020724Y0066160D02*
Y0065440D01*
X0020652Y0066160D02*
Y0065440D01*
X0020580Y0066160D02*
Y0065440D01*
X0020508Y0066160D02*
Y0065440D01*
X0020436Y0066160D02*
Y0065440D01*
X0020364Y0066160D02*
Y0065440D01*
X0020292Y0066160D02*
Y0065440D01*
X0020220Y0057760D02*
Y0057440D01*
X0020148Y0057760D02*
Y0057440D01*
X0020076Y0057760D02*
Y0057440D01*
X0020004Y0057760D02*
Y0057440D01*
X0019932Y0057760D02*
Y0057440D01*
X0019860Y0057760D02*
Y0057440D01*
X0031948Y0050772D02*
Y0050132D01*
X0031876Y0050844D02*
Y0050204D01*
X0031804Y0050916D02*
Y0050276D01*
X0031732Y0050988D02*
Y0050348D01*
X0031660Y0051060D02*
Y0050420D01*
X0031588Y0051132D02*
Y0050492D01*
X0031516Y0051204D02*
Y0050564D01*
X0031444Y0051276D02*
Y0050636D01*
X0031372Y0051348D02*
Y0050708D01*
X0031300Y0066400D02*
Y0050780D01*
X0031228Y0066400D02*
Y0050852D01*
X0031156Y0066400D02*
Y0050924D01*
X0031084Y0066400D02*
Y0050996D01*
X0031012Y0066400D02*
Y0051068D01*
Y0044772D02*
Y0043972D01*
X0030940Y0066400D02*
Y0051140D01*
Y0044700D02*
Y0043900D01*
X0030868Y0066400D02*
Y0065440D01*
Y0044628D02*
Y0043828D01*
X0030796Y0066400D02*
Y0065440D01*
Y0044556D02*
Y0043756D01*
X0030724Y0066400D02*
Y0065440D01*
Y0044484D02*
Y0043684D01*
X0030652Y0066400D02*
Y0065440D01*
Y0044412D02*
Y0043612D01*
X0030580Y0066400D02*
Y0065440D01*
X0030508Y0066400D02*
Y0065440D01*
X0030436Y0066400D02*
Y0065440D01*
X0030364Y0066400D02*
Y0065440D01*
X0030292Y0066400D02*
Y0065440D01*
X0030220Y0066400D02*
Y0065440D01*
X0030148Y0066400D02*
Y0065440D01*
X0030076Y0066400D02*
Y0065440D01*
X0030004Y0066400D02*
Y0065440D01*
X0029932Y0066400D02*
Y0065440D01*
X0029860Y0066400D02*
Y0065440D01*
X0029788Y0066400D02*
Y0065440D01*
X0029716Y0066400D02*
Y0065440D01*
X0029644Y0066400D02*
Y0065440D01*
X0029572Y0066400D02*
Y0065440D01*
X0029500Y0066400D02*
Y0065440D01*
X0029280Y0066400D02*
Y0065440D01*
X0030880D02*
X0029280D01*
X0030880D02*
Y0051200D01*
X0032000Y0050080D01*
Y0045760D01*
X0029840Y0043600D01*
X0029360D01*
Y0042800D01*
X0031040D02*
X0029360D01*
X0031040Y0043600D02*
Y0042800D01*
Y0043600D02*
X0030640D01*
X0032480Y0045440D02*
X0030640Y0043600D01*
X0032480Y0050240D02*
Y0045440D01*
X0031360Y0051360D02*
X0032480Y0050240D01*
X0031360Y0066400D02*
Y0051360D01*
Y0066400D02*
X0029280D01*
X0031360Y0054612D02*
X0030880D01*
X0032452Y0050268D02*
Y0045412D01*
X0032380Y0050340D02*
Y0045340D01*
X0032308Y0050412D02*
Y0045268D01*
X0032236Y0050484D02*
Y0045196D01*
X0032164Y0050556D02*
Y0045124D01*
X0032092Y0050628D02*
Y0045052D01*
X0032020Y0050700D02*
Y0044980D01*
X0031948Y0045708D02*
Y0044908D01*
X0031876Y0045636D02*
Y0044836D01*
X0031804Y0045564D02*
Y0044764D01*
X0031732Y0045492D02*
Y0044692D01*
X0031660Y0045420D02*
Y0044620D01*
X0031588Y0045348D02*
Y0044548D01*
X0031516Y0045276D02*
Y0044476D01*
X0031444Y0045204D02*
Y0044404D01*
X0031372Y0045132D02*
Y0044332D01*
X0031300Y0045060D02*
Y0044260D01*
X0031228Y0044988D02*
Y0044188D01*
X0031156Y0044916D02*
Y0044116D01*
X0031084Y0044844D02*
Y0044044D01*
X0031012Y0043600D02*
Y0042800D01*
X0032480Y0048708D02*
X0032000D01*
X0030868Y0043600D02*
Y0042800D01*
X0030796Y0043600D02*
Y0042800D01*
X0030724Y0043600D02*
Y0042800D01*
X0030652Y0043600D02*
Y0042800D01*
X0030580Y0044340D02*
Y0042800D01*
X0030508Y0044268D02*
Y0042800D01*
X0030436Y0044196D02*
Y0042800D01*
X0030364Y0044124D02*
Y0042800D01*
X0030292Y0044052D02*
Y0042800D01*
X0030220Y0043980D02*
Y0042800D01*
X0030148Y0043908D02*
Y0042800D01*
X0030076Y0043836D02*
Y0042800D01*
X0030004Y0043764D02*
Y0042800D01*
X0029932Y0043692D02*
Y0042800D01*
X0029860Y0043620D02*
Y0042800D01*
X0029788Y0043600D02*
Y0042800D01*
X0029716Y0043600D02*
Y0042800D01*
X0029644Y0043600D02*
Y0042800D01*
X0029572Y0043600D02*
Y0042800D01*
X0029500Y0043600D02*
Y0042800D01*
X0029428Y0043600D02*
Y0042800D01*
X0029356Y0066400D02*
Y0065440D01*
X0031360Y0066348D02*
X0029280D01*
X0031360Y0066276D02*
X0029280D01*
X0031360Y0066204D02*
X0029280D01*
X0031360Y0066132D02*
X0029280D01*
X0031360Y0066060D02*
X0029280D01*
X0031360Y0065988D02*
X0029280D01*
X0031360Y0065916D02*
X0029280D01*
X0031360Y0065844D02*
X0029280D01*
X0031360Y0065772D02*
X0029280D01*
X0031360Y0065700D02*
X0029280D01*
X0031360Y0065628D02*
X0029280D01*
X0031360Y0065556D02*
X0029280D01*
X0031360Y0065484D02*
X0029280D01*
X0031360Y0065412D02*
X0030880D01*
X0031360Y0065340D02*
X0030880D01*
X0031360Y0065268D02*
X0030880D01*
X0031360Y0065196D02*
X0030880D01*
X0031360Y0065124D02*
X0030880D01*
X0031360Y0065052D02*
X0030880D01*
X0031360Y0064980D02*
X0030880D01*
X0031360Y0064908D02*
X0030880D01*
X0031360Y0064836D02*
X0030880D01*
X0031360Y0064764D02*
X0030880D01*
X0031360Y0064692D02*
X0030880D01*
X0031360Y0064620D02*
X0030880D01*
X0031360Y0064548D02*
X0030880D01*
X0031360Y0064476D02*
X0030880D01*
X0031360Y0064404D02*
X0030880D01*
X0031360Y0064332D02*
X0030880D01*
X0031360Y0064260D02*
X0030880D01*
X0031360Y0064188D02*
X0030880D01*
X0031360Y0064116D02*
X0030880D01*
X0031360Y0064044D02*
X0030880D01*
X0031360Y0063972D02*
X0030880D01*
X0031360Y0063900D02*
X0030880D01*
X0031360Y0063828D02*
X0030880D01*
X0031360Y0063756D02*
X0030880D01*
X0031360Y0063684D02*
X0030880D01*
X0031360Y0063612D02*
X0030880D01*
X0031360Y0063540D02*
X0030880D01*
X0031360Y0063468D02*
X0030880D01*
X0031360Y0063396D02*
X0030880D01*
X0031360Y0063324D02*
X0030880D01*
X0031360Y0063252D02*
X0030880D01*
X0031360Y0063180D02*
X0030880D01*
X0031360Y0063108D02*
X0030880D01*
X0031360Y0063036D02*
X0030880D01*
X0031360Y0062964D02*
X0030880D01*
X0031360Y0062892D02*
X0030880D01*
X0031360Y0062820D02*
X0030880D01*
X0031360Y0062748D02*
X0030880D01*
X0031360Y0062676D02*
X0030880D01*
X0031360Y0062604D02*
X0030880D01*
X0031360Y0062532D02*
X0030880D01*
X0031360Y0062460D02*
X0030880D01*
X0031360Y0062388D02*
X0030880D01*
X0031360Y0062316D02*
X0030880D01*
X0031360Y0062244D02*
X0030880D01*
X0031360Y0062172D02*
X0030880D01*
X0031360Y0062100D02*
X0030880D01*
X0031360Y0062028D02*
X0030880D01*
X0031360Y0061956D02*
X0030880D01*
X0031360Y0061884D02*
X0030880D01*
X0031360Y0061812D02*
X0030880D01*
X0031360Y0061740D02*
X0030880D01*
X0031360Y0061668D02*
X0030880D01*
X0031360Y0061596D02*
X0030880D01*
X0031360Y0061524D02*
X0030880D01*
X0031360Y0061452D02*
X0030880D01*
X0031360Y0061380D02*
X0030880D01*
X0031360Y0061308D02*
X0030880D01*
X0031360Y0061236D02*
X0030880D01*
X0031360Y0061164D02*
X0030880D01*
X0031360Y0061092D02*
X0030880D01*
X0031360Y0061020D02*
X0030880D01*
X0031360Y0060948D02*
X0030880D01*
X0031360Y0060876D02*
X0030880D01*
X0031360Y0060804D02*
X0030880D01*
X0031360Y0060732D02*
X0030880D01*
X0031360Y0060660D02*
X0030880D01*
X0031360Y0060588D02*
X0030880D01*
X0031360Y0060516D02*
X0030880D01*
X0031360Y0060444D02*
X0030880D01*
X0031360Y0060372D02*
X0030880D01*
X0031360Y0060300D02*
X0030880D01*
X0031360Y0060228D02*
X0030880D01*
X0031360Y0060156D02*
X0030880D01*
X0031360Y0060084D02*
X0030880D01*
X0031360Y0060012D02*
X0030880D01*
X0031360Y0059940D02*
X0030880D01*
X0031360Y0059868D02*
X0030880D01*
X0031360Y0059796D02*
X0030880D01*
X0031360Y0059724D02*
X0030880D01*
X0031360Y0059652D02*
X0030880D01*
X0031360Y0059580D02*
X0030880D01*
X0031360Y0059508D02*
X0030880D01*
X0031360Y0059436D02*
X0030880D01*
X0031360Y0059364D02*
X0030880D01*
X0031360Y0059292D02*
X0030880D01*
X0031360Y0059220D02*
X0030880D01*
X0031360Y0059148D02*
X0030880D01*
X0031360Y0059076D02*
X0030880D01*
X0031360Y0059004D02*
X0030880D01*
X0031360Y0058932D02*
X0030880D01*
X0031360Y0058860D02*
X0030880D01*
X0031360Y0058788D02*
X0030880D01*
X0031360Y0058716D02*
X0030880D01*
X0031360Y0058644D02*
X0030880D01*
X0031360Y0058572D02*
X0030880D01*
X0031360Y0058500D02*
X0030880D01*
X0031360Y0058428D02*
X0030880D01*
X0031360Y0058356D02*
X0030880D01*
X0031360Y0058284D02*
X0030880D01*
X0031360Y0058212D02*
X0030880D01*
X0031360Y0058140D02*
X0030880D01*
X0031360Y0058068D02*
X0030880D01*
X0031360Y0057996D02*
X0030880D01*
X0031360Y0057924D02*
X0030880D01*
X0031360Y0057852D02*
X0030880D01*
X0031360Y0057780D02*
X0030880D01*
X0031360Y0057708D02*
X0030880D01*
X0031360Y0057636D02*
X0030880D01*
X0031360Y0057564D02*
X0030880D01*
X0031360Y0057492D02*
X0030880D01*
X0031360Y0057420D02*
X0030880D01*
X0031360Y0057348D02*
X0030880D01*
X0031360Y0057276D02*
X0030880D01*
X0031360Y0057204D02*
X0030880D01*
X0031360Y0057132D02*
X0030880D01*
X0031360Y0057060D02*
X0030880D01*
X0031360Y0056988D02*
X0030880D01*
X0031360Y0056916D02*
X0030880D01*
X0031360Y0056844D02*
X0030880D01*
X0031360Y0056772D02*
X0030880D01*
X0031360Y0056700D02*
X0030880D01*
X0031360Y0056628D02*
X0030880D01*
X0031360Y0056556D02*
X0030880D01*
X0031360Y0056484D02*
X0030880D01*
X0031360Y0056412D02*
X0030880D01*
X0031360Y0056340D02*
X0030880D01*
X0031360Y0056268D02*
X0030880D01*
X0031360Y0056196D02*
X0030880D01*
X0031360Y0056124D02*
X0030880D01*
X0031360Y0056052D02*
X0030880D01*
X0031360Y0055980D02*
X0030880D01*
X0031360Y0055908D02*
X0030880D01*
X0031360Y0055836D02*
X0030880D01*
X0031360Y0055764D02*
X0030880D01*
X0031360Y0055692D02*
X0030880D01*
X0031360Y0055620D02*
X0030880D01*
X0031360Y0055548D02*
X0030880D01*
X0031360Y0055476D02*
X0030880D01*
X0031360Y0055404D02*
X0030880D01*
X0031360Y0055332D02*
X0030880D01*
X0031360Y0055260D02*
X0030880D01*
X0031360Y0055188D02*
X0030880D01*
X0031360Y0055116D02*
X0030880D01*
X0031360Y0055044D02*
X0030880D01*
X0031360Y0054972D02*
X0030880D01*
X0031360Y0054900D02*
X0030880D01*
X0031360Y0054828D02*
X0030880D01*
X0031360Y0054756D02*
X0030880D01*
X0031360Y0054684D02*
X0030880D01*
X0030940Y0043600D02*
Y0042800D01*
X0031360Y0054540D02*
X0030880D01*
X0031360Y0054468D02*
X0030880D01*
X0031360Y0054396D02*
X0030880D01*
X0031360Y0054324D02*
X0030880D01*
X0031360Y0054252D02*
X0030880D01*
X0031360Y0054180D02*
X0030880D01*
X0031360Y0054108D02*
X0030880D01*
X0031360Y0054036D02*
X0030880D01*
X0031360Y0053964D02*
X0030880D01*
X0031360Y0053892D02*
X0030880D01*
X0031360Y0053820D02*
X0030880D01*
X0031360Y0053748D02*
X0030880D01*
X0031360Y0053676D02*
X0030880D01*
X0031360Y0053604D02*
X0030880D01*
X0031360Y0053532D02*
X0030880D01*
X0031360Y0053460D02*
X0030880D01*
X0031360Y0053388D02*
X0030880D01*
X0031360Y0053316D02*
X0030880D01*
X0031360Y0053244D02*
X0030880D01*
X0031360Y0053172D02*
X0030880D01*
X0031360Y0053100D02*
X0030880D01*
X0031360Y0053028D02*
X0030880D01*
X0031360Y0052956D02*
X0030880D01*
X0031360Y0052884D02*
X0030880D01*
X0031360Y0052812D02*
X0030880D01*
X0031360Y0052740D02*
X0030880D01*
X0031360Y0052668D02*
X0030880D01*
X0031360Y0052596D02*
X0030880D01*
X0031360Y0052524D02*
X0030880D01*
X0031360Y0052452D02*
X0030880D01*
X0031360Y0052380D02*
X0030880D01*
X0031360Y0052308D02*
X0030880D01*
X0031360Y0052236D02*
X0030880D01*
X0031360Y0052164D02*
X0030880D01*
X0031360Y0052092D02*
X0030880D01*
X0031360Y0052020D02*
X0030880D01*
X0031360Y0051948D02*
X0030880D01*
X0031360Y0051876D02*
X0030880D01*
X0031360Y0051804D02*
X0030880D01*
X0031360Y0051732D02*
X0030880D01*
X0031360Y0051660D02*
X0030880D01*
X0031360Y0051588D02*
X0030880D01*
X0031360Y0051516D02*
X0030880D01*
X0031360Y0051444D02*
X0030880D01*
X0031360Y0051372D02*
X0030880D01*
X0031420Y0051300D02*
X0030880D01*
X0031492Y0051228D02*
X0030880D01*
X0031564Y0051156D02*
X0030924D01*
X0031636Y0051084D02*
X0030996D01*
X0031708Y0051012D02*
X0031068D01*
X0031780Y0050940D02*
X0031140D01*
X0031852Y0050868D02*
X0031212D01*
X0031924Y0050796D02*
X0031284D01*
X0031996Y0050724D02*
X0031356D01*
X0032068Y0050652D02*
X0031428D01*
X0032140Y0050580D02*
X0031500D01*
X0032212Y0050508D02*
X0031572D01*
X0032284Y0050436D02*
X0031644D01*
X0032356Y0050364D02*
X0031716D01*
X0032428Y0050292D02*
X0031788D01*
X0032480Y0050220D02*
X0031860D01*
X0032480Y0050148D02*
X0031932D01*
X0032480Y0050076D02*
X0032000D01*
X0032480Y0050004D02*
X0032000D01*
X0032480Y0049932D02*
X0032000D01*
X0032480Y0049860D02*
X0032000D01*
X0032480Y0049788D02*
X0032000D01*
X0032480Y0049716D02*
X0032000D01*
X0032480Y0049644D02*
X0032000D01*
X0032480Y0049572D02*
X0032000D01*
X0032480Y0049500D02*
X0032000D01*
X0032480Y0049428D02*
X0032000D01*
X0032480Y0049356D02*
X0032000D01*
X0032480Y0049284D02*
X0032000D01*
X0032480Y0049212D02*
X0032000D01*
X0032480Y0049140D02*
X0032000D01*
X0032480Y0049068D02*
X0032000D01*
X0032480Y0048996D02*
X0032000D01*
X0032480Y0048924D02*
X0032000D01*
X0032480Y0048852D02*
X0032000D01*
X0032480Y0048780D02*
X0032000D01*
X0029428Y0066400D02*
Y0065440D01*
X0032480Y0048636D02*
X0032000D01*
X0032480Y0048564D02*
X0032000D01*
X0032480Y0048492D02*
X0032000D01*
X0032480Y0048420D02*
X0032000D01*
X0032480Y0048348D02*
X0032000D01*
X0032480Y0048276D02*
X0032000D01*
X0032480Y0048204D02*
X0032000D01*
X0032480Y0048132D02*
X0032000D01*
X0032480Y0048060D02*
X0032000D01*
X0032480Y0047988D02*
X0032000D01*
X0032480Y0047916D02*
X0032000D01*
X0032480Y0047844D02*
X0032000D01*
X0032480Y0047772D02*
X0032000D01*
X0032480Y0047700D02*
X0032000D01*
X0032480Y0047628D02*
X0032000D01*
X0032480Y0047556D02*
X0032000D01*
X0032480Y0047484D02*
X0032000D01*
X0032480Y0047412D02*
X0032000D01*
X0032480Y0047340D02*
X0032000D01*
X0032480Y0047268D02*
X0032000D01*
X0032480Y0047196D02*
X0032000D01*
X0032480Y0047124D02*
X0032000D01*
X0032480Y0047052D02*
X0032000D01*
X0032480Y0046980D02*
X0032000D01*
X0032480Y0046908D02*
X0032000D01*
X0032480Y0046836D02*
X0032000D01*
X0032480Y0046764D02*
X0032000D01*
X0032480Y0046692D02*
X0032000D01*
X0032480Y0046620D02*
X0032000D01*
X0032480Y0046548D02*
X0032000D01*
X0032480Y0046476D02*
X0032000D01*
X0032480Y0046404D02*
X0032000D01*
X0032480Y0046332D02*
X0032000D01*
X0032480Y0046260D02*
X0032000D01*
X0032480Y0046188D02*
X0032000D01*
X0032480Y0046116D02*
X0032000D01*
X0032480Y0046044D02*
X0032000D01*
X0032480Y0045972D02*
X0032000D01*
X0032480Y0045900D02*
X0032000D01*
X0032480Y0045828D02*
X0032000D01*
X0032480Y0045756D02*
X0031996D01*
X0032480Y0045684D02*
X0031924D01*
X0032480Y0045612D02*
X0031852D01*
X0032480Y0045540D02*
X0031780D01*
X0032480Y0045468D02*
X0031708D01*
X0032436Y0045396D02*
X0031636D01*
X0032364Y0045324D02*
X0031564D01*
X0032292Y0045252D02*
X0031492D01*
X0032220Y0045180D02*
X0031420D01*
X0032148Y0045108D02*
X0031348D01*
X0032076Y0045036D02*
X0031276D01*
X0032004Y0044964D02*
X0031204D01*
X0031932Y0044892D02*
X0031132D01*
X0031860Y0044820D02*
X0031060D01*
X0031788Y0044748D02*
X0030988D01*
X0031716Y0044676D02*
X0030916D01*
X0031644Y0044604D02*
X0030844D01*
X0031572Y0044532D02*
X0030772D01*
X0031500Y0044460D02*
X0030700D01*
X0031428Y0044388D02*
X0030628D01*
X0031356Y0044316D02*
X0030556D01*
X0031284Y0044244D02*
X0030484D01*
X0031212Y0044172D02*
X0030412D01*
X0031140Y0044100D02*
X0030340D01*
X0031068Y0044028D02*
X0030268D01*
X0030996Y0043956D02*
X0030196D01*
X0030924Y0043884D02*
X0030124D01*
X0030852Y0043812D02*
X0030052D01*
X0030780Y0043740D02*
X0029980D01*
X0030708Y0043668D02*
X0029908D01*
X0031040Y0043596D02*
X0029360D01*
X0031040Y0043524D02*
X0029360D01*
X0031040Y0043452D02*
X0029360D01*
X0031040Y0043380D02*
X0029360D01*
X0031040Y0043308D02*
X0029360D01*
X0031040Y0043236D02*
X0029360D01*
X0031040Y0043164D02*
X0029360D01*
X0031040Y0043092D02*
X0029360D01*
X0031040Y0043020D02*
X0029360D01*
X0031040Y0042948D02*
X0029360D01*
X0031040Y0042876D02*
X0029360D01*
X0034260Y0066400D02*
Y0065440D01*
X0034188Y0066400D02*
Y0065440D01*
X0034116Y0066400D02*
Y0065440D01*
X0034044Y0066400D02*
Y0065440D01*
X0033972Y0066400D02*
Y0065440D01*
X0033900Y0066400D02*
Y0065440D01*
X0033828Y0066400D02*
Y0065440D01*
X0033756Y0066400D02*
Y0065440D01*
X0033684Y0066400D02*
Y0065440D01*
X0033612Y0066400D02*
Y0065440D01*
X0033540Y0066400D02*
Y0065440D01*
X0033468Y0066400D02*
Y0065440D01*
X0033396Y0066400D02*
Y0065440D01*
X0033324Y0066400D02*
Y0065440D01*
X0033252Y0066400D02*
Y0065440D01*
X0033180Y0066400D02*
Y0065440D01*
Y0051300D02*
Y0050740D01*
X0033108Y0066400D02*
Y0065440D01*
Y0051372D02*
Y0050812D01*
X0033036Y0066400D02*
Y0065440D01*
Y0051444D02*
Y0050884D01*
X0032964Y0066400D02*
Y0065440D01*
Y0051516D02*
Y0050956D01*
X0032892Y0066400D02*
Y0065440D01*
Y0051588D02*
Y0051028D01*
X0032820Y0066400D02*
Y0065440D01*
Y0051660D02*
Y0051100D01*
X0032748Y0066400D02*
Y0065440D01*
Y0051732D02*
Y0051172D01*
X0032676Y0066400D02*
Y0051244D01*
X0032604Y0066400D02*
Y0051316D01*
X0032532Y0066400D02*
Y0051388D01*
X0032460Y0066400D02*
Y0051460D01*
X0034320Y0066400D02*
X0032240D01*
X0034320D02*
Y0065440D01*
X0032720D01*
Y0051760D01*
X0033680Y0050800D01*
Y0043600D01*
X0034400D02*
X0033680D01*
X0034400D02*
Y0042800D01*
X0032320D01*
Y0043600D02*
Y0042800D01*
X0033200Y0043600D02*
X0032320D01*
X0033200Y0050720D02*
Y0043600D01*
X0032240Y0051680D02*
X0033200Y0050720D01*
X0032240Y0066400D02*
Y0051680D01*
X0032720Y0054612D02*
X0032240D01*
X0034332Y0043600D02*
Y0042800D01*
X0034260Y0043600D02*
Y0042800D01*
X0034188Y0043600D02*
Y0042800D01*
X0034116Y0043600D02*
Y0042800D01*
X0034044Y0043600D02*
Y0042800D01*
X0033972Y0043600D02*
Y0042800D01*
X0033900Y0043600D02*
Y0042800D01*
X0033828Y0043600D02*
Y0042800D01*
X0033756Y0043600D02*
Y0042800D01*
X0033684Y0043600D02*
Y0042800D01*
X0033612Y0050868D02*
Y0042800D01*
X0033540Y0050940D02*
Y0042800D01*
X0033468Y0051012D02*
Y0042800D01*
X0033396Y0051084D02*
Y0042800D01*
X0033680Y0048708D02*
X0033200D01*
X0033252Y0051228D02*
Y0042800D01*
X0033180Y0043600D02*
Y0042800D01*
X0033108Y0043600D02*
Y0042800D01*
X0033036Y0043600D02*
Y0042800D01*
X0032964Y0043600D02*
Y0042800D01*
X0032892Y0043600D02*
Y0042800D01*
X0032820Y0043600D02*
Y0042800D01*
X0032748Y0043600D02*
Y0042800D01*
X0032676Y0043600D02*
Y0042800D01*
X0032604Y0043600D02*
Y0042800D01*
X0032532Y0043600D02*
Y0042800D01*
X0032460Y0043600D02*
Y0042800D01*
X0032388Y0043600D02*
Y0042800D01*
X0032316Y0066400D02*
Y0051604D01*
X0034320Y0066348D02*
X0032240D01*
X0034320Y0066276D02*
X0032240D01*
X0034320Y0066204D02*
X0032240D01*
X0034320Y0066132D02*
X0032240D01*
X0034320Y0066060D02*
X0032240D01*
X0034320Y0065988D02*
X0032240D01*
X0034320Y0065916D02*
X0032240D01*
X0034320Y0065844D02*
X0032240D01*
X0034320Y0065772D02*
X0032240D01*
X0034320Y0065700D02*
X0032240D01*
X0034320Y0065628D02*
X0032240D01*
X0034320Y0065556D02*
X0032240D01*
X0034320Y0065484D02*
X0032240D01*
X0032720Y0065412D02*
X0032240D01*
X0032720Y0065340D02*
X0032240D01*
X0032720Y0065268D02*
X0032240D01*
X0032720Y0065196D02*
X0032240D01*
X0032720Y0065124D02*
X0032240D01*
X0032720Y0065052D02*
X0032240D01*
X0032720Y0064980D02*
X0032240D01*
X0032720Y0064908D02*
X0032240D01*
X0032720Y0064836D02*
X0032240D01*
X0032720Y0064764D02*
X0032240D01*
X0032720Y0064692D02*
X0032240D01*
X0032720Y0064620D02*
X0032240D01*
X0032720Y0064548D02*
X0032240D01*
X0032720Y0064476D02*
X0032240D01*
X0032720Y0064404D02*
X0032240D01*
X0032720Y0064332D02*
X0032240D01*
X0032720Y0064260D02*
X0032240D01*
X0032720Y0064188D02*
X0032240D01*
X0032720Y0064116D02*
X0032240D01*
X0032720Y0064044D02*
X0032240D01*
X0032720Y0063972D02*
X0032240D01*
X0032720Y0063900D02*
X0032240D01*
X0032720Y0063828D02*
X0032240D01*
X0032720Y0063756D02*
X0032240D01*
X0032720Y0063684D02*
X0032240D01*
X0032720Y0063612D02*
X0032240D01*
X0032720Y0063540D02*
X0032240D01*
X0032720Y0063468D02*
X0032240D01*
X0032720Y0063396D02*
X0032240D01*
X0032720Y0063324D02*
X0032240D01*
X0032720Y0063252D02*
X0032240D01*
X0032720Y0063180D02*
X0032240D01*
X0032720Y0063108D02*
X0032240D01*
X0032720Y0063036D02*
X0032240D01*
X0032720Y0062964D02*
X0032240D01*
X0032720Y0062892D02*
X0032240D01*
X0032720Y0062820D02*
X0032240D01*
X0032720Y0062748D02*
X0032240D01*
X0032720Y0062676D02*
X0032240D01*
X0032720Y0062604D02*
X0032240D01*
X0032720Y0062532D02*
X0032240D01*
X0032720Y0062460D02*
X0032240D01*
X0032720Y0062388D02*
X0032240D01*
X0032720Y0062316D02*
X0032240D01*
X0032720Y0062244D02*
X0032240D01*
X0032720Y0062172D02*
X0032240D01*
X0032720Y0062100D02*
X0032240D01*
X0032720Y0062028D02*
X0032240D01*
X0032720Y0061956D02*
X0032240D01*
X0032720Y0061884D02*
X0032240D01*
X0032720Y0061812D02*
X0032240D01*
X0032720Y0061740D02*
X0032240D01*
X0032720Y0061668D02*
X0032240D01*
X0032720Y0061596D02*
X0032240D01*
X0032720Y0061524D02*
X0032240D01*
X0032720Y0061452D02*
X0032240D01*
X0032720Y0061380D02*
X0032240D01*
X0032720Y0061308D02*
X0032240D01*
X0032720Y0061236D02*
X0032240D01*
X0032720Y0061164D02*
X0032240D01*
X0032720Y0061092D02*
X0032240D01*
X0032720Y0061020D02*
X0032240D01*
X0032720Y0060948D02*
X0032240D01*
X0032720Y0060876D02*
X0032240D01*
X0032720Y0060804D02*
X0032240D01*
X0032720Y0060732D02*
X0032240D01*
X0032720Y0060660D02*
X0032240D01*
X0032720Y0060588D02*
X0032240D01*
X0032720Y0060516D02*
X0032240D01*
X0032720Y0060444D02*
X0032240D01*
X0032720Y0060372D02*
X0032240D01*
X0032720Y0060300D02*
X0032240D01*
X0032720Y0060228D02*
X0032240D01*
X0032720Y0060156D02*
X0032240D01*
X0032720Y0060084D02*
X0032240D01*
X0032720Y0060012D02*
X0032240D01*
X0032720Y0059940D02*
X0032240D01*
X0032720Y0059868D02*
X0032240D01*
X0032720Y0059796D02*
X0032240D01*
X0032720Y0059724D02*
X0032240D01*
X0032720Y0059652D02*
X0032240D01*
X0032720Y0059580D02*
X0032240D01*
X0032720Y0059508D02*
X0032240D01*
X0032720Y0059436D02*
X0032240D01*
X0032720Y0059364D02*
X0032240D01*
X0032720Y0059292D02*
X0032240D01*
X0032720Y0059220D02*
X0032240D01*
X0032720Y0059148D02*
X0032240D01*
X0032720Y0059076D02*
X0032240D01*
X0032720Y0059004D02*
X0032240D01*
X0032720Y0058932D02*
X0032240D01*
X0032720Y0058860D02*
X0032240D01*
X0032720Y0058788D02*
X0032240D01*
X0032720Y0058716D02*
X0032240D01*
X0032720Y0058644D02*
X0032240D01*
X0032720Y0058572D02*
X0032240D01*
X0032720Y0058500D02*
X0032240D01*
X0032720Y0058428D02*
X0032240D01*
X0032720Y0058356D02*
X0032240D01*
X0032720Y0058284D02*
X0032240D01*
X0032720Y0058212D02*
X0032240D01*
X0032720Y0058140D02*
X0032240D01*
X0032720Y0058068D02*
X0032240D01*
X0032720Y0057996D02*
X0032240D01*
X0032720Y0057924D02*
X0032240D01*
X0032720Y0057852D02*
X0032240D01*
X0032720Y0057780D02*
X0032240D01*
X0032720Y0057708D02*
X0032240D01*
X0032720Y0057636D02*
X0032240D01*
X0032720Y0057564D02*
X0032240D01*
X0032720Y0057492D02*
X0032240D01*
X0032720Y0057420D02*
X0032240D01*
X0032720Y0057348D02*
X0032240D01*
X0032720Y0057276D02*
X0032240D01*
X0032720Y0057204D02*
X0032240D01*
X0032720Y0057132D02*
X0032240D01*
X0032720Y0057060D02*
X0032240D01*
X0032720Y0056988D02*
X0032240D01*
X0032720Y0056916D02*
X0032240D01*
X0032720Y0056844D02*
X0032240D01*
X0032720Y0056772D02*
X0032240D01*
X0032720Y0056700D02*
X0032240D01*
X0032720Y0056628D02*
X0032240D01*
X0032720Y0056556D02*
X0032240D01*
X0032720Y0056484D02*
X0032240D01*
X0032720Y0056412D02*
X0032240D01*
X0032720Y0056340D02*
X0032240D01*
X0032720Y0056268D02*
X0032240D01*
X0032720Y0056196D02*
X0032240D01*
X0032720Y0056124D02*
X0032240D01*
X0032720Y0056052D02*
X0032240D01*
X0032720Y0055980D02*
X0032240D01*
X0032720Y0055908D02*
X0032240D01*
X0032720Y0055836D02*
X0032240D01*
X0032720Y0055764D02*
X0032240D01*
X0032720Y0055692D02*
X0032240D01*
X0032720Y0055620D02*
X0032240D01*
X0032720Y0055548D02*
X0032240D01*
X0032720Y0055476D02*
X0032240D01*
X0032720Y0055404D02*
X0032240D01*
X0032720Y0055332D02*
X0032240D01*
X0032720Y0055260D02*
X0032240D01*
X0032720Y0055188D02*
X0032240D01*
X0032720Y0055116D02*
X0032240D01*
X0032720Y0055044D02*
X0032240D01*
X0032720Y0054972D02*
X0032240D01*
X0032720Y0054900D02*
X0032240D01*
X0032720Y0054828D02*
X0032240D01*
X0032720Y0054756D02*
X0032240D01*
X0032720Y0054684D02*
X0032240D01*
X0033324Y0051156D02*
Y0042800D01*
X0032720Y0054540D02*
X0032240D01*
X0032720Y0054468D02*
X0032240D01*
X0032720Y0054396D02*
X0032240D01*
X0032720Y0054324D02*
X0032240D01*
X0032720Y0054252D02*
X0032240D01*
X0032720Y0054180D02*
X0032240D01*
X0032720Y0054108D02*
X0032240D01*
X0032720Y0054036D02*
X0032240D01*
X0032720Y0053964D02*
X0032240D01*
X0032720Y0053892D02*
X0032240D01*
X0032720Y0053820D02*
X0032240D01*
X0032720Y0053748D02*
X0032240D01*
X0032720Y0053676D02*
X0032240D01*
X0032720Y0053604D02*
X0032240D01*
X0032720Y0053532D02*
X0032240D01*
X0032720Y0053460D02*
X0032240D01*
X0032720Y0053388D02*
X0032240D01*
X0032720Y0053316D02*
X0032240D01*
X0032720Y0053244D02*
X0032240D01*
X0032720Y0053172D02*
X0032240D01*
X0032720Y0053100D02*
X0032240D01*
X0032720Y0053028D02*
X0032240D01*
X0032720Y0052956D02*
X0032240D01*
X0032720Y0052884D02*
X0032240D01*
X0032720Y0052812D02*
X0032240D01*
X0032720Y0052740D02*
X0032240D01*
X0032720Y0052668D02*
X0032240D01*
X0032720Y0052596D02*
X0032240D01*
X0032720Y0052524D02*
X0032240D01*
X0032720Y0052452D02*
X0032240D01*
X0032720Y0052380D02*
X0032240D01*
X0032720Y0052308D02*
X0032240D01*
X0032720Y0052236D02*
X0032240D01*
X0032720Y0052164D02*
X0032240D01*
X0032720Y0052092D02*
X0032240D01*
X0032720Y0052020D02*
X0032240D01*
X0032720Y0051948D02*
X0032240D01*
X0032720Y0051876D02*
X0032240D01*
X0032720Y0051804D02*
X0032240D01*
X0032748Y0051732D02*
X0032240D01*
X0032820Y0051660D02*
X0032260D01*
X0032892Y0051588D02*
X0032332D01*
X0032964Y0051516D02*
X0032404D01*
X0033036Y0051444D02*
X0032476D01*
X0033108Y0051372D02*
X0032548D01*
X0033180Y0051300D02*
X0032620D01*
X0033252Y0051228D02*
X0032692D01*
X0033324Y0051156D02*
X0032764D01*
X0033396Y0051084D02*
X0032836D01*
X0033468Y0051012D02*
X0032908D01*
X0033540Y0050940D02*
X0032980D01*
X0033612Y0050868D02*
X0033052D01*
X0033680Y0050796D02*
X0033124D01*
X0033680Y0050724D02*
X0033196D01*
X0033680Y0050652D02*
X0033200D01*
X0033680Y0050580D02*
X0033200D01*
X0033680Y0050508D02*
X0033200D01*
X0033680Y0050436D02*
X0033200D01*
X0033680Y0050364D02*
X0033200D01*
X0033680Y0050292D02*
X0033200D01*
X0033680Y0050220D02*
X0033200D01*
X0033680Y0050148D02*
X0033200D01*
X0033680Y0050076D02*
X0033200D01*
X0033680Y0050004D02*
X0033200D01*
X0033680Y0049932D02*
X0033200D01*
X0033680Y0049860D02*
X0033200D01*
X0033680Y0049788D02*
X0033200D01*
X0033680Y0049716D02*
X0033200D01*
X0033680Y0049644D02*
X0033200D01*
X0033680Y0049572D02*
X0033200D01*
X0033680Y0049500D02*
X0033200D01*
X0033680Y0049428D02*
X0033200D01*
X0033680Y0049356D02*
X0033200D01*
X0033680Y0049284D02*
X0033200D01*
X0033680Y0049212D02*
X0033200D01*
X0033680Y0049140D02*
X0033200D01*
X0033680Y0049068D02*
X0033200D01*
X0033680Y0048996D02*
X0033200D01*
X0033680Y0048924D02*
X0033200D01*
X0033680Y0048852D02*
X0033200D01*
X0033680Y0048780D02*
X0033200D01*
X0032388Y0066400D02*
Y0051532D01*
X0033680Y0048636D02*
X0033200D01*
X0033680Y0048564D02*
X0033200D01*
X0033680Y0048492D02*
X0033200D01*
X0033680Y0048420D02*
X0033200D01*
X0033680Y0048348D02*
X0033200D01*
X0033680Y0048276D02*
X0033200D01*
X0033680Y0048204D02*
X0033200D01*
X0033680Y0048132D02*
X0033200D01*
X0033680Y0048060D02*
X0033200D01*
X0033680Y0047988D02*
X0033200D01*
X0033680Y0047916D02*
X0033200D01*
X0033680Y0047844D02*
X0033200D01*
X0033680Y0047772D02*
X0033200D01*
X0033680Y0047700D02*
X0033200D01*
X0033680Y0047628D02*
X0033200D01*
X0033680Y0047556D02*
X0033200D01*
X0033680Y0047484D02*
X0033200D01*
X0033680Y0047412D02*
X0033200D01*
X0033680Y0047340D02*
X0033200D01*
X0033680Y0047268D02*
X0033200D01*
X0033680Y0047196D02*
X0033200D01*
X0033680Y0047124D02*
X0033200D01*
X0033680Y0047052D02*
X0033200D01*
X0033680Y0046980D02*
X0033200D01*
X0033680Y0046908D02*
X0033200D01*
X0033680Y0046836D02*
X0033200D01*
X0033680Y0046764D02*
X0033200D01*
X0033680Y0046692D02*
X0033200D01*
X0033680Y0046620D02*
X0033200D01*
X0033680Y0046548D02*
X0033200D01*
X0033680Y0046476D02*
X0033200D01*
X0033680Y0046404D02*
X0033200D01*
X0033680Y0046332D02*
X0033200D01*
X0033680Y0046260D02*
X0033200D01*
X0033680Y0046188D02*
X0033200D01*
X0033680Y0046116D02*
X0033200D01*
X0033680Y0046044D02*
X0033200D01*
X0033680Y0045972D02*
X0033200D01*
X0033680Y0045900D02*
X0033200D01*
X0033680Y0045828D02*
X0033200D01*
X0033680Y0045756D02*
X0033200D01*
X0033680Y0045684D02*
X0033200D01*
X0033680Y0045612D02*
X0033200D01*
X0033680Y0045540D02*
X0033200D01*
X0033680Y0045468D02*
X0033200D01*
X0033680Y0045396D02*
X0033200D01*
X0033680Y0045324D02*
X0033200D01*
X0033680Y0045252D02*
X0033200D01*
X0033680Y0045180D02*
X0033200D01*
X0033680Y0045108D02*
X0033200D01*
X0033680Y0045036D02*
X0033200D01*
X0033680Y0044964D02*
X0033200D01*
X0033680Y0044892D02*
X0033200D01*
X0033680Y0044820D02*
X0033200D01*
X0033680Y0044748D02*
X0033200D01*
X0033680Y0044676D02*
X0033200D01*
X0033680Y0044604D02*
X0033200D01*
X0033680Y0044532D02*
X0033200D01*
X0033680Y0044460D02*
X0033200D01*
X0033680Y0044388D02*
X0033200D01*
X0033680Y0044316D02*
X0033200D01*
X0033680Y0044244D02*
X0033200D01*
X0033680Y0044172D02*
X0033200D01*
X0033680Y0044100D02*
X0033200D01*
X0033680Y0044028D02*
X0033200D01*
X0033680Y0043956D02*
X0033200D01*
X0033680Y0043884D02*
X0033200D01*
X0033680Y0043812D02*
X0033200D01*
X0033680Y0043740D02*
X0033200D01*
X0033680Y0043668D02*
X0033200D01*
X0034400Y0043596D02*
X0032320D01*
X0034400Y0043524D02*
X0032320D01*
X0034400Y0043452D02*
X0032320D01*
X0034400Y0043380D02*
X0032320D01*
X0034400Y0043308D02*
X0032320D01*
X0034400Y0043236D02*
X0032320D01*
X0034400Y0043164D02*
X0032320D01*
X0034400Y0043092D02*
X0032320D01*
X0034400Y0043020D02*
X0032320D01*
X0034400Y0042948D02*
X0032320D01*
X0034400Y0042876D02*
X0032320D01*
G54D10*
X0042880Y0067520D03*
X0044258D03*
X0039520D03*
X0040898D03*
X0036320D03*
X0037698D03*
X0032800D03*
X0034178D03*
X0029440D03*
X0030818D03*
X0026160D03*
X0027538D03*
X0022800D03*
X0024178D03*
X0019440D03*
X0020818D03*
X0032800Y0041360D03*
X0034178D03*
X0042800Y0041440D03*
X0044178D03*
X0039440D03*
X0040818D03*
X0036000Y0041360D03*
X0037378D03*
X0029520D03*
X0030898D03*
X0026160D03*
X0027538D03*
X0019440D03*
X0020818D03*
X0024178D03*
X0022800D03*
G54D12*
X0019600Y0048400D03*
Y0049700D03*
G54D13*
X0020880Y0054080D03*
Y0052820D03*
G54D15*
X0021840Y0060480D03*
Y0061270D03*
X0027360Y0057680D03*
Y0058470D03*
Y0061760D03*
Y0062550D03*
X0021840Y0055920D03*
Y0056710D03*
G54D17*
X0027360Y0056480D03*
Y0055640D03*
X0027280Y0059680D03*
Y0060520D03*
X0022480Y0054800D03*
Y0053960D03*
X0021840Y0058480D03*
Y0059320D03*
X0023760Y0054240D03*
Y0053400D03*
X0024720Y0054240D03*
Y0053400D03*
X0025680Y0054240D03*
Y0053400D03*
X0026720Y0054240D03*
Y0053400D03*
X0023600Y0050560D03*
Y0051400D03*
X0026320Y0057680D03*
Y0058520D03*
Y0061760D03*
Y0062600D03*
X0020800Y0055920D03*
Y0056760D03*
Y0060480D03*
Y0061320D03*
X0043840Y0049680D03*
Y0048840D03*
X0042960Y0049680D03*
Y0048840D03*
X0040240Y0049680D03*
Y0048840D03*
X0039360Y0049680D03*
Y0048840D03*
X0036000Y0049680D03*
Y0048840D03*
X0036880Y0049680D03*
Y0048840D03*
G54D20*
X0043000Y0055000D03*
Y0052000D03*
X0044000D03*
X0043000Y0060240D03*
Y0057240D03*
X0044000D03*
X0039000Y0060240D03*
Y0057240D03*
X0040000D03*
X0035000Y0055000D03*
Y0052000D03*
X0036000D03*
X0035000Y0060240D03*
Y0057240D03*
X0036000D03*
X0039000Y0055000D03*
Y0052000D03*
X0040000D03*
X0033680Y0057240D03*
X0041750Y0052000D03*
X0041680Y0057240D03*
X0037750Y0052000D03*
X0037680Y0057240D03*
X0033750Y0052000D03*
G54D21*
X0044000Y0055000D03*
Y0060240D03*
X0040000D03*
X0036000Y0055000D03*
Y0060240D03*
X0040000Y0055000D03*
X0033680Y0060240D03*
X0041750Y0055000D03*
X0041680Y0060240D03*
X0037750Y0055000D03*
X0037680Y0060240D03*
X0033750Y0055000D03*
G54D22*
X0021760Y0049800D03*
Y0050800D03*
X0029600Y0057640D03*
Y0058640D03*
Y0062680D03*
Y0063680D03*
X0023680Y0057640D03*
Y0058640D03*
Y0062680D03*
Y0063680D03*
G54D23*
X0021760Y0048800D03*
X0029600Y0056640D03*
Y0061680D03*
X0023680Y0056640D03*
Y0061680D03*
G54D25*
X0025690Y0046160D03*
X0026005D03*
X0026320D03*
X0026635D03*
X0026950D03*
X0027265D03*
X0027580D03*
X0027895D03*
X0028525D03*
X0028840D03*
Y0050690D03*
X0028525D03*
X0028210D03*
X0027895D03*
X0027580D03*
X0027265D03*
X0026635D03*
X0026320D03*
X0026005D03*
X0025690D03*
G54D26*
X0028210Y0046160D03*
X0026950Y0050690D03*
G54D27*
X0025000Y0049685D03*
Y0049370D03*
Y0049055D03*
Y0048740D03*
Y0048425D03*
Y0048110D03*
Y0047795D03*
Y0047480D03*
Y0046850D03*
X0029530D03*
Y0047165D03*
Y0047480D03*
Y0047795D03*
Y0048110D03*
Y0048425D03*
Y0048740D03*
Y0049370D03*
Y0049685D03*
Y0050000D03*
G54D28*
X0025000D03*
Y0047165D03*
X0029530Y0049055D03*
G54D41*
X0030960Y0049600D03*
Y0048760D03*
X0028080Y0052320D03*
Y0053160D03*
X0030960Y0046960D03*
Y0047800D03*
X0023520Y0048800D03*
Y0047960D03*
X0019600Y0054080D03*
Y0053240D03*
Y0046800D03*
Y0045960D03*
G54D42*
X0026960Y0044720D03*
X0027800D03*
G54D43*
X0039360Y0045800D03*
X0038360Y0046800D03*
Y0045800D03*
X0037360Y0046800D03*
Y0045800D03*
X0036360Y0046800D03*
Y0045800D03*
X0035360Y0046800D03*
Y0045800D03*
G54D44*
X0039360Y0046800D03*
G54D45*
X0043110Y0039370D03*
X0043897D03*
X0043110Y0043149D03*
X0043897D03*
X0039764Y0039370D03*
X0040551D03*
X0039764Y0043149D03*
X0040551D03*
X0036417Y0039370D03*
X0037205D03*
X0036417Y0043149D03*
X0037205D03*
X0033071Y0039370D03*
X0033858D03*
X0033071Y0043149D03*
X0033858D03*
X0029724Y0039370D03*
X0030512D03*
X0029724Y0043149D03*
X0030512D03*
X0026378Y0039370D03*
X0027165D03*
X0026378Y0043149D03*
X0027165D03*
X0023031Y0039370D03*
X0023819D03*
X0023031Y0043149D03*
X0023819D03*
X0019685Y0039370D03*
X0020472D03*
X0019685Y0043149D03*
X0020472D03*
X0019685Y0065827D03*
X0020472D03*
X0019685Y0069606D03*
X0020472D03*
X0043110Y0065827D03*
X0043897D03*
X0043110Y0069606D03*
X0043897D03*
X0039764Y0065827D03*
X0040551D03*
X0039764Y0069606D03*
X0040551D03*
X0036417Y0065827D03*
X0037205D03*
X0036417Y0069606D03*
X0037205D03*
X0033071Y0065827D03*
X0033858D03*
X0033071Y0069606D03*
X0033858D03*
X0029724Y0065827D03*
X0030512D03*
X0029724Y0069606D03*
X0030512D03*
X0026378Y0065827D03*
X0027165D03*
X0026378Y0069606D03*
X0027165D03*
X0023031Y0065827D03*
X0023819D03*
X0023031Y0069606D03*
X0023819D03*
G54D46*
X0042047Y0062854D03*
Y0046122D03*
X0021535Y0062854D03*
Y0046122D03*
G54D47*
X0040400Y0062480D03*
Y0063780D03*
X0044000Y0061840D03*
Y0063140D03*
X0038960Y0061840D03*
Y0063140D03*
X0037840Y0061840D03*
Y0063140D03*
X0034160Y0061840D03*
Y0063140D03*
X0035280Y0061840D03*
Y0063140D03*
G54D48*
X0032480Y0058160D03*
X0027440Y0049360D03*
X0036880Y0048160D03*
X0042960D03*
X0027680Y0049120D03*
X0031120Y0064640D03*
X0025760Y0048210D03*
X0030160Y0064640D03*
X0032480Y0058640D03*
X0026160Y0049440D03*
X0040400Y0064640D03*
X0025600Y0057600D03*
X0039360Y0050480D03*
X0019600Y0057600D03*
X0020160D03*
X0019600Y0058240D03*
X0021840Y0057600D03*
X0035280Y0064640D03*
X0038960D03*
X0044000D03*
X0029600D03*
X0032480Y0063680D03*
Y0062720D03*
Y0057680D03*
Y0063200D03*
X0029520Y0058640D03*
X0028000Y0049120D03*
G54D49*
X0033440Y0047520D03*
X0028160Y0057600D03*
X0020480Y0047280D03*
X0028560Y0048320D03*
X0027840Y0047040D03*
X0020480Y0064590D03*
X0026480Y0064640D03*
X0040240Y0045280D03*
X0029440Y0045440D03*
X0034240D03*
X0043840Y0048160D03*
X0040240D03*
X0039360D03*
X0036000D03*
X0029600Y0052000D03*
Y0050720D03*
X0042960Y0050480D03*
X0030400Y0050240D03*
X0037280Y0053920D03*
X0041040Y0054000D03*
X0022720Y0048080D03*
X0040000Y0050480D03*
X0030160Y0051360D03*
X0037760Y0048960D03*
X0028560Y0049840D03*
X0028080Y0055760D03*
X0023760Y0055440D03*
X0029600Y0046000D03*
X0034240Y0046400D03*
X0024720Y0054960D03*
X0030320D03*
X0029600Y0052640D03*
X0042400Y0056000D03*
X0044000D03*
X0029520Y0044480D03*
X0030160Y0046160D03*
X0025120Y0057600D03*
M02*
