*
G04 Mass Parameters ***
*
G04 Image ***
*
%INC:\MYWORKS\HOMELIGHTING\02_HW\HOMELIGHTING_FINAL.TOP*%
%ICAS*%
%MOIN*%
%IPPOS*%
%ASAXBY*%
G74*%FSLAN2X34Y34*%
*
G04 Aperture Definitions ***
*
%ADD10C,0.0600*%
%ADD11R,0.0700X0.0500*%
%ADD12R,0.0600X0.0600*%
%ADD13R,0.0480X0.0860*%
%ADD14R,0.0500X0.0700*%
%ADD15R,0.0760X0.0480*%
%ADD16C,0.0620*%
%ADD17R,0.0620X0.0620*%
%ADD18C,0.0720*%
%ADD19C,0.1200*%
%ADD20C,0.0580*%
%ADD21R,0.0580X0.0580*%
%ADD22C,0.0750*%
%ADD23R,0.0750X0.0750*%
%ADD24R,0.0500X0.0500*%
%ADD25O,0.0180X0.0700*%
%ADD26R,0.0180X0.0700*%
%ADD27O,0.0700X0.0180*%
%ADD28R,0.0700X0.0180*%
%ADD29C,0.0400*%
%ADD30C,0.0260*%
%ADD31C,0.0010*%
%ADD32C,0.0120*%
%ADD33C,0.0180*%
%ADD34C,0.0400*%
%ADD35C,0.0600*%
%ADD36C,0.0080*%
%ADD37C,0.0800*%
%ADD38C,0.0400*%
%ADD39C,0.0320*%
%ADD40C,0.0060*%
*
G04 Plot Data ***
*
G54D30*
G01X0024281Y0039764D02*
Y0038976D01*
X0024047Y0039764D02*
Y0038976D01*
X0023813Y0039764D02*
Y0038976D01*
X0023579Y0039764D02*
Y0038976D01*
X0023345Y0039764D02*
Y0038976D01*
X0023111Y0039764D02*
Y0038976D01*
X0022877Y0039764D02*
Y0038976D01*
X0022643Y0039764D02*
Y0038976D01*
X0024409Y0039646D02*
X0022441D01*
X0024409Y0039412D02*
X0022441D01*
X0024409Y0039178D02*
X0022441D01*
X0024409Y0039764D02*
X0022441D01*
X0024409D02*
Y0038976D01*
X0022441D01*
Y0039764D02*
Y0038976D01*
X0024281Y0043503D02*
Y0042716D01*
X0024047Y0043503D02*
Y0042716D01*
X0023813Y0043503D02*
Y0042716D01*
X0023579Y0043503D02*
Y0042716D01*
X0023345Y0043503D02*
Y0042716D01*
X0023111Y0043503D02*
Y0042716D01*
X0022877Y0043503D02*
Y0042716D01*
X0022643Y0043503D02*
Y0042716D01*
X0024409Y0043386D02*
X0022441D01*
X0024409Y0043152D02*
X0022441D01*
X0024409Y0042918D02*
X0022441D01*
X0024409Y0043503D02*
X0022441D01*
X0024409D02*
Y0042716D01*
X0022441D01*
Y0043503D02*
Y0042716D01*
X0034320Y0066220D02*
Y0065433D01*
X0034086Y0066220D02*
Y0065433D01*
X0033852Y0066220D02*
Y0065433D01*
X0033618Y0066220D02*
Y0065433D01*
X0033384Y0066220D02*
Y0065433D01*
X0033150Y0066220D02*
Y0065433D01*
X0032916Y0066220D02*
Y0065433D01*
X0032682Y0066220D02*
Y0065433D01*
X0034449Y0066103D02*
X0032480D01*
X0034449Y0065869D02*
X0032480D01*
X0034449Y0065635D02*
X0032480D01*
X0034449Y0066220D02*
X0032480D01*
X0034449D02*
Y0065433D01*
X0032480D01*
Y0066220D02*
Y0065433D01*
X0034320Y0069960D02*
Y0069173D01*
X0034086Y0069960D02*
Y0069173D01*
X0033852Y0069960D02*
Y0069173D01*
X0033618Y0069960D02*
Y0069173D01*
X0033384Y0069960D02*
Y0069173D01*
X0033150Y0069960D02*
Y0069173D01*
X0032916Y0069960D02*
Y0069173D01*
X0032682Y0069960D02*
Y0069173D01*
X0034449Y0069843D02*
X0032480D01*
X0034449Y0069609D02*
X0032480D01*
X0034449Y0069375D02*
X0032480D01*
X0034449Y0069960D02*
X0032480D01*
X0034449D02*
Y0069173D01*
X0032480D01*
Y0069960D02*
Y0069173D01*
X0044360Y0066220D02*
Y0065433D01*
X0044126Y0066220D02*
Y0065433D01*
X0043892Y0066220D02*
Y0065433D01*
X0043658Y0066220D02*
Y0065433D01*
X0043424Y0066220D02*
Y0065433D01*
X0043190Y0066220D02*
Y0065433D01*
X0042956Y0066220D02*
Y0065433D01*
X0042722Y0066220D02*
Y0065433D01*
X0044488Y0066103D02*
X0042520D01*
X0044488Y0065869D02*
X0042520D01*
X0044488Y0065635D02*
X0042520D01*
X0044488Y0066220D02*
X0042520D01*
X0044488D02*
Y0065433D01*
X0042520D01*
Y0066220D02*
Y0065433D01*
X0044360Y0069960D02*
Y0069173D01*
X0044126Y0069960D02*
Y0069173D01*
X0043892Y0069960D02*
Y0069173D01*
X0043658Y0069960D02*
Y0069173D01*
X0043424Y0069960D02*
Y0069173D01*
X0043190Y0069960D02*
Y0069173D01*
X0042956Y0069960D02*
Y0069173D01*
X0042722Y0069960D02*
Y0069173D01*
X0044488Y0069843D02*
X0042520D01*
X0044488Y0069609D02*
X0042520D01*
X0044488Y0069375D02*
X0042520D01*
X0044488Y0069960D02*
X0042520D01*
X0044488D02*
Y0069173D01*
X0042520D01*
Y0069960D02*
Y0069173D01*
X0034320Y0039764D02*
Y0038976D01*
X0034086Y0039764D02*
Y0038976D01*
X0033852Y0039764D02*
Y0038976D01*
X0033618Y0039764D02*
Y0038976D01*
X0033384Y0039764D02*
Y0038976D01*
X0033150Y0039764D02*
Y0038976D01*
X0032916Y0039764D02*
Y0038976D01*
X0032682Y0039764D02*
Y0038976D01*
X0034449Y0039646D02*
X0032480D01*
X0034449Y0039412D02*
X0032480D01*
X0034449Y0039178D02*
X0032480D01*
X0034449Y0039764D02*
X0032480D01*
X0034449D02*
Y0038976D01*
X0032480D01*
Y0039764D02*
Y0038976D01*
X0034320Y0043503D02*
Y0042716D01*
X0034086Y0043503D02*
Y0042716D01*
X0033852Y0043503D02*
Y0042716D01*
X0033618Y0043503D02*
Y0042716D01*
X0033384Y0043503D02*
Y0042716D01*
X0033150Y0043503D02*
Y0042716D01*
X0032916Y0043503D02*
Y0042716D01*
X0032682Y0043503D02*
Y0042716D01*
X0034449Y0043386D02*
X0032480D01*
X0034449Y0043152D02*
X0032480D01*
X0034449Y0042918D02*
X0032480D01*
X0034449Y0043503D02*
X0032480D01*
X0034449D02*
Y0042716D01*
X0032480D01*
Y0043503D02*
Y0042716D01*
X0020934Y0066220D02*
Y0065433D01*
X0020700Y0066220D02*
Y0065433D01*
X0020466Y0066220D02*
Y0065433D01*
X0020232Y0066220D02*
Y0065433D01*
X0019998Y0066220D02*
Y0065433D01*
X0019764Y0066220D02*
Y0065433D01*
X0019530Y0066220D02*
Y0065433D01*
X0019296Y0066220D02*
Y0065433D01*
X0021063Y0066103D02*
X0019094D01*
X0021063Y0065869D02*
X0019094D01*
X0021063Y0065635D02*
X0019094D01*
X0021063Y0066220D02*
X0019094D01*
X0021063D02*
Y0065433D01*
X0019094D01*
Y0066220D02*
Y0065433D01*
X0020934Y0069960D02*
Y0069173D01*
X0020700Y0069960D02*
Y0069173D01*
X0020466Y0069960D02*
Y0069173D01*
X0020232Y0069960D02*
Y0069173D01*
X0019998Y0069960D02*
Y0069173D01*
X0019764Y0069960D02*
Y0069173D01*
X0019530Y0069960D02*
Y0069173D01*
X0019296Y0069960D02*
Y0069173D01*
X0021063Y0069843D02*
X0019094D01*
X0021063Y0069609D02*
X0019094D01*
X0021063Y0069375D02*
X0019094D01*
X0021063Y0069960D02*
X0019094D01*
X0021063D02*
Y0069173D01*
X0019094D01*
Y0069960D02*
Y0069173D01*
X0037667Y0066220D02*
Y0065433D01*
X0037433Y0066220D02*
Y0065433D01*
X0037199Y0066220D02*
Y0065433D01*
X0036965Y0066220D02*
Y0065433D01*
X0036731Y0066220D02*
Y0065433D01*
X0036497Y0066220D02*
Y0065433D01*
X0036263Y0066220D02*
Y0065433D01*
X0036029Y0066220D02*
Y0065433D01*
X0037795Y0066103D02*
X0035827D01*
X0037795Y0065869D02*
X0035827D01*
X0037795Y0065635D02*
X0035827D01*
X0037795Y0066220D02*
X0035827D01*
X0037795D02*
Y0065433D01*
X0035827D01*
Y0066220D02*
Y0065433D01*
X0037667Y0069960D02*
Y0069173D01*
X0037433Y0069960D02*
Y0069173D01*
X0037199Y0069960D02*
Y0069173D01*
X0036965Y0069960D02*
Y0069173D01*
X0036731Y0069960D02*
Y0069173D01*
X0036497Y0069960D02*
Y0069173D01*
X0036263Y0069960D02*
Y0069173D01*
X0036029Y0069960D02*
Y0069173D01*
X0037795Y0069843D02*
X0035827D01*
X0037795Y0069609D02*
X0035827D01*
X0037795Y0069375D02*
X0035827D01*
X0037795Y0069960D02*
X0035827D01*
X0037795D02*
Y0069173D01*
X0035827D01*
Y0069960D02*
Y0069173D01*
X0027627Y0066220D02*
Y0065433D01*
X0027393Y0066220D02*
Y0065433D01*
X0027159Y0066220D02*
Y0065433D01*
X0026925Y0066220D02*
Y0065433D01*
X0026691Y0066220D02*
Y0065433D01*
X0026457Y0066220D02*
Y0065433D01*
X0026223Y0066220D02*
Y0065433D01*
X0025989Y0066220D02*
Y0065433D01*
X0027756Y0066103D02*
X0025787D01*
X0027756Y0065869D02*
X0025787D01*
X0027756Y0065635D02*
X0025787D01*
X0027756Y0066220D02*
X0025787D01*
X0027756D02*
Y0065433D01*
X0025787D01*
Y0066220D02*
Y0065433D01*
X0027627Y0069960D02*
Y0069173D01*
X0027393Y0069960D02*
Y0069173D01*
X0027159Y0069960D02*
Y0069173D01*
X0026925Y0069960D02*
Y0069173D01*
X0026691Y0069960D02*
Y0069173D01*
X0026457Y0069960D02*
Y0069173D01*
X0026223Y0069960D02*
Y0069173D01*
X0025989Y0069960D02*
Y0069173D01*
X0027756Y0069843D02*
X0025787D01*
X0027756Y0069609D02*
X0025787D01*
X0027756Y0069375D02*
X0025787D01*
X0027756Y0069960D02*
X0025787D01*
X0027756D02*
Y0069173D01*
X0025787D01*
Y0069960D02*
Y0069173D01*
X0030974Y0039764D02*
Y0038976D01*
X0030740Y0039764D02*
Y0038976D01*
X0030506Y0039764D02*
Y0038976D01*
X0030272Y0039764D02*
Y0038976D01*
X0030038Y0039764D02*
Y0038976D01*
X0029804Y0039764D02*
Y0038976D01*
X0029570Y0039764D02*
Y0038976D01*
X0029336Y0039764D02*
Y0038976D01*
X0031102Y0039646D02*
X0029134D01*
X0031102Y0039412D02*
X0029134D01*
X0031102Y0039178D02*
X0029134D01*
X0031102Y0039764D02*
X0029134D01*
X0031102D02*
Y0038976D01*
X0029134D01*
Y0039764D02*
Y0038976D01*
X0030974Y0043503D02*
Y0042716D01*
X0030740Y0043503D02*
Y0042716D01*
X0030506Y0043503D02*
Y0042716D01*
X0030272Y0043503D02*
Y0042716D01*
X0030038Y0043503D02*
Y0042716D01*
X0029804Y0043503D02*
Y0042716D01*
X0029570Y0043503D02*
Y0042716D01*
X0029336Y0043503D02*
Y0042716D01*
X0031102Y0043386D02*
X0029134D01*
X0031102Y0043152D02*
X0029134D01*
X0031102Y0042918D02*
X0029134D01*
X0031102Y0043503D02*
X0029134D01*
X0031102D02*
Y0042716D01*
X0029134D01*
Y0043503D02*
Y0042716D01*
X0020934Y0039764D02*
Y0038976D01*
X0020700Y0039764D02*
Y0038976D01*
X0020466Y0039764D02*
Y0038976D01*
X0020232Y0039764D02*
Y0038976D01*
X0019998Y0039764D02*
Y0038976D01*
X0019764Y0039764D02*
Y0038976D01*
X0019530Y0039764D02*
Y0038976D01*
X0019296Y0039764D02*
Y0038976D01*
X0021063Y0039646D02*
X0019094D01*
X0021063Y0039412D02*
X0019094D01*
X0021063Y0039178D02*
X0019094D01*
X0021063Y0039764D02*
X0019094D01*
X0021063D02*
Y0038976D01*
X0019094D01*
Y0039764D02*
Y0038976D01*
X0020934Y0043503D02*
Y0042716D01*
X0020700Y0043503D02*
Y0042716D01*
X0020466Y0043503D02*
Y0042716D01*
X0020232Y0043503D02*
Y0042716D01*
X0019998Y0043503D02*
Y0042716D01*
X0019764Y0043503D02*
Y0042716D01*
X0019530Y0043503D02*
Y0042716D01*
X0019296Y0043503D02*
Y0042716D01*
X0021063Y0043386D02*
X0019094D01*
X0021063Y0043152D02*
X0019094D01*
X0021063Y0042918D02*
X0019094D01*
X0021063Y0043503D02*
X0019094D01*
X0021063D02*
Y0042716D01*
X0019094D01*
Y0043503D02*
Y0042716D01*
X0030974Y0066220D02*
Y0065433D01*
X0030740Y0066220D02*
Y0065433D01*
X0030506Y0066220D02*
Y0065433D01*
X0030272Y0066220D02*
Y0065433D01*
X0030038Y0066220D02*
Y0065433D01*
X0029804Y0066220D02*
Y0065433D01*
X0029570Y0066220D02*
Y0065433D01*
X0029336Y0066220D02*
Y0065433D01*
X0031102Y0066103D02*
X0029134D01*
X0031102Y0065869D02*
X0029134D01*
X0031102Y0065635D02*
X0029134D01*
X0031102Y0066220D02*
X0029134D01*
X0031102D02*
Y0065433D01*
X0029134D01*
Y0066220D02*
Y0065433D01*
X0030974Y0069960D02*
Y0069173D01*
X0030740Y0069960D02*
Y0069173D01*
X0030506Y0069960D02*
Y0069173D01*
X0030272Y0069960D02*
Y0069173D01*
X0030038Y0069960D02*
Y0069173D01*
X0029804Y0069960D02*
Y0069173D01*
X0029570Y0069960D02*
Y0069173D01*
X0029336Y0069960D02*
Y0069173D01*
X0031102Y0069843D02*
X0029134D01*
X0031102Y0069609D02*
X0029134D01*
X0031102Y0069375D02*
X0029134D01*
X0031102Y0069960D02*
X0029134D01*
X0031102D02*
Y0069173D01*
X0029134D01*
Y0069960D02*
Y0069173D01*
X0037667Y0039764D02*
Y0038976D01*
X0037433Y0039764D02*
Y0038976D01*
X0037199Y0039764D02*
Y0038976D01*
X0036965Y0039764D02*
Y0038976D01*
X0036731Y0039764D02*
Y0038976D01*
X0036497Y0039764D02*
Y0038976D01*
X0036263Y0039764D02*
Y0038976D01*
X0036029Y0039764D02*
Y0038976D01*
X0037795Y0039646D02*
X0035827D01*
X0037795Y0039412D02*
X0035827D01*
X0037795Y0039178D02*
X0035827D01*
X0037795Y0039764D02*
X0035827D01*
X0037795D02*
Y0038976D01*
X0035827D01*
Y0039764D02*
Y0038976D01*
X0037667Y0043503D02*
Y0042716D01*
X0037433Y0043503D02*
Y0042716D01*
X0037199Y0043503D02*
Y0042716D01*
X0036965Y0043503D02*
Y0042716D01*
X0036731Y0043503D02*
Y0042716D01*
X0036497Y0043503D02*
Y0042716D01*
X0036263Y0043503D02*
Y0042716D01*
X0036029Y0043503D02*
Y0042716D01*
X0037795Y0043386D02*
X0035827D01*
X0037795Y0043152D02*
X0035827D01*
X0037795Y0042918D02*
X0035827D01*
X0037795Y0043503D02*
X0035827D01*
X0037795D02*
Y0042716D01*
X0035827D01*
Y0043503D02*
Y0042716D01*
X0041013Y0066220D02*
Y0065433D01*
X0040779Y0066220D02*
Y0065433D01*
X0040545Y0066220D02*
Y0065433D01*
X0040311Y0066220D02*
Y0065433D01*
X0040077Y0066220D02*
Y0065433D01*
X0039843Y0066220D02*
Y0065433D01*
X0039609Y0066220D02*
Y0065433D01*
X0039375Y0066220D02*
Y0065433D01*
X0041142Y0066103D02*
X0039173D01*
X0041142Y0065869D02*
X0039173D01*
X0041142Y0065635D02*
X0039173D01*
X0041142Y0066220D02*
X0039173D01*
X0041142D02*
Y0065433D01*
X0039173D01*
Y0066220D02*
Y0065433D01*
X0041013Y0069960D02*
Y0069173D01*
X0040779Y0069960D02*
Y0069173D01*
X0040545Y0069960D02*
Y0069173D01*
X0040311Y0069960D02*
Y0069173D01*
X0040077Y0069960D02*
Y0069173D01*
X0039843Y0069960D02*
Y0069173D01*
X0039609Y0069960D02*
Y0069173D01*
X0039375Y0069960D02*
Y0069173D01*
X0041142Y0069843D02*
X0039173D01*
X0041142Y0069609D02*
X0039173D01*
X0041142Y0069375D02*
X0039173D01*
X0041142Y0069960D02*
X0039173D01*
X0041142D02*
Y0069173D01*
X0039173D01*
Y0069960D02*
Y0069173D01*
X0044360Y0039764D02*
Y0038976D01*
X0044126Y0039764D02*
Y0038976D01*
X0043892Y0039764D02*
Y0038976D01*
X0043658Y0039764D02*
Y0038976D01*
X0043424Y0039764D02*
Y0038976D01*
X0043190Y0039764D02*
Y0038976D01*
X0042956Y0039764D02*
Y0038976D01*
X0042722Y0039764D02*
Y0038976D01*
X0044488Y0039646D02*
X0042520D01*
X0044488Y0039412D02*
X0042520D01*
X0044488Y0039178D02*
X0042520D01*
X0044488Y0039764D02*
X0042520D01*
X0044488D02*
Y0038976D01*
X0042520D01*
Y0039764D02*
Y0038976D01*
X0044360Y0043503D02*
Y0042716D01*
X0044126Y0043503D02*
Y0042716D01*
X0043892Y0043503D02*
Y0042716D01*
X0043658Y0043503D02*
Y0042716D01*
X0043424Y0043503D02*
Y0042716D01*
X0043190Y0043503D02*
Y0042716D01*
X0042956Y0043503D02*
Y0042716D01*
X0042722Y0043503D02*
Y0042716D01*
X0044488Y0043386D02*
X0042520D01*
X0044488Y0043152D02*
X0042520D01*
X0044488Y0042918D02*
X0042520D01*
X0044488Y0043503D02*
X0042520D01*
X0044488D02*
Y0042716D01*
X0042520D01*
Y0043503D02*
Y0042716D01*
X0027627Y0039764D02*
Y0038976D01*
X0027393Y0039764D02*
Y0038976D01*
X0027159Y0039764D02*
Y0038976D01*
X0026925Y0039764D02*
Y0038976D01*
X0026691Y0039764D02*
Y0038976D01*
X0026457Y0039764D02*
Y0038976D01*
X0026223Y0039764D02*
Y0038976D01*
X0025989Y0039764D02*
Y0038976D01*
X0027756Y0039646D02*
X0025787D01*
X0027756Y0039412D02*
X0025787D01*
X0027756Y0039178D02*
X0025787D01*
X0027756Y0039764D02*
X0025787D01*
X0027756D02*
Y0038976D01*
X0025787D01*
Y0039764D02*
Y0038976D01*
X0027627Y0043503D02*
Y0042716D01*
X0027393Y0043503D02*
Y0042716D01*
X0027159Y0043503D02*
Y0042716D01*
X0026925Y0043503D02*
Y0042716D01*
X0026691Y0043503D02*
Y0042716D01*
X0026457Y0043503D02*
Y0042716D01*
X0026223Y0043503D02*
Y0042716D01*
X0025989Y0043503D02*
Y0042716D01*
X0027756Y0043386D02*
X0025787D01*
X0027756Y0043152D02*
X0025787D01*
X0027756Y0042918D02*
X0025787D01*
X0027756Y0043503D02*
X0025787D01*
X0027756D02*
Y0042716D01*
X0025787D01*
Y0043503D02*
Y0042716D01*
X0041013Y0039764D02*
Y0038976D01*
X0040779Y0039764D02*
Y0038976D01*
X0040545Y0039764D02*
Y0038976D01*
X0040311Y0039764D02*
Y0038976D01*
X0040077Y0039764D02*
Y0038976D01*
X0039843Y0039764D02*
Y0038976D01*
X0039609Y0039764D02*
Y0038976D01*
X0039375Y0039764D02*
Y0038976D01*
X0041142Y0039646D02*
X0039173D01*
X0041142Y0039412D02*
X0039173D01*
X0041142Y0039178D02*
X0039173D01*
Y0039764D02*
Y0038976D01*
X0041142D02*
X0039173D01*
X0041142Y0039764D02*
Y0038976D01*
Y0039764D02*
X0039173D01*
X0041013Y0043503D02*
Y0042716D01*
X0040779Y0043503D02*
Y0042716D01*
X0040545Y0043503D02*
Y0042716D01*
X0040311Y0043503D02*
Y0042716D01*
X0040077Y0043503D02*
Y0042716D01*
X0039843Y0043503D02*
Y0042716D01*
X0039609Y0043503D02*
Y0042716D01*
X0039375Y0043503D02*
Y0042716D01*
X0041142Y0043386D02*
X0039173D01*
X0041142Y0043152D02*
X0039173D01*
X0041142Y0042918D02*
X0039173D01*
X0041142Y0043503D02*
X0039173D01*
X0041142D02*
Y0042716D01*
X0039173D01*
Y0043503D02*
Y0042716D01*
X0024281Y0066220D02*
Y0065433D01*
X0024047Y0066220D02*
Y0065433D01*
X0023813Y0066220D02*
Y0065433D01*
X0023579Y0066220D02*
Y0065433D01*
X0023345Y0066220D02*
Y0065433D01*
X0023111Y0066220D02*
Y0065433D01*
X0022877Y0066220D02*
Y0065433D01*
X0022643Y0066220D02*
Y0065433D01*
X0024409Y0066103D02*
X0022441D01*
X0024409Y0065869D02*
X0022441D01*
X0024409Y0065635D02*
X0022441D01*
X0024409Y0066220D02*
X0022441D01*
X0024409D02*
Y0065433D01*
X0022441D01*
Y0066220D02*
Y0065433D01*
X0024281Y0069960D02*
Y0069173D01*
X0024047Y0069960D02*
Y0069173D01*
X0023813Y0069960D02*
Y0069173D01*
X0023579Y0069960D02*
Y0069173D01*
X0023345Y0069960D02*
Y0069173D01*
X0023111Y0069960D02*
Y0069173D01*
X0022877Y0069960D02*
Y0069173D01*
X0022643Y0069960D02*
Y0069173D01*
X0024409Y0069843D02*
X0022441D01*
X0024409Y0069609D02*
X0022441D01*
X0024409Y0069375D02*
X0022441D01*
X0024409Y0069960D02*
X0022441D01*
X0024409D02*
Y0069173D01*
X0022441D01*
Y0069960D02*
Y0069173D01*
G54D31*
G01X0043254Y0045191D02*
Y0045070D01*
X0043700Y0045920D02*
X0043600D01*
X0043350Y0045070D02*
X0043250D01*
X0043686Y0045920D02*
Y0045906D01*
X0043677Y0045920D02*
Y0045897D01*
X0043668Y0045920D02*
Y0045887D01*
X0043659Y0045920D02*
Y0045878D01*
X0043650Y0045920D02*
Y0045868D01*
X0043641Y0045920D02*
Y0045858D01*
X0043632Y0045920D02*
Y0045848D01*
X0043623Y0045920D02*
Y0045837D01*
X0043614Y0045920D02*
Y0045827D01*
X0043605Y0045925D02*
Y0045816D01*
X0043596Y0045925D02*
Y0045804D01*
X0043587Y0045907D02*
Y0045793D01*
X0043578Y0045898D02*
Y0045781D01*
X0043569Y0045888D02*
Y0045769D01*
X0043560Y0045879D02*
Y0045756D01*
X0043551Y0045869D02*
Y0045743D01*
X0043542Y0045859D02*
Y0045730D01*
X0043533Y0045849D02*
Y0045716D01*
X0043524Y0045839D02*
Y0045702D01*
X0043515Y0045828D02*
Y0045687D01*
X0043506Y0045817D02*
Y0045672D01*
X0043497Y0045806D02*
Y0045656D01*
X0043488Y0045794D02*
Y0045640D01*
X0043479Y0045782D02*
Y0045623D01*
X0043470Y0045770D02*
Y0045605D01*
X0043461Y0045758D02*
Y0045587D01*
X0043452Y0045745D02*
Y0045568D01*
X0043443Y0045732D02*
Y0045547D01*
X0043434Y0045718D02*
Y0045526D01*
X0043425Y0045704D02*
Y0045503D01*
X0043416Y0045689D02*
Y0045478D01*
X0043407Y0045674D02*
Y0045452D01*
X0043398Y0045658D02*
Y0045423D01*
X0043389Y0045642D02*
Y0045391D01*
X0043380Y0045625D02*
Y0045355D01*
X0043371Y0045608D02*
Y0045313D01*
X0043362Y0045589D02*
Y0045260D01*
X0043353Y0045570D02*
Y0045177D01*
X0043344Y0045550D02*
Y0045070D01*
X0043335Y0045528D02*
Y0045070D01*
X0043326Y0045505D02*
Y0045070D01*
X0043317Y0045481D02*
Y0045070D01*
X0043308Y0045455D02*
Y0045070D01*
X0043299Y0045426D02*
Y0045070D01*
X0043290Y0045395D02*
Y0045070D01*
X0043281Y0045360D02*
Y0045070D01*
X0043272Y0045318D02*
Y0045070D01*
X0043263Y0045267D02*
Y0045070D01*
X0043691Y0045911D02*
X0043591D01*
X0043682Y0045902D02*
X0043582D01*
X0043673Y0045893D02*
X0043573D01*
X0043664Y0045884D02*
X0043564D01*
X0043656Y0045875D02*
X0043556D01*
X0043647Y0045866D02*
X0043547D01*
X0043639Y0045857D02*
X0043539D01*
X0043631Y0045848D02*
X0043531D01*
X0043624Y0045839D02*
X0043524D01*
X0043616Y0045830D02*
X0043516D01*
X0043609Y0045821D02*
X0043509D01*
X0043601Y0045812D02*
X0043501D01*
X0043594Y0045803D02*
X0043494D01*
X0043587Y0045794D02*
X0043487D01*
X0043580Y0045785D02*
X0043480D01*
X0043574Y0045776D02*
X0043474D01*
X0043567Y0045767D02*
X0043467D01*
X0043561Y0045758D02*
X0043461D01*
X0043554Y0045749D02*
X0043454D01*
X0043548Y0045740D02*
X0043448D01*
X0043542Y0045731D02*
X0043442D01*
X0043536Y0045722D02*
X0043436D01*
X0043530Y0045713D02*
X0043430D01*
X0043525Y0045704D02*
X0043425D01*
X0043519Y0045695D02*
X0043419D01*
X0043514Y0045686D02*
X0043414D01*
X0043508Y0045677D02*
X0043408D01*
X0043503Y0045668D02*
X0043403D01*
X0043498Y0045659D02*
X0043398D01*
X0043493Y0045650D02*
X0043393D01*
X0043488Y0045641D02*
X0043388D01*
X0043483Y0045632D02*
X0043383D01*
X0043478Y0045623D02*
X0043378D01*
X0043474Y0045614D02*
X0043374D01*
X0043469Y0045605D02*
X0043369D01*
X0043465Y0045596D02*
X0043365D01*
X0043460Y0045587D02*
X0043360D01*
X0043456Y0045578D02*
X0043356D01*
X0043452Y0045569D02*
X0043352D01*
X0043448Y0045560D02*
X0043348D01*
X0043444Y0045551D02*
X0043344D01*
X0043440Y0045542D02*
X0043340D01*
X0043437Y0045533D02*
X0043336D01*
X0043433Y0045524D02*
X0043333D01*
X0043429Y0045515D02*
X0043329D01*
X0043426Y0045506D02*
X0043326D01*
X0043422Y0045497D02*
X0043322D01*
X0043419Y0045488D02*
X0043319D01*
X0043416Y0045479D02*
X0043316D01*
X0043413Y0045470D02*
X0043313D01*
X0043410Y0045461D02*
X0043310D01*
X0043407Y0045452D02*
X0043307D01*
X0043404Y0045443D02*
X0043304D01*
X0043401Y0045434D02*
X0043301D01*
X0043398Y0045425D02*
X0043298D01*
X0043395Y0045416D02*
X0043295D01*
X0043393Y0045407D02*
X0043293D01*
X0043390Y0045398D02*
X0043290D01*
X0043388Y0045389D02*
X0043288D01*
X0043386Y0045380D02*
X0043286D01*
X0043383Y0045371D02*
X0043283D01*
X0043381Y0045362D02*
X0043281D01*
X0043379Y0045353D02*
X0043279D01*
X0043377Y0045344D02*
X0043277D01*
X0043375Y0045335D02*
X0043275D01*
X0043373Y0045326D02*
X0043273D01*
X0043371Y0045317D02*
X0043271D01*
X0043370Y0045308D02*
X0043269D01*
X0043368Y0045299D02*
X0043268D01*
X0043366Y0045290D02*
X0043266D01*
X0043365Y0045281D02*
X0043265D01*
X0043363Y0045272D02*
X0043263D01*
X0043362Y0045263D02*
X0043262D01*
X0043361Y0045254D02*
X0043261D01*
X0043359Y0045245D02*
X0043259D01*
X0043358Y0045236D02*
X0043258D01*
X0043357Y0045227D02*
X0043257D01*
X0043356Y0045218D02*
X0043256D01*
X0043355Y0045209D02*
X0043255D01*
X0043354Y0045200D02*
X0043254D01*
X0043354Y0045191D02*
X0043254D01*
X0043353Y0045182D02*
X0043253D01*
X0043352Y0045173D02*
X0043252D01*
X0043352Y0045164D02*
X0043252D01*
X0043351Y0045155D02*
X0043251D01*
X0043351Y0045146D02*
X0043251D01*
X0043350Y0045137D02*
X0043250D01*
X0043350Y0045128D02*
X0043250D01*
X0043350Y0045119D02*
X0043250D01*
X0043350Y0045110D02*
X0043250D01*
X0043350Y0045101D02*
X0043250D01*
X0043350Y0045092D02*
X0043250D01*
X0043350Y0045083D02*
X0043250D01*
X0043604Y0045928D02*
Y0045802D01*
X0044050Y0045073D02*
X0043950D01*
X0043700Y0045923D02*
X0043600D01*
X0044036Y0045087D02*
Y0045073D01*
X0044027Y0045096D02*
Y0045073D01*
X0044018Y0045106D02*
Y0045073D01*
X0044009Y0045115D02*
Y0045073D01*
X0044000Y0045125D02*
Y0045073D01*
X0043991Y0045135D02*
Y0045073D01*
X0043982Y0045145D02*
Y0045073D01*
X0043973Y0045156D02*
Y0045073D01*
X0043964Y0045166D02*
Y0045073D01*
X0043955Y0045177D02*
Y0045073D01*
X0043946Y0045189D02*
Y0045073D01*
X0043937Y0045200D02*
Y0045086D01*
X0043928Y0045212D02*
Y0045095D01*
X0043919Y0045224D02*
Y0045105D01*
X0043910Y0045237D02*
Y0045114D01*
X0043901Y0045250D02*
Y0045124D01*
X0043892Y0045263D02*
Y0045134D01*
X0043883Y0045277D02*
Y0045144D01*
X0043874Y0045291D02*
Y0045154D01*
X0043865Y0045306D02*
Y0045165D01*
X0043856Y0045321D02*
Y0045176D01*
X0043847Y0045337D02*
Y0045187D01*
X0043838Y0045353D02*
Y0045199D01*
X0043829Y0045370D02*
Y0045211D01*
X0043820Y0045388D02*
Y0045223D01*
X0043811Y0045406D02*
Y0045235D01*
X0043802Y0045425D02*
Y0045248D01*
X0043793Y0045446D02*
Y0045261D01*
X0043784Y0045467D02*
Y0045275D01*
X0043775Y0045490D02*
Y0045289D01*
X0043766Y0045515D02*
Y0045304D01*
X0043757Y0045541D02*
Y0045319D01*
X0043748Y0045570D02*
Y0045335D01*
X0043739Y0045602D02*
Y0045351D01*
X0043730Y0045638D02*
Y0045368D01*
X0043721Y0045680D02*
Y0045385D01*
X0043712Y0045733D02*
Y0045404D01*
X0043703Y0045816D02*
Y0045423D01*
X0043694Y0045923D02*
Y0045443D01*
X0043685Y0045923D02*
Y0045465D01*
X0043676Y0045923D02*
Y0045488D01*
X0043667Y0045923D02*
Y0045512D01*
X0043658Y0045923D02*
Y0045538D01*
X0043649Y0045923D02*
Y0045567D01*
X0043640Y0045923D02*
Y0045598D01*
X0043631Y0045923D02*
Y0045633D01*
X0043622Y0045923D02*
Y0045675D01*
X0043613Y0045923D02*
Y0045726D01*
X0043700Y0045914D02*
X0043600D01*
X0043700Y0045905D02*
X0043600D01*
X0043700Y0045896D02*
X0043600D01*
X0043700Y0045887D02*
X0043600D01*
X0043700Y0045878D02*
X0043600D01*
X0043700Y0045869D02*
X0043600D01*
X0043700Y0045860D02*
X0043600D01*
X0043701Y0045851D02*
X0043601D01*
X0043701Y0045842D02*
X0043601D01*
X0043701Y0045833D02*
X0043601D01*
X0043702Y0045824D02*
X0043602D01*
X0043703Y0045815D02*
X0043603D01*
X0043703Y0045806D02*
X0043603D01*
X0043704Y0045797D02*
X0043604D01*
X0043705Y0045788D02*
X0043605D01*
X0043706Y0045779D02*
X0043606D01*
X0043707Y0045770D02*
X0043607D01*
X0043708Y0045761D02*
X0043608D01*
X0043709Y0045752D02*
X0043609D01*
X0043710Y0045743D02*
X0043610D01*
X0043711Y0045734D02*
X0043611D01*
X0043713Y0045725D02*
X0043613D01*
X0043714Y0045716D02*
X0043614D01*
X0043716Y0045707D02*
X0043616D01*
X0043717Y0045698D02*
X0043617D01*
X0043719Y0045689D02*
X0043619D01*
X0043720Y0045680D02*
X0043620D01*
X0043722Y0045671D02*
X0043622D01*
X0043724Y0045662D02*
X0043624D01*
X0043726Y0045653D02*
X0043626D01*
X0043728Y0045644D02*
X0043628D01*
X0043730Y0045635D02*
X0043630D01*
X0043732Y0045626D02*
X0043632D01*
X0043735Y0045617D02*
X0043635D01*
X0043737Y0045608D02*
X0043637D01*
X0043739Y0045599D02*
X0043639D01*
X0043742Y0045590D02*
X0043642D01*
X0043744Y0045581D02*
X0043644D01*
X0043747Y0045572D02*
X0043647D01*
X0043750Y0045563D02*
X0043650D01*
X0043752Y0045554D02*
X0043652D01*
X0043755Y0045545D02*
X0043655D01*
X0043758Y0045536D02*
X0043658D01*
X0043761Y0045527D02*
X0043661D01*
X0043764Y0045518D02*
X0043664D01*
X0043768Y0045509D02*
X0043668D01*
X0043771Y0045500D02*
X0043671D01*
X0043774Y0045491D02*
X0043674D01*
X0043778Y0045482D02*
X0043678D01*
X0043781Y0045473D02*
X0043681D01*
X0043785Y0045464D02*
X0043685D01*
X0043789Y0045455D02*
X0043689D01*
X0043792Y0045446D02*
X0043692D01*
X0043796Y0045437D02*
X0043696D01*
X0043800Y0045428D02*
X0043700D01*
X0043804Y0045419D02*
X0043704D01*
X0043809Y0045410D02*
X0043709D01*
X0043813Y0045401D02*
X0043713D01*
X0043817Y0045392D02*
X0043717D01*
X0043822Y0045383D02*
X0043722D01*
X0043826Y0045374D02*
X0043726D01*
X0043831Y0045365D02*
X0043731D01*
X0043836Y0045356D02*
X0043736D01*
X0043841Y0045347D02*
X0043741D01*
X0043846Y0045338D02*
X0043746D01*
X0043851Y0045329D02*
X0043751D01*
X0043856Y0045320D02*
X0043756D01*
X0043861Y0045311D02*
X0043761D01*
X0043867Y0045302D02*
X0043767D01*
X0043872Y0045293D02*
X0043772D01*
X0043878Y0045284D02*
X0043778D01*
X0043884Y0045275D02*
X0043784D01*
X0043889Y0045266D02*
X0043789D01*
X0043895Y0045257D02*
X0043795D01*
X0043902Y0045248D02*
X0043802D01*
X0043908Y0045239D02*
X0043808D01*
X0043914Y0045230D02*
X0043814D01*
X0043921Y0045221D02*
X0043821D01*
X0043927Y0045212D02*
X0043827D01*
X0043934Y0045203D02*
X0043834D01*
X0043941Y0045194D02*
X0043841D01*
X0043948Y0045185D02*
X0043848D01*
X0043955Y0045176D02*
X0043855D01*
X0043963Y0045167D02*
X0043863D01*
X0043970Y0045158D02*
X0043870D01*
X0043978Y0045149D02*
X0043878D01*
X0043986Y0045140D02*
X0043886D01*
X0043994Y0045131D02*
X0043894D01*
X0044002Y0045122D02*
X0043902D01*
X0044010Y0045113D02*
X0043910D01*
X0044019Y0045104D02*
X0043919D01*
X0044028Y0045095D02*
X0043928D01*
X0044037Y0045086D02*
X0043937D01*
X0043954Y0045191D02*
Y0045070D01*
X0044400Y0045920D02*
X0044300D01*
X0044050Y0045070D02*
X0043950D01*
X0044386Y0045920D02*
Y0045906D01*
X0044377Y0045920D02*
Y0045897D01*
X0044368Y0045920D02*
Y0045887D01*
X0044359Y0045920D02*
Y0045878D01*
X0044350Y0045920D02*
Y0045868D01*
X0044341Y0045920D02*
Y0045858D01*
X0044332Y0045920D02*
Y0045848D01*
X0044323Y0045920D02*
Y0045837D01*
X0044314Y0045920D02*
Y0045827D01*
X0044305Y0045925D02*
Y0045816D01*
X0044296Y0045925D02*
Y0045804D01*
X0044287Y0045907D02*
Y0045793D01*
X0044278Y0045898D02*
Y0045781D01*
X0044269Y0045888D02*
Y0045769D01*
X0044260Y0045879D02*
Y0045756D01*
X0044251Y0045869D02*
Y0045743D01*
X0044242Y0045859D02*
Y0045730D01*
X0044233Y0045849D02*
Y0045716D01*
X0044224Y0045839D02*
Y0045702D01*
X0044215Y0045828D02*
Y0045687D01*
X0044206Y0045817D02*
Y0045672D01*
X0044197Y0045806D02*
Y0045656D01*
X0044188Y0045794D02*
Y0045640D01*
X0044179Y0045782D02*
Y0045623D01*
X0044170Y0045770D02*
Y0045605D01*
X0044161Y0045758D02*
Y0045587D01*
X0044152Y0045745D02*
Y0045568D01*
X0044143Y0045732D02*
Y0045547D01*
X0044134Y0045718D02*
Y0045526D01*
X0044125Y0045704D02*
Y0045503D01*
X0044116Y0045689D02*
Y0045478D01*
X0044107Y0045674D02*
Y0045452D01*
X0044098Y0045658D02*
Y0045423D01*
X0044089Y0045642D02*
Y0045391D01*
X0044080Y0045625D02*
Y0045355D01*
X0044071Y0045608D02*
Y0045313D01*
X0044062Y0045589D02*
Y0045260D01*
X0044053Y0045570D02*
Y0045177D01*
X0044044Y0045550D02*
Y0045070D01*
X0044035Y0045528D02*
Y0045070D01*
X0044026Y0045505D02*
Y0045070D01*
X0044017Y0045481D02*
Y0045070D01*
X0044008Y0045455D02*
Y0045070D01*
X0043999Y0045426D02*
Y0045070D01*
X0043990Y0045395D02*
Y0045070D01*
X0043981Y0045360D02*
Y0045070D01*
X0043972Y0045318D02*
Y0045070D01*
X0043963Y0045267D02*
Y0045070D01*
X0044391Y0045911D02*
X0044291D01*
X0044382Y0045902D02*
X0044282D01*
X0044373Y0045893D02*
X0044273D01*
X0044364Y0045884D02*
X0044264D01*
X0044356Y0045875D02*
X0044256D01*
X0044347Y0045866D02*
X0044247D01*
X0044339Y0045857D02*
X0044239D01*
X0044331Y0045848D02*
X0044231D01*
X0044324Y0045839D02*
X0044224D01*
X0044316Y0045830D02*
X0044216D01*
X0044309Y0045821D02*
X0044209D01*
X0044301Y0045812D02*
X0044201D01*
X0044294Y0045803D02*
X0044194D01*
X0044287Y0045794D02*
X0044187D01*
X0044280Y0045785D02*
X0044180D01*
X0044274Y0045776D02*
X0044174D01*
X0044267Y0045767D02*
X0044167D01*
X0044261Y0045758D02*
X0044161D01*
X0044254Y0045749D02*
X0044154D01*
X0044248Y0045740D02*
X0044148D01*
X0044242Y0045731D02*
X0044142D01*
X0044236Y0045722D02*
X0044136D01*
X0044230Y0045713D02*
X0044130D01*
X0044225Y0045704D02*
X0044125D01*
X0044219Y0045695D02*
X0044119D01*
X0044214Y0045686D02*
X0044114D01*
X0044208Y0045677D02*
X0044108D01*
X0044203Y0045668D02*
X0044103D01*
X0044198Y0045659D02*
X0044098D01*
X0044193Y0045650D02*
X0044093D01*
X0044188Y0045641D02*
X0044088D01*
X0044183Y0045632D02*
X0044083D01*
X0044178Y0045623D02*
X0044078D01*
X0044174Y0045614D02*
X0044074D01*
X0044169Y0045605D02*
X0044069D01*
X0044165Y0045596D02*
X0044065D01*
X0044160Y0045587D02*
X0044060D01*
X0044156Y0045578D02*
X0044056D01*
X0044152Y0045569D02*
X0044052D01*
X0044148Y0045560D02*
X0044048D01*
X0044144Y0045551D02*
X0044044D01*
X0044140Y0045542D02*
X0044040D01*
X0044137Y0045533D02*
X0044036D01*
X0044133Y0045524D02*
X0044033D01*
X0044129Y0045515D02*
X0044029D01*
X0044126Y0045506D02*
X0044026D01*
X0044122Y0045497D02*
X0044022D01*
X0044119Y0045488D02*
X0044019D01*
X0044116Y0045479D02*
X0044016D01*
X0044113Y0045470D02*
X0044013D01*
X0044110Y0045461D02*
X0044010D01*
X0044107Y0045452D02*
X0044007D01*
X0044104Y0045443D02*
X0044004D01*
X0044101Y0045434D02*
X0044001D01*
X0044098Y0045425D02*
X0043998D01*
X0044095Y0045416D02*
X0043995D01*
X0044093Y0045407D02*
X0043993D01*
X0044090Y0045398D02*
X0043990D01*
X0044088Y0045389D02*
X0043988D01*
X0044086Y0045380D02*
X0043986D01*
X0044083Y0045371D02*
X0043983D01*
X0044081Y0045362D02*
X0043981D01*
X0044079Y0045353D02*
X0043979D01*
X0044077Y0045344D02*
X0043977D01*
X0044075Y0045335D02*
X0043975D01*
X0044073Y0045326D02*
X0043973D01*
X0044071Y0045317D02*
X0043971D01*
X0044070Y0045308D02*
X0043969D01*
X0044068Y0045299D02*
X0043968D01*
X0044066Y0045290D02*
X0043966D01*
X0044065Y0045281D02*
X0043965D01*
X0044063Y0045272D02*
X0043963D01*
X0044062Y0045263D02*
X0043962D01*
X0044061Y0045254D02*
X0043961D01*
X0044059Y0045245D02*
X0043959D01*
X0044058Y0045236D02*
X0043958D01*
X0044057Y0045227D02*
X0043957D01*
X0044056Y0045218D02*
X0043956D01*
X0044055Y0045209D02*
X0043955D01*
X0044054Y0045200D02*
X0043954D01*
X0044054Y0045191D02*
X0043954D01*
X0044053Y0045182D02*
X0043953D01*
X0044052Y0045173D02*
X0043952D01*
X0044052Y0045164D02*
X0043952D01*
X0044051Y0045155D02*
X0043951D01*
X0044051Y0045146D02*
X0043951D01*
X0044050Y0045137D02*
X0043950D01*
X0044050Y0045128D02*
X0043950D01*
X0044050Y0045119D02*
X0043950D01*
X0044050Y0045110D02*
X0043950D01*
X0044050Y0045101D02*
X0043950D01*
X0044050Y0045092D02*
X0043950D01*
X0044050Y0045083D02*
X0043950D01*
X0043954Y0045191D02*
Y0045070D01*
X0044400Y0045920D02*
X0044300D01*
X0044050Y0045070D02*
X0043950D01*
X0044386Y0045920D02*
Y0045906D01*
X0044377Y0045920D02*
Y0045897D01*
X0044368Y0045920D02*
Y0045887D01*
X0044359Y0045920D02*
Y0045878D01*
X0044350Y0045920D02*
Y0045868D01*
X0044341Y0045920D02*
Y0045858D01*
X0044332Y0045920D02*
Y0045848D01*
X0044323Y0045920D02*
Y0045837D01*
X0044314Y0045920D02*
Y0045827D01*
X0044305Y0045925D02*
Y0045816D01*
X0044296Y0045925D02*
Y0045804D01*
X0044287Y0045907D02*
Y0045793D01*
X0044278Y0045898D02*
Y0045781D01*
X0044269Y0045888D02*
Y0045769D01*
X0044260Y0045879D02*
Y0045756D01*
X0044251Y0045869D02*
Y0045743D01*
X0044242Y0045859D02*
Y0045730D01*
X0044233Y0045849D02*
Y0045716D01*
X0044224Y0045839D02*
Y0045702D01*
X0044215Y0045828D02*
Y0045687D01*
X0044206Y0045817D02*
Y0045672D01*
X0044197Y0045806D02*
Y0045656D01*
X0044188Y0045794D02*
Y0045640D01*
X0044179Y0045782D02*
Y0045623D01*
X0044170Y0045770D02*
Y0045605D01*
X0044161Y0045758D02*
Y0045587D01*
X0044152Y0045745D02*
Y0045568D01*
X0044143Y0045732D02*
Y0045547D01*
X0044134Y0045718D02*
Y0045526D01*
X0044125Y0045704D02*
Y0045503D01*
X0044116Y0045689D02*
Y0045478D01*
X0044107Y0045674D02*
Y0045452D01*
X0044098Y0045658D02*
Y0045423D01*
X0044089Y0045642D02*
Y0045391D01*
X0044080Y0045625D02*
Y0045355D01*
X0044071Y0045608D02*
Y0045313D01*
X0044062Y0045589D02*
Y0045260D01*
X0044053Y0045570D02*
Y0045177D01*
X0044044Y0045550D02*
Y0045070D01*
X0044035Y0045528D02*
Y0045070D01*
X0044026Y0045505D02*
Y0045070D01*
X0044017Y0045481D02*
Y0045070D01*
X0044008Y0045455D02*
Y0045070D01*
X0043999Y0045426D02*
Y0045070D01*
X0043990Y0045395D02*
Y0045070D01*
X0043981Y0045360D02*
Y0045070D01*
X0043972Y0045318D02*
Y0045070D01*
X0043963Y0045267D02*
Y0045070D01*
X0044391Y0045911D02*
X0044291D01*
X0044382Y0045902D02*
X0044282D01*
X0044373Y0045893D02*
X0044273D01*
X0044364Y0045884D02*
X0044264D01*
X0044356Y0045875D02*
X0044256D01*
X0044347Y0045866D02*
X0044247D01*
X0044339Y0045857D02*
X0044239D01*
X0044331Y0045848D02*
X0044231D01*
X0044324Y0045839D02*
X0044224D01*
X0044316Y0045830D02*
X0044216D01*
X0044309Y0045821D02*
X0044209D01*
X0044301Y0045812D02*
X0044201D01*
X0044294Y0045803D02*
X0044194D01*
X0044287Y0045794D02*
X0044187D01*
X0044280Y0045785D02*
X0044180D01*
X0044274Y0045776D02*
X0044174D01*
X0044267Y0045767D02*
X0044167D01*
X0044261Y0045758D02*
X0044161D01*
X0044254Y0045749D02*
X0044154D01*
X0044248Y0045740D02*
X0044148D01*
X0044242Y0045731D02*
X0044142D01*
X0044236Y0045722D02*
X0044136D01*
X0044230Y0045713D02*
X0044130D01*
X0044225Y0045704D02*
X0044125D01*
X0044219Y0045695D02*
X0044119D01*
X0044214Y0045686D02*
X0044114D01*
X0044208Y0045677D02*
X0044108D01*
X0044203Y0045668D02*
X0044103D01*
X0044198Y0045659D02*
X0044098D01*
X0044193Y0045650D02*
X0044093D01*
X0044188Y0045641D02*
X0044088D01*
X0044183Y0045632D02*
X0044083D01*
X0044178Y0045623D02*
X0044078D01*
X0044174Y0045614D02*
X0044074D01*
X0044169Y0045605D02*
X0044069D01*
X0044165Y0045596D02*
X0044065D01*
X0044160Y0045587D02*
X0044060D01*
X0044156Y0045578D02*
X0044056D01*
X0044152Y0045569D02*
X0044052D01*
X0044148Y0045560D02*
X0044048D01*
X0044144Y0045551D02*
X0044044D01*
X0044140Y0045542D02*
X0044040D01*
X0044137Y0045533D02*
X0044036D01*
X0044133Y0045524D02*
X0044033D01*
X0044129Y0045515D02*
X0044029D01*
X0044126Y0045506D02*
X0044026D01*
X0044122Y0045497D02*
X0044022D01*
X0044119Y0045488D02*
X0044019D01*
X0044116Y0045479D02*
X0044016D01*
X0044113Y0045470D02*
X0044013D01*
X0044110Y0045461D02*
X0044010D01*
X0044107Y0045452D02*
X0044007D01*
X0044104Y0045443D02*
X0044004D01*
X0044101Y0045434D02*
X0044001D01*
X0044098Y0045425D02*
X0043998D01*
X0044095Y0045416D02*
X0043995D01*
X0044093Y0045407D02*
X0043993D01*
X0044090Y0045398D02*
X0043990D01*
X0044088Y0045389D02*
X0043988D01*
X0044086Y0045380D02*
X0043986D01*
X0044083Y0045371D02*
X0043983D01*
X0044081Y0045362D02*
X0043981D01*
X0044079Y0045353D02*
X0043979D01*
X0044077Y0045344D02*
X0043977D01*
X0044075Y0045335D02*
X0043975D01*
X0044073Y0045326D02*
X0043973D01*
X0044071Y0045317D02*
X0043971D01*
X0044070Y0045308D02*
X0043969D01*
X0044068Y0045299D02*
X0043968D01*
X0044066Y0045290D02*
X0043966D01*
X0044065Y0045281D02*
X0043965D01*
X0044063Y0045272D02*
X0043963D01*
X0044062Y0045263D02*
X0043962D01*
X0044061Y0045254D02*
X0043961D01*
X0044059Y0045245D02*
X0043959D01*
X0044058Y0045236D02*
X0043958D01*
X0044057Y0045227D02*
X0043957D01*
X0044056Y0045218D02*
X0043956D01*
X0044055Y0045209D02*
X0043955D01*
X0044054Y0045200D02*
X0043954D01*
X0044054Y0045191D02*
X0043954D01*
X0044053Y0045182D02*
X0043953D01*
X0044052Y0045173D02*
X0043952D01*
X0044052Y0045164D02*
X0043952D01*
X0044051Y0045155D02*
X0043951D01*
X0044051Y0045146D02*
X0043951D01*
X0044050Y0045137D02*
X0043950D01*
X0044050Y0045128D02*
X0043950D01*
X0044050Y0045119D02*
X0043950D01*
X0044050Y0045110D02*
X0043950D01*
X0044050Y0045101D02*
X0043950D01*
X0044050Y0045092D02*
X0043950D01*
X0044050Y0045083D02*
X0043950D01*
X0043050Y0045180D02*
Y0045080D01*
X0043900Y0045530D02*
Y0045430D01*
X0043891Y0045530D02*
Y0045430D01*
X0043882Y0045530D02*
Y0045430D01*
X0043873Y0045530D02*
Y0045430D01*
X0043864Y0045530D02*
Y0045430D01*
X0043855Y0045530D02*
Y0045430D01*
X0043846Y0045530D02*
Y0045430D01*
X0043837Y0045530D02*
Y0045430D01*
X0043828Y0045529D02*
Y0045429D01*
X0043819Y0045529D02*
Y0045429D01*
X0043810Y0045529D02*
Y0045429D01*
X0043801Y0045528D02*
Y0045428D01*
X0043792Y0045527D02*
Y0045427D01*
X0043783Y0045527D02*
Y0045427D01*
X0043774Y0045526D02*
Y0045426D01*
X0043765Y0045525D02*
Y0045425D01*
X0043756Y0045524D02*
Y0045424D01*
X0043747Y0045523D02*
Y0045423D01*
X0043738Y0045522D02*
Y0045422D01*
X0043729Y0045521D02*
Y0045421D01*
X0043720Y0045520D02*
Y0045420D01*
X0043711Y0045519D02*
Y0045419D01*
X0043702Y0045517D02*
Y0045417D01*
X0043693Y0045516D02*
Y0045416D01*
X0043684Y0045514D02*
Y0045414D01*
X0043675Y0045513D02*
Y0045413D01*
X0043666Y0045511D02*
Y0045411D01*
X0043657Y0045510D02*
Y0045410D01*
X0043648Y0045508D02*
Y0045408D01*
X0043639Y0045506D02*
Y0045406D01*
X0043630Y0045504D02*
Y0045404D01*
X0043621Y0045502D02*
Y0045402D01*
X0043612Y0045500D02*
Y0045400D01*
X0043603Y0045498D02*
Y0045398D01*
X0043594Y0045495D02*
Y0045395D01*
X0043585Y0045493D02*
Y0045393D01*
X0043576Y0045491D02*
Y0045391D01*
X0043567Y0045488D02*
Y0045388D01*
X0043558Y0045486D02*
Y0045386D01*
X0043549Y0045483D02*
Y0045383D01*
X0043540Y0045480D02*
Y0045380D01*
X0043531Y0045478D02*
Y0045378D01*
X0043522Y0045475D02*
Y0045375D01*
X0043513Y0045472D02*
Y0045372D01*
X0043504Y0045469D02*
Y0045369D01*
X0043495Y0045466D02*
Y0045366D01*
X0043486Y0045462D02*
Y0045362D01*
X0043477Y0045459D02*
Y0045359D01*
X0043468Y0045456D02*
Y0045356D01*
X0043459Y0045452D02*
Y0045352D01*
X0043450Y0045449D02*
Y0045349D01*
X0043441Y0045445D02*
Y0045345D01*
X0043432Y0045441D02*
Y0045341D01*
X0043423Y0045438D02*
Y0045338D01*
X0043414Y0045434D02*
Y0045334D01*
X0043405Y0045430D02*
Y0045330D01*
X0043396Y0045426D02*
Y0045326D01*
X0043387Y0045421D02*
Y0045321D01*
X0043378Y0045417D02*
Y0045317D01*
X0043369Y0045413D02*
Y0045313D01*
X0043360Y0045408D02*
Y0045308D01*
X0043351Y0045404D02*
Y0045304D01*
X0043342Y0045399D02*
Y0045299D01*
X0043333Y0045394D02*
Y0045294D01*
X0043324Y0045389D02*
Y0045289D01*
X0043315Y0045384D02*
Y0045284D01*
X0043306Y0045379D02*
Y0045279D01*
X0043297Y0045374D02*
Y0045274D01*
X0043288Y0045369D02*
Y0045269D01*
X0043279Y0045363D02*
Y0045263D01*
X0043270Y0045358D02*
Y0045258D01*
X0043261Y0045352D02*
Y0045252D01*
X0043252Y0045346D02*
Y0045246D01*
X0043243Y0045341D02*
Y0045241D01*
X0043234Y0045335D02*
Y0045235D01*
X0043225Y0045328D02*
Y0045228D01*
X0043216Y0045322D02*
Y0045222D01*
X0043207Y0045316D02*
Y0045216D01*
X0043198Y0045309D02*
Y0045209D01*
X0043189Y0045303D02*
Y0045203D01*
X0043180Y0045296D02*
Y0045196D01*
X0043171Y0045289D02*
Y0045189D01*
X0043162Y0045282D02*
Y0045182D01*
X0043153Y0045275D02*
Y0045175D01*
X0043144Y0045267D02*
Y0045167D01*
X0043135Y0045260D02*
Y0045160D01*
X0043126Y0045252D02*
Y0045152D01*
X0043117Y0045244D02*
Y0045144D01*
X0043108Y0045236D02*
Y0045136D01*
X0043099Y0045228D02*
Y0045128D01*
X0043090Y0045220D02*
Y0045120D01*
X0043081Y0045211D02*
Y0045111D01*
X0043072Y0045202D02*
Y0045102D01*
X0043063Y0045193D02*
Y0045093D01*
X0043905Y0045525D02*
X0043765D01*
X0043900Y0045516D02*
X0043695D01*
X0043900Y0045507D02*
X0043645D01*
X0043900Y0045498D02*
X0043605D01*
X0043900Y0045489D02*
X0043570D01*
X0043900Y0045480D02*
X0043539D01*
X0043900Y0045471D02*
X0043511D01*
X0043900Y0045462D02*
X0043485D01*
X0043900Y0045453D02*
X0043461D01*
X0043900Y0045444D02*
X0043439D01*
X0043900Y0045435D02*
X0043418D01*
X0043776Y0045426D02*
X0043397D01*
X0043701Y0045417D02*
X0043378D01*
X0043650Y0045408D02*
X0043360D01*
X0043609Y0045399D02*
X0043342D01*
X0043574Y0045390D02*
X0043326D01*
X0043543Y0045381D02*
X0043309D01*
X0043514Y0045372D02*
X0043294D01*
X0043488Y0045363D02*
X0043279D01*
X0043464Y0045354D02*
X0043264D01*
X0043441Y0045345D02*
X0043250D01*
X0043420Y0045336D02*
X0043237D01*
X0043400Y0045327D02*
X0043223D01*
X0043380Y0045318D02*
X0043211D01*
X0043362Y0045309D02*
X0043198D01*
X0043344Y0045300D02*
X0043186D01*
X0043327Y0045291D02*
X0043174D01*
X0043311Y0045282D02*
X0043163D01*
X0043296Y0045273D02*
X0043151D01*
X0043280Y0045264D02*
X0043140D01*
X0043266Y0045255D02*
X0043130D01*
X0043252Y0045246D02*
X0043119D01*
X0043238Y0045237D02*
X0043109D01*
X0043225Y0045228D02*
X0043099D01*
X0043212Y0045219D02*
X0043090D01*
X0043199Y0045210D02*
X0043080D01*
X0043187Y0045201D02*
X0043071D01*
X0043175Y0045192D02*
X0043062D01*
X0043164Y0045183D02*
X0043050D01*
X0043153Y0045174D02*
X0043050D01*
X0043142Y0045165D02*
X0043050D01*
X0043131Y0045156D02*
X0043050D01*
X0043121Y0045147D02*
X0043050D01*
X0043110Y0045138D02*
X0043050D01*
X0043100Y0045129D02*
X0043050D01*
X0043091Y0045120D02*
X0043050D01*
X0043081Y0045111D02*
X0043050D01*
X0043072Y0045102D02*
X0043050D01*
X0043063Y0045093D02*
X0043050D01*
X0043254Y0045191D02*
Y0045070D01*
X0043700Y0045920D02*
X0043600D01*
X0043350Y0045070D02*
X0043250D01*
X0043686Y0045920D02*
Y0045906D01*
X0043677Y0045920D02*
Y0045897D01*
X0043668Y0045920D02*
Y0045887D01*
X0043659Y0045920D02*
Y0045878D01*
X0043650Y0045920D02*
Y0045868D01*
X0043641Y0045920D02*
Y0045858D01*
X0043632Y0045920D02*
Y0045848D01*
X0043623Y0045920D02*
Y0045837D01*
X0043614Y0045920D02*
Y0045827D01*
X0043605Y0045925D02*
Y0045816D01*
X0043596Y0045925D02*
Y0045804D01*
X0043587Y0045907D02*
Y0045793D01*
X0043578Y0045898D02*
Y0045781D01*
X0043569Y0045888D02*
Y0045769D01*
X0043560Y0045879D02*
Y0045756D01*
X0043551Y0045869D02*
Y0045743D01*
X0043542Y0045859D02*
Y0045730D01*
X0043533Y0045849D02*
Y0045716D01*
X0043524Y0045839D02*
Y0045702D01*
X0043515Y0045828D02*
Y0045687D01*
X0043506Y0045817D02*
Y0045672D01*
X0043497Y0045806D02*
Y0045656D01*
X0043488Y0045794D02*
Y0045640D01*
X0043479Y0045782D02*
Y0045623D01*
X0043470Y0045770D02*
Y0045605D01*
X0043461Y0045758D02*
Y0045587D01*
X0043452Y0045745D02*
Y0045568D01*
X0043443Y0045732D02*
Y0045547D01*
X0043434Y0045718D02*
Y0045526D01*
X0043425Y0045704D02*
Y0045503D01*
X0043416Y0045689D02*
Y0045478D01*
X0043407Y0045674D02*
Y0045452D01*
X0043398Y0045658D02*
Y0045423D01*
X0043389Y0045642D02*
Y0045391D01*
X0043380Y0045625D02*
Y0045355D01*
X0043371Y0045608D02*
Y0045313D01*
X0043362Y0045589D02*
Y0045260D01*
X0043353Y0045570D02*
Y0045177D01*
X0043344Y0045550D02*
Y0045070D01*
X0043335Y0045528D02*
Y0045070D01*
X0043326Y0045505D02*
Y0045070D01*
X0043317Y0045481D02*
Y0045070D01*
X0043308Y0045455D02*
Y0045070D01*
X0043299Y0045426D02*
Y0045070D01*
X0043290Y0045395D02*
Y0045070D01*
X0043281Y0045360D02*
Y0045070D01*
X0043272Y0045318D02*
Y0045070D01*
X0043263Y0045267D02*
Y0045070D01*
X0043691Y0045911D02*
X0043591D01*
X0043682Y0045902D02*
X0043582D01*
X0043673Y0045893D02*
X0043573D01*
X0043664Y0045884D02*
X0043564D01*
X0043656Y0045875D02*
X0043556D01*
X0043647Y0045866D02*
X0043547D01*
X0043639Y0045857D02*
X0043539D01*
X0043631Y0045848D02*
X0043531D01*
X0043624Y0045839D02*
X0043524D01*
X0043616Y0045830D02*
X0043516D01*
X0043609Y0045821D02*
X0043509D01*
X0043601Y0045812D02*
X0043501D01*
X0043594Y0045803D02*
X0043494D01*
X0043587Y0045794D02*
X0043487D01*
X0043580Y0045785D02*
X0043480D01*
X0043574Y0045776D02*
X0043474D01*
X0043567Y0045767D02*
X0043467D01*
X0043561Y0045758D02*
X0043461D01*
X0043554Y0045749D02*
X0043454D01*
X0043548Y0045740D02*
X0043448D01*
X0043542Y0045731D02*
X0043442D01*
X0043536Y0045722D02*
X0043436D01*
X0043530Y0045713D02*
X0043430D01*
X0043525Y0045704D02*
X0043425D01*
X0043519Y0045695D02*
X0043419D01*
X0043514Y0045686D02*
X0043414D01*
X0043508Y0045677D02*
X0043408D01*
X0043503Y0045668D02*
X0043403D01*
X0043498Y0045659D02*
X0043398D01*
X0043493Y0045650D02*
X0043393D01*
X0043488Y0045641D02*
X0043388D01*
X0043483Y0045632D02*
X0043383D01*
X0043478Y0045623D02*
X0043378D01*
X0043474Y0045614D02*
X0043374D01*
X0043469Y0045605D02*
X0043369D01*
X0043465Y0045596D02*
X0043365D01*
X0043460Y0045587D02*
X0043360D01*
X0043456Y0045578D02*
X0043356D01*
X0043452Y0045569D02*
X0043352D01*
X0043448Y0045560D02*
X0043348D01*
X0043444Y0045551D02*
X0043344D01*
X0043440Y0045542D02*
X0043340D01*
X0043437Y0045533D02*
X0043336D01*
X0043433Y0045524D02*
X0043333D01*
X0043429Y0045515D02*
X0043329D01*
X0043426Y0045506D02*
X0043326D01*
X0043422Y0045497D02*
X0043322D01*
X0043419Y0045488D02*
X0043319D01*
X0043416Y0045479D02*
X0043316D01*
X0043413Y0045470D02*
X0043313D01*
X0043410Y0045461D02*
X0043310D01*
X0043407Y0045452D02*
X0043307D01*
X0043404Y0045443D02*
X0043304D01*
X0043401Y0045434D02*
X0043301D01*
X0043398Y0045425D02*
X0043298D01*
X0043395Y0045416D02*
X0043295D01*
X0043393Y0045407D02*
X0043293D01*
X0043390Y0045398D02*
X0043290D01*
X0043388Y0045389D02*
X0043288D01*
X0043386Y0045380D02*
X0043286D01*
X0043383Y0045371D02*
X0043283D01*
X0043381Y0045362D02*
X0043281D01*
X0043379Y0045353D02*
X0043279D01*
X0043377Y0045344D02*
X0043277D01*
X0043375Y0045335D02*
X0043275D01*
X0043373Y0045326D02*
X0043273D01*
X0043371Y0045317D02*
X0043271D01*
X0043370Y0045308D02*
X0043269D01*
X0043368Y0045299D02*
X0043268D01*
X0043366Y0045290D02*
X0043266D01*
X0043365Y0045281D02*
X0043265D01*
X0043363Y0045272D02*
X0043263D01*
X0043362Y0045263D02*
X0043262D01*
X0043361Y0045254D02*
X0043261D01*
X0043359Y0045245D02*
X0043259D01*
X0043358Y0045236D02*
X0043258D01*
X0043357Y0045227D02*
X0043257D01*
X0043356Y0045218D02*
X0043256D01*
X0043355Y0045209D02*
X0043255D01*
X0043354Y0045200D02*
X0043254D01*
X0043354Y0045191D02*
X0043254D01*
X0043353Y0045182D02*
X0043253D01*
X0043352Y0045173D02*
X0043252D01*
X0043352Y0045164D02*
X0043252D01*
X0043351Y0045155D02*
X0043251D01*
X0043351Y0045146D02*
X0043251D01*
X0043350Y0045137D02*
X0043250D01*
X0043350Y0045128D02*
X0043250D01*
X0043350Y0045119D02*
X0043250D01*
X0043350Y0045110D02*
X0043250D01*
X0043350Y0045101D02*
X0043250D01*
X0043350Y0045092D02*
X0043250D01*
X0043350Y0045083D02*
X0043250D01*
Y0045095D02*
G03X0043250Y0045070I0001146J0000000D01*
G01X0043600Y0045920D02*
G03X0043250Y0045095I0000796J0000825D01*
G01X0043700Y0045920D02*
G03X0043350Y0045095I0000796J0000825D01*
G03X0043350Y0045070I0001146J0000000D01*
G01X0043600Y0045923D02*
G03X0043600Y0045898I0001146J0000025D01*
G03X0043950Y0045073I0001146J0000000D01*
G01X0043700Y0045898D02*
G03X0044050Y0045073I0001146J0000000D01*
G01X0043700Y0045923D02*
G03X0043700Y0045898I0001146J0000025D01*
G01X0043950Y0045095D02*
G03X0043950Y0045070I0001146J0000000D01*
G01X0044300Y0045920D02*
G03X0043950Y0045095I0000796J0000825D01*
G01X0044400Y0045920D02*
G03X0044050Y0045095I0000796J0000825D01*
G03X0044050Y0045070I0001146J0000000D01*
G01X0043950Y0045095D02*
G03X0043950Y0045070I0001146J0000000D01*
G01X0044300Y0045920D02*
G03X0043950Y0045095I0000796J0000825D01*
G01X0044400Y0045920D02*
G03X0044050Y0045095I0000796J0000825D01*
G03X0044050Y0045070I0001146J0000000D01*
G01X0043900Y0045530D02*
G03X0043875Y0045530I0000025J0001146D01*
G03X0043050Y0045180I0000000J0001146D01*
G01X0043875Y0045430D02*
G03X0043050Y0045080I0000000J0001146D01*
G01X0043900Y0045430D02*
G03X0043875Y0045430I0000025J0001146D01*
G01X0043250Y0045095D02*
G03X0043250Y0045070I0001146J0000000D01*
G01X0043600Y0045920D02*
G03X0043250Y0045095I0000796J0000825D01*
G01X0043700Y0045920D02*
G03X0043350Y0045095I0000796J0000825D01*
G03X0043350Y0045070I0001146J0000000D01*
G54D32*
G01X0029600Y0058640D02*
X0029520D01*
X0021840Y0058480D02*
X0022000Y0058640D01*
X0023680D01*
X0029600D02*
Y0059280D01*
X0029200Y0059680D01*
X0027280D01*
X0022480Y0054800D02*
X0022560D01*
X0022720Y0054960D01*
Y0058640D01*
X0023680D01*
X0029520D02*
X0029120D01*
X0028720Y0058240D01*
Y0057040D01*
X0028160Y0056480D01*
X0027360D01*
Y0058470D02*
X0027930D01*
X0028160Y0058240D01*
Y0057600D01*
X0043000Y0055000D02*
Y0056200D01*
X0043500Y0056700D01*
Y0061060D01*
X0043360Y0061200D01*
Y0064800D01*
X0043110Y0065050D01*
Y0065827D01*
X0020800Y0061320D02*
Y0061840D01*
X0020480Y0062160D01*
Y0064590D01*
X0020800Y0061320D02*
X0020600D01*
X0020240Y0060960D01*
Y0059840D01*
X0020800Y0059280D01*
Y0056760D01*
X0026320Y0058520D02*
X0025680Y0059160D01*
Y0062320D01*
X0025960Y0062600D01*
X0026320D01*
X0035280Y0063140D02*
X0034160D01*
X0035280Y0064640D02*
Y0063140D01*
X0038960D02*
X0037840D01*
X0038960Y0064640D02*
Y0063140D01*
X0044000Y0064640D02*
Y0063140D01*
X0040400Y0064640D02*
Y0063780D01*
X0021760Y0051440D02*
X0023560D01*
X0023600Y0051400D01*
X0028840Y0046160D02*
Y0045720D01*
X0029120Y0045440D01*
X0029440D01*
X0034240D02*
X0034720Y0045920D01*
Y0047120D01*
X0034960Y0047360D01*
X0036960D01*
X0037360Y0046960D01*
Y0046800D01*
X0043840Y0048160D02*
Y0048840D01*
X0039360Y0048160D02*
Y0048840D01*
X0036000Y0048160D02*
Y0048840D01*
X0036880D02*
Y0048160D01*
X0042960Y0048840D02*
Y0048160D01*
X0021840Y0057600D02*
Y0056710D01*
X0034160Y0061840D02*
X0034000Y0061680D01*
Y0061280D01*
X0034400Y0060880D01*
Y0056800D01*
X0036000Y0055200D01*
Y0055000D01*
X0029600Y0052000D02*
X0029400D01*
X0028525Y0051125D01*
Y0050690D01*
X0029530Y0050000D02*
Y0050530D01*
X0029520Y0050540D01*
Y0050640D01*
X0029600Y0050720D01*
X0042960Y0050480D02*
Y0049680D01*
X0030400Y0050240D02*
Y0050080D01*
X0030005Y0049685D01*
X0029530D01*
X0029600Y0062680D02*
X0029470Y0062550D01*
X0027360D01*
X0033680Y0060240D02*
Y0060720D01*
X0033360Y0061040D01*
Y0063440D01*
X0035120Y0065200D01*
Y0069200D01*
X0035526Y0069606D01*
X0036417D01*
X0037280Y0053920D02*
X0037120Y0054080D01*
Y0056240D01*
X0036720Y0056640D01*
Y0060960D01*
X0036160Y0061520D01*
Y0065637D01*
X0036387Y0065827D01*
X0036417D01*
X0037680Y0060240D02*
Y0060720D01*
X0037040Y0061360D01*
Y0063840D01*
X0038640Y0065440D01*
Y0069120D01*
X0039126Y0069606D01*
X0039764D01*
X0041040Y0054000D02*
Y0060798D01*
X0039764Y0062078D01*
Y0065827D01*
X0044000Y0057240D02*
Y0056640D01*
X0043500Y0056140D01*
Y0051000D01*
X0042980Y0050480D01*
X0042960D01*
Y0049680D01*
X0043110Y0069606D02*
X0042326D01*
X0042000Y0069280D01*
Y0064800D01*
X0043000Y0063800D01*
Y0060240D01*
X0023600Y0050560D02*
X0023200D01*
X0022720Y0050080D01*
Y0048080D01*
X0040000Y0052000D02*
Y0050480D01*
X0030160Y0051360D02*
X0029440D01*
X0028840Y0050760D01*
Y0050690D01*
X0036880Y0049680D02*
X0037520D01*
X0037760Y0049440D01*
Y0048960D01*
X0028560Y0049840D02*
X0028110D01*
X0027895Y0050055D01*
Y0050690D01*
X0040240Y0049680D02*
Y0050240D01*
X0040000Y0050480D01*
Y0052000D01*
X0022480Y0053960D02*
X0022640D01*
X0023200Y0054520D01*
Y0056160D01*
X0023680Y0056640D01*
X0026635Y0050690D02*
Y0051925D01*
X0025680Y0052880D01*
Y0053400D01*
X0023680Y0061680D02*
Y0059840D01*
X0024480Y0059040D01*
Y0057280D01*
X0026720Y0055040D01*
Y0054240D01*
X0027360Y0055640D02*
X0027480Y0055760D01*
X0028080D01*
X0023760Y0055440D02*
Y0054260D01*
X0023750Y0054250D01*
X0023760Y0054240D01*
X0029530Y0046850D02*
Y0046070D01*
X0029600Y0046000D01*
X0034240Y0046400D02*
Y0047280D01*
X0034640Y0047680D01*
X0037680D01*
X0038360Y0047000D01*
Y0046800D01*
X0037698Y0067520D02*
X0037600Y0067618D01*
Y0069600D01*
X0036424D01*
X0036417Y0069606D01*
X0025000Y0049055D02*
X0024560D01*
X0024240Y0049375D01*
Y0049920D01*
X0023600Y0050560D01*
X0024720Y0054240D02*
X0024690Y0054270D01*
Y0054930D01*
X0024720Y0054960D01*
X0030320D02*
Y0060960D01*
X0029600Y0061680D01*
X0021840Y0059320D02*
X0021880D01*
X0022400Y0059840D01*
X0023680D01*
Y0061680D01*
X0023760Y0053400D02*
Y0052720D01*
X0024160Y0052320D01*
X0024960D01*
X0026005Y0051275D01*
Y0050690D01*
X0025680Y0054240D02*
Y0055200D01*
X0024240Y0056640D01*
X0023680D01*
X0028210Y0050690D02*
Y0051330D01*
X0029520Y0052640D01*
X0029600D01*
X0039520Y0067520D02*
Y0066071D01*
X0039764Y0065827D01*
X0036320Y0067520D02*
Y0065924D01*
X0036417Y0065827D01*
X0036000Y0060240D02*
Y0060880D01*
X0035280Y0061600D01*
Y0061840D01*
X0030960Y0049600D02*
X0030480D01*
X0030160Y0049280D01*
Y0048920D01*
X0029980Y0048740D01*
X0029530D01*
X0022800Y0062640D02*
Y0061760D01*
X0022310Y0061270D01*
X0021840D01*
X0036000Y0052000D02*
Y0049680D01*
X0040400Y0062480D02*
Y0062000D01*
X0041280Y0061120D01*
X0042000D01*
X0042400Y0060720D01*
Y0056000D01*
X0044000D02*
Y0055000D01*
X0021840Y0060480D02*
X0020800D01*
X0039360Y0050480D02*
X0039520Y0050640D01*
Y0056320D01*
X0040000Y0056800D01*
Y0057240D01*
X0029520Y0044480D02*
X0029120D01*
X0028525Y0045075D01*
Y0046160D01*
X0044000Y0061840D02*
Y0060240D01*
X0040898Y0067520D02*
X0040794Y0067588D01*
Y0069606D01*
X0039764D01*
X0036880Y0049680D02*
X0036720Y0049840D01*
Y0055840D01*
X0036000Y0056560D01*
Y0057240D01*
X0044000Y0052000D02*
Y0049840D01*
X0043840Y0049680D01*
X0027280Y0060520D02*
X0027320Y0060560D01*
X0027920D01*
X0029040Y0061680D01*
X0029600D01*
X0027360Y0061760D02*
X0026320D01*
X0029600Y0056640D02*
X0029200D01*
X0028320Y0055760D01*
X0027480D01*
X0027360Y0055640D01*
X0038960Y0061840D02*
X0039440D01*
X0040640Y0060640D01*
Y0056720D01*
X0040000Y0056080D01*
Y0055000D01*
X0039360Y0050480D02*
Y0049680D01*
X0044258Y0067520D02*
X0044160Y0067618D01*
Y0069440D01*
X0043994Y0069606D01*
X0043110D01*
X0026950Y0050690D02*
Y0052240D01*
X0026720Y0052470D01*
Y0053400D01*
X0037840Y0061840D02*
Y0061520D01*
X0038240Y0061120D01*
X0039600D01*
X0040000Y0060720D01*
Y0060240D01*
X0026320Y0050690D02*
Y0051600D01*
X0024720Y0053200D01*
Y0053400D01*
X0030160Y0046160D02*
Y0046960D01*
X0029955Y0047165D01*
X0029530D01*
X0021840Y0055920D02*
X0020800D01*
X0042880Y0067520D02*
Y0066057D01*
X0043110Y0065827D01*
X0027360Y0057680D02*
X0026320D01*
X0028320Y0049380D02*
X0026660D01*
X0028320Y0049164D02*
X0026503D01*
X0028320Y0049056D02*
X0026480D01*
X0028320Y0048948D02*
X0026480D01*
X0027105Y0049590D02*
X0026870D01*
X0027884Y0049600D02*
Y0047760D01*
X0026588Y0049308D02*
Y0047760D01*
X0028320Y0048840D02*
X0026480D01*
X0028166Y0048516D02*
X0026480D01*
X0028129Y0048408D02*
X0026480D01*
X0028120Y0048300D02*
X0026480D01*
X0026696Y0049416D02*
Y0047760D01*
X0026870Y0049590D02*
X0026575Y0049295D01*
X0027452Y0049600D02*
Y0047760D01*
X0027236Y0049600D02*
Y0047760D01*
X0026480Y0049138D02*
Y0047760D01*
X0028320Y0049272D02*
X0026566D01*
X0027992Y0049564D02*
Y0047760D01*
X0027930Y0049600D02*
X0027185D01*
X0028296Y0049488D02*
X0026768D01*
X0026804Y0049524D02*
Y0047760D01*
X0028320D02*
X0026480D01*
X0028139Y0048192D02*
X0026480D01*
X0028208Y0049540D02*
Y0048584D01*
Y0048056D02*
Y0047760D01*
X0028238Y0049540D02*
X0028110D01*
X0028320Y0047951D02*
Y0047760D01*
Y0048732D02*
X0026480D01*
X0027776Y0049600D02*
Y0047760D01*
X0027668Y0049600D02*
Y0047760D01*
X0027560Y0049600D02*
Y0047760D01*
X0027344Y0049600D02*
Y0047760D01*
X0028188Y0048084D02*
X0026480D01*
X0028285Y0047976D02*
X0026480D01*
X0028100Y0049540D02*
Y0047760D01*
X0028242Y0048624D02*
X0026480D01*
X0027128Y0049591D02*
Y0047760D01*
X0028320Y0049471D02*
Y0048689D01*
Y0047868D02*
X0026480D01*
X0026912Y0049590D02*
Y0047760D01*
X0027020Y0049590D02*
Y0047760D01*
G01X0027930Y0049600D02*
G03X0028110Y0049540I0000180J0000240D01*
G01X0028120Y0048320D02*
G03X0028320Y0047951I0000440J0000000D01*
G01X0028120Y0048320D02*
G03X0028320Y0047951I0000440J0000000D01*
Y0048689D02*
G03X0028120Y0048320I0000240J0000369D01*
G01X0028238Y0049540D02*
G03X0028320Y0049471I0000322J0000300D01*
G01X0027105Y0049590D02*
G03X0027185Y0049600I0000000J0000330D01*
G01X0026480Y0049138D02*
G03X0026575Y0049295I0000320J0000302D01*
G01X0028320Y0048689D02*
G03X0028120Y0048320I0000240J0000369D01*
G54D33*
G01X0028560D02*
X0028665Y0048425D01*
X0029530D01*
X0027580Y0046160D02*
Y0046780D01*
X0027840Y0047040D01*
X0027800Y0045400D02*
X0027580Y0045620D01*
Y0046160D01*
X0025000Y0048425D02*
X0025545D01*
X0025760Y0048210D01*
X0029530Y0048425D02*
X0030185D01*
X0030520Y0048760D01*
X0027265Y0050690D02*
Y0052905D01*
X0027520Y0053160D01*
X0026160Y0049440D02*
X0026640Y0049920D01*
X0027105D01*
X0027265Y0050080D01*
Y0050690D01*
X0023520Y0047960D02*
X0023560Y0047920D01*
X0024080D02*
X0024585Y0048425D01*
X0025000D01*
X0029530D02*
X0028665D01*
X0028560Y0048320D01*
X0027840Y0047040D02*
X0027580Y0046780D01*
Y0046160D01*
X0029530Y0048110D02*
X0030050D01*
X0030240Y0047920D01*
Y0047360D01*
X0030640Y0046960D01*
X0030960D01*
X0028080Y0052320D02*
X0028000D01*
X0027920Y0052240D01*
Y0051680D02*
X0027580Y0051340D01*
Y0050690D01*
X0027440Y0049360D02*
Y0049680D01*
X0027580Y0049820D01*
Y0050690D01*
X0025000Y0048740D02*
X0024160D01*
X0024100Y0048800D01*
X0026960Y0045200D02*
X0027265Y0045505D01*
Y0046160D01*
Y0048465D01*
X0026900Y0048740D02*
X0025000D01*
X0029530Y0048110D02*
X0029070D01*
X0028800Y0047840D01*
X0028240D01*
X0027760Y0048320D01*
Y0048560D01*
X0027265Y0048465D02*
Y0046160D01*
X0027760Y0048560D02*
Y0048320D01*
X0028240Y0047840D01*
X0028800D01*
X0029070Y0048110D01*
X0029530D01*
X0025760Y0048740D02*
X0025000D01*
X0031600Y0068760D02*
X0029120D01*
X0031600Y0068598D02*
X0029120D01*
X0031600Y0068436D02*
X0029120D01*
X0031600Y0068274D02*
X0029120D01*
X0031600Y0068112D02*
X0029120D01*
X0031600Y0067950D02*
X0029120D01*
X0031600Y0067788D02*
X0029120D01*
X0031600Y0067626D02*
X0029120D01*
X0031600Y0067464D02*
X0029120D01*
X0031600Y0067302D02*
X0029120D01*
X0031600Y0067140D02*
X0029120D01*
X0031600Y0066978D02*
X0029120D01*
X0031600Y0066816D02*
X0029120D01*
X0031600Y0066654D02*
X0029120D01*
X0031600Y0066492D02*
X0029120D01*
X0031600Y0066330D02*
X0029120D01*
X0031600Y0066168D02*
X0029120D01*
X0031600Y0066006D02*
X0029120D01*
X0031600Y0065844D02*
X0029120D01*
X0031600Y0065682D02*
X0029120D01*
X0031600Y0065520D02*
X0029120D01*
X0031600Y0065358D02*
X0029120D01*
X0031600Y0065196D02*
X0029120D01*
X0031600Y0065034D02*
X0029120D01*
X0031600Y0064872D02*
X0029120D01*
X0031600Y0064710D02*
X0029120D01*
X0031536Y0070080D02*
Y0064400D01*
X0031374Y0070080D02*
Y0064400D01*
X0031212Y0070080D02*
Y0064400D01*
X0031050Y0070080D02*
Y0064400D01*
X0030888Y0070080D02*
Y0064400D01*
X0030726Y0070080D02*
Y0064400D01*
X0030564Y0070080D02*
Y0064400D01*
X0030402Y0070080D02*
Y0064400D01*
X0030240Y0070080D02*
Y0064400D01*
X0030078Y0070080D02*
Y0064400D01*
X0029916Y0070080D02*
Y0064400D01*
X0029754Y0070080D02*
Y0064400D01*
X0029592Y0070080D02*
Y0064400D01*
X0029430Y0070080D02*
Y0064400D01*
X0029268Y0070080D02*
Y0064400D01*
X0031600Y0070056D02*
X0029120D01*
X0031600Y0069894D02*
X0029120D01*
X0031600Y0069732D02*
X0029120D01*
X0031600Y0069570D02*
X0029120D01*
X0031600Y0069408D02*
X0029120D01*
X0031600Y0069246D02*
X0029120D01*
X0031600Y0069084D02*
X0029120D01*
X0031600Y0068922D02*
X0029120D01*
X0031600Y0064548D02*
X0029120D01*
X0031600Y0070080D02*
X0029120D01*
X0031600D02*
Y0064400D01*
X0029120D01*
Y0070080D02*
Y0064400D01*
X0034640Y0069072D02*
X0032160D01*
X0034640Y0068910D02*
X0032160D01*
X0034640Y0068748D02*
X0032160D01*
X0034640Y0068586D02*
X0032160D01*
X0034640Y0068424D02*
X0032160D01*
X0034640Y0068262D02*
X0032160D01*
X0034640Y0068100D02*
X0032160D01*
X0034640Y0067938D02*
X0032160D01*
X0034640Y0067776D02*
X0032160D01*
X0034640Y0067614D02*
X0032160D01*
X0034640Y0067452D02*
X0032160D01*
X0034640Y0067290D02*
X0032160D01*
X0034640Y0067128D02*
X0032160D01*
X0034640Y0066966D02*
X0032160D01*
X0034640Y0066804D02*
X0032160D01*
X0034640Y0066642D02*
X0032160D01*
X0034640Y0066480D02*
X0032160D01*
X0034640Y0066318D02*
X0032160D01*
X0034640Y0066156D02*
X0032160D01*
X0034640Y0065994D02*
X0032160D01*
X0034640Y0065832D02*
X0032160D01*
X0034640Y0065670D02*
X0032160D01*
X0034576Y0070160D02*
Y0065360D01*
X0034414Y0070160D02*
Y0065360D01*
X0034252Y0070160D02*
Y0065360D01*
X0034090Y0070160D02*
Y0065360D01*
X0033928Y0070160D02*
Y0065360D01*
X0033766Y0070160D02*
Y0065360D01*
X0033604Y0070160D02*
Y0065360D01*
X0033442Y0070160D02*
Y0065360D01*
X0033280Y0070160D02*
Y0065360D01*
X0033118Y0070160D02*
Y0065360D01*
X0032956Y0070160D02*
Y0065360D01*
X0032794Y0070160D02*
Y0065360D01*
X0032632Y0070160D02*
Y0065360D01*
X0032470Y0070160D02*
Y0065360D01*
X0032308Y0070160D02*
Y0065360D01*
X0034640Y0070044D02*
X0032160D01*
X0034640Y0069882D02*
X0032160D01*
X0034640Y0069720D02*
X0032160D01*
X0034640Y0069558D02*
X0032160D01*
X0034640Y0069396D02*
X0032160D01*
X0034640Y0069234D02*
X0032160D01*
X0034640Y0065508D02*
X0032160D01*
X0034640Y0070160D02*
X0032160D01*
X0034640D02*
Y0065360D01*
X0032160D01*
Y0070160D02*
Y0065360D01*
X0044560Y0043360D02*
Y0039040D01*
Y0041295D02*
X0032000D01*
X0044457Y0043547D02*
Y0038779D01*
X0044295Y0043661D02*
Y0038717D01*
X0044133Y0043680D02*
Y0038720D01*
X0043971Y0043680D02*
Y0038720D01*
X0043809Y0043680D02*
Y0038720D01*
X0043647Y0043680D02*
Y0038720D01*
X0043485Y0043680D02*
Y0038720D01*
X0043323Y0043680D02*
Y0038720D01*
X0043161Y0043680D02*
Y0038720D01*
X0042999Y0043680D02*
Y0038720D01*
X0042837Y0043680D02*
Y0038720D01*
X0042675Y0043680D02*
Y0038720D01*
X0042513Y0043680D02*
Y0038720D01*
X0042351Y0043680D02*
Y0038720D01*
X0042189Y0043680D02*
Y0038720D01*
X0042027Y0043680D02*
Y0038720D01*
X0041865Y0043680D02*
Y0038720D01*
X0041703Y0043680D02*
Y0038720D01*
X0041541Y0043680D02*
Y0038720D01*
X0041379Y0043680D02*
Y0038720D01*
X0041217Y0043680D02*
Y0038720D01*
X0041055Y0043680D02*
Y0038720D01*
X0040893Y0043680D02*
Y0038720D01*
X0040731Y0043680D02*
Y0038720D01*
X0040569Y0043680D02*
Y0038720D01*
X0040407Y0043680D02*
Y0038720D01*
X0040245Y0043680D02*
Y0038720D01*
X0040083Y0043680D02*
Y0038720D01*
X0039921Y0043680D02*
Y0038720D01*
X0039759Y0043680D02*
Y0038720D01*
X0039597Y0043680D02*
Y0038720D01*
X0039435Y0043680D02*
Y0038720D01*
X0039273Y0043680D02*
Y0038720D01*
X0039111Y0043680D02*
Y0038720D01*
X0038949Y0043680D02*
Y0038720D01*
X0038787Y0043680D02*
Y0038720D01*
X0038625Y0043680D02*
Y0038720D01*
X0038463Y0043680D02*
Y0038720D01*
X0038301Y0043680D02*
Y0038720D01*
X0038139Y0043680D02*
Y0038720D01*
X0037977Y0043680D02*
Y0038720D01*
X0037815Y0043680D02*
Y0038720D01*
X0037653Y0043680D02*
Y0038720D01*
X0037491Y0043680D02*
Y0038720D01*
X0037329Y0043680D02*
Y0038720D01*
X0037167Y0043680D02*
Y0038720D01*
X0037005Y0043680D02*
Y0038720D01*
X0036843Y0043680D02*
Y0038720D01*
X0036681Y0043680D02*
Y0038720D01*
X0036519Y0043680D02*
Y0038720D01*
X0036357Y0043680D02*
Y0038720D01*
X0036195Y0043680D02*
Y0038720D01*
X0036033Y0043680D02*
Y0038720D01*
X0035871Y0043680D02*
Y0038720D01*
X0035709Y0043680D02*
Y0038720D01*
X0035547Y0043680D02*
Y0038720D01*
X0035385Y0043680D02*
Y0038720D01*
X0035223Y0043680D02*
Y0038720D01*
X0035061Y0043680D02*
Y0038720D01*
X0034899Y0043680D02*
Y0038720D01*
X0034737Y0043680D02*
Y0038720D01*
X0034575Y0043680D02*
Y0038720D01*
X0034413Y0043680D02*
Y0038720D01*
X0034251Y0043680D02*
Y0038720D01*
X0034089Y0043680D02*
Y0038720D01*
X0033927Y0043680D02*
Y0038720D01*
X0033765Y0043680D02*
Y0038720D01*
X0033603Y0043680D02*
Y0038720D01*
X0033441Y0043680D02*
Y0038720D01*
X0033279Y0043680D02*
Y0038720D01*
X0033117Y0043680D02*
Y0038720D01*
X0032955Y0043680D02*
Y0038720D01*
X0032793Y0043680D02*
Y0038720D01*
X0032631Y0043680D02*
Y0038720D01*
X0032469Y0043680D02*
Y0038720D01*
X0032307Y0043681D02*
Y0038720D01*
X0044442Y0043563D02*
X0032049D01*
X0044546Y0043401D02*
X0031997D01*
X0044560Y0043239D02*
X0032000D01*
X0044560Y0043077D02*
X0032000D01*
X0044560Y0042915D02*
X0032000D01*
X0044560Y0042753D02*
X0032000D01*
X0044560Y0042591D02*
X0032000D01*
X0044560Y0042429D02*
X0032000D01*
X0044560Y0042267D02*
X0032000D01*
X0044560Y0042105D02*
X0032000D01*
X0044560Y0041943D02*
X0032000D01*
X0044560Y0041781D02*
X0032000D01*
X0044560Y0041619D02*
X0032000D01*
X0044560Y0041457D02*
X0032000D01*
X0032145Y0043648D02*
Y0038751D01*
X0044560Y0041133D02*
X0032000D01*
X0044560Y0040971D02*
X0032000D01*
X0044560Y0040809D02*
X0032000D01*
X0044560Y0040647D02*
X0032000D01*
X0044560Y0040485D02*
X0032000D01*
X0044560Y0040323D02*
X0032000D01*
X0044560Y0040161D02*
X0032000D01*
X0044560Y0039999D02*
X0032000D01*
X0044560Y0039837D02*
X0032000D01*
X0044560Y0039675D02*
X0032000D01*
X0044560Y0039513D02*
X0032000D01*
X0044560Y0039351D02*
X0032000D01*
X0044560Y0039189D02*
X0032000D01*
X0044561Y0039027D02*
X0032000D01*
X0044528Y0038865D02*
X0032031D01*
X0044240Y0043680D02*
X0032320D01*
X0032000Y0043360D02*
Y0038960D01*
X0044240Y0038720D02*
X0032240D01*
X0031200Y0043680D02*
X0019280D01*
X0031520Y0041295D02*
X0018960D01*
X0031417Y0043547D02*
Y0038779D01*
X0031255Y0043661D02*
Y0038717D01*
X0031093Y0043680D02*
Y0038720D01*
X0030931Y0043680D02*
Y0038720D01*
X0030769Y0043680D02*
Y0038720D01*
X0030607Y0043680D02*
Y0038720D01*
X0030445Y0043680D02*
Y0038720D01*
X0030283Y0043680D02*
Y0038720D01*
X0030121Y0043680D02*
Y0038720D01*
X0029959Y0043680D02*
Y0038720D01*
X0029797Y0043680D02*
Y0038720D01*
X0029635Y0043680D02*
Y0038720D01*
X0029473Y0043680D02*
Y0038720D01*
X0029311Y0043680D02*
Y0038720D01*
X0029149Y0043680D02*
Y0038720D01*
X0028987Y0043680D02*
Y0038720D01*
X0028825Y0043680D02*
Y0038720D01*
X0028663Y0043680D02*
Y0038720D01*
X0028501Y0043680D02*
Y0038720D01*
X0028339Y0043680D02*
Y0038720D01*
X0028177Y0043680D02*
Y0038720D01*
X0028015Y0043680D02*
Y0038720D01*
X0027853Y0043680D02*
Y0038720D01*
X0027691Y0043680D02*
Y0038720D01*
X0027529Y0043680D02*
Y0038720D01*
X0027367Y0043680D02*
Y0038720D01*
X0027205Y0043680D02*
Y0038720D01*
X0027043Y0043680D02*
Y0038720D01*
X0026881Y0043680D02*
Y0038720D01*
X0026719Y0043680D02*
Y0038720D01*
X0026557Y0043680D02*
Y0038720D01*
X0026395Y0043680D02*
Y0038720D01*
X0026233Y0043680D02*
Y0038720D01*
X0026071Y0043680D02*
Y0038720D01*
X0025909Y0043680D02*
Y0038720D01*
X0025747Y0043680D02*
Y0038720D01*
X0025585Y0043680D02*
Y0038720D01*
X0025423Y0043680D02*
Y0038720D01*
X0025261Y0043680D02*
Y0038720D01*
X0025099Y0043680D02*
Y0038720D01*
X0024937Y0043680D02*
Y0038720D01*
X0024775Y0043680D02*
Y0038720D01*
X0024613Y0043680D02*
Y0038720D01*
X0024451Y0043680D02*
Y0038720D01*
X0024289Y0043680D02*
Y0038720D01*
X0024127Y0043680D02*
Y0038720D01*
X0023965Y0043680D02*
Y0038720D01*
X0023803Y0043680D02*
Y0038720D01*
X0023641Y0043680D02*
Y0038720D01*
X0023479Y0043680D02*
Y0038720D01*
X0023317Y0043680D02*
Y0038720D01*
X0023155Y0043680D02*
Y0038720D01*
X0022993Y0043680D02*
Y0038720D01*
X0022831Y0043680D02*
Y0038720D01*
X0022669Y0043680D02*
Y0038720D01*
X0022507Y0043680D02*
Y0038720D01*
X0022345Y0043680D02*
Y0038720D01*
X0022183Y0043680D02*
Y0038720D01*
X0022021Y0043680D02*
Y0038720D01*
X0021859Y0043680D02*
Y0038720D01*
X0021697Y0043680D02*
Y0038720D01*
X0021535Y0043680D02*
Y0038720D01*
X0021373Y0043680D02*
Y0038720D01*
X0021211Y0043680D02*
Y0038720D01*
X0021049Y0043680D02*
Y0038720D01*
X0020887Y0043680D02*
Y0038720D01*
X0020725Y0043680D02*
Y0038720D01*
X0020563Y0043680D02*
Y0038720D01*
X0020401Y0043680D02*
Y0038720D01*
X0020239Y0043680D02*
Y0038720D01*
X0020077Y0043680D02*
Y0038720D01*
X0019915Y0043680D02*
Y0038720D01*
X0019753Y0043680D02*
Y0038720D01*
X0019591Y0043680D02*
Y0038720D01*
X0019429Y0043680D02*
Y0038720D01*
X0019267Y0043681D02*
Y0038720D01*
X0031402Y0043563D02*
X0019009D01*
X0031506Y0043401D02*
X0018957D01*
X0031520Y0043239D02*
X0018960D01*
X0031520Y0043077D02*
X0018960D01*
X0031520Y0042915D02*
X0018960D01*
X0031520Y0042753D02*
X0018960D01*
X0031520Y0042591D02*
X0018960D01*
X0031520Y0042429D02*
X0018960D01*
X0031520Y0042267D02*
X0018960D01*
X0031520Y0042105D02*
X0018960D01*
X0031520Y0041943D02*
X0018960D01*
X0031520Y0041781D02*
X0018960D01*
X0031520Y0041619D02*
X0018960D01*
X0031520Y0041457D02*
X0018960D01*
X0019105Y0043648D02*
Y0038751D01*
X0031520Y0041133D02*
X0018960D01*
X0031520Y0040971D02*
X0018960D01*
X0031520Y0040809D02*
X0018960D01*
X0031520Y0040647D02*
X0018960D01*
X0031520Y0040485D02*
X0018960D01*
X0031520Y0040323D02*
X0018960D01*
X0031520Y0040161D02*
X0018960D01*
X0031520Y0039999D02*
X0018960D01*
X0031520Y0039837D02*
X0018960D01*
X0031520Y0039675D02*
X0018960D01*
X0031520Y0039513D02*
X0018960D01*
X0031520Y0039351D02*
X0018960D01*
X0031520Y0039189D02*
X0018960D01*
X0031521Y0039027D02*
X0018960D01*
X0031488Y0038865D02*
X0018991D01*
X0031520Y0043360D02*
Y0039040D01*
X0031200Y0038720D02*
X0019200D01*
X0018960Y0043360D02*
Y0038960D01*
G01X0044560Y0043360D02*
G03X0044240Y0043680I0000440J0000120D01*
G01X0032320D02*
G03X0032280Y0043683I0000040J0000280D01*
G03X0031997Y0043400I0000000J0000283D01*
G03X0032000Y0043360I0000283J0000000D01*
Y0038960D02*
G03X0032240Y0038720I0000280J0000040D01*
G01X0044240D02*
G03X0044280Y0038717I0000040J0000280D01*
G03X0044563Y0039000I0000000J0000283D01*
G03X0044560Y0039040I0000283J0000000D01*
G01X0019280Y0043680D02*
G03X0019240Y0043683I0000040J0000280D01*
G01X0031520Y0043360D02*
G03X0031200Y0043680I0000440J0000120D01*
G01X0031523Y0039000D02*
G03X0031520Y0039040I0000283J0000000D01*
G01X0031240Y0038717D02*
G03X0031523Y0039000I0000000J0000283D01*
G01X0031200Y0038720D02*
G03X0031240Y0038717I0000040J0000280D01*
G01X0018960Y0038960D02*
G03X0019200Y0038720I0000280J0000040D01*
G01X0018957Y0043400D02*
G03X0018960Y0043360I0000283J0000000D01*
G01X0019240Y0043683D02*
G03X0018957Y0043400I0000000J0000283D01*
G54D35*
G01X0032464Y0065814D02*
X0032480Y0065830D01*
X0032699D01*
X0019440Y0067520D02*
Y0066072D01*
X0019685Y0065827D01*
X0019600Y0065742D01*
Y0058240D01*
X0032699Y0065830D02*
X0033068D01*
X0033071Y0065827D01*
X0023031D02*
X0023045Y0065840D01*
X0023600D01*
X0025120Y0064320D01*
Y0057600D01*
X0025600D01*
X0023031Y0043149D02*
X0023040Y0043158D01*
Y0046560D01*
X0021760Y0047840D01*
Y0048800D01*
X0029724Y0069606D02*
X0029440Y0069322D01*
Y0067520D01*
X0022800D02*
Y0066058D01*
X0023031Y0065827D01*
X0029600Y0062680D02*
X0028560D01*
X0028480Y0062760D01*
Y0068080D01*
X0028160Y0068400D01*
X0024315D01*
X0023680Y0062680D02*
X0023640Y0062640D01*
X0022720D01*
Y0063840D01*
X0021760Y0064800D01*
Y0066640D01*
X0020880Y0067520D01*
X0020818D01*
X0023680Y0062680D02*
X0023640Y0062640D01*
X0022800D01*
X0020818Y0067520D02*
X0020800Y0067538D01*
Y0069520D01*
X0020714Y0069606D01*
X0019685D01*
X0019600Y0058240D02*
Y0057600D01*
X0020160D01*
X0024178Y0067520D02*
Y0069555D01*
X0024160Y0069537D01*
X0022960Y0069600D02*
X0023025D01*
X0023031Y0069606D01*
X0025120Y0057600D02*
Y0064320D01*
X0023600Y0065840D01*
X0023045D01*
X0023031Y0065827D01*
G54D36*
G01X0042632Y0043978D02*
Y0043979D01*
X0042633D01*
Y0043978D01*
X0042632D01*
Y0044145D02*
Y0044312D01*
X0042333Y0044201D02*
X0042222Y0043979D01*
X0042167Y0043868D02*
X0042222Y0043979D01*
X0042111Y0044201D01*
X0041757D02*
X0041868D01*
X0041896Y0044145D01*
Y0044034D01*
X0041923Y0043979D01*
X0041729D01*
X0041701Y0044034D01*
X0041729Y0044090D01*
X0041896D01*
X0041513Y0044312D02*
Y0043979D01*
X0041347D01*
X0041319Y0044034D01*
Y0044145D01*
X0041347Y0044201D01*
X0041513D01*
X0041131Y0043979D02*
Y0044145D01*
X0041103Y0044201D01*
X0040937D01*
Y0043979D02*
Y0044312D01*
X0040721Y0044201D02*
X0040555D01*
X0040749Y0043979D02*
X0040638D01*
X0040610Y0044034D01*
Y0044312D01*
X0040367Y0044201D02*
X0040256D01*
X0040228Y0044145D01*
X0040172D01*
Y0044201D02*
Y0043979D01*
X0039929Y0044312D02*
X0039985Y0043979D02*
X0039874D01*
X0039929D02*
Y0044201D01*
X0039874D01*
X0039464Y0043979D02*
Y0044312D01*
X0039436Y0043979D02*
X0039602D01*
X0039658Y0044034D01*
Y0044090D01*
X0039630Y0044145D01*
X0039464D02*
X0039630D01*
X0039658Y0044201D01*
Y0044257D01*
X0039602Y0044312D01*
X0039436D01*
X0038546Y0044201D02*
X0038657D01*
X0038685Y0044145D01*
Y0044034D01*
X0038713Y0043979D01*
X0038519D01*
X0038491Y0044034D01*
X0038519Y0044090D01*
X0038685D01*
X0038303Y0043979D02*
Y0044145D01*
X0038275Y0044201D01*
X0038109D01*
Y0043979D01*
X0037865Y0044312D02*
X0037866D01*
X0037865D01*
X0037921Y0043979D02*
X0037810D01*
X0037865D02*
Y0044201D01*
X0037810D01*
X0037594D02*
X0037483D01*
X0037455Y0044145D01*
X0037400D01*
Y0044201D02*
Y0043979D01*
X0037184D02*
X0037018D01*
X0036990Y0044034D01*
Y0044145D01*
X0037018Y0044201D01*
X0037184D01*
X0037212Y0044145D01*
Y0044090D01*
X0036990D01*
X0036774Y0044201D02*
X0036608D01*
X0036802Y0043979D02*
X0036691D01*
X0036663Y0044034D01*
Y0044312D01*
X0036253Y0044201D02*
X0036364D01*
X0036392Y0044145D01*
Y0044034D01*
X0036420Y0043979D01*
X0036225D01*
X0036198Y0044034D01*
X0036225Y0044090D01*
X0036392D01*
X0036010Y0043979D02*
X0035843Y0044145D01*
X0036010Y0044312D01*
X0035788D02*
Y0043979D01*
X0044165Y0044379D02*
X0044110Y0044434D01*
X0044082Y0044490D01*
Y0044601D01*
X0044110Y0044657D01*
X0044165Y0044712D01*
X0044221D01*
X0044276Y0044657D01*
X0044304Y0044601D01*
Y0044490D01*
X0044276Y0044434D01*
X0044221Y0044379D01*
X0044165D01*
X0043894D02*
X0043783D01*
X0043839D02*
Y0044712D01*
X0043783Y0044657D01*
X0043401Y0044379D02*
X0043345Y0044434D01*
X0043318Y0044490D01*
Y0044601D01*
X0043345Y0044657D01*
X0043401Y0044712D01*
X0043457D01*
X0043512Y0044657D01*
X0043540Y0044601D01*
Y0044490D01*
X0043512Y0044434D01*
X0043457Y0044379D01*
X0043401D01*
X0043130D02*
X0042908D01*
X0043130Y0044601D01*
Y0044657D01*
X0043102Y0044712D01*
X0042935D01*
X0042908Y0044657D01*
X0026320Y0062600D02*
X0026480Y0062760D01*
Y0064640D01*
X0029440Y0067520D02*
Y0066111D01*
X0029724Y0065827D01*
X0029600Y0065702D01*
Y0064640D01*
X0040240Y0048160D02*
Y0048840D01*
Y0048160D02*
Y0048840D01*
X0025770Y0048750D02*
X0025760Y0048740D01*
X0044000Y0057250D02*
Y0057240D01*
G54D37*
G01X0033440Y0047520D02*
Y0043519D01*
X0033071Y0043149D01*
X0033440Y0043519D01*
Y0050800D01*
X0032464Y0051776D01*
Y0065814D01*
X0033071Y0043149D02*
X0033440Y0043519D01*
Y0047520D01*
X0032480Y0062720D02*
Y0058640D01*
Y0057680D02*
Y0052000D01*
X0029724Y0043149D02*
X0029754Y0043120D01*
X0030240D01*
Y0043600D01*
X0032240Y0045600D01*
Y0050160D01*
X0031120Y0051280D01*
Y0064640D01*
X0032480Y0057680D02*
Y0058160D01*
Y0058640D01*
Y0062720D02*
Y0063200D01*
Y0063680D01*
G54D38*
G01X0021760Y0049800D02*
X0019700D01*
X0019600Y0049700D01*
Y0053240D02*
Y0049700D01*
Y0052560D01*
X0027520Y0053160D02*
X0028080D01*
X0023560Y0047920D02*
X0024080D01*
X0019600Y0048400D02*
X0020400D01*
X0020800Y0048800D01*
X0021760D01*
X0019600Y0048400D02*
Y0046800D01*
X0027920Y0052240D02*
Y0051680D01*
X0021760Y0050800D02*
Y0053600D01*
X0021280Y0054080D01*
X0020880D01*
X0021760Y0050800D02*
Y0051440D01*
X0024100Y0048800D02*
X0023520D01*
X0020880Y0054080D02*
X0019600D01*
G54D39*
G01X0035360Y0045800D02*
Y0045040D01*
X0039360D01*
Y0045800D01*
X0039764Y0043149D02*
X0039734Y0043120D01*
X0035360D01*
Y0045800D01*
X0032699Y0065830D02*
X0032480Y0063680D01*
X0033071Y0065827D02*
X0033084Y0065840D01*
X0033920D01*
X0030960Y0048760D02*
Y0047800D01*
X0027800Y0044720D02*
Y0045400D01*
X0030520Y0048760D02*
X0030960D01*
X0032480Y0052000D02*
X0033750D01*
X0019600Y0052560D02*
X0020620D01*
X0020880Y0052820D01*
X0032480Y0063680D02*
X0032699Y0065830D01*
X0019600Y0045960D02*
X0020200D01*
X0020480Y0046240D01*
Y0047280D01*
X0040240Y0045280D02*
Y0048160D01*
X0026960Y0044720D02*
Y0045200D01*
G54D40*
G01X0023723Y0040580D02*
X0023812D01*
X0023767D02*
Y0040313D01*
X0023812Y0040358D01*
X0024154Y0040580D02*
Y0040313D01*
X0024176Y0040580D02*
X0024043D01*
X0023998Y0040536D01*
Y0040491D01*
X0024021Y0040447D01*
X0024154D02*
X0024021D01*
X0023998Y0040402D01*
Y0040358D01*
X0024043Y0040313D01*
X0024176D01*
G54D10*
X0042880Y0067520D03*
X0044258D03*
X0039520D03*
X0040898D03*
X0036320D03*
X0037698D03*
X0032800D03*
X0034178D03*
X0029440D03*
X0030818D03*
X0026160D03*
X0027538D03*
X0022800D03*
X0024178D03*
X0019440D03*
X0020818D03*
X0032800Y0041360D03*
X0034178D03*
X0042800Y0041440D03*
X0044178D03*
X0039440D03*
X0040818D03*
X0036000Y0041360D03*
X0037378D03*
X0029520D03*
X0030898D03*
X0026160D03*
X0027538D03*
X0019440D03*
X0020818D03*
X0024178D03*
X0022800D03*
G54D11*
X0030960Y0049600D03*
Y0048760D03*
X0028080Y0052320D03*
Y0053160D03*
X0030960Y0046960D03*
Y0047800D03*
X0023520Y0048800D03*
Y0047960D03*
X0019600Y0054080D03*
Y0053240D03*
Y0046800D03*
Y0045960D03*
G54D12*
X0040400Y0062480D03*
Y0063780D03*
X0044000Y0061840D03*
Y0063140D03*
X0038960Y0061840D03*
Y0063140D03*
X0037840Y0061840D03*
Y0063140D03*
X0034160Y0061840D03*
Y0063140D03*
X0035280Y0061840D03*
Y0063140D03*
X0019600Y0048400D03*
Y0049700D03*
G54D13*
X0020880Y0054080D03*
Y0052820D03*
G54D14*
X0026960Y0044720D03*
X0027800D03*
G54D15*
X0021840Y0060480D03*
Y0061270D03*
X0027360Y0057680D03*
Y0058470D03*
Y0061760D03*
Y0062550D03*
X0021840Y0055920D03*
Y0056710D03*
G54D16*
X0039360Y0045800D03*
X0038360Y0046800D03*
Y0045800D03*
X0037360Y0046800D03*
Y0045800D03*
X0036360Y0046800D03*
Y0045800D03*
X0035360Y0046800D03*
Y0045800D03*
G54D17*
X0039360Y0046800D03*
G54D18*
X0043110Y0039370D03*
X0043897D03*
X0043110Y0043149D03*
X0043897D03*
X0039764Y0039370D03*
X0040551D03*
X0039764Y0043149D03*
X0040551D03*
X0036417Y0039370D03*
X0037205D03*
X0036417Y0043149D03*
X0037205D03*
X0033071Y0039370D03*
X0033858D03*
X0033071Y0043149D03*
X0033858D03*
X0029724Y0039370D03*
X0030512D03*
X0029724Y0043149D03*
X0030512D03*
X0026378Y0039370D03*
X0027165D03*
X0026378Y0043149D03*
X0027165D03*
X0023031Y0039370D03*
X0023819D03*
X0023031Y0043149D03*
X0023819D03*
X0019685Y0039370D03*
X0020472D03*
X0019685Y0043149D03*
X0020472D03*
X0019685Y0065827D03*
X0020472D03*
X0019685Y0069606D03*
X0020472D03*
X0043110Y0065827D03*
X0043897D03*
X0043110Y0069606D03*
X0043897D03*
X0039764Y0065827D03*
X0040551D03*
X0039764Y0069606D03*
X0040551D03*
X0036417Y0065827D03*
X0037205D03*
X0036417Y0069606D03*
X0037205D03*
X0033071Y0065827D03*
X0033858D03*
X0033071Y0069606D03*
X0033858D03*
X0029724Y0065827D03*
X0030512D03*
X0029724Y0069606D03*
X0030512D03*
X0026378Y0065827D03*
X0027165D03*
X0026378Y0069606D03*
X0027165D03*
X0023031Y0065827D03*
X0023819D03*
X0023031Y0069606D03*
X0023819D03*
G54D19*
X0042047Y0062854D03*
Y0046122D03*
X0021535Y0062854D03*
Y0046122D03*
G54D20*
X0043000Y0055000D03*
Y0052000D03*
X0044000D03*
X0043000Y0060240D03*
Y0057240D03*
X0044000D03*
X0039000Y0060240D03*
Y0057240D03*
X0040000D03*
X0035000Y0055000D03*
Y0052000D03*
X0036000D03*
X0035000Y0060240D03*
Y0057240D03*
X0036000D03*
X0039000Y0055000D03*
Y0052000D03*
X0040000D03*
X0033680Y0057240D03*
X0041750Y0052000D03*
X0041680Y0057240D03*
X0037750Y0052000D03*
X0037680Y0057240D03*
X0033750Y0052000D03*
G54D21*
X0044000Y0055000D03*
Y0060240D03*
X0040000D03*
X0036000Y0055000D03*
Y0060240D03*
X0040000Y0055000D03*
X0033680Y0060240D03*
X0041750Y0055000D03*
X0041680Y0060240D03*
X0037750Y0055000D03*
X0037680Y0060240D03*
X0033750Y0055000D03*
G54D22*
X0021760Y0049800D03*
Y0050800D03*
X0029600Y0057640D03*
Y0058640D03*
Y0062680D03*
Y0063680D03*
X0023680Y0057640D03*
Y0058640D03*
Y0062680D03*
Y0063680D03*
G54D23*
X0021760Y0048800D03*
X0029600Y0056640D03*
Y0061680D03*
X0023680Y0056640D03*
Y0061680D03*
G54D24*
X0027360Y0056480D03*
Y0055640D03*
X0027280Y0059680D03*
Y0060520D03*
X0022480Y0054800D03*
Y0053960D03*
X0021840Y0058480D03*
Y0059320D03*
X0023760Y0054240D03*
Y0053400D03*
X0024720Y0054240D03*
Y0053400D03*
X0025680Y0054240D03*
Y0053400D03*
X0026720Y0054240D03*
Y0053400D03*
X0023600Y0050560D03*
Y0051400D03*
X0026320Y0057680D03*
Y0058520D03*
Y0061760D03*
Y0062600D03*
X0020800Y0055920D03*
Y0056760D03*
Y0060480D03*
Y0061320D03*
X0043840Y0049680D03*
Y0048840D03*
X0042960Y0049680D03*
Y0048840D03*
X0040240Y0049680D03*
Y0048840D03*
X0039360Y0049680D03*
Y0048840D03*
X0036000Y0049680D03*
Y0048840D03*
X0036880Y0049680D03*
Y0048840D03*
G54D25*
X0025690Y0046160D03*
X0026005D03*
X0026320D03*
X0026635D03*
X0026950D03*
X0027265D03*
X0027580D03*
X0027895D03*
X0028525D03*
X0028840D03*
Y0050690D03*
X0028525D03*
X0028210D03*
X0027895D03*
X0027580D03*
X0027265D03*
X0026635D03*
X0026320D03*
X0026005D03*
X0025690D03*
G54D26*
X0028210Y0046160D03*
X0026950Y0050690D03*
G54D27*
X0025000Y0049685D03*
Y0049370D03*
Y0049055D03*
Y0048740D03*
Y0048425D03*
Y0048110D03*
Y0047795D03*
Y0047480D03*
Y0046850D03*
X0029530D03*
Y0047165D03*
Y0047480D03*
Y0047795D03*
Y0048110D03*
Y0048425D03*
Y0048740D03*
Y0049370D03*
Y0049685D03*
Y0050000D03*
G54D28*
X0025000D03*
Y0047165D03*
X0029530Y0049055D03*
G54D29*
X0032480Y0058160D03*
X0027440Y0049360D03*
X0036880Y0048160D03*
X0042960D03*
X0027680Y0049120D03*
X0031120Y0064640D03*
X0025760Y0048210D03*
X0030160Y0064640D03*
X0032480Y0058640D03*
X0026160Y0049440D03*
X0040400Y0064640D03*
X0025600Y0057600D03*
X0039360Y0050480D03*
X0019600Y0057600D03*
X0020160D03*
X0019600Y0058240D03*
X0021840Y0057600D03*
X0035280Y0064640D03*
X0038960D03*
X0044000D03*
X0029600D03*
X0032480Y0063680D03*
Y0062720D03*
Y0057680D03*
Y0063200D03*
X0029520Y0058640D03*
X0028000Y0049120D03*
G54D34*
X0033440Y0047520D03*
X0028160Y0057600D03*
X0020480Y0047280D03*
X0028560Y0048320D03*
X0027840Y0047040D03*
X0020480Y0064590D03*
X0026480Y0064640D03*
X0040240Y0045280D03*
X0029440Y0045440D03*
X0034240D03*
X0043840Y0048160D03*
X0040240D03*
X0039360D03*
X0036000D03*
X0029600Y0052000D03*
Y0050720D03*
X0042960Y0050480D03*
X0030400Y0050240D03*
X0037280Y0053920D03*
X0041040Y0054000D03*
X0022720Y0048080D03*
X0040000Y0050480D03*
X0030160Y0051360D03*
X0037760Y0048960D03*
X0028560Y0049840D03*
X0028080Y0055760D03*
X0023760Y0055440D03*
X0029600Y0046000D03*
X0034240Y0046400D03*
X0024720Y0054960D03*
X0030320D03*
X0029600Y0052640D03*
X0042400Y0056000D03*
X0044000D03*
X0029520Y0044480D03*
X0030160Y0046160D03*
X0025120Y0057600D03*
M02*
