*
G04 Mass Parameters ***
*
G04 Image ***
*
%INC:\MYWORKS\HOMELIGHTING\02_HW\HOMELIGHTING_FINAL.AST*%
%ICAS*%
%MOIN*%
%IPPOS*%
%ASAXBY*%
G74*%FSLAN2X34Y34*%
*
G04 Aperture Definitions ***
*
%ADD10C,0.0600*%
%ADD11R,0.0700X0.0500*%
%ADD12R,0.0600X0.0600*%
%ADD13R,0.0480X0.0860*%
%ADD14R,0.0500X0.0700*%
%ADD15R,0.0760X0.0480*%
%ADD16C,0.0620*%
%ADD17R,0.0620X0.0620*%
%ADD18C,0.0720*%
%ADD19C,0.1200*%
%ADD20C,0.0580*%
%ADD21R,0.0580X0.0580*%
%ADD22C,0.0750*%
%ADD23R,0.0750X0.0750*%
%ADD24R,0.0500X0.0500*%
%ADD25O,0.0180X0.0700*%
%ADD26R,0.0180X0.0700*%
%ADD27O,0.0700X0.0180*%
%ADD28R,0.0700X0.0180*%
%ADD29C,0.0400*%
%ADD30C,0.0260*%
%ADD31C,0.0010*%
%ADD32C,0.0120*%
%ADD33C,0.0180*%
%ADD34C,0.0400*%
%ADD35C,0.0600*%
%ADD36C,0.0080*%
%ADD37C,0.0800*%
%ADD38C,0.0400*%
%ADD39C,0.0320*%
%ADD40C,0.0060*%
%ADD41R,0.0750X0.0550*%
%ADD42R,0.0550X0.0750*%
%ADD43C,0.0670*%
%ADD44R,0.0670X0.0670*%
%ADD45C,0.0740*%
%ADD46C,0.1250*%
%ADD47R,0.0720X0.0720*%
%ADD48C,0.0420*%
%ADD49C,0.0420*%
%ADD50C,0.0100*%
%ADD51C,0.0079*%
*
G04 Plot Data ***
*
G54D36*
G01X0031459Y0049242D02*
X0031515Y0049214D01*
X0031570D01*
X0031626Y0049242D01*
Y0049409D01*
X0031570Y0049437D01*
X0031515D01*
X0031459Y0049409D01*
Y0049242D01*
X0031404Y0049214D01*
X0031348D01*
X0031293Y0049242D01*
Y0049409D01*
X0031348Y0049437D01*
X0031404D01*
X0031459Y0049409D01*
X0031348Y0049624D02*
X0031293Y0049652D01*
Y0049819D01*
X0031348Y0049847D01*
X0031570D01*
X0031626Y0049819D01*
Y0049652D01*
X0031570Y0049624D01*
X0037374Y0057296D02*
X0037597D01*
X0037486Y0057074D01*
X0037430D01*
Y0057407D01*
X0037784Y0057074D02*
Y0057352D01*
X0037812Y0057407D01*
X0037896Y0057241D01*
Y0057185D02*
Y0057241D01*
X0037979Y0057407D01*
X0038007Y0057352D01*
Y0057074D01*
X0038194Y0057129D02*
X0038222Y0057074D01*
X0038389D01*
X0038417Y0057129D01*
Y0057185D01*
X0038389Y0057241D01*
X0038222D01*
X0038194Y0057296D01*
Y0057352D01*
X0038222Y0057407D01*
X0038389D01*
X0038417Y0057352D01*
X0038604Y0057518D02*
X0038827D01*
X0039209Y0057407D02*
Y0057074D01*
X0039237Y0057407D02*
X0039070D01*
X0039014Y0057352D01*
Y0057296D01*
X0039042Y0057241D01*
X0039209D02*
X0039042D01*
X0039014Y0057185D01*
Y0057129D01*
X0039070Y0057074D01*
X0039237D01*
X0039647Y0057241D02*
X0039480D01*
X0039424Y0057185D01*
Y0057129D01*
X0039480Y0057074D01*
X0039647D01*
Y0057407D01*
X0034443Y0057824D02*
Y0058157D01*
X0034499Y0058102D01*
X0034610Y0057879D01*
X0034666Y0057824D01*
Y0058157D01*
X0035048D02*
X0035076Y0058102D01*
Y0057879D01*
X0035048Y0057824D01*
X0034881D01*
X0034853Y0057879D01*
Y0058102D01*
X0034881Y0058157D01*
X0035048D01*
X0035374D02*
Y0057824D01*
X0035263D02*
X0035486D01*
X0035784Y0058157D02*
Y0057824D01*
X0035673D02*
X0035896D01*
X0036083D02*
Y0058102D01*
X0036111Y0058157D01*
X0036278D01*
X0036306Y0058102D01*
Y0057824D01*
X0036688Y0058157D02*
Y0057824D01*
X0036716Y0058157D02*
X0036549D01*
X0036493Y0058102D01*
Y0058046D01*
X0036521Y0057991D01*
X0036688D02*
X0036521D01*
X0036493Y0057935D01*
Y0057879D01*
X0036549Y0057824D01*
X0036716D01*
X0036903Y0057991D02*
X0037126D01*
X0036903Y0058157D02*
Y0057824D01*
X0037126Y0058157D02*
Y0057824D01*
X0037313Y0057879D02*
X0037341Y0057824D01*
X0037508D01*
X0037536Y0057879D01*
Y0057935D01*
X0037508Y0057991D01*
X0037341D01*
X0037313Y0058046D01*
Y0058102D01*
X0037341Y0058157D01*
X0037508D01*
X0037536Y0058102D01*
X0037723Y0057824D02*
Y0058102D01*
X0037751Y0058157D01*
X0037918D01*
X0037946Y0058102D01*
Y0057824D01*
X0038356Y0057991D02*
X0038189D01*
X0038133Y0057935D01*
Y0057879D01*
X0038189Y0057824D01*
X0038356D01*
Y0058157D01*
X0039078Y0057824D02*
Y0058102D01*
X0039106Y0058157D01*
X0039189Y0057991D01*
Y0057935D02*
Y0057991D01*
X0039273Y0058157D01*
X0039301Y0058102D01*
Y0057824D01*
X0039488Y0057879D02*
X0039516Y0057824D01*
X0039683D01*
X0039711Y0057879D01*
Y0057935D01*
X0039683Y0057991D01*
X0039516D01*
X0039488Y0058046D01*
Y0058102D01*
X0039516Y0058157D01*
X0039683D01*
X0039711Y0058102D01*
X0022522Y0049598D02*
X0022577Y0049654D01*
Y0049765D01*
X0022522Y0049820D01*
X0022466D01*
X0022355Y0049709D01*
X0022244Y0049820D01*
Y0049598D01*
Y0049410D02*
X0022522D01*
X0022577Y0049383D01*
Y0049216D01*
X0022522Y0049188D01*
X0022244D01*
X0020902Y0054005D02*
X0020847Y0053949D01*
X0020791Y0053921D01*
X0020680D01*
X0020624Y0053949D01*
X0020569Y0054005D01*
Y0054060D01*
X0020624Y0054116D01*
X0020680Y0054144D01*
X0020791D01*
X0020847Y0054116D01*
X0020902Y0054060D01*
Y0054005D01*
Y0053734D02*
Y0053511D01*
X0020680Y0053734D01*
X0020624D01*
X0020569Y0053706D01*
Y0053539D01*
X0020624Y0053511D01*
X0020902Y0053324D02*
Y0053101D01*
X0020680Y0053324D01*
X0020624D01*
X0020569Y0053296D01*
Y0053129D01*
X0020624Y0053101D01*
X0020902Y0052719D02*
X0020847Y0052691D01*
X0020624D01*
X0020569Y0052719D01*
Y0052886D01*
X0020624Y0052914D01*
X0020847D01*
X0020902Y0052886D01*
Y0052719D01*
Y0052393D02*
X0020569D01*
Y0052504D02*
Y0052281D01*
Y0052094D02*
X0020902Y0051927D01*
X0020569Y0051712D02*
X0020680D01*
X0020902Y0051600D01*
X0020680Y0051489D01*
X0020569D01*
X0020902Y0051107D02*
X0020569D01*
X0020902Y0051079D02*
Y0051246D01*
X0020847Y0051302D01*
X0020791D01*
X0020736Y0051274D01*
Y0051107D02*
Y0051274D01*
X0020680Y0051302D01*
X0020624D01*
X0020569Y0051246D01*
Y0051079D01*
X0020791Y0050892D02*
Y0050669D01*
X0020902Y0050892D02*
X0020736D01*
X0020569Y0050808D01*
Y0050753D01*
X0020736Y0050669D01*
X0020902D01*
X0020847Y0050259D02*
X0020902Y0050287D01*
Y0050454D01*
X0020847Y0050482D01*
X0020736D01*
X0020680Y0050426D01*
Y0050259D01*
X0020569D01*
Y0050482D01*
X0020902Y0049933D02*
X0020847Y0049877D01*
X0020791Y0049849D01*
X0020680D01*
X0020624Y0049877D01*
X0020569Y0049933D01*
Y0049988D01*
X0020624Y0050044D01*
X0020680Y0050072D01*
X0020791D01*
X0020847Y0050044D01*
X0020902Y0049988D01*
Y0049933D01*
X0020736Y0049634D02*
X0020680Y0049662D01*
X0020624D01*
X0020569Y0049634D01*
Y0049467D01*
X0020624Y0049439D01*
X0020680D01*
X0020736Y0049467D01*
Y0049634D01*
X0020791Y0049662D01*
X0020847D01*
X0020902Y0049634D01*
Y0049467D01*
X0020847Y0049439D01*
X0020791D01*
X0020736Y0049467D01*
X0020902Y0049085D02*
X0020569Y0049252D01*
Y0049029D01*
X0027527Y0062470D02*
Y0062247D01*
X0027305Y0062470D01*
X0027250D01*
X0027194Y0062442D01*
Y0062275D01*
X0027250Y0062247D01*
X0027527Y0062060D02*
Y0061949D01*
Y0062004D02*
X0027194D01*
X0027250Y0061949D01*
X0027527Y0061511D02*
X0027194D01*
X0027527Y0061483D02*
Y0061650D01*
X0027416Y0061705D01*
X0027305D01*
X0027194Y0061650D01*
Y0061483D01*
X0029569Y0057241D02*
X0029402D01*
X0029374Y0057296D01*
Y0057352D01*
X0029402Y0057407D01*
X0029569D01*
X0029597Y0057352D01*
Y0057296D01*
X0029486Y0057074D01*
X0029784D02*
Y0057352D01*
X0029812Y0057407D01*
X0029896Y0057241D01*
Y0057185D02*
Y0057241D01*
X0029979Y0057407D01*
X0030007Y0057352D01*
Y0057074D01*
X0030194Y0057129D02*
X0030222Y0057074D01*
X0030389D01*
X0030417Y0057129D01*
Y0057185D01*
X0030389Y0057241D01*
X0030222D01*
X0030194Y0057296D01*
Y0057352D01*
X0030222Y0057407D01*
X0030389D01*
X0030417Y0057352D01*
X0030604Y0057518D02*
X0030827D01*
X0031209Y0057407D02*
Y0057074D01*
X0031237Y0057407D02*
X0031070D01*
X0031014Y0057352D01*
Y0057296D01*
X0031042Y0057241D01*
X0031209D02*
X0031042D01*
X0031014Y0057185D01*
Y0057129D01*
X0031070Y0057074D01*
X0031237D01*
X0031647Y0057241D02*
X0031480D01*
X0031424Y0057185D01*
Y0057129D01*
X0031480Y0057074D01*
X0031647D01*
Y0057407D01*
X0026443Y0057824D02*
Y0058157D01*
X0026499Y0058102D01*
X0026610Y0057879D01*
X0026666Y0057824D01*
Y0058157D01*
X0027048D02*
X0027076Y0058102D01*
Y0057879D01*
X0027048Y0057824D01*
X0026881D01*
X0026853Y0057879D01*
Y0058102D01*
X0026881Y0058157D01*
X0027048D01*
X0027374D02*
Y0057824D01*
X0027263D02*
X0027486D01*
X0027784Y0058157D02*
Y0057824D01*
X0027673D02*
X0027896D01*
X0028083D02*
Y0058102D01*
X0028111Y0058157D01*
X0028278D01*
X0028306Y0058102D01*
Y0057824D01*
X0028688Y0058157D02*
Y0057824D01*
X0028716Y0058157D02*
X0028549D01*
X0028493Y0058102D01*
Y0058046D01*
X0028521Y0057991D01*
X0028688D02*
X0028521D01*
X0028493Y0057935D01*
Y0057879D01*
X0028549Y0057824D01*
X0028716D01*
X0028903Y0057991D02*
X0029126D01*
X0028903Y0058157D02*
Y0057824D01*
X0029126Y0058157D02*
Y0057824D01*
X0029313Y0057879D02*
X0029341Y0057824D01*
X0029508D01*
X0029536Y0057879D01*
Y0057935D01*
X0029508Y0057991D01*
X0029341D01*
X0029313Y0058046D01*
Y0058102D01*
X0029341Y0058157D01*
X0029508D01*
X0029536Y0058102D01*
X0029723Y0057824D02*
Y0058102D01*
X0029751Y0058157D01*
X0029918D01*
X0029946Y0058102D01*
Y0057824D01*
X0030356Y0057991D02*
X0030189D01*
X0030133Y0057935D01*
Y0057879D01*
X0030189Y0057824D01*
X0030356D01*
Y0058157D01*
X0031078Y0057824D02*
Y0058102D01*
X0031106Y0058157D01*
X0031189Y0057991D01*
Y0057935D02*
Y0057991D01*
X0031273Y0058157D01*
X0031301Y0058102D01*
Y0057824D01*
X0031488Y0057879D02*
X0031516Y0057824D01*
X0031683D01*
X0031711Y0057879D01*
Y0057935D01*
X0031683Y0057991D01*
X0031516D01*
X0031488Y0058046D01*
Y0058102D01*
X0031516Y0058157D01*
X0031683D01*
X0031711Y0058102D01*
X0033667Y0052112D02*
X0033611Y0052167D01*
X0033500D01*
X0033444Y0052112D01*
Y0052056D01*
X0033556Y0051945D01*
X0033444Y0051834D01*
X0033667D01*
X0033854D02*
Y0052112D01*
X0033882Y0052167D01*
X0033966Y0052001D01*
Y0051945D02*
Y0052001D01*
X0034049Y0052167D01*
X0034077Y0052112D01*
Y0051834D01*
X0034264Y0051889D02*
X0034292Y0051834D01*
X0034459D01*
X0034487Y0051889D01*
Y0051945D01*
X0034459Y0052001D01*
X0034292D01*
X0034264Y0052056D01*
Y0052112D01*
X0034292Y0052167D01*
X0034459D01*
X0034487Y0052112D01*
X0034674Y0052278D02*
X0034897D01*
X0035279Y0052167D02*
Y0051834D01*
X0035307Y0052167D02*
X0035140D01*
X0035084Y0052112D01*
Y0052056D01*
X0035112Y0052001D01*
X0035279D02*
X0035112D01*
X0035084Y0051945D01*
Y0051889D01*
X0035140Y0051834D01*
X0035307D01*
X0035717Y0052001D02*
X0035550D01*
X0035494Y0051945D01*
Y0051889D01*
X0035550Y0051834D01*
X0035717D01*
Y0052167D01*
X0030513Y0052584D02*
Y0052917D01*
X0030569Y0052862D01*
X0030680Y0052639D01*
X0030736Y0052584D01*
Y0052917D01*
X0031118D02*
X0031146Y0052862D01*
Y0052639D01*
X0031118Y0052584D01*
X0030951D01*
X0030923Y0052639D01*
Y0052862D01*
X0030951Y0052917D01*
X0031118D01*
X0031444D02*
Y0052584D01*
X0031333D02*
X0031556D01*
X0031854Y0052917D02*
Y0052584D01*
X0031743D02*
X0031966D01*
X0032153D02*
Y0052862D01*
X0032181Y0052917D01*
X0032348D01*
X0032376Y0052862D01*
Y0052584D01*
X0032758Y0052917D02*
Y0052584D01*
X0032786Y0052917D02*
X0032619D01*
X0032563Y0052862D01*
Y0052806D01*
X0032591Y0052751D01*
X0032758D02*
X0032591D01*
X0032563Y0052695D01*
Y0052639D01*
X0032619Y0052584D01*
X0032786D01*
X0032973Y0052751D02*
X0033196D01*
X0032973Y0052917D02*
Y0052584D01*
X0033196Y0052917D02*
Y0052584D01*
X0033383Y0052639D02*
X0033411Y0052584D01*
X0033578D01*
X0033606Y0052639D01*
Y0052695D01*
X0033578Y0052751D01*
X0033411D01*
X0033383Y0052806D01*
Y0052862D01*
X0033411Y0052917D01*
X0033578D01*
X0033606Y0052862D01*
X0033793Y0052584D02*
Y0052862D01*
X0033821Y0052917D01*
X0033988D01*
X0034016Y0052862D01*
Y0052584D01*
X0034426Y0052751D02*
X0034259D01*
X0034203Y0052695D01*
Y0052639D01*
X0034259Y0052584D01*
X0034426D01*
Y0052917D01*
X0035148Y0052584D02*
Y0052862D01*
X0035176Y0052917D01*
X0035259Y0052751D01*
Y0052695D02*
Y0052751D01*
X0035343Y0052917D01*
X0035371Y0052862D01*
Y0052584D01*
X0035558Y0052639D02*
X0035586Y0052584D01*
X0035753D01*
X0035781Y0052639D01*
Y0052695D01*
X0035753Y0052751D01*
X0035586D01*
X0035558Y0052806D01*
Y0052862D01*
X0035586Y0052917D01*
X0035753D01*
X0035781Y0052862D01*
X0039359Y0049489D02*
Y0049322D01*
X0039304Y0049294D01*
X0039248D01*
X0039193Y0049322D01*
Y0049489D01*
X0039248Y0049517D01*
X0039304D01*
X0039526Y0049406D01*
X0039359Y0049788D02*
X0039193Y0049704D01*
X0039359Y0049927D02*
Y0049760D01*
X0039415Y0049704D01*
X0039470D01*
X0039526Y0049760D01*
Y0049927D01*
X0039193D01*
X0039885Y0042414D02*
X0040052D01*
X0040079Y0042359D01*
Y0042303D01*
X0040052Y0042248D01*
X0039885D01*
X0039857Y0042303D01*
Y0042359D01*
X0039968Y0042581D01*
X0039475Y0042248D02*
Y0042581D01*
X0039447Y0042248D02*
X0039614D01*
X0039669Y0042303D01*
Y0042359D01*
X0039642Y0042414D01*
X0039475D02*
X0039642D01*
X0039669Y0042470D01*
Y0042525D01*
X0039614Y0042581D01*
X0039447D01*
X0036713Y0049294D02*
Y0049517D01*
X0036935Y0049294D01*
X0036990D01*
X0037046Y0049322D01*
Y0049489D01*
X0036990Y0049517D01*
X0036879Y0049788D02*
X0036713Y0049704D01*
X0036879Y0049927D02*
Y0049760D01*
X0036935Y0049704D01*
X0036990D01*
X0037046Y0049760D01*
Y0049927D01*
X0036713D01*
X0033217Y0068383D02*
X0033245Y0068328D01*
X0033412D01*
X0033439Y0068383D01*
Y0068494D01*
X0033384Y0068550D01*
X0033217D01*
Y0068661D01*
X0033439D01*
X0032918Y0068328D02*
Y0068661D01*
X0033029D02*
X0032807D01*
X0029500Y0052167D02*
X0029611D01*
X0029556D02*
Y0051834D01*
X0029611Y0051889D01*
X0029854Y0051834D02*
Y0052112D01*
X0029882Y0052167D01*
X0029966Y0052001D01*
Y0051945D02*
Y0052001D01*
X0030049Y0052167D01*
X0030077Y0052112D01*
Y0051834D01*
X0030264Y0051889D02*
X0030292Y0051834D01*
X0030459D01*
X0030487Y0051889D01*
Y0051945D01*
X0030459Y0052001D01*
X0030292D01*
X0030264Y0052056D01*
Y0052112D01*
X0030292Y0052167D01*
X0030459D01*
X0030487Y0052112D01*
X0030674Y0052278D02*
X0030897D01*
X0031279Y0052167D02*
Y0051834D01*
X0031307Y0052167D02*
X0031140D01*
X0031084Y0052112D01*
Y0052056D01*
X0031112Y0052001D01*
X0031279D02*
X0031112D01*
X0031084Y0051945D01*
Y0051889D01*
X0031140Y0051834D01*
X0031307D01*
X0031717Y0052001D02*
X0031550D01*
X0031494Y0051945D01*
Y0051889D01*
X0031550Y0051834D01*
X0031717D01*
Y0052167D01*
X0026719Y0053528D02*
X0026775Y0053500D01*
X0026830D01*
X0026886Y0053528D01*
Y0053695D01*
X0026830Y0053722D01*
X0026775D01*
X0026719Y0053695D01*
Y0053528D01*
X0026664Y0053500D01*
X0026608D01*
X0026553Y0053528D01*
Y0053695D01*
X0026608Y0053722D01*
X0026664D01*
X0026719Y0053695D01*
X0026553Y0053910D02*
Y0054021D01*
Y0053966D02*
X0026886D01*
X0026830Y0054021D01*
X0026719Y0054348D02*
X0026553Y0054264D01*
X0026719Y0054487D02*
Y0054320D01*
X0026775Y0054264D01*
X0026830D01*
X0026886Y0054320D01*
Y0054487D01*
X0026553D01*
X0033412Y0042334D02*
X0033439Y0042390D01*
Y0042445D01*
X0033412Y0042501D01*
X0033245D01*
X0033217Y0042445D01*
Y0042390D01*
X0033245Y0042334D01*
X0033412D01*
X0033439Y0042279D01*
Y0042223D01*
X0033412Y0042168D01*
X0033245D01*
X0033217Y0042223D01*
Y0042279D01*
X0033245Y0042334D01*
X0032835Y0042168D02*
Y0042501D01*
X0032807Y0042168D02*
X0032974D01*
X0033029Y0042223D01*
Y0042279D01*
X0033002Y0042334D01*
X0032835D02*
X0033002D01*
X0033029Y0042390D01*
Y0042445D01*
X0032974Y0042501D01*
X0032807D01*
X0022007Y0056685D02*
Y0056463D01*
X0021785Y0056685D01*
X0021730D01*
X0021674Y0056658D01*
Y0056491D01*
X0021730Y0056463D01*
X0022007Y0056136D02*
X0021952Y0056081D01*
X0021896Y0056053D01*
X0021785D01*
X0021730Y0056081D01*
X0021674Y0056136D01*
Y0056192D01*
X0021730Y0056248D01*
X0021785Y0056275D01*
X0021896D01*
X0021952Y0056248D01*
X0022007Y0056192D01*
Y0056136D01*
Y0055671D02*
X0021674D01*
X0022007Y0055643D02*
Y0055810D01*
X0021896Y0055865D01*
X0021785D01*
X0021674Y0055810D01*
Y0055643D01*
X0022368Y0054227D02*
X0022313Y0054171D01*
Y0054060D01*
X0022368Y0054004D01*
X0022424D01*
X0022535Y0054116D01*
X0022646Y0054004D01*
Y0054227D01*
X0022313Y0054414D02*
Y0054637D01*
X0022535Y0054414D01*
X0022590D01*
X0022646Y0054442D01*
Y0054609D01*
X0022590Y0054637D01*
X0022479Y0054908D02*
X0022313Y0054824D01*
X0022479Y0055047D02*
Y0054880D01*
X0022535Y0054824D01*
X0022590D01*
X0022646Y0054880D01*
Y0055047D01*
X0022313D01*
X0027248Y0055907D02*
X0027193Y0055879D01*
Y0055712D01*
X0027248Y0055684D01*
X0027359D01*
X0027415Y0055740D01*
Y0055907D01*
X0027526D01*
Y0055684D01*
X0027193Y0056094D02*
Y0056317D01*
X0027415Y0056094D01*
X0027470D01*
X0027526Y0056122D01*
Y0056289D01*
X0027470Y0056317D01*
X0027359Y0056588D02*
X0027193Y0056504D01*
X0027359Y0056727D02*
Y0056560D01*
X0027415Y0056504D01*
X0027470D01*
X0027526Y0056560D01*
Y0056727D01*
X0027193D01*
X0033334Y0057296D02*
X0033557D01*
X0033446Y0057074D01*
X0033390D01*
Y0057407D01*
X0033744Y0057074D02*
Y0057352D01*
X0033772Y0057407D01*
X0033939D01*
X0033967Y0057352D01*
Y0057074D01*
X0032391Y0058157D02*
X0032224Y0057824D01*
X0032446D01*
X0032634Y0058157D02*
X0032745D01*
X0032689D02*
Y0057824D01*
X0032745Y0057879D01*
X0033016Y0057991D02*
X0032988Y0057935D01*
Y0057879D01*
X0033016Y0057824D01*
X0033183D01*
X0033211Y0057879D01*
Y0057935D01*
X0033183Y0057991D01*
X0033016D01*
X0032988Y0058046D01*
Y0058102D01*
X0033016Y0058157D01*
X0033183D01*
X0033211Y0058102D01*
Y0058046D01*
X0033183Y0057991D01*
X0033398Y0058102D02*
X0033426Y0058157D01*
X0033593D01*
X0033621Y0058102D01*
Y0057879D01*
X0033593Y0057824D01*
X0033426D01*
X0033398Y0057879D01*
X0034031Y0057991D02*
X0033864D01*
X0033808Y0057935D01*
Y0057879D01*
X0033864Y0057824D01*
X0034031D01*
Y0058157D01*
X0023767Y0051133D02*
X0023434Y0051300D01*
Y0051077D01*
X0023767Y0050890D02*
Y0050779D01*
Y0050834D02*
X0023434D01*
X0023489Y0050779D01*
X0023601Y0050452D02*
X0023767Y0050535D01*
X0023601Y0050313D02*
Y0050480D01*
X0023545Y0050535D01*
X0023489D01*
X0023434Y0050480D01*
Y0050313D01*
X0023767D01*
X0041362Y0052001D02*
X0041334Y0051945D01*
Y0051889D01*
X0041362Y0051834D01*
X0041529D01*
X0041557Y0051889D01*
Y0051945D01*
X0041529Y0052001D01*
X0041362D01*
X0041334Y0052056D01*
Y0052112D01*
X0041362Y0052167D01*
X0041529D01*
X0041557Y0052112D01*
Y0052056D01*
X0041529Y0052001D01*
X0041744Y0051834D02*
Y0052112D01*
X0041772Y0052167D01*
X0041939D01*
X0041967Y0052112D01*
Y0051834D01*
X0040391Y0052917D02*
X0040224Y0052584D01*
X0040446D01*
X0040634Y0052917D02*
X0040745D01*
X0040689D02*
Y0052584D01*
X0040745Y0052639D01*
X0041016Y0052751D02*
X0040988Y0052695D01*
Y0052639D01*
X0041016Y0052584D01*
X0041183D01*
X0041211Y0052639D01*
Y0052695D01*
X0041183Y0052751D01*
X0041016D01*
X0040988Y0052806D01*
Y0052862D01*
X0041016Y0052917D01*
X0041183D01*
X0041211Y0052862D01*
Y0052806D01*
X0041183Y0052751D01*
X0041398Y0052862D02*
X0041426Y0052917D01*
X0041593D01*
X0041621Y0052862D01*
Y0052639D01*
X0041593Y0052584D01*
X0041426D01*
X0041398Y0052639D01*
X0042031Y0052751D02*
X0041864D01*
X0041808Y0052695D01*
Y0052639D01*
X0041864Y0052584D01*
X0042031D01*
Y0052917D01*
X0023439Y0068328D02*
X0023217D01*
X0023439Y0068550D01*
Y0068605D01*
X0023412Y0068661D01*
X0023245D01*
X0023217Y0068605D01*
X0022918Y0068328D02*
Y0068661D01*
X0023029D02*
X0022807D01*
X0033374Y0057407D02*
X0033597D01*
X0033374Y0057185D01*
Y0057129D01*
X0033402Y0057074D01*
X0033569D01*
X0033597Y0057129D01*
X0033784Y0057074D02*
Y0057352D01*
X0033812Y0057407D01*
X0033896Y0057241D01*
Y0057185D02*
Y0057241D01*
X0033979Y0057407D01*
X0034007Y0057352D01*
Y0057074D01*
X0034194Y0057129D02*
X0034222Y0057074D01*
X0034389D01*
X0034417Y0057129D01*
Y0057185D01*
X0034389Y0057241D01*
X0034222D01*
X0034194Y0057296D01*
Y0057352D01*
X0034222Y0057407D01*
X0034389D01*
X0034417Y0057352D01*
X0034604Y0057518D02*
X0034827D01*
X0035209Y0057407D02*
Y0057074D01*
X0035237Y0057407D02*
X0035070D01*
X0035014Y0057352D01*
Y0057296D01*
X0035042Y0057241D01*
X0035209D02*
X0035042D01*
X0035014Y0057185D01*
Y0057129D01*
X0035070Y0057074D01*
X0035237D01*
X0035647Y0057241D02*
X0035480D01*
X0035424Y0057185D01*
Y0057129D01*
X0035480Y0057074D01*
X0035647D01*
Y0057407D01*
X0030443Y0057824D02*
Y0058157D01*
X0030499Y0058102D01*
X0030610Y0057879D01*
X0030666Y0057824D01*
Y0058157D01*
X0031048D02*
X0031076Y0058102D01*
Y0057879D01*
X0031048Y0057824D01*
X0030881D01*
X0030853Y0057879D01*
Y0058102D01*
X0030881Y0058157D01*
X0031048D01*
X0031374D02*
Y0057824D01*
X0031263D02*
X0031486D01*
X0031784Y0058157D02*
Y0057824D01*
X0031673D02*
X0031896D01*
X0032083D02*
Y0058102D01*
X0032111Y0058157D01*
X0032278D01*
X0032306Y0058102D01*
Y0057824D01*
X0032688Y0058157D02*
Y0057824D01*
X0032716Y0058157D02*
X0032549D01*
X0032493Y0058102D01*
Y0058046D01*
X0032521Y0057991D01*
X0032688D02*
X0032521D01*
X0032493Y0057935D01*
Y0057879D01*
X0032549Y0057824D01*
X0032716D01*
X0032903Y0057991D02*
X0033126D01*
X0032903Y0058157D02*
Y0057824D01*
X0033126Y0058157D02*
Y0057824D01*
X0033313Y0057879D02*
X0033341Y0057824D01*
X0033508D01*
X0033536Y0057879D01*
Y0057935D01*
X0033508Y0057991D01*
X0033341D01*
X0033313Y0058046D01*
Y0058102D01*
X0033341Y0058157D01*
X0033508D01*
X0033536Y0058102D01*
X0033723Y0057824D02*
Y0058102D01*
X0033751Y0058157D01*
X0033918D01*
X0033946Y0058102D01*
Y0057824D01*
X0034356Y0057991D02*
X0034189D01*
X0034133Y0057935D01*
Y0057879D01*
X0034189Y0057824D01*
X0034356D01*
Y0058157D01*
X0035078Y0057824D02*
Y0058102D01*
X0035106Y0058157D01*
X0035189Y0057991D01*
Y0057935D02*
Y0057991D01*
X0035273Y0058157D01*
X0035301Y0058102D01*
Y0057824D01*
X0035488Y0057879D02*
X0035516Y0057824D01*
X0035683D01*
X0035711Y0057879D01*
Y0057935D01*
X0035683Y0057991D01*
X0035516D01*
X0035488Y0058046D01*
Y0058102D01*
X0035516Y0058157D01*
X0035683D01*
X0035711Y0058102D01*
X0023908Y0048637D02*
X0023853Y0048609D01*
Y0048442D01*
X0023908Y0048414D01*
X0024019D01*
X0024075Y0048470D01*
Y0048637D01*
X0024186D01*
Y0048414D01*
X0023908Y0048824D02*
X0023853Y0048852D01*
Y0049019D01*
X0023908Y0049047D01*
X0024130D01*
X0024186Y0049019D01*
Y0048852D01*
X0024130Y0048824D01*
X0020024Y0068328D02*
X0019913D01*
X0019968D02*
Y0068661D01*
X0019913Y0068605D01*
X0019558Y0068328D02*
Y0068661D01*
X0019669D02*
X0019447D01*
X0027527Y0058445D02*
Y0058223D01*
X0027305Y0058445D01*
X0027250D01*
X0027194Y0058418D01*
Y0058251D01*
X0027250Y0058223D01*
X0027527Y0058035D02*
Y0057813D01*
X0027305Y0058035D01*
X0027250D01*
X0027194Y0058008D01*
Y0057841D01*
X0027250Y0057813D01*
X0027527Y0057431D02*
X0027194D01*
X0027527Y0057403D02*
Y0057570D01*
X0027416Y0057625D01*
X0027305D01*
X0027194Y0057570D01*
Y0057403D01*
X0022007Y0061245D02*
Y0061023D01*
X0021785Y0061245D01*
X0021730D01*
X0021674Y0061218D01*
Y0061051D01*
X0021730Y0061023D01*
X0021952Y0060613D02*
X0022007Y0060669D01*
Y0060780D01*
X0021952Y0060835D01*
X0021896D01*
X0021785Y0060724D01*
X0021674Y0060835D01*
Y0060613D01*
X0022007Y0060231D02*
X0021674D01*
X0022007Y0060203D02*
Y0060370D01*
X0021896Y0060425D01*
X0021785D01*
X0021674Y0060370D01*
Y0060203D01*
X0035944Y0049294D02*
Y0049517D01*
X0036166Y0049406D01*
Y0049350D01*
X0035833D01*
X0035999Y0049788D02*
X0035833Y0049704D01*
X0035999Y0049927D02*
Y0049760D01*
X0036055Y0049704D01*
X0036110D01*
X0036166Y0049760D01*
Y0049927D01*
X0035833D01*
X0026513Y0052584D02*
Y0052917D01*
X0026569Y0052862D01*
X0026680Y0052639D01*
X0026736Y0052584D01*
Y0052917D01*
X0027118D02*
X0027146Y0052862D01*
Y0052639D01*
X0027118Y0052584D01*
X0026951D01*
X0026923Y0052639D01*
Y0052862D01*
X0026951Y0052917D01*
X0027118D01*
X0027444D02*
Y0052584D01*
X0027333D02*
X0027556D01*
X0027854Y0052917D02*
Y0052584D01*
X0027743D02*
X0027966D01*
X0028153D02*
Y0052862D01*
X0028181Y0052917D01*
X0028348D01*
X0028376Y0052862D01*
Y0052584D01*
X0028758Y0052917D02*
Y0052584D01*
X0028786Y0052917D02*
X0028619D01*
X0028563Y0052862D01*
Y0052806D01*
X0028591Y0052751D01*
X0028758D02*
X0028591D01*
X0028563Y0052695D01*
Y0052639D01*
X0028619Y0052584D01*
X0028786D01*
X0028973Y0052751D02*
X0029196D01*
X0028973Y0052917D02*
Y0052584D01*
X0029196Y0052917D02*
Y0052584D01*
X0029383Y0052639D02*
X0029411Y0052584D01*
X0029578D01*
X0029606Y0052639D01*
Y0052695D01*
X0029578Y0052751D01*
X0029411D01*
X0029383Y0052806D01*
Y0052862D01*
X0029411Y0052917D01*
X0029578D01*
X0029606Y0052862D01*
X0029793Y0052584D02*
Y0052862D01*
X0029821Y0052917D01*
X0029988D01*
X0030016Y0052862D01*
Y0052584D01*
X0030426Y0052751D02*
X0030259D01*
X0030203Y0052695D01*
Y0052639D01*
X0030259Y0052584D01*
X0030426D01*
Y0052917D01*
X0031148Y0052584D02*
Y0052862D01*
X0031176Y0052917D01*
X0031259Y0052751D01*
Y0052695D02*
Y0052751D01*
X0031343Y0052917D01*
X0031371Y0052862D01*
Y0052584D01*
X0031558Y0052639D02*
X0031586Y0052584D01*
X0031753D01*
X0031781Y0052639D01*
Y0052695D01*
X0031753Y0052751D01*
X0031586D01*
X0031558Y0052806D01*
Y0052862D01*
X0031586Y0052917D01*
X0031753D01*
X0031781Y0052862D01*
X0026321Y0058225D02*
Y0058392D01*
X0026376Y0058420D01*
X0026432D01*
X0026487Y0058392D01*
Y0058225D01*
X0026432Y0058197D01*
X0026376D01*
X0026154Y0058309D01*
X0026487Y0058010D02*
Y0057899D01*
Y0057954D02*
X0026154D01*
X0026209Y0057899D01*
X0026321Y0057572D02*
X0026487Y0057655D01*
X0026321Y0057433D02*
Y0057600D01*
X0026265Y0057655D01*
X0026209D01*
X0026154Y0057600D01*
Y0057433D01*
X0026487D01*
X0030306Y0057660D02*
Y0057438D01*
X0030084Y0057549D01*
Y0057605D01*
X0030417D01*
X0030306Y0057139D02*
X0030417Y0057250D01*
X0030362Y0057028D02*
X0030417Y0057056D01*
Y0057167D01*
X0030362Y0057195D01*
X0030306Y0057250D01*
X0030140D01*
X0030084Y0057223D01*
Y0057056D01*
X0030140Y0057028D01*
X0030362D01*
X0028576Y0061052D02*
Y0060886D01*
X0028742D02*
X0028409D01*
Y0061108D01*
X0028742Y0060504D02*
X0028409D01*
X0028742Y0060476D02*
Y0060642D01*
X0028687Y0060698D01*
X0028631D01*
X0028576Y0060670D01*
Y0060504D02*
Y0060670D01*
X0028520Y0060698D01*
X0028464D01*
X0028409Y0060642D01*
Y0060476D01*
X0028576Y0060066D02*
Y0060232D01*
X0028520Y0060288D01*
X0028464D01*
X0028409Y0060232D01*
Y0060066D01*
X0028742D01*
X0028409Y0059878D02*
X0028742D01*
X0028687Y0059822D01*
X0028464Y0059711D01*
X0028409Y0059656D01*
X0028742D01*
X0028687Y0059246D02*
X0028742Y0059301D01*
Y0059412D01*
X0028687Y0059468D01*
X0028631D01*
X0028520Y0059357D01*
X0028409Y0059468D01*
Y0059246D01*
X0028742Y0058919D02*
X0028687Y0058864D01*
X0028631Y0058836D01*
X0028520D01*
X0028464Y0058864D01*
X0028409Y0058919D01*
Y0058975D01*
X0028464Y0059030D01*
X0028520Y0059058D01*
X0028631D01*
X0028687Y0059030D01*
X0028742Y0058975D01*
Y0058919D01*
Y0058648D02*
Y0058426D01*
X0028520Y0058648D01*
X0028464D01*
X0028409Y0058620D01*
Y0058454D01*
X0028464Y0058426D01*
X0028742Y0058238D02*
Y0058016D01*
X0028520Y0058238D01*
X0028464D01*
X0028409Y0058210D01*
Y0058044D01*
X0028464Y0058016D01*
X0028742Y0057828D02*
Y0057634D01*
X0028409D01*
X0028576Y0057363D02*
X0028742Y0057446D01*
X0028576Y0057224D02*
Y0057390D01*
X0028520Y0057446D01*
X0028464D01*
X0028409Y0057390D01*
Y0057224D01*
X0028742D01*
Y0057036D02*
Y0056925D01*
Y0056980D02*
X0028409D01*
Y0057036D02*
Y0056925D01*
X0024553Y0053583D02*
X0024608Y0053639D01*
X0024664Y0053667D01*
X0024775D01*
X0024830Y0053639D01*
X0024886Y0053583D01*
Y0053528D01*
X0024830Y0053472D01*
X0024775Y0053444D01*
X0024664D01*
X0024608Y0053472D01*
X0024553Y0053528D01*
Y0053583D01*
Y0053854D02*
Y0054077D01*
X0024775Y0053854D01*
X0024830D01*
X0024886Y0053882D01*
Y0054049D01*
X0024830Y0054077D01*
X0024719Y0054348D02*
X0024553Y0054264D01*
X0024719Y0054487D02*
Y0054320D01*
X0024775Y0054264D01*
X0024830D01*
X0024886Y0054320D01*
Y0054487D01*
X0024553D01*
X0025679Y0053528D02*
Y0053695D01*
X0025735Y0053722D01*
X0025790D01*
X0025846Y0053695D01*
Y0053528D01*
X0025790Y0053500D01*
X0025735D01*
X0025513Y0053611D01*
Y0053910D02*
Y0054021D01*
Y0053966D02*
X0025846D01*
X0025790Y0054021D01*
X0025679Y0054348D02*
X0025513Y0054264D01*
X0025679Y0054487D02*
Y0054320D01*
X0025735Y0054264D01*
X0025790D01*
X0025846Y0054320D01*
Y0054487D01*
X0025513D01*
X0036765Y0068494D02*
X0036932D01*
X0036959Y0068439D01*
Y0068383D01*
X0036932Y0068328D01*
X0036765D01*
X0036737Y0068383D01*
Y0068439D01*
X0036848Y0068661D01*
X0036438Y0068328D02*
Y0068661D01*
X0036549D02*
X0036327D01*
X0020079Y0042168D02*
X0019857D01*
X0020079Y0042390D01*
Y0042445D01*
X0020052Y0042501D01*
X0019885D01*
X0019857Y0042445D01*
X0019475Y0042168D02*
Y0042501D01*
X0019447Y0042168D02*
X0019614D01*
X0019669Y0042223D01*
Y0042279D01*
X0019642Y0042334D01*
X0019475D02*
X0019642D01*
X0019669Y0042390D01*
Y0042445D01*
X0019614Y0042501D01*
X0019447D01*
X0030079Y0068439D02*
X0029857D01*
X0029968Y0068661D01*
X0030024D01*
Y0068328D01*
X0029558D02*
Y0068661D01*
X0029669D02*
X0029447D01*
X0023593Y0053500D02*
Y0053611D01*
Y0053556D02*
X0023926D01*
X0023870Y0053611D01*
X0023593Y0053854D02*
Y0054077D01*
X0023815Y0053854D01*
X0023870D01*
X0023926Y0053882D01*
Y0054049D01*
X0023870Y0054077D01*
X0023759Y0054348D02*
X0023593Y0054264D01*
X0023759Y0054487D02*
Y0054320D01*
X0023815Y0054264D01*
X0023870D01*
X0023926Y0054320D01*
Y0054487D01*
X0023593D01*
X0027073Y0048466D02*
Y0048577D01*
Y0048522D02*
X0027406D01*
X0027350Y0048577D01*
X0027406Y0048820D02*
X0027128D01*
X0027073Y0048848D01*
Y0049015D01*
X0027128Y0049043D01*
X0027406D01*
X0027717Y0045746D02*
Y0045941D01*
X0028050D01*
X0027717Y0046128D02*
Y0046351D01*
X0027939Y0046128D01*
X0027994D01*
X0028050Y0046156D01*
Y0046323D01*
X0027994Y0046351D01*
X0027772Y0046761D02*
X0027717Y0046705D01*
Y0046594D01*
X0027772Y0046538D01*
X0027828D01*
X0027939Y0046649D01*
X0028050Y0046538D01*
Y0046761D01*
X0027828Y0046948D02*
Y0047171D01*
X0027717Y0046948D02*
X0027883D01*
X0028050Y0047032D01*
Y0047087D01*
X0027883Y0047171D01*
X0027717D01*
X0027883Y0047469D02*
Y0047358D01*
X0027772D01*
X0027717Y0047386D01*
Y0047553D01*
X0027772Y0047581D01*
X0027994D01*
X0028050Y0047553D01*
Y0047386D01*
X0027994Y0047358D01*
X0027883Y0047824D02*
Y0047991D01*
X0027717Y0047768D02*
Y0047991D01*
X0028050D01*
Y0047768D01*
X0027717Y0048178D02*
X0028050D01*
X0027994Y0048234D01*
X0027883Y0048289D01*
X0027994Y0048345D01*
X0028050Y0048401D01*
X0027717D01*
Y0048699D02*
X0028050D01*
Y0048588D02*
Y0048811D01*
X0027828Y0048998D02*
Y0049221D01*
X0027717Y0048998D02*
X0027883D01*
X0028050Y0049082D01*
Y0049137D01*
X0027883Y0049221D01*
X0027717D01*
X0020044Y0053694D02*
Y0053917D01*
X0020266Y0053806D01*
Y0053750D01*
X0019933D01*
X0019988Y0054104D02*
X0019933Y0054132D01*
Y0054299D01*
X0019988Y0054327D01*
X0020210D01*
X0020266Y0054299D01*
Y0054132D01*
X0020210Y0054104D01*
X0043273Y0042248D02*
X0043439Y0042581D01*
X0043217D01*
X0042835Y0042248D02*
Y0042581D01*
X0042807Y0042248D02*
X0042974D01*
X0043029Y0042303D01*
Y0042359D01*
X0043002Y0042414D01*
X0042835D02*
X0043002D01*
X0043029Y0042470D01*
Y0042525D01*
X0042974Y0042581D01*
X0042807D01*
X0026432Y0062277D02*
X0026487Y0062305D01*
Y0062472D01*
X0026432Y0062500D01*
X0026321D01*
X0026265Y0062444D01*
Y0062277D01*
X0026154D01*
Y0062500D01*
X0026487Y0062090D02*
Y0061979D01*
Y0062034D02*
X0026154D01*
X0026209Y0061979D01*
X0026321Y0061652D02*
X0026487Y0061735D01*
X0026321Y0061513D02*
Y0061680D01*
X0026265Y0061735D01*
X0026209D01*
X0026154Y0061680D01*
Y0061513D01*
X0026487D01*
X0041501Y0057407D02*
X0041334Y0057074D01*
X0041557D01*
X0041744D02*
Y0057352D01*
X0041772Y0057407D01*
X0041939D01*
X0041967Y0057352D01*
Y0057074D01*
X0040391Y0058157D02*
X0040224Y0057824D01*
X0040446D01*
X0040634Y0058157D02*
X0040745D01*
X0040689D02*
Y0057824D01*
X0040745Y0057879D01*
X0041016Y0057991D02*
X0040988Y0057935D01*
Y0057879D01*
X0041016Y0057824D01*
X0041183D01*
X0041211Y0057879D01*
Y0057935D01*
X0041183Y0057991D01*
X0041016D01*
X0040988Y0058046D01*
Y0058102D01*
X0041016Y0058157D01*
X0041183D01*
X0041211Y0058102D01*
Y0058046D01*
X0041183Y0057991D01*
X0041398Y0058102D02*
X0041426Y0058157D01*
X0041593D01*
X0041621Y0058102D01*
Y0057879D01*
X0041593Y0057824D01*
X0041426D01*
X0041398Y0057879D01*
X0042031Y0057991D02*
X0041864D01*
X0041808Y0057935D01*
Y0057879D01*
X0041864Y0057824D01*
X0042031D01*
Y0058157D01*
X0042793Y0049079D02*
X0042848Y0049135D01*
X0042904Y0049162D01*
X0043015D01*
X0043070Y0049135D01*
X0043126Y0049079D01*
Y0049023D01*
X0043070Y0048968D01*
X0043015Y0048940D01*
X0042904D01*
X0042848Y0048968D01*
X0042793Y0049023D01*
Y0049079D01*
Y0049350D02*
Y0049461D01*
Y0049406D02*
X0043126D01*
X0043070Y0049461D01*
X0042959Y0049788D02*
X0042793Y0049704D01*
X0042959Y0049927D02*
Y0049760D01*
X0043015Y0049704D01*
X0043070D01*
X0043126Y0049760D01*
Y0049927D01*
X0042793D01*
X0027336Y0060475D02*
Y0060253D01*
X0027114Y0060364D01*
Y0060420D01*
X0027447D01*
Y0060065D02*
Y0059843D01*
X0027225Y0060065D01*
X0027169D01*
X0027114Y0060038D01*
Y0059871D01*
X0027169Y0059843D01*
X0027281Y0059572D02*
X0027447Y0059655D01*
X0027281Y0059433D02*
Y0059600D01*
X0027225Y0059655D01*
X0027169D01*
X0027114Y0059600D01*
Y0059433D01*
X0027447D01*
X0030159Y0042279D02*
X0029937D01*
X0030048Y0042501D01*
X0030104D01*
Y0042168D01*
X0029555D02*
Y0042501D01*
X0029527Y0042168D02*
X0029694D01*
X0029749Y0042223D01*
Y0042279D01*
X0029722Y0042334D01*
X0029555D02*
X0029722D01*
X0029749Y0042390D01*
Y0042445D01*
X0029694Y0042501D01*
X0029527D01*
X0027318Y0045219D02*
X0027151D01*
X0027123Y0045275D01*
Y0045330D01*
X0027151Y0045386D01*
X0027318D01*
X0027345Y0045330D01*
Y0045275D01*
X0027234Y0045053D01*
X0026935Y0045108D02*
X0026908Y0045053D01*
X0026741D01*
X0026713Y0045108D01*
Y0045330D01*
X0026741Y0045386D01*
X0026908D01*
X0026935Y0045330D01*
X0026577Y0068383D02*
X0026633Y0068328D01*
X0026744D01*
X0026799Y0068383D01*
Y0068439D01*
X0026688Y0068550D01*
X0026799Y0068661D01*
X0026577D01*
X0026278Y0068328D02*
Y0068661D01*
X0026389D02*
X0026167D01*
X0039993Y0068328D02*
X0040159Y0068661D01*
X0039937D01*
X0039638Y0068328D02*
Y0068661D01*
X0039749D02*
X0039527D01*
X0030362Y0062478D02*
X0030417Y0062534D01*
Y0062645D01*
X0030362Y0062700D01*
X0030306D01*
X0030195Y0062589D01*
X0030084Y0062700D01*
Y0062478D01*
X0030306Y0062179D02*
X0030417Y0062290D01*
X0030362Y0062068D02*
X0030417Y0062096D01*
Y0062207D01*
X0030362Y0062235D01*
X0030306Y0062290D01*
X0030140D01*
X0030084Y0062263D01*
Y0062096D01*
X0030140Y0062068D01*
X0030362D01*
X0028576Y0066092D02*
Y0065926D01*
X0028742D02*
X0028409D01*
Y0066148D01*
X0028742Y0065544D02*
X0028409D01*
X0028742Y0065516D02*
Y0065682D01*
X0028687Y0065738D01*
X0028631D01*
X0028576Y0065710D01*
Y0065544D02*
Y0065710D01*
X0028520Y0065738D01*
X0028464D01*
X0028409Y0065682D01*
Y0065516D01*
X0028576Y0065106D02*
Y0065272D01*
X0028520Y0065328D01*
X0028464D01*
X0028409Y0065272D01*
Y0065106D01*
X0028742D01*
X0028409Y0064918D02*
X0028742D01*
X0028687Y0064862D01*
X0028464Y0064751D01*
X0028409Y0064696D01*
X0028742D01*
X0028687Y0064286D02*
X0028742Y0064341D01*
Y0064452D01*
X0028687Y0064508D01*
X0028631D01*
X0028520Y0064397D01*
X0028409Y0064508D01*
Y0064286D01*
X0028742Y0063959D02*
X0028687Y0063904D01*
X0028631Y0063876D01*
X0028520D01*
X0028464Y0063904D01*
X0028409Y0063959D01*
Y0064015D01*
X0028464Y0064070D01*
X0028520Y0064098D01*
X0028631D01*
X0028687Y0064070D01*
X0028742Y0064015D01*
Y0063959D01*
Y0063688D02*
Y0063466D01*
X0028520Y0063688D01*
X0028464D01*
X0028409Y0063660D01*
Y0063494D01*
X0028464Y0063466D01*
X0028742Y0063278D02*
Y0063056D01*
X0028520Y0063278D01*
X0028464D01*
X0028409Y0063250D01*
Y0063084D01*
X0028464Y0063056D01*
X0028742Y0062868D02*
Y0062674D01*
X0028409D01*
X0028576Y0062403D02*
X0028742Y0062486D01*
X0028576Y0062264D02*
Y0062430D01*
X0028520Y0062486D01*
X0028464D01*
X0028409Y0062430D01*
Y0062264D01*
X0028742D01*
Y0062076D02*
Y0061965D01*
Y0062020D02*
X0028409D01*
Y0062076D02*
Y0061965D01*
X0033557Y0052112D02*
X0033529Y0052167D01*
X0033362D01*
X0033334Y0052112D01*
Y0052001D01*
X0033390Y0051945D01*
X0033557D01*
Y0051834D01*
X0033334D01*
X0033744D02*
Y0052112D01*
X0033772Y0052167D01*
X0033939D01*
X0033967Y0052112D01*
Y0051834D01*
X0032391Y0052917D02*
X0032224Y0052584D01*
X0032446D01*
X0032634Y0052917D02*
X0032745D01*
X0032689D02*
Y0052584D01*
X0032745Y0052639D01*
X0033016Y0052751D02*
X0032988Y0052695D01*
Y0052639D01*
X0033016Y0052584D01*
X0033183D01*
X0033211Y0052639D01*
Y0052695D01*
X0033183Y0052751D01*
X0033016D01*
X0032988Y0052806D01*
Y0052862D01*
X0033016Y0052917D01*
X0033183D01*
X0033211Y0052862D01*
Y0052806D01*
X0033183Y0052751D01*
X0033398Y0052862D02*
X0033426Y0052917D01*
X0033593D01*
X0033621Y0052862D01*
Y0052639D01*
X0033593Y0052584D01*
X0033426D01*
X0033398Y0052639D01*
X0034031Y0052751D02*
X0033864D01*
X0033808Y0052695D01*
Y0052639D01*
X0033864Y0052584D01*
X0034031D01*
Y0052917D01*
X0020856Y0056660D02*
Y0056437D01*
X0020634Y0056549D01*
Y0056604D01*
X0020967D01*
Y0056250D02*
Y0056139D01*
Y0056194D02*
X0020634D01*
X0020689Y0056139D01*
X0020801Y0055812D02*
X0020967Y0055895D01*
X0020801Y0055673D02*
Y0055840D01*
X0020745Y0055895D01*
X0020689D01*
X0020634Y0055840D01*
Y0055673D01*
X0020967D01*
X0027747Y0052539D02*
X0027414Y0052705D01*
Y0052483D01*
X0027692Y0052295D02*
X0027747Y0052268D01*
Y0052101D01*
X0027692Y0052073D01*
X0027469D01*
X0027414Y0052101D01*
Y0052268D01*
X0027469Y0052295D01*
X0037334Y0052167D02*
X0037557D01*
X0037334Y0051945D01*
Y0051889D01*
X0037362Y0051834D01*
X0037529D01*
X0037557Y0051889D01*
X0037744Y0051834D02*
Y0052112D01*
X0037772Y0052167D01*
X0037939D01*
X0037967Y0052112D01*
Y0051834D01*
X0036391Y0052917D02*
X0036224Y0052584D01*
X0036446D01*
X0036634Y0052917D02*
X0036745D01*
X0036689D02*
Y0052584D01*
X0036745Y0052639D01*
X0037016Y0052751D02*
X0036988Y0052695D01*
Y0052639D01*
X0037016Y0052584D01*
X0037183D01*
X0037211Y0052639D01*
Y0052695D01*
X0037183Y0052751D01*
X0037016D01*
X0036988Y0052806D01*
Y0052862D01*
X0037016Y0052917D01*
X0037183D01*
X0037211Y0052862D01*
Y0052806D01*
X0037183Y0052751D01*
X0037398Y0052862D02*
X0037426Y0052917D01*
X0037593D01*
X0037621Y0052862D01*
Y0052639D01*
X0037593Y0052584D01*
X0037426D01*
X0037398Y0052639D01*
X0038031Y0052751D02*
X0037864D01*
X0037808Y0052695D01*
Y0052639D01*
X0037864Y0052584D01*
X0038031D01*
Y0052917D01*
X0026577Y0042223D02*
X0026633Y0042168D01*
X0026744D01*
X0026799Y0042223D01*
Y0042279D01*
X0026688Y0042390D01*
X0026799Y0042501D01*
X0026577D01*
X0026195Y0042168D02*
Y0042501D01*
X0026167Y0042168D02*
X0026334D01*
X0026389Y0042223D01*
Y0042279D01*
X0026362Y0042334D01*
X0026195D02*
X0026362D01*
X0026389Y0042390D01*
Y0042445D01*
X0026334Y0042501D01*
X0026167D01*
X0037667Y0052112D02*
X0037639Y0052167D01*
X0037472D01*
X0037444Y0052112D01*
Y0052001D01*
X0037500Y0051945D01*
X0037667D01*
Y0051834D01*
X0037444D01*
X0037854D02*
Y0052112D01*
X0037882Y0052167D01*
X0037966Y0052001D01*
Y0051945D02*
Y0052001D01*
X0038049Y0052167D01*
X0038077Y0052112D01*
Y0051834D01*
X0038264Y0051889D02*
X0038292Y0051834D01*
X0038459D01*
X0038487Y0051889D01*
Y0051945D01*
X0038459Y0052001D01*
X0038292D01*
X0038264Y0052056D01*
Y0052112D01*
X0038292Y0052167D01*
X0038459D01*
X0038487Y0052112D01*
X0038674Y0052278D02*
X0038897D01*
X0039279Y0052167D02*
Y0051834D01*
X0039307Y0052167D02*
X0039140D01*
X0039084Y0052112D01*
Y0052056D01*
X0039112Y0052001D01*
X0039279D02*
X0039112D01*
X0039084Y0051945D01*
Y0051889D01*
X0039140Y0051834D01*
X0039307D01*
X0039717Y0052001D02*
X0039550D01*
X0039494Y0051945D01*
Y0051889D01*
X0039550Y0051834D01*
X0039717D01*
Y0052167D01*
X0034513Y0052584D02*
Y0052917D01*
X0034569Y0052862D01*
X0034680Y0052639D01*
X0034736Y0052584D01*
Y0052917D01*
X0035118D02*
X0035146Y0052862D01*
Y0052639D01*
X0035118Y0052584D01*
X0034951D01*
X0034923Y0052639D01*
Y0052862D01*
X0034951Y0052917D01*
X0035118D01*
X0035444D02*
Y0052584D01*
X0035333D02*
X0035556D01*
X0035854Y0052917D02*
Y0052584D01*
X0035743D02*
X0035966D01*
X0036153D02*
Y0052862D01*
X0036181Y0052917D01*
X0036348D01*
X0036376Y0052862D01*
Y0052584D01*
X0036758Y0052917D02*
Y0052584D01*
X0036786Y0052917D02*
X0036619D01*
X0036563Y0052862D01*
Y0052806D01*
X0036591Y0052751D01*
X0036758D02*
X0036591D01*
X0036563Y0052695D01*
Y0052639D01*
X0036619Y0052584D01*
X0036786D01*
X0036973Y0052751D02*
X0037196D01*
X0036973Y0052917D02*
Y0052584D01*
X0037196Y0052917D02*
Y0052584D01*
X0037383Y0052639D02*
X0037411Y0052584D01*
X0037578D01*
X0037606Y0052639D01*
Y0052695D01*
X0037578Y0052751D01*
X0037411D01*
X0037383Y0052806D01*
Y0052862D01*
X0037411Y0052917D01*
X0037578D01*
X0037606Y0052862D01*
X0037793Y0052584D02*
Y0052862D01*
X0037821Y0052917D01*
X0037988D01*
X0038016Y0052862D01*
Y0052584D01*
X0038426Y0052751D02*
X0038259D01*
X0038203Y0052695D01*
Y0052639D01*
X0038259Y0052584D01*
X0038426D01*
Y0052917D01*
X0039148Y0052584D02*
Y0052862D01*
X0039176Y0052917D01*
X0039259Y0052751D01*
Y0052695D02*
Y0052751D01*
X0039343Y0052917D01*
X0039371Y0052862D01*
Y0052584D01*
X0039558Y0052639D02*
X0039586Y0052584D01*
X0039753D01*
X0039781Y0052639D01*
Y0052695D01*
X0039753Y0052751D01*
X0039586D01*
X0039558Y0052806D01*
Y0052862D01*
X0039586Y0052917D01*
X0039753D01*
X0039781Y0052862D01*
X0043492Y0068494D02*
X0043519Y0068550D01*
Y0068605D01*
X0043492Y0068661D01*
X0043325D01*
X0043297Y0068605D01*
Y0068550D01*
X0043325Y0068494D01*
X0043492D01*
X0043519Y0068439D01*
Y0068383D01*
X0043492Y0068328D01*
X0043325D01*
X0043297Y0068383D01*
Y0068439D01*
X0043325Y0068494D01*
X0042998Y0068328D02*
Y0068661D01*
X0043109D02*
X0042887D01*
X0022007Y0059275D02*
Y0059053D01*
X0021785Y0059275D01*
X0021729D01*
X0021674Y0059248D01*
Y0059081D01*
X0021729Y0059053D01*
X0022007Y0058865D02*
Y0058643D01*
X0021785Y0058865D01*
X0021729D01*
X0021674Y0058838D01*
Y0058671D01*
X0021729Y0058643D01*
X0021841Y0058372D02*
X0022007Y0058455D01*
X0021841Y0058233D02*
Y0058400D01*
X0021785Y0058455D01*
X0021729D01*
X0021674Y0058400D01*
Y0058233D01*
X0022007D01*
X0040239Y0049322D02*
X0040295Y0049294D01*
X0040350D01*
X0040406Y0049322D01*
Y0049489D01*
X0040350Y0049517D01*
X0040295D01*
X0040239Y0049489D01*
Y0049322D01*
X0040184Y0049294D01*
X0040128D01*
X0040073Y0049322D01*
Y0049489D01*
X0040128Y0049517D01*
X0040184D01*
X0040239Y0049489D01*
Y0049788D02*
X0040073Y0049704D01*
X0040239Y0049927D02*
Y0049760D01*
X0040295Y0049704D01*
X0040350D01*
X0040406Y0049760D01*
Y0049927D01*
X0040073D01*
X0024497Y0062645D02*
Y0062534D01*
Y0062589D02*
X0024164D01*
X0024220Y0062534D01*
X0024386Y0062179D02*
X0024497Y0062290D01*
X0024442Y0062068D02*
X0024497Y0062096D01*
Y0062207D01*
X0024442Y0062235D01*
X0024386Y0062290D01*
X0024220D01*
X0024164Y0062263D01*
Y0062096D01*
X0024220Y0062068D01*
X0024442D01*
X0043673Y0048940D02*
Y0049162D01*
X0043895Y0048940D01*
X0043950D01*
X0044006Y0048968D01*
Y0049135D01*
X0043950Y0049162D01*
X0043673Y0049350D02*
Y0049461D01*
Y0049406D02*
X0044006D01*
X0043950Y0049461D01*
X0043839Y0049788D02*
X0043673Y0049704D01*
X0043839Y0049927D02*
Y0049760D01*
X0043895Y0049704D01*
X0043950D01*
X0044006Y0049760D01*
Y0049927D01*
X0043673D01*
X0019933Y0046470D02*
Y0046581D01*
Y0046526D02*
X0020266D01*
X0020210Y0046581D01*
X0019988Y0046824D02*
X0019933Y0046852D01*
Y0047019D01*
X0019988Y0047047D01*
X0020210D01*
X0020266Y0047019D01*
Y0046852D01*
X0020210Y0046824D01*
X0023594Y0040552D02*
X0023705D01*
X0023650D02*
Y0040219D01*
X0023705Y0040274D01*
X0024143Y0040552D02*
Y0040219D01*
X0024171Y0040552D02*
X0024004D01*
X0023948Y0040497D01*
Y0040441D01*
X0023976Y0040386D01*
X0024143D02*
X0023976D01*
X0023948Y0040330D01*
Y0040274D01*
X0024004Y0040219D01*
X0024171D01*
X0030461Y0047151D02*
Y0047318D01*
X0030516Y0047345D01*
X0030572D01*
X0030627Y0047318D01*
Y0047151D01*
X0030572Y0047123D01*
X0030516D01*
X0030294Y0047234D01*
X0030572Y0046935D02*
X0030627Y0046908D01*
Y0046741D01*
X0030572Y0046713D01*
X0030349D01*
X0030294Y0046741D01*
Y0046908D01*
X0030349Y0046935D01*
X0036417Y0042223D02*
X0036445Y0042168D01*
X0036612D01*
X0036639Y0042223D01*
Y0042334D01*
X0036584Y0042390D01*
X0036417D01*
Y0042501D01*
X0036639D01*
X0036035Y0042168D02*
Y0042501D01*
X0036007Y0042168D02*
X0036174D01*
X0036229Y0042223D01*
Y0042279D01*
X0036202Y0042334D01*
X0036035D02*
X0036202D01*
X0036229Y0042390D01*
Y0042445D01*
X0036174Y0042501D01*
X0036007D01*
X0022656Y0066092D02*
Y0065926D01*
X0022822D02*
X0022489D01*
Y0066148D01*
X0022822Y0065544D02*
X0022489D01*
X0022822Y0065516D02*
Y0065682D01*
X0022767Y0065738D01*
X0022711D01*
X0022656Y0065710D01*
Y0065544D02*
Y0065710D01*
X0022600Y0065738D01*
X0022544D01*
X0022489Y0065682D01*
Y0065516D01*
X0022656Y0065106D02*
Y0065272D01*
X0022600Y0065328D01*
X0022544D01*
X0022489Y0065272D01*
Y0065106D01*
X0022822D01*
X0022489Y0064918D02*
X0022822D01*
X0022767Y0064862D01*
X0022544Y0064751D01*
X0022489Y0064696D01*
X0022822D01*
X0022767Y0064286D02*
X0022822Y0064341D01*
Y0064452D01*
X0022767Y0064508D01*
X0022711D01*
X0022600Y0064397D01*
X0022489Y0064508D01*
Y0064286D01*
X0022822Y0063959D02*
X0022767Y0063904D01*
X0022711Y0063876D01*
X0022600D01*
X0022544Y0063904D01*
X0022489Y0063959D01*
Y0064015D01*
X0022544Y0064070D01*
X0022600Y0064098D01*
X0022711D01*
X0022767Y0064070D01*
X0022822Y0064015D01*
Y0063959D01*
Y0063688D02*
Y0063466D01*
X0022600Y0063688D01*
X0022544D01*
X0022489Y0063660D01*
Y0063494D01*
X0022544Y0063466D01*
X0022822Y0063278D02*
Y0063056D01*
X0022600Y0063278D01*
X0022544D01*
X0022489Y0063250D01*
Y0063084D01*
X0022544Y0063056D01*
X0022822Y0062868D02*
Y0062674D01*
X0022489D01*
X0022656Y0062403D02*
X0022822Y0062486D01*
X0022656Y0062264D02*
Y0062430D01*
X0022600Y0062486D01*
X0022544D01*
X0022489Y0062430D01*
Y0062264D01*
X0022822D01*
Y0062076D02*
Y0061965D01*
Y0062020D02*
X0022489D01*
Y0062076D02*
Y0061965D01*
X0020912Y0060997D02*
X0020967Y0061053D01*
Y0061164D01*
X0020912Y0061220D01*
X0020856D01*
X0020745Y0061109D01*
X0020634Y0061220D01*
Y0060997D01*
X0020967Y0060810D02*
Y0060699D01*
Y0060754D02*
X0020634D01*
X0020689Y0060699D01*
X0020801Y0060372D02*
X0020967Y0060455D01*
X0020801Y0060233D02*
Y0060400D01*
X0020745Y0060455D01*
X0020689D01*
X0020634Y0060400D01*
Y0060233D01*
X0020967D01*
X0037529Y0057241D02*
X0037362D01*
X0037334Y0057296D01*
Y0057352D01*
X0037362Y0057407D01*
X0037529D01*
X0037557Y0057352D01*
Y0057296D01*
X0037446Y0057074D01*
X0037744D02*
Y0057352D01*
X0037772Y0057407D01*
X0037939D01*
X0037967Y0057352D01*
Y0057074D01*
X0036391Y0058157D02*
X0036224Y0057824D01*
X0036446D01*
X0036634Y0058157D02*
X0036745D01*
X0036689D02*
Y0057824D01*
X0036745Y0057879D01*
X0037016Y0057991D02*
X0036988Y0057935D01*
Y0057879D01*
X0037016Y0057824D01*
X0037183D01*
X0037211Y0057879D01*
Y0057935D01*
X0037183Y0057991D01*
X0037016D01*
X0036988Y0058046D01*
Y0058102D01*
X0037016Y0058157D01*
X0037183D01*
X0037211Y0058102D01*
Y0058046D01*
X0037183Y0057991D01*
X0037398Y0058102D02*
X0037426Y0058157D01*
X0037593D01*
X0037621Y0058102D01*
Y0057879D01*
X0037593Y0057824D01*
X0037426D01*
X0037398Y0057879D01*
X0038031Y0057991D02*
X0037864D01*
X0037808Y0057935D01*
Y0057879D01*
X0037864Y0057824D01*
X0038031D01*
Y0058157D01*
X0024497Y0057660D02*
Y0057438D01*
X0024275Y0057660D01*
X0024220D01*
X0024164Y0057633D01*
Y0057466D01*
X0024220Y0057438D01*
X0024386Y0057139D02*
X0024497Y0057250D01*
X0024442Y0057028D02*
X0024497Y0057056D01*
Y0057167D01*
X0024442Y0057195D01*
X0024386Y0057250D01*
X0024220D01*
X0024164Y0057223D01*
Y0057056D01*
X0024220Y0057028D01*
X0024442D01*
X0022656Y0061052D02*
Y0060886D01*
X0022822D02*
X0022489D01*
Y0061108D01*
X0022822Y0060504D02*
X0022489D01*
X0022822Y0060476D02*
Y0060642D01*
X0022767Y0060698D01*
X0022711D01*
X0022656Y0060670D01*
Y0060504D02*
Y0060670D01*
X0022600Y0060698D01*
X0022544D01*
X0022489Y0060642D01*
Y0060476D01*
X0022656Y0060066D02*
Y0060232D01*
X0022600Y0060288D01*
X0022544D01*
X0022489Y0060232D01*
Y0060066D01*
X0022822D01*
X0022489Y0059878D02*
X0022822D01*
X0022767Y0059822D01*
X0022544Y0059711D01*
X0022489Y0059656D01*
X0022822D01*
X0022767Y0059246D02*
X0022822Y0059301D01*
Y0059412D01*
X0022767Y0059468D01*
X0022711D01*
X0022600Y0059357D01*
X0022489Y0059468D01*
Y0059246D01*
X0022822Y0058919D02*
X0022767Y0058864D01*
X0022711Y0058836D01*
X0022600D01*
X0022544Y0058864D01*
X0022489Y0058919D01*
Y0058975D01*
X0022544Y0059030D01*
X0022600Y0059058D01*
X0022711D01*
X0022767Y0059030D01*
X0022822Y0058975D01*
Y0058919D01*
Y0058648D02*
Y0058426D01*
X0022600Y0058648D01*
X0022544D01*
X0022489Y0058620D01*
Y0058454D01*
X0022544Y0058426D01*
X0022822Y0058238D02*
Y0058016D01*
X0022600Y0058238D01*
X0022544D01*
X0022489Y0058210D01*
Y0058044D01*
X0022544Y0058016D01*
X0022822Y0057828D02*
Y0057634D01*
X0022489D01*
X0022656Y0057363D02*
X0022822Y0057446D01*
X0022656Y0057224D02*
Y0057390D01*
X0022600Y0057446D01*
X0022544D01*
X0022489Y0057390D01*
Y0057224D01*
X0022822D01*
Y0057036D02*
Y0056925D01*
Y0056980D02*
X0022489D01*
Y0057036D02*
Y0056925D01*
X0022530Y0060580D02*
Y0064780D01*
X0024780D01*
Y0060580D01*
X0022530D01*
X0023080Y0064780D02*
Y0060580D01*
X0020610Y0047700D02*
Y0051900D01*
X0022860D01*
Y0047700D01*
X0020610D01*
X0021160Y0051900D02*
Y0047700D01*
X0028450Y0055540D02*
Y0059740D01*
X0030700D01*
Y0055540D01*
X0028450D01*
X0029000Y0059740D02*
Y0055540D01*
X0028450Y0060580D02*
Y0064780D01*
X0030700D01*
Y0060580D01*
X0028450D01*
X0029000Y0064780D02*
Y0060580D01*
X0022530Y0055540D02*
Y0059740D01*
X0024780D01*
Y0055540D01*
X0022530D01*
X0023080Y0059740D02*
Y0055540D01*
G54D40*
G01X0040239Y0049362D02*
X0040295Y0049334D01*
X0040350D01*
X0040406Y0049362D01*
Y0049529D01*
X0040350Y0049557D01*
X0040295D01*
X0040239Y0049529D01*
Y0049362D01*
X0040184Y0049334D01*
X0040128D01*
X0040073Y0049362D01*
Y0049529D01*
X0040128Y0049557D01*
X0040184D01*
X0040239Y0049529D01*
Y0049788D02*
X0040073Y0049704D01*
X0040239Y0049927D02*
Y0049760D01*
X0040295Y0049704D01*
X0040350D01*
X0040406Y0049760D01*
Y0049927D01*
X0040073D01*
X0039572Y0049159D02*
X0039739Y0049326D01*
X0039906Y0049159D01*
Y0049381D02*
X0039572D01*
Y0049668D02*
X0039628Y0049723D01*
X0039684Y0049751D01*
X0039795D01*
X0039850Y0049723D01*
X0039906Y0049668D01*
Y0049612D01*
X0039850Y0049557D01*
X0039795Y0049529D01*
X0039684D01*
X0039628Y0049557D01*
X0039572Y0049612D01*
Y0049668D01*
Y0049899D02*
Y0050010D01*
Y0049954D02*
X0039906D01*
X0039850Y0050010D01*
X0044128Y0062076D02*
Y0061843D01*
X0044051Y0061804D01*
X0043973D01*
X0043895Y0061843D01*
Y0062076D01*
X0043973Y0062115D01*
X0044051D01*
X0044362Y0061960D01*
X0044128Y0061529D02*
X0044362Y0061645D01*
X0044128Y0061334D02*
Y0061568D01*
X0044051Y0061645D01*
X0043973D01*
X0043895Y0061568D01*
Y0061334D01*
X0044362D01*
X0044612Y0062752D02*
X0044534Y0062674D01*
X0044456Y0062635D01*
X0044301D01*
X0044223Y0062674D01*
X0044145Y0062752D01*
Y0062830D01*
X0044223Y0062908D01*
X0044301Y0062947D01*
X0044456D01*
X0044534Y0062908D01*
X0044612Y0062830D01*
Y0062752D01*
Y0062282D02*
X0044534Y0062204D01*
X0044456Y0062165D01*
X0044301D01*
X0044223Y0062204D01*
X0044145Y0062282D01*
Y0062360D01*
X0044223Y0062438D01*
X0044301Y0062477D01*
X0044456D01*
X0044534Y0062438D01*
X0044612Y0062360D01*
Y0062282D01*
X0044534Y0061695D02*
X0044612Y0061734D01*
Y0061968D01*
X0044534Y0062007D01*
X0044379D01*
X0044301Y0061929D01*
Y0061695D01*
X0044145D01*
Y0062007D01*
X0044667Y0062508D02*
X0044612Y0062452D01*
X0044556Y0062424D01*
X0044445D01*
X0044390Y0062452D01*
X0044334Y0062508D01*
Y0062563D01*
X0044390Y0062619D01*
X0044445Y0062647D01*
X0044556D01*
X0044612Y0062619D01*
X0044667Y0062563D01*
Y0062508D01*
Y0062138D02*
X0044612Y0062082D01*
X0044556Y0062054D01*
X0044445D01*
X0044390Y0062082D01*
X0044334Y0062138D01*
Y0062193D01*
X0044390Y0062249D01*
X0044445Y0062277D01*
X0044556D01*
X0044612Y0062249D01*
X0044667Y0062193D01*
Y0062138D01*
X0044612Y0061684D02*
X0044667Y0061712D01*
Y0061879D01*
X0044612Y0061907D01*
X0044501D01*
X0044445Y0061851D01*
Y0061684D01*
X0044334D01*
Y0061907D01*
X0026972Y0065189D02*
X0027027Y0065161D01*
Y0064994D01*
X0026972Y0064966D01*
X0026749D01*
X0026694Y0064994D01*
Y0065161D01*
X0026749Y0065189D01*
X0026694Y0064819D02*
X0026972D01*
X0027027Y0064791D01*
X0026861Y0064708D01*
X0026805D02*
X0026861D01*
X0027027Y0064624D01*
X0026972Y0064596D01*
X0026694D01*
Y0064449D02*
X0026972D01*
X0027027Y0064421D01*
Y0064254D01*
X0026972Y0064226D01*
X0026694D01*
X0026972Y0063856D02*
X0027027Y0063884D01*
Y0064051D01*
X0026972Y0064079D01*
X0026861D01*
X0026805Y0064023D01*
Y0063856D01*
X0026694D01*
Y0064079D01*
X0027027Y0063570D02*
X0026972Y0063514D01*
X0026916Y0063486D01*
X0026805D01*
X0026749Y0063514D01*
X0026694Y0063570D01*
Y0063625D01*
X0026749Y0063681D01*
X0026805Y0063709D01*
X0026916D01*
X0026972Y0063681D01*
X0027027Y0063625D01*
Y0063570D01*
X0026861Y0063311D02*
X0026805Y0063339D01*
X0026749D01*
X0026694Y0063311D01*
Y0063144D01*
X0026749Y0063116D01*
X0026805D01*
X0026861Y0063144D01*
Y0063311D01*
X0026916Y0063339D01*
X0026972D01*
X0027027Y0063311D01*
Y0063144D01*
X0026972Y0063116D01*
X0026916D01*
X0026861Y0063144D01*
X0027027Y0062830D02*
X0026972Y0062774D01*
X0026916Y0062746D01*
X0026805D01*
X0026749Y0062774D01*
X0026694Y0062830D01*
Y0062885D01*
X0026749Y0062941D01*
X0026805Y0062969D01*
X0026916D01*
X0026972Y0062941D01*
X0027027Y0062885D01*
Y0062830D01*
X0026861Y0062599D02*
Y0062376D01*
X0027027Y0062229D02*
Y0062034D01*
X0026694D01*
Y0061887D02*
X0027027D01*
X0026972Y0061831D01*
X0026749Y0061720D01*
X0026694Y0061664D01*
X0027027D01*
X0026861Y0061405D02*
Y0061517D01*
X0026972D01*
X0027027Y0061489D01*
Y0061322D01*
X0026972Y0061294D01*
X0026749D01*
X0026694Y0061322D01*
Y0061489D01*
X0026749Y0061517D01*
X0027527Y0062390D02*
Y0062167D01*
X0027305Y0062390D01*
X0027250D01*
X0027194Y0062362D01*
Y0062195D01*
X0027250Y0062167D01*
X0027527Y0062020D02*
Y0061909D01*
Y0061964D02*
X0027194D01*
X0027250Y0061909D01*
X0027527Y0061511D02*
X0027194D01*
X0027527Y0061483D02*
Y0061650D01*
X0027416Y0061705D01*
X0027305D01*
X0027194Y0061650D01*
Y0061483D01*
X0039359Y0049529D02*
Y0049362D01*
X0039304Y0049334D01*
X0039248D01*
X0039193Y0049362D01*
Y0049529D01*
X0039248Y0049557D01*
X0039304D01*
X0039526Y0049446D01*
X0039359Y0049788D02*
X0039193Y0049704D01*
X0039359Y0049927D02*
Y0049760D01*
X0039415Y0049704D01*
X0039470D01*
X0039526Y0049760D01*
Y0049927D01*
X0039193D01*
X0038692Y0049159D02*
X0038859Y0049326D01*
X0039026Y0049159D01*
Y0049381D02*
X0038692D01*
Y0049668D02*
X0038748Y0049723D01*
X0038804Y0049751D01*
X0038915D01*
X0038970Y0049723D01*
X0039026Y0049668D01*
Y0049612D01*
X0038970Y0049557D01*
X0038915Y0049529D01*
X0038804D01*
X0038748Y0049557D01*
X0038692Y0049612D01*
Y0049668D01*
Y0049899D02*
Y0050010D01*
Y0049954D02*
X0039026D01*
X0038970Y0050010D01*
X0036713Y0049334D02*
Y0049557D01*
X0036935Y0049334D01*
X0036990D01*
X0037046Y0049362D01*
Y0049529D01*
X0036990Y0049557D01*
X0036879Y0049788D02*
X0036713Y0049704D01*
X0036879Y0049927D02*
Y0049760D01*
X0036935Y0049704D01*
X0036990D01*
X0037046Y0049760D01*
Y0049927D01*
X0036713D01*
X0036212Y0049159D02*
X0036379Y0049326D01*
X0036546Y0049159D01*
Y0049381D02*
X0036212D01*
Y0049668D02*
X0036268Y0049723D01*
X0036324Y0049751D01*
X0036435D01*
X0036490Y0049723D01*
X0036546Y0049668D01*
Y0049612D01*
X0036490Y0049557D01*
X0036435Y0049529D01*
X0036324D01*
X0036268Y0049557D01*
X0036212Y0049612D01*
Y0049668D01*
Y0049899D02*
Y0050010D01*
Y0049954D02*
X0036546D01*
X0036490Y0050010D01*
X0041012Y0063392D02*
X0040934Y0063314D01*
X0040856Y0063275D01*
X0040701D01*
X0040623Y0063314D01*
X0040545Y0063392D01*
Y0063470D01*
X0040623Y0063548D01*
X0040701Y0063587D01*
X0040856D01*
X0040934Y0063548D01*
X0041012Y0063470D01*
Y0063392D01*
Y0062922D02*
X0040934Y0062844D01*
X0040856Y0062805D01*
X0040701D01*
X0040623Y0062844D01*
X0040545Y0062922D01*
Y0063000D01*
X0040623Y0063078D01*
X0040701Y0063117D01*
X0040856D01*
X0040934Y0063078D01*
X0041012Y0063000D01*
Y0062922D01*
X0040934Y0062335D02*
X0041012Y0062374D01*
Y0062608D01*
X0040934Y0062647D01*
X0040779D01*
X0040701Y0062569D01*
Y0062335D01*
X0040545D01*
Y0062647D01*
X0041067Y0063148D02*
X0041012Y0063092D01*
X0040956Y0063064D01*
X0040845D01*
X0040790Y0063092D01*
X0040734Y0063148D01*
Y0063203D01*
X0040790Y0063259D01*
X0040845Y0063287D01*
X0040956D01*
X0041012Y0063259D01*
X0041067Y0063203D01*
Y0063148D01*
Y0062778D02*
X0041012Y0062722D01*
X0040956Y0062694D01*
X0040845D01*
X0040790Y0062722D01*
X0040734Y0062778D01*
Y0062833D01*
X0040790Y0062889D01*
X0040845Y0062917D01*
X0040956D01*
X0041012Y0062889D01*
X0041067Y0062833D01*
Y0062778D01*
X0041012Y0062324D02*
X0041067Y0062352D01*
Y0062519D01*
X0041012Y0062547D01*
X0040901D01*
X0040845Y0062491D01*
Y0062324D01*
X0040734D01*
Y0062547D01*
X0026719Y0053608D02*
X0026775Y0053580D01*
X0026830D01*
X0026886Y0053608D01*
Y0053775D01*
X0026830Y0053802D01*
X0026775D01*
X0026719Y0053775D01*
Y0053608D01*
X0026664Y0053580D01*
X0026608D01*
X0026553Y0053608D01*
Y0053775D01*
X0026608Y0053802D01*
X0026664D01*
X0026719Y0053775D01*
X0026553Y0053950D02*
Y0054061D01*
Y0054006D02*
X0026886D01*
X0026830Y0054061D01*
X0026719Y0054348D02*
X0026553Y0054264D01*
X0026719Y0054487D02*
Y0054320D01*
X0026775Y0054264D01*
X0026830D01*
X0026886Y0054320D01*
Y0054487D01*
X0026553D01*
X0026052Y0054089D02*
X0026219Y0054256D01*
X0026386Y0054089D01*
Y0054311D02*
X0026052D01*
Y0054459D02*
Y0054570D01*
Y0054514D02*
X0026386D01*
X0026330Y0054570D01*
X0021452Y0059349D02*
X0021507Y0059321D01*
Y0059154D01*
X0021452Y0059126D01*
X0021229D01*
X0021174Y0059154D01*
Y0059321D01*
X0021229Y0059349D01*
X0021174Y0058979D02*
X0021452D01*
X0021507Y0058951D01*
X0021341Y0058868D01*
X0021285D02*
X0021341D01*
X0021507Y0058784D01*
X0021452Y0058756D01*
X0021174D01*
Y0058609D02*
X0021452D01*
X0021507Y0058581D01*
Y0058414D01*
X0021452Y0058386D01*
X0021174D01*
X0021452Y0058016D02*
X0021507Y0058044D01*
Y0058211D01*
X0021452Y0058239D01*
X0021341D01*
X0021285Y0058183D01*
Y0058016D01*
X0021174D01*
Y0058239D01*
X0021507Y0057730D02*
X0021452Y0057674D01*
X0021396Y0057646D01*
X0021285D01*
X0021229Y0057674D01*
X0021174Y0057730D01*
Y0057785D01*
X0021229Y0057841D01*
X0021285Y0057869D01*
X0021396D01*
X0021452Y0057841D01*
X0021507Y0057785D01*
Y0057730D01*
X0021341Y0057471D02*
X0021285Y0057499D01*
X0021229D01*
X0021174Y0057471D01*
Y0057304D01*
X0021229Y0057276D01*
X0021285D01*
X0021341Y0057304D01*
Y0057471D01*
X0021396Y0057499D01*
X0021452D01*
X0021507Y0057471D01*
Y0057304D01*
X0021452Y0057276D01*
X0021396D01*
X0021341Y0057304D01*
X0021507Y0056990D02*
X0021452Y0056934D01*
X0021396Y0056906D01*
X0021285D01*
X0021229Y0056934D01*
X0021174Y0056990D01*
Y0057045D01*
X0021229Y0057101D01*
X0021285Y0057129D01*
X0021396D01*
X0021452Y0057101D01*
X0021507Y0057045D01*
Y0056990D01*
X0021341Y0056759D02*
Y0056536D01*
X0021507Y0056389D02*
Y0056194D01*
X0021174D01*
Y0056047D02*
X0021507D01*
X0021452Y0055991D01*
X0021229Y0055880D01*
X0021174Y0055824D01*
X0021507D01*
X0021341Y0055565D02*
Y0055677D01*
X0021452D01*
X0021507Y0055649D01*
Y0055482D01*
X0021452Y0055454D01*
X0021229D01*
X0021174Y0055482D01*
Y0055649D01*
X0021229Y0055677D01*
X0022007Y0056605D02*
Y0056383D01*
X0021785Y0056605D01*
X0021730D01*
X0021674Y0056578D01*
Y0056411D01*
X0021730Y0056383D01*
X0022007Y0056096D02*
X0021952Y0056041D01*
X0021896Y0056013D01*
X0021785D01*
X0021730Y0056041D01*
X0021674Y0056096D01*
Y0056152D01*
X0021730Y0056208D01*
X0021785Y0056235D01*
X0021896D01*
X0021952Y0056208D01*
X0022007Y0056152D01*
Y0056096D01*
Y0055671D02*
X0021674D01*
X0022007Y0055643D02*
Y0055810D01*
X0021896Y0055865D01*
X0021785D01*
X0021674Y0055810D01*
Y0055643D01*
X0039322Y0061882D02*
X0038855Y0062115D01*
Y0061804D01*
X0039088Y0061529D02*
X0039322Y0061645D01*
X0039088Y0061334D02*
Y0061568D01*
X0039011Y0061645D01*
X0038933D01*
X0038855Y0061568D01*
Y0061334D01*
X0039322D01*
X0039572Y0062752D02*
X0039494Y0062674D01*
X0039416Y0062635D01*
X0039261D01*
X0039183Y0062674D01*
X0039105Y0062752D01*
Y0062830D01*
X0039183Y0062908D01*
X0039261Y0062947D01*
X0039416D01*
X0039494Y0062908D01*
X0039572Y0062830D01*
Y0062752D01*
Y0062282D02*
X0039494Y0062204D01*
X0039416Y0062165D01*
X0039261D01*
X0039183Y0062204D01*
X0039105Y0062282D01*
Y0062360D01*
X0039183Y0062438D01*
X0039261Y0062477D01*
X0039416D01*
X0039494Y0062438D01*
X0039572Y0062360D01*
Y0062282D01*
X0039494Y0061695D02*
X0039572Y0061734D01*
Y0061968D01*
X0039494Y0062007D01*
X0039339D01*
X0039261Y0061929D01*
Y0061695D01*
X0039105D01*
Y0062007D01*
X0039627Y0062508D02*
X0039572Y0062452D01*
X0039516Y0062424D01*
X0039405D01*
X0039350Y0062452D01*
X0039294Y0062508D01*
Y0062563D01*
X0039350Y0062619D01*
X0039405Y0062647D01*
X0039516D01*
X0039572Y0062619D01*
X0039627Y0062563D01*
Y0062508D01*
Y0062138D02*
X0039572Y0062082D01*
X0039516Y0062054D01*
X0039405D01*
X0039350Y0062082D01*
X0039294Y0062138D01*
Y0062193D01*
X0039350Y0062249D01*
X0039405Y0062277D01*
X0039516D01*
X0039572Y0062249D01*
X0039627Y0062193D01*
Y0062138D01*
X0039572Y0061684D02*
X0039627Y0061712D01*
Y0061879D01*
X0039572Y0061907D01*
X0039461D01*
X0039405Y0061851D01*
Y0061684D01*
X0039294D01*
Y0061907D01*
X0022368Y0054307D02*
X0022313Y0054251D01*
Y0054140D01*
X0022368Y0054084D01*
X0022424D01*
X0022535Y0054196D01*
X0022646Y0054084D01*
Y0054307D01*
X0022313Y0054454D02*
Y0054677D01*
X0022535Y0054454D01*
X0022590D01*
X0022646Y0054482D01*
Y0054649D01*
X0022590Y0054677D01*
X0022479Y0054908D02*
X0022313Y0054824D01*
X0022479Y0055047D02*
Y0054880D01*
X0022535Y0054824D01*
X0022590D01*
X0022646Y0054880D01*
Y0055047D01*
X0022313D01*
X0021812Y0054279D02*
X0021979Y0054446D01*
X0022146Y0054279D01*
Y0054501D02*
X0021812D01*
Y0054788D02*
X0021868Y0054843D01*
X0021924Y0054871D01*
X0022035D01*
X0022090Y0054843D01*
X0022146Y0054788D01*
Y0054732D01*
X0022090Y0054677D01*
X0022035Y0054649D01*
X0021924D01*
X0021868Y0054677D01*
X0021812Y0054732D01*
Y0054788D01*
Y0055019D02*
Y0055130D01*
Y0055074D02*
X0022146D01*
X0022090Y0055130D01*
X0019267Y0048975D02*
Y0048753D01*
X0019045Y0048975D01*
X0018989D01*
X0018934Y0048948D01*
Y0048781D01*
X0018989Y0048753D01*
X0019212Y0048605D02*
X0019267Y0048578D01*
Y0048411D01*
X0019212Y0048383D01*
X0018989D01*
X0018934Y0048411D01*
Y0048578D01*
X0018989Y0048605D01*
X0020267Y0048929D02*
X0019934Y0049095D01*
Y0048873D01*
X0020267Y0048670D02*
Y0048725D01*
X0020212D01*
Y0048670D01*
X0020267D01*
X0020156Y0048467D02*
Y0048244D01*
X0019934Y0048355D01*
Y0048411D01*
X0020267D01*
X0027248Y0055987D02*
X0027193Y0055959D01*
Y0055792D01*
X0027248Y0055764D01*
X0027359D01*
X0027415Y0055820D01*
Y0055987D01*
X0027526D01*
Y0055764D01*
X0027193Y0056134D02*
Y0056357D01*
X0027415Y0056134D01*
X0027470D01*
X0027526Y0056162D01*
Y0056329D01*
X0027470Y0056357D01*
X0027359Y0056588D02*
X0027193Y0056504D01*
X0027359Y0056727D02*
Y0056560D01*
X0027415Y0056504D01*
X0027470D01*
X0027526Y0056560D01*
Y0056727D01*
X0027193D01*
X0023767Y0051053D02*
X0023434Y0051220D01*
Y0050997D01*
X0023767Y0050850D02*
Y0050739D01*
Y0050794D02*
X0023434D01*
X0023489Y0050739D01*
X0023601Y0050452D02*
X0023767Y0050535D01*
X0023601Y0050313D02*
Y0050480D01*
X0023545Y0050535D01*
X0023489D01*
X0023434Y0050480D01*
Y0050313D01*
X0023767D01*
X0024267Y0051081D02*
X0024101Y0050914D01*
X0023934Y0051081D01*
Y0050859D02*
X0024267D01*
Y0050572D02*
X0024212Y0050516D01*
X0024156Y0050489D01*
X0024045D01*
X0023990Y0050516D01*
X0023934Y0050572D01*
Y0050628D01*
X0023990Y0050683D01*
X0024045Y0050711D01*
X0024156D01*
X0024212Y0050683D01*
X0024267Y0050628D01*
Y0050572D01*
Y0050341D02*
Y0050230D01*
Y0050285D02*
X0023934D01*
X0023990Y0050230D01*
X0023908Y0048677D02*
X0023853Y0048649D01*
Y0048482D01*
X0023908Y0048454D01*
X0024019D01*
X0024075Y0048510D01*
Y0048677D01*
X0024186D01*
Y0048454D01*
X0023908Y0048824D02*
X0023853Y0048852D01*
Y0049019D01*
X0023908Y0049047D01*
X0024130D01*
X0024186Y0049019D01*
Y0048852D01*
X0024130Y0048824D01*
X0022602Y0048390D02*
Y0048501D01*
Y0048446D02*
X0022936D01*
X0022880Y0048501D01*
X0022602Y0048760D02*
Y0048704D01*
X0022658D01*
Y0048760D01*
X0022602D01*
Y0049102D02*
X0022658Y0049158D01*
X0022714Y0049186D01*
X0022825D01*
X0022880Y0049158D01*
X0022936Y0049102D01*
Y0049047D01*
X0022880Y0048991D01*
X0022825Y0048963D01*
X0022714D01*
X0022658Y0048991D01*
X0022602Y0049047D01*
Y0049102D01*
X0021518Y0053747D02*
X0021463Y0053691D01*
Y0053580D01*
X0021518Y0053524D01*
X0021574D01*
X0021685Y0053636D01*
X0021796Y0053524D01*
Y0053747D01*
X0021518Y0053894D02*
X0021463Y0053922D01*
Y0054089D01*
X0021518Y0054117D01*
X0021740D01*
X0021796Y0054089D01*
Y0053922D01*
X0021740Y0053894D01*
X0027527Y0058365D02*
Y0058143D01*
X0027305Y0058365D01*
X0027250D01*
X0027194Y0058338D01*
Y0058171D01*
X0027250Y0058143D01*
X0027527Y0057995D02*
Y0057773D01*
X0027305Y0057995D01*
X0027250D01*
X0027194Y0057968D01*
Y0057801D01*
X0027250Y0057773D01*
X0027527Y0057431D02*
X0027194D01*
X0027527Y0057403D02*
Y0057570D01*
X0027416Y0057625D01*
X0027305D01*
X0027194Y0057570D01*
Y0057403D01*
X0035642Y0062038D02*
Y0061882D01*
Y0061960D02*
X0035175D01*
X0035253Y0061882D01*
X0035408Y0061529D02*
X0035642Y0061645D01*
X0035408Y0061334D02*
Y0061568D01*
X0035331Y0061645D01*
X0035253D01*
X0035175Y0061568D01*
Y0061334D01*
X0035642D01*
X0035892Y0062752D02*
X0035814Y0062674D01*
X0035736Y0062635D01*
X0035581D01*
X0035503Y0062674D01*
X0035425Y0062752D01*
Y0062830D01*
X0035503Y0062908D01*
X0035581Y0062947D01*
X0035736D01*
X0035814Y0062908D01*
X0035892Y0062830D01*
Y0062752D01*
Y0062282D02*
X0035814Y0062204D01*
X0035736Y0062165D01*
X0035581D01*
X0035503Y0062204D01*
X0035425Y0062282D01*
Y0062360D01*
X0035503Y0062438D01*
X0035581Y0062477D01*
X0035736D01*
X0035814Y0062438D01*
X0035892Y0062360D01*
Y0062282D01*
X0035814Y0061695D02*
X0035892Y0061734D01*
Y0061968D01*
X0035814Y0062007D01*
X0035659D01*
X0035581Y0061929D01*
Y0061695D01*
X0035425D01*
Y0062007D01*
X0035947Y0062508D02*
X0035892Y0062452D01*
X0035836Y0062424D01*
X0035725D01*
X0035670Y0062452D01*
X0035614Y0062508D01*
Y0062563D01*
X0035670Y0062619D01*
X0035725Y0062647D01*
X0035836D01*
X0035892Y0062619D01*
X0035947Y0062563D01*
Y0062508D01*
Y0062138D02*
X0035892Y0062082D01*
X0035836Y0062054D01*
X0035725D01*
X0035670Y0062082D01*
X0035614Y0062138D01*
Y0062193D01*
X0035670Y0062249D01*
X0035725Y0062277D01*
X0035836D01*
X0035892Y0062249D01*
X0035947Y0062193D01*
Y0062138D01*
X0035892Y0061684D02*
X0035947Y0061712D01*
Y0061879D01*
X0035892Y0061907D01*
X0035781D01*
X0035725Y0061851D01*
Y0061684D01*
X0035614D01*
Y0061907D01*
X0021452Y0063909D02*
X0021507Y0063881D01*
Y0063714D01*
X0021452Y0063686D01*
X0021229D01*
X0021174Y0063714D01*
Y0063881D01*
X0021229Y0063909D01*
X0021174Y0063539D02*
X0021452D01*
X0021507Y0063511D01*
X0021341Y0063428D01*
X0021285D02*
X0021341D01*
X0021507Y0063344D01*
X0021452Y0063316D01*
X0021174D01*
Y0063169D02*
X0021452D01*
X0021507Y0063141D01*
Y0062974D01*
X0021452Y0062946D01*
X0021174D01*
X0021452Y0062576D02*
X0021507Y0062604D01*
Y0062771D01*
X0021452Y0062799D01*
X0021341D01*
X0021285Y0062743D01*
Y0062576D01*
X0021174D01*
Y0062799D01*
X0021507Y0062290D02*
X0021452Y0062234D01*
X0021396Y0062206D01*
X0021285D01*
X0021229Y0062234D01*
X0021174Y0062290D01*
Y0062345D01*
X0021229Y0062401D01*
X0021285Y0062429D01*
X0021396D01*
X0021452Y0062401D01*
X0021507Y0062345D01*
Y0062290D01*
X0021341Y0062031D02*
X0021285Y0062059D01*
X0021229D01*
X0021174Y0062031D01*
Y0061864D01*
X0021229Y0061836D01*
X0021285D01*
X0021341Y0061864D01*
Y0062031D01*
X0021396Y0062059D01*
X0021452D01*
X0021507Y0062031D01*
Y0061864D01*
X0021452Y0061836D01*
X0021396D01*
X0021341Y0061864D01*
X0021507Y0061550D02*
X0021452Y0061494D01*
X0021396Y0061466D01*
X0021285D01*
X0021229Y0061494D01*
X0021174Y0061550D01*
Y0061605D01*
X0021229Y0061661D01*
X0021285Y0061689D01*
X0021396D01*
X0021452Y0061661D01*
X0021507Y0061605D01*
Y0061550D01*
X0021341Y0061319D02*
Y0061096D01*
X0021507Y0060949D02*
Y0060754D01*
X0021174D01*
Y0060607D02*
X0021507D01*
X0021452Y0060551D01*
X0021229Y0060440D01*
X0021174Y0060384D01*
X0021507D01*
X0021341Y0060125D02*
Y0060237D01*
X0021452D01*
X0021507Y0060209D01*
Y0060042D01*
X0021452Y0060014D01*
X0021229D01*
X0021174Y0060042D01*
Y0060209D01*
X0021229Y0060237D01*
X0022007Y0061165D02*
Y0060943D01*
X0021785Y0061165D01*
X0021730D01*
X0021674Y0061138D01*
Y0060971D01*
X0021730Y0060943D01*
X0021952Y0060573D02*
X0022007Y0060629D01*
Y0060740D01*
X0021952Y0060795D01*
X0021896D01*
X0021785Y0060684D01*
X0021674Y0060795D01*
Y0060573D01*
X0022007Y0060231D02*
X0021674D01*
X0022007Y0060203D02*
Y0060370D01*
X0021896Y0060425D01*
X0021785D01*
X0021674Y0060370D01*
Y0060203D01*
X0035944Y0049334D02*
Y0049557D01*
X0036166Y0049446D01*
Y0049390D01*
X0035833D01*
X0035999Y0049788D02*
X0035833Y0049704D01*
X0035999Y0049927D02*
Y0049760D01*
X0036055Y0049704D01*
X0036110D01*
X0036166Y0049760D01*
Y0049927D01*
X0035833D01*
X0035332Y0049159D02*
X0035499Y0049326D01*
X0035666Y0049159D01*
Y0049381D02*
X0035332D01*
Y0049668D02*
X0035388Y0049723D01*
X0035444Y0049751D01*
X0035555D01*
X0035610Y0049723D01*
X0035666Y0049668D01*
Y0049612D01*
X0035610Y0049557D01*
X0035555Y0049529D01*
X0035444D01*
X0035388Y0049557D01*
X0035332Y0049612D01*
Y0049668D01*
Y0049899D02*
Y0050010D01*
Y0049954D02*
X0035666D01*
X0035610Y0050010D01*
X0026692Y0055959D02*
X0026859Y0056126D01*
X0027026Y0055959D01*
Y0056181D02*
X0026692D01*
Y0056468D02*
X0026748Y0056523D01*
X0026804Y0056551D01*
X0026915D01*
X0026970Y0056523D01*
X0027026Y0056468D01*
Y0056412D01*
X0026970Y0056357D01*
X0026915Y0056329D01*
X0026804D01*
X0026748Y0056357D01*
X0026692Y0056412D01*
Y0056468D01*
Y0056699D02*
Y0056810D01*
Y0056754D02*
X0027026D01*
X0026970Y0056810D01*
X0026321Y0058145D02*
Y0058312D01*
X0026376Y0058340D01*
X0026432D01*
X0026487Y0058312D01*
Y0058145D01*
X0026432Y0058117D01*
X0026376D01*
X0026154Y0058229D01*
X0026487Y0057970D02*
Y0057859D01*
Y0057914D02*
X0026154D01*
X0026209Y0057859D01*
X0026321Y0057572D02*
X0026487Y0057655D01*
X0026321Y0057433D02*
Y0057600D01*
X0026265Y0057655D01*
X0026209D01*
X0026154Y0057600D01*
Y0057433D01*
X0026487D01*
X0026987Y0058515D02*
X0026821Y0058349D01*
X0026654Y0058515D01*
Y0058293D02*
X0026987D01*
Y0058145D02*
Y0057923D01*
X0026765Y0058145D01*
X0026710D01*
X0026654Y0058118D01*
Y0057951D01*
X0026710Y0057923D01*
X0026987Y0057720D02*
Y0057775D01*
X0026932D01*
Y0057720D01*
X0026987D01*
Y0057517D02*
Y0057294D01*
X0026765Y0057517D01*
X0026710D01*
X0026654Y0057489D01*
Y0057322D01*
X0026710Y0057294D01*
X0038124Y0061804D02*
X0038202Y0061843D01*
Y0062076D01*
X0038124Y0062115D01*
X0037968D01*
X0037891Y0062038D01*
Y0061804D01*
X0037735D01*
Y0062115D01*
X0037968Y0061529D02*
X0038202Y0061645D01*
X0037968Y0061334D02*
Y0061568D01*
X0037891Y0061645D01*
X0037813D01*
X0037735Y0061568D01*
Y0061334D01*
X0038202D01*
X0038452Y0062752D02*
X0038374Y0062674D01*
X0038296Y0062635D01*
X0038141D01*
X0038063Y0062674D01*
X0037985Y0062752D01*
Y0062830D01*
X0038063Y0062908D01*
X0038141Y0062947D01*
X0038296D01*
X0038374Y0062908D01*
X0038452Y0062830D01*
Y0062752D01*
Y0062282D02*
X0038374Y0062204D01*
X0038296Y0062165D01*
X0038141D01*
X0038063Y0062204D01*
X0037985Y0062282D01*
Y0062360D01*
X0038063Y0062438D01*
X0038141Y0062477D01*
X0038296D01*
X0038374Y0062438D01*
X0038452Y0062360D01*
Y0062282D01*
X0038374Y0061695D02*
X0038452Y0061734D01*
Y0061968D01*
X0038374Y0062007D01*
X0038219D01*
X0038141Y0061929D01*
Y0061695D01*
X0037985D01*
Y0062007D01*
X0038507Y0062508D02*
X0038452Y0062452D01*
X0038396Y0062424D01*
X0038285D01*
X0038230Y0062452D01*
X0038174Y0062508D01*
Y0062563D01*
X0038230Y0062619D01*
X0038285Y0062647D01*
X0038396D01*
X0038452Y0062619D01*
X0038507Y0062563D01*
Y0062508D01*
Y0062138D02*
X0038452Y0062082D01*
X0038396Y0062054D01*
X0038285D01*
X0038230Y0062082D01*
X0038174Y0062138D01*
Y0062193D01*
X0038230Y0062249D01*
X0038285Y0062277D01*
X0038396D01*
X0038452Y0062249D01*
X0038507Y0062193D01*
Y0062138D01*
X0038452Y0061684D02*
X0038507Y0061712D01*
Y0061879D01*
X0038452Y0061907D01*
X0038341D01*
X0038285Y0061851D01*
Y0061684D01*
X0038174D01*
Y0061907D01*
X0040762Y0063070D02*
Y0062914D01*
Y0062992D02*
X0040295D01*
X0040373Y0062914D01*
X0040762Y0062678D02*
Y0062522D01*
Y0062600D02*
X0040295D01*
X0040373Y0062522D01*
X0040528Y0062169D02*
X0040762Y0062285D01*
X0040528Y0061974D02*
Y0062208D01*
X0040451Y0062285D01*
X0040373D01*
X0040295Y0062208D01*
Y0061974D01*
X0040762D01*
X0025679Y0053608D02*
Y0053775D01*
X0025735Y0053802D01*
X0025790D01*
X0025846Y0053775D01*
Y0053608D01*
X0025790Y0053580D01*
X0025735D01*
X0025513Y0053691D01*
Y0053950D02*
Y0054061D01*
Y0054006D02*
X0025846D01*
X0025790Y0054061D01*
X0025679Y0054348D02*
X0025513Y0054264D01*
X0025679Y0054487D02*
Y0054320D01*
X0025735Y0054264D01*
X0025790D01*
X0025846Y0054320D01*
Y0054487D01*
X0025513D01*
X0025012Y0054089D02*
X0025179Y0054256D01*
X0025346Y0054089D01*
Y0054311D02*
X0025012D01*
Y0054459D02*
Y0054570D01*
Y0054514D02*
X0025346D01*
X0025290Y0054570D01*
X0019933Y0046510D02*
Y0046621D01*
Y0046566D02*
X0020266D01*
X0020210Y0046621D01*
X0019988Y0046824D02*
X0019933Y0046852D01*
Y0047019D01*
X0019988Y0047047D01*
X0020210D01*
X0020266Y0047019D01*
Y0046852D01*
X0020210Y0046824D01*
X0024553Y0053663D02*
X0024608Y0053719D01*
X0024664Y0053747D01*
X0024775D01*
X0024830Y0053719D01*
X0024886Y0053663D01*
Y0053608D01*
X0024830Y0053552D01*
X0024775Y0053524D01*
X0024664D01*
X0024608Y0053552D01*
X0024553Y0053608D01*
Y0053663D01*
Y0053894D02*
Y0054117D01*
X0024775Y0053894D01*
X0024830D01*
X0024886Y0053922D01*
Y0054089D01*
X0024830Y0054117D01*
X0024719Y0054348D02*
X0024553Y0054264D01*
X0024719Y0054487D02*
Y0054320D01*
X0024775Y0054264D01*
X0024830D01*
X0024886Y0054320D01*
Y0054487D01*
X0024553D01*
X0024052Y0054089D02*
X0024219Y0054256D01*
X0024386Y0054089D01*
Y0054311D02*
X0024052D01*
Y0054459D02*
Y0054570D01*
Y0054514D02*
X0024386D01*
X0024330Y0054570D01*
X0023593Y0053580D02*
Y0053691D01*
Y0053636D02*
X0023926D01*
X0023870Y0053691D01*
X0023593Y0053894D02*
Y0054117D01*
X0023815Y0053894D01*
X0023870D01*
X0023926Y0053922D01*
Y0054089D01*
X0023870Y0054117D01*
X0023759Y0054348D02*
X0023593Y0054264D01*
X0023759Y0054487D02*
Y0054320D01*
X0023815Y0054264D01*
X0023870D01*
X0023926Y0054320D01*
Y0054487D01*
X0023593D01*
X0023092Y0054089D02*
X0023259Y0054256D01*
X0023426Y0054089D01*
Y0054311D02*
X0023092D01*
Y0054459D02*
Y0054570D01*
Y0054514D02*
X0023426D01*
X0023370Y0054570D01*
X0020044Y0053734D02*
Y0053957D01*
X0020266Y0053846D01*
Y0053790D01*
X0019933D01*
X0019988Y0054104D02*
X0019933Y0054132D01*
Y0054299D01*
X0019988Y0054327D01*
X0020210D01*
X0020266Y0054299D01*
Y0054132D01*
X0020210Y0054104D01*
X0020212Y0053908D02*
X0020268Y0053963D01*
X0020324Y0053991D01*
X0020435D01*
X0020490Y0053963D01*
X0020546Y0053908D01*
Y0053852D01*
X0020490Y0053797D01*
X0020435Y0053769D01*
X0020324D01*
X0020268Y0053797D01*
X0020212Y0053852D01*
Y0053908D01*
Y0054139D02*
Y0054250D01*
Y0054194D02*
X0020546D01*
X0020490Y0054250D01*
X0018682Y0053670D02*
Y0053781D01*
Y0053726D02*
X0019016D01*
X0018960Y0053781D01*
X0018682Y0054040D02*
Y0053984D01*
X0018738D01*
Y0054040D01*
X0018682D01*
Y0054382D02*
X0018738Y0054438D01*
X0018794Y0054466D01*
X0018905D01*
X0018960Y0054438D01*
X0019016Y0054382D01*
Y0054327D01*
X0018960Y0054271D01*
X0018905Y0054243D01*
X0018794D01*
X0018738Y0054271D01*
X0018682Y0054327D01*
Y0054382D01*
X0027370Y0043802D02*
X0027259D01*
X0027314D02*
Y0044136D01*
X0027259Y0044080D01*
X0027000Y0043802D02*
X0027055D01*
Y0043858D01*
X0027000D01*
Y0043802D01*
X0026658D02*
X0026602Y0043858D01*
X0026574Y0043914D01*
Y0044025D01*
X0026602Y0044080D01*
X0026658Y0044136D01*
X0026713D01*
X0026769Y0044080D01*
X0026797Y0044025D01*
Y0043914D01*
X0026769Y0043858D01*
X0026713Y0043802D01*
X0026658D01*
X0018738Y0046187D02*
X0018682Y0046131D01*
Y0046020D01*
X0018738Y0045964D01*
X0018794D01*
X0018905Y0046076D01*
X0019016Y0045964D01*
Y0046187D01*
X0018738Y0046557D02*
X0018682Y0046501D01*
Y0046390D01*
X0018738Y0046334D01*
X0018794D01*
X0018905Y0046446D01*
X0019016Y0046334D01*
Y0046557D01*
X0018682Y0046760D02*
Y0046704D01*
X0018738D01*
Y0046760D01*
X0018682D01*
Y0047102D02*
X0018738Y0047158D01*
X0018794Y0047186D01*
X0018905D01*
X0018960Y0047158D01*
X0019016Y0047102D01*
Y0047047D01*
X0018960Y0046991D01*
X0018905Y0046963D01*
X0018794D01*
X0018738Y0046991D01*
X0018682Y0047047D01*
Y0047102D01*
X0026432Y0062197D02*
X0026487Y0062225D01*
Y0062392D01*
X0026432Y0062420D01*
X0026321D01*
X0026265Y0062364D01*
Y0062197D01*
X0026154D01*
Y0062420D01*
X0026487Y0062050D02*
Y0061939D01*
Y0061994D02*
X0026154D01*
X0026209Y0061939D01*
X0026321Y0061652D02*
X0026487Y0061735D01*
X0026321Y0061513D02*
Y0061680D01*
X0026265Y0061735D01*
X0026209D01*
X0026154Y0061680D01*
Y0061513D01*
X0026487D01*
X0026987Y0062595D02*
X0026821Y0062429D01*
X0026654Y0062595D01*
Y0062373D02*
X0026987D01*
Y0062225D02*
Y0062003D01*
X0026765Y0062225D01*
X0026710D01*
X0026654Y0062198D01*
Y0062031D01*
X0026710Y0062003D01*
X0026987Y0061800D02*
Y0061855D01*
X0026932D01*
Y0061800D01*
X0026987D01*
Y0061597D02*
Y0061374D01*
X0026765Y0061597D01*
X0026710D01*
X0026654Y0061569D01*
Y0061402D01*
X0026710Y0061374D01*
X0027336Y0060395D02*
Y0060173D01*
X0027114Y0060284D01*
Y0060340D01*
X0027447D01*
Y0060025D02*
Y0059803D01*
X0027225Y0060025D01*
X0027169D01*
X0027114Y0059998D01*
Y0059831D01*
X0027169Y0059803D01*
X0027281Y0059572D02*
X0027447Y0059655D01*
X0027281Y0059433D02*
Y0059600D01*
X0027225Y0059655D01*
X0027169D01*
X0027114Y0059600D01*
Y0059433D01*
X0027447D01*
X0027947Y0060201D02*
X0027781Y0060034D01*
X0027614Y0060201D01*
Y0059979D02*
X0027947D01*
Y0059692D02*
X0027892Y0059636D01*
X0027836Y0059609D01*
X0027725D01*
X0027670Y0059636D01*
X0027614Y0059692D01*
Y0059748D01*
X0027670Y0059803D01*
X0027725Y0059831D01*
X0027836D01*
X0027892Y0059803D01*
X0027947Y0059748D01*
Y0059692D01*
Y0059461D02*
Y0059350D01*
Y0059405D02*
X0027614D01*
X0027670Y0059350D01*
X0042793Y0049159D02*
X0042848Y0049215D01*
X0042904Y0049242D01*
X0043015D01*
X0043070Y0049215D01*
X0043126Y0049159D01*
Y0049103D01*
X0043070Y0049048D01*
X0043015Y0049020D01*
X0042904D01*
X0042848Y0049048D01*
X0042793Y0049103D01*
Y0049159D01*
Y0049390D02*
Y0049501D01*
Y0049446D02*
X0043126D01*
X0043070Y0049501D01*
X0042959Y0049788D02*
X0042793Y0049704D01*
X0042959Y0049927D02*
Y0049760D01*
X0043015Y0049704D01*
X0043070D01*
X0043126Y0049760D01*
Y0049927D01*
X0042793D01*
X0042292Y0049159D02*
X0042459Y0049326D01*
X0042626Y0049159D01*
Y0049381D02*
X0042292D01*
Y0049668D02*
X0042348Y0049723D01*
X0042404Y0049751D01*
X0042515D01*
X0042570Y0049723D01*
X0042626Y0049668D01*
Y0049612D01*
X0042570Y0049557D01*
X0042515Y0049529D01*
X0042404D01*
X0042348Y0049557D01*
X0042292Y0049612D01*
Y0049668D01*
Y0049899D02*
Y0050010D01*
Y0049954D02*
X0042626D01*
X0042570Y0050010D01*
X0020856Y0056580D02*
Y0056357D01*
X0020634Y0056469D01*
Y0056524D01*
X0020967D01*
Y0056210D02*
Y0056099D01*
Y0056154D02*
X0020634D01*
X0020689Y0056099D01*
X0020801Y0055812D02*
X0020967Y0055895D01*
X0020801Y0055673D02*
Y0055840D01*
X0020745Y0055895D01*
X0020689D01*
X0020634Y0055840D01*
Y0055673D01*
X0020967D01*
X0021467Y0056755D02*
X0021301Y0056589D01*
X0021134Y0056755D01*
Y0056533D02*
X0021467D01*
Y0056385D02*
Y0056163D01*
X0021245Y0056385D01*
X0021190D01*
X0021134Y0056358D01*
Y0056191D01*
X0021190Y0056163D01*
X0021467Y0055960D02*
Y0056015D01*
X0021412D01*
Y0055960D01*
X0021467D01*
Y0055757D02*
Y0055534D01*
X0021245Y0055757D01*
X0021190D01*
X0021134Y0055729D01*
Y0055562D01*
X0021190Y0055534D01*
X0027747Y0052499D02*
X0027414Y0052665D01*
Y0052443D01*
X0027692Y0052295D02*
X0027747Y0052268D01*
Y0052101D01*
X0027692Y0052073D01*
X0027469D01*
X0027414Y0052101D01*
Y0052268D01*
X0027469Y0052295D01*
X0021102Y0054930D02*
X0020836D01*
X0020969Y0054797D02*
Y0055063D01*
X0028997Y0052730D02*
Y0052619D01*
Y0052674D02*
X0028664D01*
X0028720Y0052619D01*
X0028997Y0052360D02*
Y0052415D01*
X0028942D01*
Y0052360D01*
X0028997D01*
Y0052018D02*
X0028942Y0051962D01*
X0028886Y0051934D01*
X0028775D01*
X0028720Y0051962D01*
X0028664Y0052018D01*
Y0052073D01*
X0028720Y0052129D01*
X0028775Y0052157D01*
X0028886D01*
X0028942Y0052129D01*
X0028997Y0052073D01*
Y0052018D01*
X0030042Y0049190D02*
Y0049301D01*
Y0049246D02*
X0030376D01*
X0030320Y0049301D01*
X0030042Y0049560D02*
Y0049504D01*
X0030098D01*
Y0049560D01*
X0030042D01*
Y0049902D02*
X0030098Y0049958D01*
X0030154Y0049986D01*
X0030265D01*
X0030320Y0049958D01*
X0030376Y0049902D01*
Y0049847D01*
X0030320Y0049791D01*
X0030265Y0049763D01*
X0030154D01*
X0030098Y0049791D01*
X0030042Y0049847D01*
Y0049902D01*
X0027278Y0045219D02*
X0027111D01*
X0027083Y0045275D01*
Y0045330D01*
X0027111Y0045386D01*
X0027278D01*
X0027305Y0045330D01*
Y0045275D01*
X0027194Y0045053D01*
X0026935Y0045108D02*
X0026908Y0045053D01*
X0026741D01*
X0026713Y0045108D01*
Y0045330D01*
X0026741Y0045386D01*
X0026908D01*
X0026935Y0045330D01*
X0022007Y0059195D02*
Y0058973D01*
X0021785Y0059195D01*
X0021729D01*
X0021674Y0059168D01*
Y0059001D01*
X0021729Y0058973D01*
X0022007Y0058825D02*
Y0058603D01*
X0021785Y0058825D01*
X0021729D01*
X0021674Y0058798D01*
Y0058631D01*
X0021729Y0058603D01*
X0021841Y0058372D02*
X0022007Y0058455D01*
X0021841Y0058233D02*
Y0058400D01*
X0021785Y0058455D01*
X0021729D01*
X0021674Y0058400D01*
Y0058233D01*
X0022007D01*
X0022507Y0059001D02*
X0022341Y0058834D01*
X0022174Y0059001D01*
Y0058779D02*
X0022507D01*
Y0058492D02*
X0022452Y0058436D01*
X0022396Y0058409D01*
X0022285D01*
X0022230Y0058436D01*
X0022174Y0058492D01*
Y0058548D01*
X0022230Y0058603D01*
X0022285Y0058631D01*
X0022396D01*
X0022452Y0058603D01*
X0022507Y0058548D01*
Y0058492D01*
Y0058261D02*
Y0058150D01*
Y0058205D02*
X0022174D01*
X0022230Y0058150D01*
X0043673Y0049020D02*
Y0049242D01*
X0043895Y0049020D01*
X0043950D01*
X0044006Y0049048D01*
Y0049215D01*
X0043950Y0049242D01*
X0043673Y0049390D02*
Y0049501D01*
Y0049446D02*
X0044006D01*
X0043950Y0049501D01*
X0043839Y0049788D02*
X0043673Y0049704D01*
X0043839Y0049927D02*
Y0049760D01*
X0043895Y0049704D01*
X0043950D01*
X0044006Y0049760D01*
Y0049927D01*
X0043673D01*
X0026972Y0061109D02*
X0027027Y0061081D01*
Y0060914D01*
X0026972Y0060886D01*
X0026749D01*
X0026694Y0060914D01*
Y0061081D01*
X0026749Y0061109D01*
X0026694Y0060739D02*
X0026972D01*
X0027027Y0060711D01*
X0026861Y0060628D01*
X0026805D02*
X0026861D01*
X0027027Y0060544D01*
X0026972Y0060516D01*
X0026694D01*
Y0060369D02*
X0026972D01*
X0027027Y0060341D01*
Y0060174D01*
X0026972Y0060146D01*
X0026694D01*
X0026972Y0059776D02*
X0027027Y0059804D01*
Y0059971D01*
X0026972Y0059999D01*
X0026861D01*
X0026805Y0059943D01*
Y0059776D01*
X0026694D01*
Y0059999D01*
X0027027Y0059490D02*
X0026972Y0059434D01*
X0026916Y0059406D01*
X0026805D01*
X0026749Y0059434D01*
X0026694Y0059490D01*
Y0059545D01*
X0026749Y0059601D01*
X0026805Y0059629D01*
X0026916D01*
X0026972Y0059601D01*
X0027027Y0059545D01*
Y0059490D01*
X0026861Y0059231D02*
X0026805Y0059259D01*
X0026749D01*
X0026694Y0059231D01*
Y0059064D01*
X0026749Y0059036D01*
X0026805D01*
X0026861Y0059064D01*
Y0059231D01*
X0026916Y0059259D01*
X0026972D01*
X0027027Y0059231D01*
Y0059064D01*
X0026972Y0059036D01*
X0026916D01*
X0026861Y0059064D01*
X0027027Y0058750D02*
X0026972Y0058694D01*
X0026916Y0058666D01*
X0026805D01*
X0026749Y0058694D01*
X0026694Y0058750D01*
Y0058805D01*
X0026749Y0058861D01*
X0026805Y0058889D01*
X0026916D01*
X0026972Y0058861D01*
X0027027Y0058805D01*
Y0058750D01*
X0026861Y0058519D02*
Y0058296D01*
X0027027Y0058149D02*
Y0057954D01*
X0026694D01*
Y0057807D02*
X0027027D01*
X0026972Y0057751D01*
X0026749Y0057640D01*
X0026694Y0057584D01*
X0027027D01*
X0026861Y0057325D02*
Y0057437D01*
X0026972D01*
X0027027Y0057409D01*
Y0057242D01*
X0026972Y0057214D01*
X0026749D01*
X0026694Y0057242D01*
Y0057409D01*
X0026749Y0057437D01*
X0043172Y0049159D02*
X0043339Y0049326D01*
X0043506Y0049159D01*
Y0049381D02*
X0043172D01*
Y0049668D02*
X0043228Y0049723D01*
X0043284Y0049751D01*
X0043395D01*
X0043450Y0049723D01*
X0043506Y0049668D01*
Y0049612D01*
X0043450Y0049557D01*
X0043395Y0049529D01*
X0043284D01*
X0043228Y0049557D01*
X0043172Y0049612D01*
Y0049668D01*
Y0049899D02*
Y0050010D01*
Y0049954D02*
X0043506D01*
X0043450Y0050010D01*
X0030461Y0047111D02*
Y0047278D01*
X0030516Y0047305D01*
X0030572D01*
X0030627Y0047278D01*
Y0047111D01*
X0030572Y0047083D01*
X0030516D01*
X0030294Y0047194D01*
X0030572Y0046935D02*
X0030627Y0046908D01*
Y0046741D01*
X0030572Y0046713D01*
X0030349D01*
X0030294Y0046741D01*
Y0046908D01*
X0030349Y0046935D01*
X0031877Y0047370D02*
Y0047259D01*
Y0047314D02*
X0031544D01*
X0031600Y0047259D01*
X0031877Y0047000D02*
Y0047055D01*
X0031822D01*
Y0047000D01*
X0031877D01*
Y0046658D02*
X0031822Y0046602D01*
X0031766Y0046574D01*
X0031655D01*
X0031600Y0046602D01*
X0031544Y0046658D01*
Y0046713D01*
X0031600Y0046769D01*
X0031655Y0046797D01*
X0031766D01*
X0031822Y0046769D01*
X0031877Y0046713D01*
Y0046658D01*
X0034444Y0061804D02*
X0034522Y0061882D01*
Y0062038D01*
X0034444Y0062115D01*
X0034366D01*
X0034211Y0061960D01*
X0034055Y0062115D01*
Y0061804D01*
X0034288Y0061529D02*
X0034522Y0061645D01*
X0034288Y0061334D02*
Y0061568D01*
X0034211Y0061645D01*
X0034133D01*
X0034055Y0061568D01*
Y0061334D01*
X0034522D01*
X0034772Y0062752D02*
X0034694Y0062674D01*
X0034616Y0062635D01*
X0034461D01*
X0034383Y0062674D01*
X0034305Y0062752D01*
Y0062830D01*
X0034383Y0062908D01*
X0034461Y0062947D01*
X0034616D01*
X0034694Y0062908D01*
X0034772Y0062830D01*
Y0062752D01*
Y0062282D02*
X0034694Y0062204D01*
X0034616Y0062165D01*
X0034461D01*
X0034383Y0062204D01*
X0034305Y0062282D01*
Y0062360D01*
X0034383Y0062438D01*
X0034461Y0062477D01*
X0034616D01*
X0034694Y0062438D01*
X0034772Y0062360D01*
Y0062282D01*
X0034694Y0061695D02*
X0034772Y0061734D01*
Y0061968D01*
X0034694Y0062007D01*
X0034539D01*
X0034461Y0061929D01*
Y0061695D01*
X0034305D01*
Y0062007D01*
X0034827Y0062508D02*
X0034772Y0062452D01*
X0034716Y0062424D01*
X0034605D01*
X0034550Y0062452D01*
X0034494Y0062508D01*
Y0062563D01*
X0034550Y0062619D01*
X0034605Y0062647D01*
X0034716D01*
X0034772Y0062619D01*
X0034827Y0062563D01*
Y0062508D01*
Y0062138D02*
X0034772Y0062082D01*
X0034716Y0062054D01*
X0034605D01*
X0034550Y0062082D01*
X0034494Y0062138D01*
Y0062193D01*
X0034550Y0062249D01*
X0034605Y0062277D01*
X0034716D01*
X0034772Y0062249D01*
X0034827Y0062193D01*
Y0062138D01*
X0034772Y0061684D02*
X0034827Y0061712D01*
Y0061879D01*
X0034772Y0061907D01*
X0034661D01*
X0034605Y0061851D01*
Y0061684D01*
X0034494D01*
Y0061907D01*
X0031459Y0049282D02*
X0031515Y0049254D01*
X0031570D01*
X0031626Y0049282D01*
Y0049449D01*
X0031570Y0049477D01*
X0031515D01*
X0031459Y0049449D01*
Y0049282D01*
X0031404Y0049254D01*
X0031348D01*
X0031293Y0049282D01*
Y0049449D01*
X0031348Y0049477D01*
X0031404D01*
X0031459Y0049449D01*
X0031348Y0049624D02*
X0031293Y0049652D01*
Y0049819D01*
X0031348Y0049847D01*
X0031570D01*
X0031626Y0049819D01*
Y0049652D01*
X0031570Y0049624D01*
X0020912Y0060917D02*
X0020967Y0060973D01*
Y0061084D01*
X0020912Y0061140D01*
X0020856D01*
X0020745Y0061029D01*
X0020634Y0061140D01*
Y0060917D01*
X0020967Y0060770D02*
Y0060659D01*
Y0060714D02*
X0020634D01*
X0020689Y0060659D01*
X0020801Y0060372D02*
X0020967Y0060455D01*
X0020801Y0060233D02*
Y0060400D01*
X0020745Y0060455D01*
X0020689D01*
X0020634Y0060400D01*
Y0060233D01*
X0020967D01*
X0021467Y0061315D02*
X0021301Y0061149D01*
X0021134Y0061315D01*
Y0061093D02*
X0021467D01*
Y0060945D02*
Y0060723D01*
X0021245Y0060945D01*
X0021190D01*
X0021134Y0060918D01*
Y0060751D01*
X0021190Y0060723D01*
X0021467Y0060520D02*
Y0060575D01*
X0021412D01*
Y0060520D01*
X0021467D01*
Y0060317D02*
Y0060094D01*
X0021245Y0060317D01*
X0021190D01*
X0021134Y0060289D01*
Y0060122D01*
X0021190Y0060094D01*
X0020050Y0050150D02*
Y0047950D01*
X0019150D01*
Y0050150D01*
X0020050D01*
X0026985Y0055260D02*
X0027735D01*
Y0056860D01*
X0026985D01*
Y0055260D01*
X0024345Y0053020D02*
X0025095D01*
Y0054620D01*
X0024345D01*
Y0053020D01*
X0042585Y0048460D02*
X0043335D01*
Y0050060D01*
X0042585D01*
Y0048460D01*
X0030585Y0048380D02*
X0030540D01*
Y0049980D01*
X0031380D01*
Y0048380D01*
X0030585D01*
X0019225Y0045580D02*
X0019180D01*
Y0047180D01*
X0020020D01*
Y0045580D01*
X0019225D01*
X0020755Y0054675D02*
X0020480D01*
Y0052225D01*
X0021280D01*
Y0054675D01*
X0021005D01*
X0020880Y0054800D01*
X0020755Y0054675D01*
X0027885Y0058860D02*
X0026835D01*
Y0057280D01*
X0027275D01*
X0027360Y0057195D01*
X0027445Y0057280D01*
X0027885D01*
Y0058860D01*
X0039865Y0048460D02*
X0040615D01*
Y0050060D01*
X0039865D01*
Y0048460D01*
X0027885Y0062940D02*
X0026835D01*
Y0061360D01*
X0027275D01*
X0027360Y0061275D01*
X0027445Y0061360D01*
X0027885D01*
Y0062940D01*
X0038985Y0048460D02*
X0039735D01*
Y0050060D01*
X0038985D01*
Y0048460D01*
X0036505D02*
X0037255D01*
Y0050060D01*
X0036505D01*
Y0048460D01*
X0026345Y0053020D02*
X0027095D01*
Y0054620D01*
X0026345D01*
Y0053020D01*
X0022365Y0057100D02*
X0021315D01*
Y0055520D01*
X0021755D01*
X0021840Y0055435D01*
X0021925Y0055520D01*
X0022365D01*
Y0057100D01*
X0022105Y0053580D02*
X0022855D01*
Y0055180D01*
X0022105D01*
Y0053580D01*
X0023975Y0051780D02*
X0023225D01*
Y0050180D01*
X0023975D01*
Y0051780D01*
X0023145Y0047580D02*
X0023100D01*
Y0049180D01*
X0023940D01*
Y0047580D01*
X0023145D01*
X0022365Y0061660D02*
X0021315D01*
Y0060080D01*
X0021755D01*
X0021840Y0059995D01*
X0021925Y0060080D01*
X0022365D01*
Y0061660D01*
X0035625Y0048460D02*
X0036375D01*
Y0050060D01*
X0035625D01*
Y0048460D01*
X0026695Y0058900D02*
X0025945D01*
Y0057300D01*
X0026695D01*
Y0058900D01*
X0025305Y0053020D02*
X0026055D01*
Y0054620D01*
X0025305D01*
Y0053020D01*
X0023385D02*
X0024135D01*
Y0054620D01*
X0023385D01*
Y0053020D01*
X0019225Y0052860D02*
X0019180D01*
Y0054460D01*
X0020020D01*
Y0052860D01*
X0019225D01*
X0026695Y0062980D02*
X0025945D01*
Y0061380D01*
X0026695D01*
Y0062980D01*
X0027655Y0060900D02*
X0026905D01*
Y0059300D01*
X0027655D01*
Y0060900D01*
X0021175Y0057140D02*
X0020425D01*
Y0055540D01*
X0021175D01*
Y0057140D01*
X0028455Y0053540D02*
X0028500D01*
Y0051940D01*
X0027660D01*
Y0053540D01*
X0028455D01*
X0022215Y0059700D02*
X0021465D01*
Y0058100D01*
X0022215D01*
Y0059700D01*
X0043465Y0048460D02*
X0044215D01*
Y0050060D01*
X0043465D01*
Y0048460D01*
X0031335Y0048180D02*
X0031380D01*
Y0046580D01*
X0030540D01*
Y0048180D01*
X0031335D01*
X0021175Y0061700D02*
X0020425D01*
Y0060100D01*
X0021175D01*
Y0061700D01*
X0028180Y0044345D02*
Y0044300D01*
X0026580D01*
Y0045140D01*
X0028180D01*
Y0044345D01*
G54D50*
G01X0044067Y0062251D02*
Y0061984D01*
X0043978Y0061940D01*
X0043889D01*
X0043801Y0061984D01*
Y0062251D01*
X0043889Y0062295D01*
X0043978D01*
X0044334Y0062118D01*
X0044067Y0061562D02*
X0044334Y0061695D01*
X0044067Y0061340D02*
Y0061606D01*
X0043978Y0061695D01*
X0043889D01*
X0043801Y0061606D01*
Y0061340D01*
X0044334D01*
X0036719Y0042923D02*
X0036386D01*
X0036553Y0043256D01*
X0036636D01*
Y0042756D01*
X0036144D02*
X0035811D01*
X0036144Y0043090D01*
Y0043173D01*
X0036103Y0043256D01*
X0035853D01*
X0035811Y0043173D01*
X0035278Y0042923D02*
Y0042840D01*
X0035319Y0042756D01*
X0035486D01*
X0035528Y0042840D01*
Y0043256D01*
X0035569D02*
X0035403D01*
X0040661Y0041828D02*
X0040328D01*
X0040661Y0042162D01*
Y0042245D01*
X0040619Y0042328D01*
X0040369D01*
X0040328Y0042245D01*
X0040086Y0041662D02*
X0039753D01*
X0039511Y0041828D02*
X0039219D01*
Y0042328D01*
X0038978Y0041995D02*
X0038644D01*
X0038978Y0041828D02*
Y0042078D01*
X0038853Y0042328D01*
X0038769D01*
X0038644Y0042078D01*
Y0041828D01*
X0038403Y0042328D02*
Y0041828D01*
X0038319Y0041912D01*
X0038153Y0042245D01*
X0038069Y0042328D01*
Y0041828D01*
X0037828D02*
X0037661D01*
X0037744D02*
Y0042328D01*
X0037828D02*
X0037661D01*
X0037336Y0041828D02*
Y0042328D01*
X0037253Y0042245D01*
X0037169Y0042078D01*
X0037086Y0042245D01*
X0037003Y0042328D01*
Y0041828D01*
X0036636Y0042078D02*
X0036761Y0041828D01*
X0036428Y0042078D02*
X0036678D01*
X0036761Y0042162D01*
Y0042245D01*
X0036678Y0042328D01*
X0036428D01*
Y0041828D01*
X0036103Y0042078D02*
X0035853D01*
X0036186Y0041828D02*
X0035853D01*
Y0042328D01*
X0036186D01*
X0035444Y0041828D02*
Y0042328D01*
X0035611D02*
X0035278D01*
X0033968Y0041828D02*
X0033635D01*
X0033968Y0042162D01*
Y0042245D01*
X0033926Y0042328D01*
X0033676D01*
X0033635Y0042245D01*
X0033393Y0041662D02*
X0033060D01*
X0032818Y0041828D02*
X0032526D01*
Y0042328D01*
X0032285Y0041995D02*
X0031951D01*
X0032285Y0041828D02*
Y0042078D01*
X0032160Y0042328D01*
X0032076D01*
X0031951Y0042078D01*
Y0041828D01*
X0031710Y0042328D02*
Y0041828D01*
X0031626Y0041912D01*
X0031460Y0042245D01*
X0031376Y0042328D01*
Y0041828D01*
X0031135D02*
X0030968D01*
X0031051D02*
Y0042328D01*
X0031135D02*
X0030968D01*
X0030643Y0041828D02*
Y0042328D01*
X0030560Y0042245D01*
X0030476Y0042078D01*
X0030393Y0042245D01*
X0030310Y0042328D01*
Y0041828D01*
X0029943Y0042078D02*
X0030068Y0041828D01*
X0029735Y0042078D02*
X0029985D01*
X0030068Y0042162D01*
Y0042245D01*
X0029985Y0042328D01*
X0029735D01*
Y0041828D01*
X0029410Y0042078D02*
X0029160D01*
X0029493Y0041828D02*
X0029160D01*
Y0042328D01*
X0029493D01*
X0028751Y0041828D02*
Y0042328D01*
X0028918D02*
X0028585D01*
X0047354Y0041828D02*
X0047021D01*
X0047354Y0042162D01*
Y0042245D01*
X0047312Y0042328D01*
X0047062D01*
X0047021Y0042245D01*
X0046779Y0041662D02*
X0046446D01*
X0046204Y0041828D02*
X0045912D01*
Y0042328D01*
X0045671Y0041995D02*
X0045337D01*
X0045671Y0041828D02*
Y0042078D01*
X0045546Y0042328D01*
X0045462D01*
X0045337Y0042078D01*
Y0041828D01*
X0045096Y0042328D02*
Y0041828D01*
X0045012Y0041912D01*
X0044846Y0042245D01*
X0044762Y0042328D01*
Y0041828D01*
X0044521D02*
X0044354D01*
X0044437D02*
Y0042328D01*
X0044521D02*
X0044354D01*
X0044029Y0041828D02*
Y0042328D01*
X0043946Y0042245D01*
X0043862Y0042078D01*
X0043779Y0042245D01*
X0043696Y0042328D01*
Y0041828D01*
X0043329Y0042078D02*
X0043454Y0041828D01*
X0043121Y0042078D02*
X0043371D01*
X0043454Y0042162D01*
Y0042245D01*
X0043371Y0042328D01*
X0043121D01*
Y0041828D01*
X0042796Y0042078D02*
X0042546D01*
X0042879Y0041828D02*
X0042546D01*
Y0042328D01*
X0042879D01*
X0042137Y0041828D02*
Y0042328D01*
X0042304D02*
X0041971D01*
X0040734Y0063357D02*
Y0063180D01*
Y0063269D02*
X0040201D01*
X0040289Y0063180D01*
X0040734Y0062846D02*
Y0062669D01*
Y0062758D02*
X0040201D01*
X0040289Y0062669D01*
X0040467Y0062202D02*
X0040734Y0062335D01*
X0040467Y0061980D02*
Y0062246D01*
X0040378Y0062335D01*
X0040289D01*
X0040201Y0062246D01*
Y0061980D01*
X0040734D01*
X0023208Y0069463D02*
X0022958D01*
X0022917Y0069547D01*
Y0069630D01*
X0022958Y0069713D01*
X0023208D01*
X0023250Y0069630D01*
Y0069547D01*
X0023083Y0069213D01*
X0022675D02*
X0022508D01*
X0022592D02*
Y0069713D01*
X0022508Y0069630D01*
X0021892Y0069380D02*
Y0069297D01*
X0021933Y0069213D01*
X0022100D01*
X0022142Y0069297D01*
Y0069713D01*
X0022183D02*
X0022017D01*
X0027275Y0068285D02*
X0026942D01*
X0027275Y0068618D01*
Y0068702D01*
X0027233Y0068785D01*
X0026983D01*
X0026942Y0068702D01*
X0026700Y0068118D02*
X0026367D01*
X0026125Y0068285D02*
X0025833D01*
Y0068785D01*
X0025592Y0068452D02*
X0025258D01*
X0025592Y0068285D02*
Y0068535D01*
X0025467Y0068785D01*
X0025383D01*
X0025258Y0068535D01*
Y0068285D01*
X0025017Y0068785D02*
Y0068285D01*
X0024933Y0068368D01*
X0024767Y0068702D01*
X0024683Y0068785D01*
Y0068285D01*
X0024442D02*
X0024275D01*
X0024358D02*
Y0068785D01*
X0024442D02*
X0024275D01*
X0023950Y0068285D02*
Y0068785D01*
X0023867Y0068702D01*
X0023783Y0068535D01*
X0023700Y0068702D01*
X0023617Y0068785D01*
Y0068285D01*
X0023250Y0068535D02*
X0023375Y0068285D01*
X0023042Y0068535D02*
X0023292D01*
X0023375Y0068618D01*
Y0068702D01*
X0023292Y0068785D01*
X0023042D01*
Y0068285D01*
X0022717Y0068535D02*
X0022467D01*
X0022800Y0068285D02*
X0022467D01*
Y0068785D01*
X0022800D01*
X0022058Y0068285D02*
Y0068785D01*
X0022225D02*
X0021892D01*
X0040661Y0068285D02*
X0040328D01*
X0040661Y0068618D01*
Y0068702D01*
X0040619Y0068785D01*
X0040369D01*
X0040328Y0068702D01*
X0040086Y0068118D02*
X0039753D01*
X0039511Y0068285D02*
X0039219D01*
Y0068785D01*
X0038978Y0068452D02*
X0038644D01*
X0038978Y0068285D02*
Y0068535D01*
X0038853Y0068785D01*
X0038769D01*
X0038644Y0068535D01*
Y0068285D01*
X0038403Y0068785D02*
Y0068285D01*
X0038319Y0068368D01*
X0038153Y0068702D01*
X0038069Y0068785D01*
Y0068285D01*
X0037828D02*
X0037661D01*
X0037744D02*
Y0068785D01*
X0037828D02*
X0037661D01*
X0037336Y0068285D02*
Y0068785D01*
X0037253Y0068702D01*
X0037169Y0068535D01*
X0037086Y0068702D01*
X0037003Y0068785D01*
Y0068285D01*
X0036636Y0068535D02*
X0036761Y0068285D01*
X0036428Y0068535D02*
X0036678D01*
X0036761Y0068618D01*
Y0068702D01*
X0036678Y0068785D01*
X0036428D01*
Y0068285D01*
X0036103Y0068535D02*
X0035853D01*
X0036186Y0068285D02*
X0035853D01*
Y0068785D01*
X0036186D01*
X0035444Y0068285D02*
Y0068785D01*
X0035611D02*
X0035278D01*
X0039294Y0062029D02*
X0038761Y0062295D01*
Y0061940D01*
X0039027Y0061562D02*
X0039294Y0061695D01*
X0039027Y0061340D02*
Y0061606D01*
X0038938Y0061695D01*
X0038849D01*
X0038761Y0061606D01*
Y0061340D01*
X0039294D01*
X0039691Y0069463D02*
X0039941D01*
X0039982Y0069380D01*
Y0069297D01*
X0039941Y0069213D01*
X0039691D01*
X0039649Y0069297D01*
Y0069380D01*
X0039816Y0069713D01*
X0039407Y0069213D02*
X0039241D01*
X0039324D02*
Y0069713D01*
X0039241Y0069630D01*
X0038624Y0069380D02*
Y0069297D01*
X0038666Y0069213D01*
X0038832D01*
X0038874Y0069297D01*
Y0069713D01*
X0038916D02*
X0038749D01*
X0044007Y0068285D02*
X0043674D01*
X0044007Y0068618D01*
Y0068702D01*
X0043966Y0068785D01*
X0043716D01*
X0043674Y0068702D01*
X0043432Y0068118D02*
X0043099D01*
X0042857Y0068285D02*
X0042566D01*
Y0068785D01*
X0042324Y0068452D02*
X0041991D01*
X0042324Y0068285D02*
Y0068535D01*
X0042199Y0068785D01*
X0042116D01*
X0041991Y0068535D01*
Y0068285D01*
X0041749Y0068785D02*
Y0068285D01*
X0041666Y0068368D01*
X0041499Y0068702D01*
X0041416Y0068785D01*
Y0068285D01*
X0041174D02*
X0041007D01*
X0041091D02*
Y0068785D01*
X0041174D02*
X0041007D01*
X0040682Y0068285D02*
Y0068785D01*
X0040599Y0068702D01*
X0040516Y0068535D01*
X0040432Y0068702D01*
X0040349Y0068785D01*
Y0068285D01*
X0039982Y0068535D02*
X0040107Y0068285D01*
X0039774Y0068535D02*
X0040024D01*
X0040107Y0068618D01*
Y0068702D01*
X0040024Y0068785D01*
X0039774D01*
Y0068285D01*
X0039449Y0068535D02*
X0039199D01*
X0039532Y0068285D02*
X0039199D01*
Y0068785D01*
X0039532D01*
X0038791Y0068285D02*
Y0068785D01*
X0038957D02*
X0038624D01*
X0029610Y0069297D02*
X0029693Y0069213D01*
X0029860D01*
X0029943Y0069297D01*
Y0069380D01*
X0029776Y0069547D01*
X0029943Y0069713D01*
X0029610D01*
X0029368Y0069213D02*
X0029201D01*
X0029285D02*
Y0069713D01*
X0029201Y0069630D01*
X0028585Y0069380D02*
Y0069297D01*
X0028626Y0069213D01*
X0028793D01*
X0028835Y0069297D01*
Y0069713D01*
X0028876D02*
X0028710D01*
X0033968Y0068285D02*
X0033635D01*
X0033968Y0068618D01*
Y0068702D01*
X0033926Y0068785D01*
X0033676D01*
X0033635Y0068702D01*
X0033393Y0068118D02*
X0033060D01*
X0032818Y0068285D02*
X0032526D01*
Y0068785D01*
X0032285Y0068452D02*
X0031951D01*
X0032285Y0068285D02*
Y0068535D01*
X0032160Y0068785D01*
X0032076D01*
X0031951Y0068535D01*
Y0068285D01*
X0031710Y0068785D02*
Y0068285D01*
X0031626Y0068368D01*
X0031460Y0068702D01*
X0031376Y0068785D01*
Y0068285D01*
X0031135D02*
X0030968D01*
X0031051D02*
Y0068785D01*
X0031135D02*
X0030968D01*
X0030643Y0068285D02*
Y0068785D01*
X0030560Y0068702D01*
X0030476Y0068535D01*
X0030393Y0068702D01*
X0030310Y0068785D01*
Y0068285D01*
X0029943Y0068535D02*
X0030068Y0068285D01*
X0029735Y0068535D02*
X0029985D01*
X0030068Y0068618D01*
Y0068702D01*
X0029985Y0068785D01*
X0029735D01*
Y0068285D01*
X0029410Y0068535D02*
X0029160D01*
X0029493Y0068285D02*
X0029160D01*
Y0068785D01*
X0029493D01*
X0028751Y0068285D02*
Y0068785D01*
X0028918D02*
X0028585D01*
X0035614Y0062206D02*
Y0062029D01*
Y0062118D02*
X0035081D01*
X0035169Y0062029D01*
X0035347Y0061562D02*
X0035614Y0061695D01*
X0035347Y0061340D02*
Y0061606D01*
X0035258Y0061695D01*
X0035169D01*
X0035081Y0061606D01*
Y0061340D01*
X0035614D01*
X0026597Y0069213D02*
X0026263D01*
X0026597Y0069547D01*
Y0069630D01*
X0026555Y0069713D01*
X0026305D01*
X0026263Y0069630D01*
X0026022Y0069213D02*
X0025855D01*
X0025938D02*
Y0069713D01*
X0025855Y0069630D01*
X0025238Y0069380D02*
Y0069297D01*
X0025280Y0069213D01*
X0025447D01*
X0025488Y0069297D01*
Y0069713D01*
X0025530D02*
X0025363D01*
X0043121Y0043006D02*
X0043371D01*
X0043412Y0042923D01*
Y0042840D01*
X0043371Y0042756D01*
X0043121D01*
X0043079Y0042840D01*
Y0042923D01*
X0043246Y0043256D01*
X0042837Y0042756D02*
X0042504D01*
X0042837Y0043090D01*
Y0043173D01*
X0042796Y0043256D01*
X0042546D01*
X0042504Y0043173D01*
X0041971Y0042923D02*
Y0042840D01*
X0042012Y0042756D01*
X0042179D01*
X0042221Y0042840D01*
Y0043256D01*
X0042262D02*
X0042096D01*
X0038085Y0061940D02*
X0038174Y0061984D01*
Y0062251D01*
X0038085Y0062295D01*
X0037907D01*
X0037818Y0062206D01*
Y0061940D01*
X0037641D01*
Y0062295D01*
X0037907Y0061562D02*
X0038174Y0061695D01*
X0037907Y0061340D02*
Y0061606D01*
X0037818Y0061695D01*
X0037729D01*
X0037641Y0061606D01*
Y0061340D01*
X0038174D01*
X0026381Y0046882D02*
X0026159D01*
X0026381Y0047105D01*
Y0047160D01*
X0026354Y0047216D01*
X0026187D01*
X0026159Y0047160D01*
X0025931Y0046882D02*
X0025820D01*
X0025876D02*
Y0047216D01*
X0025820Y0047160D01*
X0028752Y0047500D02*
X0028807Y0047555D01*
Y0047666D01*
X0028752Y0047722D01*
X0028696D01*
X0028585Y0047611D01*
X0028474Y0047722D01*
Y0047500D01*
X0028807Y0047272D02*
Y0047050D01*
X0028585Y0047272D01*
X0028530D01*
X0028474Y0047244D01*
Y0047078D01*
X0028530Y0047050D01*
X0028093Y0049856D02*
X0028315D01*
X0028204Y0049634D01*
X0028148D01*
Y0049967D01*
X0028765Y0049912D02*
X0028709Y0049967D01*
X0028598D01*
X0028543Y0049912D01*
Y0049856D01*
X0028654Y0049745D01*
X0028543Y0049634D01*
X0028765D01*
X0025723Y0049869D02*
Y0049980D01*
Y0049925D02*
X0026056D01*
X0026000Y0049980D01*
X0033039Y0042840D02*
X0033123Y0042756D01*
X0033289D01*
X0033373Y0042840D01*
Y0042923D01*
X0033206Y0043090D01*
X0033373Y0043256D01*
X0033039D01*
X0032798Y0042756D02*
X0032464D01*
X0032798Y0043090D01*
Y0043173D01*
X0032756Y0043256D01*
X0032506D01*
X0032464Y0043173D01*
X0031931Y0042923D02*
Y0042840D01*
X0031973Y0042756D01*
X0032139D01*
X0032181Y0042840D01*
Y0043256D01*
X0032223D02*
X0032056D01*
X0037314Y0041828D02*
X0036981D01*
X0037314Y0042162D01*
Y0042245D01*
X0037273Y0042328D01*
X0037023D01*
X0036981Y0042245D01*
X0036739Y0041662D02*
X0036406D01*
X0036164Y0041828D02*
X0035873D01*
Y0042328D01*
X0035631Y0041995D02*
X0035298D01*
X0035631Y0041828D02*
Y0042078D01*
X0035506Y0042328D01*
X0035423D01*
X0035298Y0042078D01*
Y0041828D01*
X0035056Y0042328D02*
Y0041828D01*
X0034973Y0041912D01*
X0034806Y0042245D01*
X0034723Y0042328D01*
Y0041828D01*
X0034481D02*
X0034314D01*
X0034398D02*
Y0042328D01*
X0034481D02*
X0034314D01*
X0033989Y0041828D02*
Y0042328D01*
X0033906Y0042245D01*
X0033823Y0042078D01*
X0033739Y0042245D01*
X0033656Y0042328D01*
Y0041828D01*
X0033289Y0042078D02*
X0033414Y0041828D01*
X0033081Y0042078D02*
X0033331D01*
X0033414Y0042162D01*
Y0042245D01*
X0033331Y0042328D01*
X0033081D01*
Y0041828D01*
X0032756Y0042078D02*
X0032506D01*
X0032839Y0041828D02*
X0032506D01*
Y0042328D01*
X0032839D01*
X0032098Y0041828D02*
Y0042328D01*
X0032264D02*
X0031931D01*
X0026597Y0042756D02*
X0026430D01*
X0026513D02*
Y0043256D01*
X0026430Y0043173D01*
X0026105Y0042756D02*
X0025772D01*
X0026105Y0043090D01*
Y0043173D01*
X0026063Y0043256D01*
X0025813D01*
X0025772Y0043173D01*
X0025238Y0042923D02*
Y0042840D01*
X0025280Y0042756D01*
X0025447D01*
X0025488Y0042840D01*
Y0043256D01*
X0025530D02*
X0025363D01*
X0030622Y0041828D02*
X0030288D01*
X0030622Y0042162D01*
Y0042245D01*
X0030580Y0042328D01*
X0030330D01*
X0030288Y0042245D01*
X0030047Y0041662D02*
X0029713D01*
X0029472Y0041828D02*
X0029180D01*
Y0042328D01*
X0028938Y0041995D02*
X0028605D01*
X0028938Y0041828D02*
Y0042078D01*
X0028813Y0042328D01*
X0028730D01*
X0028605Y0042078D01*
Y0041828D01*
X0028363Y0042328D02*
Y0041828D01*
X0028280Y0041912D01*
X0028113Y0042245D01*
X0028030Y0042328D01*
Y0041828D01*
X0027788D02*
X0027622D01*
X0027705D02*
Y0042328D01*
X0027788D02*
X0027622D01*
X0027297Y0041828D02*
Y0042328D01*
X0027213Y0042245D01*
X0027130Y0042078D01*
X0027047Y0042245D01*
X0026963Y0042328D01*
Y0041828D01*
X0026597Y0042078D02*
X0026722Y0041828D01*
X0026388Y0042078D02*
X0026638D01*
X0026722Y0042162D01*
Y0042245D01*
X0026638Y0042328D01*
X0026388D01*
Y0041828D01*
X0026063Y0042078D02*
X0025813D01*
X0026147Y0041828D02*
X0025813D01*
Y0042328D01*
X0026147D01*
X0025405Y0041828D02*
Y0042328D01*
X0025572D02*
X0025238D01*
X0023125Y0042756D02*
X0023042Y0042840D01*
X0023000Y0042923D01*
Y0043090D01*
X0023042Y0043173D01*
X0023125Y0043256D01*
X0023208D01*
X0023292Y0043173D01*
X0023333Y0043090D01*
Y0042923D01*
X0023292Y0042840D01*
X0023208Y0042756D01*
X0023125D01*
X0022758D02*
X0022425D01*
X0022758Y0043090D01*
Y0043173D01*
X0022717Y0043256D01*
X0022467D01*
X0022425Y0043173D01*
X0021892Y0042923D02*
Y0042840D01*
X0021933Y0042756D01*
X0022100D01*
X0022142Y0042840D01*
Y0043256D01*
X0022183D02*
X0022017D01*
X0027275Y0041828D02*
X0026942D01*
X0027275Y0042162D01*
Y0042245D01*
X0027233Y0042328D01*
X0026983D01*
X0026942Y0042245D01*
X0026700Y0041662D02*
X0026367D01*
X0026125Y0041828D02*
X0025833D01*
Y0042328D01*
X0025592Y0041995D02*
X0025258D01*
X0025592Y0041828D02*
Y0042078D01*
X0025467Y0042328D01*
X0025383D01*
X0025258Y0042078D01*
Y0041828D01*
X0025017Y0042328D02*
Y0041828D01*
X0024933Y0041912D01*
X0024767Y0042245D01*
X0024683Y0042328D01*
Y0041828D01*
X0024442D02*
X0024275D01*
X0024358D02*
Y0042328D01*
X0024442D02*
X0024275D01*
X0023950Y0041828D02*
Y0042328D01*
X0023867Y0042245D01*
X0023783Y0042078D01*
X0023700Y0042245D01*
X0023617Y0042328D01*
Y0041828D01*
X0023250Y0042078D02*
X0023375Y0041828D01*
X0023042Y0042078D02*
X0023292D01*
X0023375Y0042162D01*
Y0042245D01*
X0023292Y0042328D01*
X0023042D01*
Y0041828D01*
X0022717Y0042078D02*
X0022467D01*
X0022800Y0041828D02*
X0022467D01*
Y0042328D01*
X0022800D01*
X0022058Y0041828D02*
Y0042328D01*
X0022225D02*
X0021892D01*
X0030622Y0068285D02*
X0030288D01*
X0030622Y0068618D01*
Y0068702D01*
X0030580Y0068785D01*
X0030330D01*
X0030288Y0068702D01*
X0030047Y0068118D02*
X0029713D01*
X0029472Y0068285D02*
X0029180D01*
Y0068785D01*
X0028938Y0068452D02*
X0028605D01*
X0028938Y0068285D02*
Y0068535D01*
X0028813Y0068785D01*
X0028730D01*
X0028605Y0068535D01*
Y0068285D01*
X0028363Y0068785D02*
Y0068285D01*
X0028280Y0068368D01*
X0028113Y0068702D01*
X0028030Y0068785D01*
Y0068285D01*
X0027788D02*
X0027622D01*
X0027705D02*
Y0068785D01*
X0027788D02*
X0027622D01*
X0027297Y0068285D02*
Y0068785D01*
X0027213Y0068702D01*
X0027130Y0068535D01*
X0027047Y0068702D01*
X0026963Y0068785D01*
Y0068285D01*
X0026597Y0068535D02*
X0026722Y0068285D01*
X0026388Y0068535D02*
X0026638D01*
X0026722Y0068618D01*
Y0068702D01*
X0026638Y0068785D01*
X0026388D01*
Y0068285D01*
X0026063Y0068535D02*
X0025813D01*
X0026147Y0068285D02*
X0025813D01*
Y0068785D01*
X0026147D01*
X0025405Y0068285D02*
Y0068785D01*
X0025572D02*
X0025238D01*
X0033289Y0069380D02*
X0032956D01*
X0033123Y0069713D01*
X0033206D01*
Y0069213D01*
X0032714D02*
X0032548D01*
X0032631D02*
Y0069713D01*
X0032548Y0069630D01*
X0031931Y0069380D02*
Y0069297D01*
X0031973Y0069213D01*
X0032139D01*
X0032181Y0069297D01*
Y0069713D01*
X0032223D02*
X0032056D01*
X0046634Y0069463D02*
X0046675Y0069547D01*
Y0069630D01*
X0046634Y0069713D01*
X0046384D01*
X0046342Y0069630D01*
Y0069547D01*
X0046384Y0069463D01*
X0046634D01*
X0046675Y0069380D01*
Y0069297D01*
X0046634Y0069213D01*
X0046384D01*
X0046342Y0069297D01*
Y0069380D01*
X0046384Y0069463D01*
X0046100Y0069213D02*
X0045934D01*
X0046017D02*
Y0069713D01*
X0045934Y0069630D01*
X0045317Y0069380D02*
Y0069297D01*
X0045359Y0069213D01*
X0045525D01*
X0045567Y0069297D01*
Y0069713D01*
X0045609D02*
X0045442D01*
X0037314Y0068285D02*
X0036981D01*
X0037314Y0068618D01*
Y0068702D01*
X0037273Y0068785D01*
X0037023D01*
X0036981Y0068702D01*
X0036739Y0068118D02*
X0036406D01*
X0036164Y0068285D02*
X0035873D01*
Y0068785D01*
X0035631Y0068452D02*
X0035298D01*
X0035631Y0068285D02*
Y0068535D01*
X0035506Y0068785D01*
X0035423D01*
X0035298Y0068535D01*
Y0068285D01*
X0035056Y0068785D02*
Y0068285D01*
X0034973Y0068368D01*
X0034806Y0068702D01*
X0034723Y0068785D01*
Y0068285D01*
X0034481D02*
X0034314D01*
X0034398D02*
Y0068785D01*
X0034481D02*
X0034314D01*
X0033989Y0068285D02*
Y0068785D01*
X0033906Y0068702D01*
X0033823Y0068535D01*
X0033739Y0068702D01*
X0033656Y0068785D01*
Y0068285D01*
X0033289Y0068535D02*
X0033414Y0068285D01*
X0033081Y0068535D02*
X0033331D01*
X0033414Y0068618D01*
Y0068702D01*
X0033331Y0068785D01*
X0033081D01*
Y0068285D01*
X0032756Y0068535D02*
X0032506D01*
X0032839Y0068285D02*
X0032506D01*
Y0068785D01*
X0032839D01*
X0032098Y0068285D02*
Y0068785D01*
X0032264D02*
X0031931D01*
X0050700Y0068285D02*
X0050367D01*
X0050700Y0068618D01*
Y0068702D01*
X0050659Y0068785D01*
X0050409D01*
X0050367Y0068702D01*
X0050125Y0068118D02*
X0049792D01*
X0049550Y0068285D02*
X0049259D01*
Y0068785D01*
X0049017Y0068452D02*
X0048684D01*
X0049017Y0068285D02*
Y0068535D01*
X0048892Y0068785D01*
X0048809D01*
X0048684Y0068535D01*
Y0068285D01*
X0048442Y0068785D02*
Y0068285D01*
X0048359Y0068368D01*
X0048192Y0068702D01*
X0048109Y0068785D01*
Y0068285D01*
X0047867D02*
X0047700D01*
X0047784D02*
Y0068785D01*
X0047867D02*
X0047700D01*
X0047375Y0068285D02*
Y0068785D01*
X0047292Y0068702D01*
X0047209Y0068535D01*
X0047125Y0068702D01*
X0047042Y0068785D01*
Y0068285D01*
X0046675Y0068535D02*
X0046800Y0068285D01*
X0046467Y0068535D02*
X0046717D01*
X0046800Y0068618D01*
Y0068702D01*
X0046717Y0068785D01*
X0046467D01*
Y0068285D01*
X0046142Y0068535D02*
X0045892D01*
X0046225Y0068285D02*
X0045892D01*
Y0068785D01*
X0046225D01*
X0045484Y0068285D02*
Y0068785D01*
X0045650D02*
X0045317D01*
X0039732Y0042840D02*
X0039774Y0042756D01*
X0040024D01*
X0040066Y0042840D01*
Y0043006D01*
X0039982Y0043090D01*
X0039732D01*
Y0043256D01*
X0040066D01*
X0039491Y0042756D02*
X0039157D01*
X0039491Y0043090D01*
Y0043173D01*
X0039449Y0043256D01*
X0039199D01*
X0039157Y0043173D01*
X0038624Y0042923D02*
Y0042840D01*
X0038666Y0042756D01*
X0038832D01*
X0038874Y0042840D01*
Y0043256D01*
X0038916D02*
X0038749D01*
X0044007Y0041828D02*
X0043674D01*
X0044007Y0042162D01*
Y0042245D01*
X0043966Y0042328D01*
X0043716D01*
X0043674Y0042245D01*
X0043432Y0041662D02*
X0043099D01*
X0042857Y0041828D02*
X0042566D01*
Y0042328D01*
X0042324Y0041995D02*
X0041991D01*
X0042324Y0041828D02*
Y0042078D01*
X0042199Y0042328D01*
X0042116D01*
X0041991Y0042078D01*
Y0041828D01*
X0041749Y0042328D02*
Y0041828D01*
X0041666Y0041912D01*
X0041499Y0042245D01*
X0041416Y0042328D01*
Y0041828D01*
X0041174D02*
X0041007D01*
X0041091D02*
Y0042328D01*
X0041174D02*
X0041007D01*
X0040682Y0041828D02*
Y0042328D01*
X0040599Y0042245D01*
X0040516Y0042078D01*
X0040432Y0042245D01*
X0040349Y0042328D01*
Y0041828D01*
X0039982Y0042078D02*
X0040107Y0041828D01*
X0039774Y0042078D02*
X0040024D01*
X0040107Y0042162D01*
Y0042245D01*
X0040024Y0042328D01*
X0039774D01*
Y0041828D01*
X0039449Y0042078D02*
X0039199D01*
X0039532Y0041828D02*
X0039199D01*
Y0042328D01*
X0039532D01*
X0038791Y0041828D02*
Y0042328D01*
X0038957D02*
X0038624D01*
X0043079Y0069213D02*
X0043329Y0069713D01*
X0042996D01*
X0042754Y0069213D02*
X0042587D01*
X0042671D02*
Y0069713D01*
X0042587Y0069630D01*
X0041971Y0069380D02*
Y0069297D01*
X0042012Y0069213D01*
X0042179D01*
X0042221Y0069297D01*
Y0069713D01*
X0042262D02*
X0042096D01*
X0047354Y0068285D02*
X0047021D01*
X0047354Y0068618D01*
Y0068702D01*
X0047312Y0068785D01*
X0047062D01*
X0047021Y0068702D01*
X0046779Y0068118D02*
X0046446D01*
X0046204Y0068285D02*
X0045912D01*
Y0068785D01*
X0045671Y0068452D02*
X0045337D01*
X0045671Y0068285D02*
Y0068535D01*
X0045546Y0068785D01*
X0045462D01*
X0045337Y0068535D01*
Y0068285D01*
X0045096Y0068785D02*
Y0068285D01*
X0045012Y0068368D01*
X0044846Y0068702D01*
X0044762Y0068785D01*
Y0068285D01*
X0044521D02*
X0044354D01*
X0044437D02*
Y0068785D01*
X0044521D02*
X0044354D01*
X0044029Y0068285D02*
Y0068785D01*
X0043946Y0068702D01*
X0043862Y0068535D01*
X0043779Y0068702D01*
X0043696Y0068785D01*
Y0068285D01*
X0043329Y0068535D02*
X0043454Y0068285D01*
X0043121Y0068535D02*
X0043371D01*
X0043454Y0068618D01*
Y0068702D01*
X0043371Y0068785D01*
X0043121D01*
Y0068285D01*
X0042796Y0068535D02*
X0042546D01*
X0042879Y0068285D02*
X0042546D01*
Y0068785D01*
X0042879D01*
X0042137Y0068285D02*
Y0068785D01*
X0042304D02*
X0041971D01*
X0046509Y0042756D02*
X0046759Y0043256D01*
X0046425D01*
X0046184Y0042756D02*
X0045850D01*
X0046184Y0043090D01*
Y0043173D01*
X0046142Y0043256D01*
X0045892D01*
X0045850Y0043173D01*
X0045317Y0042923D02*
Y0042840D01*
X0045359Y0042756D01*
X0045525D01*
X0045567Y0042840D01*
Y0043256D01*
X0045609D02*
X0045442D01*
X0050700Y0041828D02*
X0050367D01*
X0050700Y0042162D01*
Y0042245D01*
X0050659Y0042328D01*
X0050409D01*
X0050367Y0042245D01*
X0050125Y0041662D02*
X0049792D01*
X0049550Y0041828D02*
X0049259D01*
Y0042328D01*
X0049017Y0041995D02*
X0048684D01*
X0049017Y0041828D02*
Y0042078D01*
X0048892Y0042328D01*
X0048809D01*
X0048684Y0042078D01*
Y0041828D01*
X0048442Y0042328D02*
Y0041828D01*
X0048359Y0041912D01*
X0048192Y0042245D01*
X0048109Y0042328D01*
Y0041828D01*
X0047867D02*
X0047700D01*
X0047784D02*
Y0042328D01*
X0047867D02*
X0047700D01*
X0047375Y0041828D02*
Y0042328D01*
X0047292Y0042245D01*
X0047209Y0042078D01*
X0047125Y0042245D01*
X0047042Y0042328D01*
Y0041828D01*
X0046675Y0042078D02*
X0046800Y0041828D01*
X0046467Y0042078D02*
X0046717D01*
X0046800Y0042162D01*
Y0042245D01*
X0046717Y0042328D01*
X0046467D01*
Y0041828D01*
X0046142Y0042078D02*
X0045892D01*
X0046225Y0041828D02*
X0045892D01*
Y0042328D01*
X0046225D01*
X0045484Y0041828D02*
Y0042328D01*
X0045650D02*
X0045317D01*
X0030026Y0042756D02*
X0029693D01*
X0030026Y0043090D01*
Y0043173D01*
X0029985Y0043256D01*
X0029735D01*
X0029693Y0043173D01*
X0029451Y0042756D02*
X0029118D01*
X0029451Y0043090D01*
Y0043173D01*
X0029410Y0043256D01*
X0029160D01*
X0029118Y0043173D01*
X0028585Y0042923D02*
Y0042840D01*
X0028626Y0042756D01*
X0028793D01*
X0028835Y0042840D01*
Y0043256D01*
X0028876D02*
X0028710D01*
X0036303Y0069297D02*
X0036344Y0069213D01*
X0036594D01*
X0036636Y0069297D01*
Y0069463D01*
X0036553Y0069547D01*
X0036303D01*
Y0069713D01*
X0036636D01*
X0036061Y0069213D02*
X0035894D01*
X0035978D02*
Y0069713D01*
X0035894Y0069630D01*
X0035278Y0069380D02*
Y0069297D01*
X0035319Y0069213D01*
X0035486D01*
X0035528Y0069297D01*
Y0069713D01*
X0035569D02*
X0035403D01*
X0034405Y0061940D02*
X0034494Y0062029D01*
Y0062206D01*
X0034405Y0062295D01*
X0034316D01*
X0034138Y0062118D01*
X0033961Y0062295D01*
Y0061940D01*
X0034227Y0061562D02*
X0034494Y0061695D01*
X0034227Y0061340D02*
Y0061606D01*
X0034138Y0061695D01*
X0034049D01*
X0033961Y0061606D01*
Y0061340D01*
X0034494D01*
X0025390Y0046425D02*
X0025265D01*
Y0046550D01*
X0029265D02*
Y0046425D01*
X0029140D01*
Y0050425D02*
X0029265D01*
Y0050300D01*
X0025390Y0050425D02*
X0025203Y0050238D01*
Y0050237D01*
X0024765D01*
X0041360Y0048050D02*
Y0044550D01*
X0033360D01*
Y0048050D01*
X0041360D01*
G54D51*
G01X0018880Y0038547D02*
X0044683D01*
Y0070446D01*
X0018880D01*
Y0038547D01*
G54D10*
X0042880Y0067520D03*
X0044258D03*
X0039520D03*
X0040898D03*
X0036320D03*
X0037698D03*
X0032800D03*
X0034178D03*
X0029440D03*
X0030818D03*
X0026160D03*
X0027538D03*
X0022800D03*
X0024178D03*
X0019440D03*
X0020818D03*
X0032800Y0041360D03*
X0034178D03*
X0042800Y0041440D03*
X0044178D03*
X0039440D03*
X0040818D03*
X0036000Y0041360D03*
X0037378D03*
X0029520D03*
X0030898D03*
X0026160D03*
X0027538D03*
X0019440D03*
X0020818D03*
X0024178D03*
X0022800D03*
G54D12*
X0040400Y0062480D03*
Y0063780D03*
X0044000Y0061840D03*
Y0063140D03*
X0038960Y0061840D03*
Y0063140D03*
X0037840Y0061840D03*
Y0063140D03*
X0034160Y0061840D03*
Y0063140D03*
X0035280Y0061840D03*
Y0063140D03*
X0019600Y0048400D03*
Y0049700D03*
G54D13*
X0020880Y0054080D03*
Y0052820D03*
G54D15*
X0021840Y0060480D03*
Y0061270D03*
X0027360Y0057680D03*
Y0058470D03*
Y0061760D03*
Y0062550D03*
X0021840Y0055920D03*
Y0056710D03*
G54D20*
X0043000Y0055000D03*
Y0052000D03*
X0044000D03*
X0043000Y0060240D03*
Y0057240D03*
X0044000D03*
X0039000Y0060240D03*
Y0057240D03*
X0040000D03*
X0035000Y0055000D03*
Y0052000D03*
X0036000D03*
X0035000Y0060240D03*
Y0057240D03*
X0036000D03*
X0039000Y0055000D03*
Y0052000D03*
X0040000D03*
X0033680Y0057240D03*
X0041750Y0052000D03*
X0041680Y0057240D03*
X0037750Y0052000D03*
X0037680Y0057240D03*
X0033750Y0052000D03*
G54D21*
X0044000Y0055000D03*
Y0060240D03*
X0040000D03*
X0036000Y0055000D03*
Y0060240D03*
X0040000Y0055000D03*
X0033680Y0060240D03*
X0041750Y0055000D03*
X0041680Y0060240D03*
X0037750Y0055000D03*
X0037680Y0060240D03*
X0033750Y0055000D03*
G54D22*
X0021760Y0049800D03*
Y0050800D03*
X0029600Y0057640D03*
Y0058640D03*
Y0062680D03*
Y0063680D03*
X0023680Y0057640D03*
Y0058640D03*
Y0062680D03*
Y0063680D03*
G54D23*
X0021760Y0048800D03*
X0029600Y0056640D03*
Y0061680D03*
X0023680Y0056640D03*
Y0061680D03*
G54D24*
X0027360Y0056480D03*
Y0055640D03*
X0027280Y0059680D03*
Y0060520D03*
X0022480Y0054800D03*
Y0053960D03*
X0021840Y0058480D03*
Y0059320D03*
X0023760Y0054240D03*
Y0053400D03*
X0024720Y0054240D03*
Y0053400D03*
X0025680Y0054240D03*
Y0053400D03*
X0026720Y0054240D03*
Y0053400D03*
X0023600Y0050560D03*
Y0051400D03*
X0026320Y0057680D03*
Y0058520D03*
Y0061760D03*
Y0062600D03*
X0020800Y0055920D03*
Y0056760D03*
Y0060480D03*
Y0061320D03*
X0043840Y0049680D03*
Y0048840D03*
X0042960Y0049680D03*
Y0048840D03*
X0040240Y0049680D03*
Y0048840D03*
X0039360Y0049680D03*
Y0048840D03*
X0036000Y0049680D03*
Y0048840D03*
X0036880Y0049680D03*
Y0048840D03*
G54D25*
X0025690Y0046160D03*
X0026005D03*
X0026320D03*
X0026635D03*
X0026950D03*
X0027265D03*
X0027580D03*
X0027895D03*
X0028525D03*
X0028840D03*
Y0050690D03*
X0028525D03*
X0028210D03*
X0027895D03*
X0027580D03*
X0027265D03*
X0026635D03*
X0026320D03*
X0026005D03*
X0025690D03*
G54D26*
X0028210Y0046160D03*
X0026950Y0050690D03*
G54D27*
X0025000Y0049685D03*
Y0049370D03*
Y0049055D03*
Y0048740D03*
Y0048425D03*
Y0048110D03*
Y0047795D03*
Y0047480D03*
Y0046850D03*
X0029530D03*
Y0047165D03*
Y0047480D03*
Y0047795D03*
Y0048110D03*
Y0048425D03*
Y0048740D03*
Y0049370D03*
Y0049685D03*
Y0050000D03*
G54D28*
X0025000D03*
Y0047165D03*
X0029530Y0049055D03*
M02*
