%
T1C0.024F200S100
X019600Y057600
X020160Y057600
X019600Y058240
X020480Y047280
X021840Y057600
X020480Y064590
X022720Y048080
X023760Y055440
X024720Y054960
X025120Y057600
X025600Y057600
X025760Y048210
X026160Y049440
X026480Y064640
X027440Y049360
X027680Y049120
X027840Y047040
X028000Y049120
X028080Y055760
X028160Y057600
X028560Y048320
X028560Y049840
X029440Y045440
X029520Y044480
X029600Y046000
X029600Y050720
X029600Y052000
X029600Y052640
X029520Y058640
X029600Y064640
X030160Y046160
X030160Y051360
X030320Y054960
X030160Y064640
X030400Y050240
X031120Y064640
X032480Y057680
X032480Y058160
X032480Y058640
X032480Y062720
X032480Y063200
X032480Y063680
X033440Y047520
X034240Y045440
X034240Y046400
X035280Y064640
X036000Y048160
X036880Y048160
X037280Y053920
X037760Y048960
X038960Y064640
X039360Y048160
X039360Y050480
X040000Y050480
X040240Y045280
X040240Y048160
X040400Y064640
X041040Y054000
X042400Y056000
X042960Y048160
X042960Y050480
X043840Y048160
X044000Y056000
X044000Y064640
T3C0.036F200S100
X019440Y041360
X020818Y041360
X020818Y067520
X019440Y067520
X022800Y041360
X024178Y041360
X024178Y067520
X022800Y067520
X026160Y041360
X027538Y041360
X027538Y067520
X026160Y067520
X029440Y067520
X029520Y041360
X030818Y067520
X030898Y041360
X032800Y041360
X034178Y041360
X034178Y067520
X032800Y067520
X036000Y041360
X036320Y067520
X037378Y041360
X037698Y067520
X039440Y041440
X039520Y067520
X040818Y041440
X040898Y067520
X042800Y041440
X042880Y067520
X044178Y041440
X044258Y067520
T6C0.064F200S100
X019685Y039370
X020472Y039370
X020472Y043149
X019685Y043149
X019685Y065827
X020472Y065827
X020472Y069606
X019685Y069606
X023031Y039370
X023819Y039370
X023819Y043149
X023031Y043149
X023031Y065827
X023819Y065827
X023819Y069606
X023031Y069606
X026378Y039370
X027165Y039370
X027165Y043149
X026378Y043149
X026378Y065827
X027165Y065827
X027165Y069606
X026378Y069606
X029724Y039370
X030512Y039370
X030512Y043149
X029724Y043149
X029724Y065827
X030512Y065827
X030512Y069606
X029724Y069606
X033071Y039370
X033858Y039370
X033858Y043149
X033071Y043149
X033071Y065827
X033858Y065827
X033858Y069606
X033071Y069606
X036417Y039370
X037205Y039370
X037205Y043149
X036417Y043149
X036417Y065827
X037205Y065827
X037205Y069606
X036417Y069606
X039764Y039370
X040551Y039370
X040551Y043149
X039764Y043149
X039764Y065827
X040551Y065827
X040551Y069606
X039764Y069606
X043110Y039370
X043897Y039370
X043897Y043149
X043110Y043149
X043110Y065827
X043897Y065827
X043897Y069606
X043110Y069606
T2C0.034F200S100
X033680Y057240
X033680Y060240
X033750Y052000
X033750Y055000
X035000Y052000
X036000Y052000
X036000Y055000
X035000Y055000
X035000Y057240
X036000Y057240
X036000Y060240
X035000Y060240
X037680Y057240
X037680Y060240
X037750Y052000
X037750Y055000
X039000Y052000
X040000Y052000
X040000Y055000
X039000Y055000
X039000Y057240
X040000Y057240
X040000Y060240
X039000Y060240
X041680Y057240
X041680Y060240
X041750Y052000
X041750Y055000
X043000Y052000
X044000Y052000
X044000Y055000
X043000Y055000
X043000Y057240
X044000Y057240
X044000Y060240
X043000Y060240
T5C0.054F200S100
X021760Y048800
X021760Y049800
X021760Y050800
X023680Y056640
X023680Y057640
X023680Y058640
X023680Y061680
X023680Y062680
X023680Y063680
X029600Y056640
X029600Y057640
X029600Y058640
X029600Y061680
X029600Y062680
X029600Y063680
T4C0.040F200S100
X035360Y045800
X035360Y046800
X036360Y045800
X036360Y046800
X037360Y045800
X037360Y046800
X038360Y045800
X038360Y046800
X039360Y045800
X039360Y046800
T7C0.100F200S100
X021535Y046122
X021535Y062854
X042047Y046122
X042047Y062854
M30
