*
G04 Mass Parameters ***
*
G04 Image ***
*
%INC:\MYWORKS\HOMELIGHTING\02_HW\HOMELIGHTING.SMT*%
%ICAS*%
%MOIN*%
%IPPOS*%
%ASAXBY*%
G74*%FSLAN2X34Y34*%
*
G04 Aperture Definitions ***
*
%ADD10C,0.0600*%
%ADD11R,0.0700X0.0500*%
%ADD12R,0.0600X0.0600*%
%ADD13R,0.0480X0.0860*%
%ADD14R,0.0500X0.0700*%
%ADD15R,0.0760X0.0480*%
%ADD16C,0.0620*%
%ADD17R,0.0620X0.0620*%
%ADD18C,0.1200*%
%ADD19C,0.0580*%
%ADD20R,0.0580X0.0580*%
%ADD21C,0.0750*%
%ADD22R,0.0750X0.0750*%
%ADD23R,0.0500X0.0500*%
%ADD24O,0.0180X0.0700*%
%ADD25R,0.0180X0.0700*%
%ADD26O,0.0700X0.0180*%
%ADD27R,0.0700X0.0180*%
%ADD28C,0.0400*%
%ADD29C,0.0260*%
%ADD30C,0.0010*%
%ADD31C,0.0120*%
%ADD32C,0.0180*%
%ADD33C,0.0400*%
%ADD34C,0.0600*%
%ADD35C,0.0080*%
%ADD36C,0.0800*%
%ADD37C,0.0320*%
%ADD38C,0.0400*%
%ADD39C,0.0060*%
%ADD40R,0.0750X0.0550*%
%ADD41R,0.0550X0.0750*%
%ADD42C,0.0670*%
%ADD43R,0.0670X0.0670*%
%ADD44C,0.1250*%
%ADD45R,0.0720X0.0720*%
%ADD46C,0.0420*%
%ADD47C,0.0420*%
*
G04 Plot Data ***
*
G54D30*
G01X0043094Y0045271D02*
Y0045150D01*
X0043540Y0046000D02*
X0043440D01*
X0043190Y0045150D02*
X0043090D01*
X0043526Y0046000D02*
Y0045986D01*
X0043517Y0046000D02*
Y0045977D01*
X0043508Y0046000D02*
Y0045967D01*
X0043499Y0046000D02*
Y0045958D01*
X0043490Y0046000D02*
Y0045948D01*
X0043481Y0046000D02*
Y0045938D01*
X0043472Y0046000D02*
Y0045928D01*
X0043463Y0046000D02*
Y0045917D01*
X0043454Y0046000D02*
Y0045907D01*
X0043445Y0046005D02*
Y0045896D01*
X0043436Y0046005D02*
Y0045884D01*
X0043427Y0045987D02*
Y0045873D01*
X0043418Y0045978D02*
Y0045861D01*
X0043409Y0045968D02*
Y0045849D01*
X0043400Y0045959D02*
Y0045836D01*
X0043391Y0045949D02*
Y0045823D01*
X0043382Y0045939D02*
Y0045810D01*
X0043373Y0045929D02*
Y0045796D01*
X0043364Y0045919D02*
Y0045782D01*
X0043355Y0045908D02*
Y0045767D01*
X0043346Y0045897D02*
Y0045752D01*
X0043337Y0045886D02*
Y0045736D01*
X0043328Y0045874D02*
Y0045720D01*
X0043319Y0045862D02*
Y0045703D01*
X0043310Y0045850D02*
Y0045685D01*
X0043301Y0045838D02*
Y0045667D01*
X0043292Y0045825D02*
Y0045648D01*
X0043283Y0045812D02*
Y0045627D01*
X0043274Y0045798D02*
Y0045606D01*
X0043265Y0045784D02*
Y0045583D01*
X0043256Y0045769D02*
Y0045558D01*
X0043247Y0045754D02*
Y0045532D01*
X0043238Y0045738D02*
Y0045503D01*
X0043229Y0045722D02*
Y0045471D01*
X0043220Y0045705D02*
Y0045435D01*
X0043211Y0045688D02*
Y0045393D01*
X0043202Y0045669D02*
Y0045340D01*
X0043193Y0045650D02*
Y0045257D01*
X0043184Y0045630D02*
Y0045150D01*
X0043175Y0045608D02*
Y0045150D01*
X0043166Y0045585D02*
Y0045150D01*
X0043157Y0045561D02*
Y0045150D01*
X0043148Y0045535D02*
Y0045150D01*
X0043139Y0045506D02*
Y0045150D01*
X0043130Y0045475D02*
Y0045150D01*
X0043121Y0045440D02*
Y0045150D01*
X0043112Y0045398D02*
Y0045150D01*
X0043103Y0045347D02*
Y0045150D01*
X0043531Y0045991D02*
X0043431D01*
X0043522Y0045982D02*
X0043422D01*
X0043513Y0045973D02*
X0043413D01*
X0043504Y0045964D02*
X0043404D01*
X0043496Y0045955D02*
X0043396D01*
X0043487Y0045946D02*
X0043387D01*
X0043479Y0045937D02*
X0043379D01*
X0043471Y0045928D02*
X0043371D01*
X0043464Y0045919D02*
X0043364D01*
X0043456Y0045910D02*
X0043356D01*
X0043449Y0045901D02*
X0043349D01*
X0043441Y0045892D02*
X0043341D01*
X0043434Y0045883D02*
X0043334D01*
X0043427Y0045874D02*
X0043327D01*
X0043420Y0045865D02*
X0043320D01*
X0043414Y0045856D02*
X0043314D01*
X0043407Y0045847D02*
X0043307D01*
X0043401Y0045838D02*
X0043301D01*
X0043394Y0045829D02*
X0043294D01*
X0043388Y0045820D02*
X0043288D01*
X0043382Y0045811D02*
X0043282D01*
X0043376Y0045802D02*
X0043276D01*
X0043370Y0045793D02*
X0043270D01*
X0043365Y0045784D02*
X0043265D01*
X0043359Y0045775D02*
X0043259D01*
X0043354Y0045766D02*
X0043254D01*
X0043348Y0045757D02*
X0043248D01*
X0043343Y0045748D02*
X0043243D01*
X0043338Y0045739D02*
X0043238D01*
X0043333Y0045730D02*
X0043233D01*
X0043328Y0045721D02*
X0043228D01*
X0043323Y0045712D02*
X0043223D01*
X0043318Y0045703D02*
X0043218D01*
X0043314Y0045694D02*
X0043214D01*
X0043309Y0045685D02*
X0043209D01*
X0043305Y0045676D02*
X0043205D01*
X0043300Y0045667D02*
X0043200D01*
X0043296Y0045658D02*
X0043196D01*
X0043292Y0045649D02*
X0043192D01*
X0043288Y0045640D02*
X0043188D01*
X0043284Y0045631D02*
X0043184D01*
X0043280Y0045622D02*
X0043180D01*
X0043277Y0045613D02*
X0043176D01*
X0043273Y0045604D02*
X0043173D01*
X0043269Y0045595D02*
X0043169D01*
X0043266Y0045586D02*
X0043166D01*
X0043262Y0045577D02*
X0043162D01*
X0043259Y0045568D02*
X0043159D01*
X0043256Y0045559D02*
X0043156D01*
X0043253Y0045550D02*
X0043153D01*
X0043250Y0045541D02*
X0043150D01*
X0043247Y0045532D02*
X0043147D01*
X0043244Y0045523D02*
X0043144D01*
X0043241Y0045514D02*
X0043141D01*
X0043238Y0045505D02*
X0043138D01*
X0043235Y0045496D02*
X0043135D01*
X0043233Y0045487D02*
X0043133D01*
X0043230Y0045478D02*
X0043130D01*
X0043228Y0045469D02*
X0043128D01*
X0043226Y0045460D02*
X0043126D01*
X0043223Y0045451D02*
X0043123D01*
X0043221Y0045442D02*
X0043121D01*
X0043219Y0045433D02*
X0043119D01*
X0043217Y0045424D02*
X0043117D01*
X0043215Y0045415D02*
X0043115D01*
X0043213Y0045406D02*
X0043113D01*
X0043211Y0045397D02*
X0043111D01*
X0043210Y0045388D02*
X0043109D01*
X0043208Y0045379D02*
X0043108D01*
X0043206Y0045370D02*
X0043106D01*
X0043205Y0045361D02*
X0043105D01*
X0043203Y0045352D02*
X0043103D01*
X0043202Y0045343D02*
X0043102D01*
X0043201Y0045334D02*
X0043101D01*
X0043199Y0045325D02*
X0043099D01*
X0043198Y0045316D02*
X0043098D01*
X0043197Y0045307D02*
X0043097D01*
X0043196Y0045298D02*
X0043096D01*
X0043195Y0045289D02*
X0043095D01*
X0043194Y0045280D02*
X0043094D01*
X0043194Y0045271D02*
X0043094D01*
X0043193Y0045262D02*
X0043093D01*
X0043192Y0045253D02*
X0043092D01*
X0043192Y0045244D02*
X0043092D01*
X0043191Y0045235D02*
X0043091D01*
X0043191Y0045226D02*
X0043091D01*
X0043190Y0045217D02*
X0043090D01*
X0043190Y0045208D02*
X0043090D01*
X0043190Y0045199D02*
X0043090D01*
X0043190Y0045190D02*
X0043090D01*
X0043190Y0045181D02*
X0043090D01*
X0043190Y0045172D02*
X0043090D01*
X0043190Y0045163D02*
X0043090D01*
X0043444Y0046008D02*
Y0045882D01*
X0043890Y0045153D02*
X0043790D01*
X0043540Y0046003D02*
X0043440D01*
X0043876Y0045167D02*
Y0045153D01*
X0043867Y0045176D02*
Y0045153D01*
X0043858Y0045186D02*
Y0045153D01*
X0043849Y0045195D02*
Y0045153D01*
X0043840Y0045205D02*
Y0045153D01*
X0043831Y0045215D02*
Y0045153D01*
X0043822Y0045225D02*
Y0045153D01*
X0043813Y0045236D02*
Y0045153D01*
X0043804Y0045246D02*
Y0045153D01*
X0043795Y0045257D02*
Y0045153D01*
X0043786Y0045269D02*
Y0045153D01*
X0043777Y0045280D02*
Y0045166D01*
X0043768Y0045292D02*
Y0045175D01*
X0043759Y0045304D02*
Y0045185D01*
X0043750Y0045317D02*
Y0045194D01*
X0043741Y0045330D02*
Y0045204D01*
X0043732Y0045343D02*
Y0045214D01*
X0043723Y0045357D02*
Y0045224D01*
X0043714Y0045371D02*
Y0045234D01*
X0043705Y0045386D02*
Y0045245D01*
X0043696Y0045401D02*
Y0045256D01*
X0043687Y0045417D02*
Y0045267D01*
X0043678Y0045433D02*
Y0045279D01*
X0043669Y0045450D02*
Y0045291D01*
X0043660Y0045468D02*
Y0045303D01*
X0043651Y0045486D02*
Y0045315D01*
X0043642Y0045505D02*
Y0045328D01*
X0043633Y0045526D02*
Y0045341D01*
X0043624Y0045547D02*
Y0045355D01*
X0043615Y0045570D02*
Y0045369D01*
X0043606Y0045595D02*
Y0045384D01*
X0043597Y0045621D02*
Y0045399D01*
X0043588Y0045650D02*
Y0045415D01*
X0043579Y0045682D02*
Y0045431D01*
X0043570Y0045718D02*
Y0045448D01*
X0043561Y0045760D02*
Y0045465D01*
X0043552Y0045813D02*
Y0045484D01*
X0043543Y0045896D02*
Y0045503D01*
X0043534Y0046003D02*
Y0045523D01*
X0043525Y0046003D02*
Y0045545D01*
X0043516Y0046003D02*
Y0045568D01*
X0043507Y0046003D02*
Y0045592D01*
X0043498Y0046003D02*
Y0045618D01*
X0043489Y0046003D02*
Y0045647D01*
X0043480Y0046003D02*
Y0045678D01*
X0043471Y0046003D02*
Y0045713D01*
X0043462Y0046003D02*
Y0045755D01*
X0043453Y0046003D02*
Y0045806D01*
X0043540Y0045994D02*
X0043440D01*
X0043540Y0045985D02*
X0043440D01*
X0043540Y0045976D02*
X0043440D01*
X0043540Y0045967D02*
X0043440D01*
X0043540Y0045958D02*
X0043440D01*
X0043540Y0045949D02*
X0043440D01*
X0043540Y0045940D02*
X0043440D01*
X0043541Y0045931D02*
X0043441D01*
X0043541Y0045922D02*
X0043441D01*
X0043541Y0045913D02*
X0043441D01*
X0043542Y0045904D02*
X0043442D01*
X0043543Y0045895D02*
X0043443D01*
X0043543Y0045886D02*
X0043443D01*
X0043544Y0045877D02*
X0043444D01*
X0043545Y0045868D02*
X0043445D01*
X0043546Y0045859D02*
X0043446D01*
X0043547Y0045850D02*
X0043447D01*
X0043548Y0045841D02*
X0043448D01*
X0043549Y0045832D02*
X0043449D01*
X0043550Y0045823D02*
X0043450D01*
X0043551Y0045814D02*
X0043451D01*
X0043553Y0045805D02*
X0043453D01*
X0043554Y0045796D02*
X0043454D01*
X0043556Y0045787D02*
X0043456D01*
X0043557Y0045778D02*
X0043457D01*
X0043559Y0045769D02*
X0043459D01*
X0043560Y0045760D02*
X0043460D01*
X0043562Y0045751D02*
X0043462D01*
X0043564Y0045742D02*
X0043464D01*
X0043566Y0045733D02*
X0043466D01*
X0043568Y0045724D02*
X0043468D01*
X0043570Y0045715D02*
X0043470D01*
X0043572Y0045706D02*
X0043472D01*
X0043575Y0045697D02*
X0043475D01*
X0043577Y0045688D02*
X0043477D01*
X0043579Y0045679D02*
X0043479D01*
X0043582Y0045670D02*
X0043482D01*
X0043584Y0045661D02*
X0043484D01*
X0043587Y0045652D02*
X0043487D01*
X0043590Y0045643D02*
X0043490D01*
X0043592Y0045634D02*
X0043492D01*
X0043595Y0045625D02*
X0043495D01*
X0043598Y0045616D02*
X0043498D01*
X0043601Y0045607D02*
X0043501D01*
X0043604Y0045598D02*
X0043504D01*
X0043608Y0045589D02*
X0043508D01*
X0043611Y0045580D02*
X0043511D01*
X0043614Y0045571D02*
X0043514D01*
X0043618Y0045562D02*
X0043518D01*
X0043621Y0045553D02*
X0043521D01*
X0043625Y0045544D02*
X0043525D01*
X0043629Y0045535D02*
X0043529D01*
X0043632Y0045526D02*
X0043532D01*
X0043636Y0045517D02*
X0043536D01*
X0043640Y0045508D02*
X0043540D01*
X0043644Y0045499D02*
X0043544D01*
X0043649Y0045490D02*
X0043549D01*
X0043653Y0045481D02*
X0043553D01*
X0043657Y0045472D02*
X0043557D01*
X0043662Y0045463D02*
X0043562D01*
X0043666Y0045454D02*
X0043566D01*
X0043671Y0045445D02*
X0043571D01*
X0043676Y0045436D02*
X0043576D01*
X0043681Y0045427D02*
X0043581D01*
X0043686Y0045418D02*
X0043586D01*
X0043691Y0045409D02*
X0043591D01*
X0043696Y0045400D02*
X0043596D01*
X0043701Y0045391D02*
X0043601D01*
X0043707Y0045382D02*
X0043607D01*
X0043712Y0045373D02*
X0043612D01*
X0043718Y0045364D02*
X0043618D01*
X0043724Y0045355D02*
X0043624D01*
X0043729Y0045346D02*
X0043629D01*
X0043735Y0045337D02*
X0043635D01*
X0043742Y0045328D02*
X0043642D01*
X0043748Y0045319D02*
X0043648D01*
X0043754Y0045310D02*
X0043654D01*
X0043761Y0045301D02*
X0043661D01*
X0043767Y0045292D02*
X0043667D01*
X0043774Y0045283D02*
X0043674D01*
X0043781Y0045274D02*
X0043681D01*
X0043788Y0045265D02*
X0043688D01*
X0043795Y0045256D02*
X0043695D01*
X0043803Y0045247D02*
X0043703D01*
X0043810Y0045238D02*
X0043710D01*
X0043818Y0045229D02*
X0043718D01*
X0043826Y0045220D02*
X0043726D01*
X0043834Y0045211D02*
X0043734D01*
X0043842Y0045202D02*
X0043742D01*
X0043850Y0045193D02*
X0043750D01*
X0043859Y0045184D02*
X0043759D01*
X0043868Y0045175D02*
X0043768D01*
X0043877Y0045166D02*
X0043777D01*
X0043794Y0045271D02*
Y0045150D01*
X0044240Y0046000D02*
X0044140D01*
X0043890Y0045150D02*
X0043790D01*
X0044226Y0046000D02*
Y0045986D01*
X0044217Y0046000D02*
Y0045977D01*
X0044208Y0046000D02*
Y0045967D01*
X0044199Y0046000D02*
Y0045958D01*
X0044190Y0046000D02*
Y0045948D01*
X0044181Y0046000D02*
Y0045938D01*
X0044172Y0046000D02*
Y0045928D01*
X0044163Y0046000D02*
Y0045917D01*
X0044154Y0046000D02*
Y0045907D01*
X0044145Y0046005D02*
Y0045896D01*
X0044136Y0046005D02*
Y0045884D01*
X0044127Y0045987D02*
Y0045873D01*
X0044118Y0045978D02*
Y0045861D01*
X0044109Y0045968D02*
Y0045849D01*
X0044100Y0045959D02*
Y0045836D01*
X0044091Y0045949D02*
Y0045823D01*
X0044082Y0045939D02*
Y0045810D01*
X0044073Y0045929D02*
Y0045796D01*
X0044064Y0045919D02*
Y0045782D01*
X0044055Y0045908D02*
Y0045767D01*
X0044046Y0045897D02*
Y0045752D01*
X0044037Y0045886D02*
Y0045736D01*
X0044028Y0045874D02*
Y0045720D01*
X0044019Y0045862D02*
Y0045703D01*
X0044010Y0045850D02*
Y0045685D01*
X0044001Y0045838D02*
Y0045667D01*
X0043992Y0045825D02*
Y0045648D01*
X0043983Y0045812D02*
Y0045627D01*
X0043974Y0045798D02*
Y0045606D01*
X0043965Y0045784D02*
Y0045583D01*
X0043956Y0045769D02*
Y0045558D01*
X0043947Y0045754D02*
Y0045532D01*
X0043938Y0045738D02*
Y0045503D01*
X0043929Y0045722D02*
Y0045471D01*
X0043920Y0045705D02*
Y0045435D01*
X0043911Y0045688D02*
Y0045393D01*
X0043902Y0045669D02*
Y0045340D01*
X0043893Y0045650D02*
Y0045257D01*
X0043884Y0045630D02*
Y0045150D01*
X0043875Y0045608D02*
Y0045150D01*
X0043866Y0045585D02*
Y0045150D01*
X0043857Y0045561D02*
Y0045150D01*
X0043848Y0045535D02*
Y0045150D01*
X0043839Y0045506D02*
Y0045150D01*
X0043830Y0045475D02*
Y0045150D01*
X0043821Y0045440D02*
Y0045150D01*
X0043812Y0045398D02*
Y0045150D01*
X0043803Y0045347D02*
Y0045150D01*
X0044231Y0045991D02*
X0044131D01*
X0044222Y0045982D02*
X0044122D01*
X0044213Y0045973D02*
X0044113D01*
X0044204Y0045964D02*
X0044104D01*
X0044196Y0045955D02*
X0044096D01*
X0044187Y0045946D02*
X0044087D01*
X0044179Y0045937D02*
X0044079D01*
X0044171Y0045928D02*
X0044071D01*
X0044164Y0045919D02*
X0044064D01*
X0044156Y0045910D02*
X0044056D01*
X0044149Y0045901D02*
X0044049D01*
X0044141Y0045892D02*
X0044041D01*
X0044134Y0045883D02*
X0044034D01*
X0044127Y0045874D02*
X0044027D01*
X0044120Y0045865D02*
X0044020D01*
X0044114Y0045856D02*
X0044014D01*
X0044107Y0045847D02*
X0044007D01*
X0044101Y0045838D02*
X0044001D01*
X0044094Y0045829D02*
X0043994D01*
X0044088Y0045820D02*
X0043988D01*
X0044082Y0045811D02*
X0043982D01*
X0044076Y0045802D02*
X0043976D01*
X0044070Y0045793D02*
X0043970D01*
X0044065Y0045784D02*
X0043965D01*
X0044059Y0045775D02*
X0043959D01*
X0044054Y0045766D02*
X0043954D01*
X0044048Y0045757D02*
X0043948D01*
X0044043Y0045748D02*
X0043943D01*
X0044038Y0045739D02*
X0043938D01*
X0044033Y0045730D02*
X0043933D01*
X0044028Y0045721D02*
X0043928D01*
X0044023Y0045712D02*
X0043923D01*
X0044018Y0045703D02*
X0043918D01*
X0044014Y0045694D02*
X0043914D01*
X0044009Y0045685D02*
X0043909D01*
X0044005Y0045676D02*
X0043905D01*
X0044000Y0045667D02*
X0043900D01*
X0043996Y0045658D02*
X0043896D01*
X0043992Y0045649D02*
X0043892D01*
X0043988Y0045640D02*
X0043888D01*
X0043984Y0045631D02*
X0043884D01*
X0043980Y0045622D02*
X0043880D01*
X0043977Y0045613D02*
X0043876D01*
X0043973Y0045604D02*
X0043873D01*
X0043969Y0045595D02*
X0043869D01*
X0043966Y0045586D02*
X0043866D01*
X0043962Y0045577D02*
X0043862D01*
X0043959Y0045568D02*
X0043859D01*
X0043956Y0045559D02*
X0043856D01*
X0043953Y0045550D02*
X0043853D01*
X0043950Y0045541D02*
X0043850D01*
X0043947Y0045532D02*
X0043847D01*
X0043944Y0045523D02*
X0043844D01*
X0043941Y0045514D02*
X0043841D01*
X0043938Y0045505D02*
X0043838D01*
X0043935Y0045496D02*
X0043835D01*
X0043933Y0045487D02*
X0043833D01*
X0043930Y0045478D02*
X0043830D01*
X0043928Y0045469D02*
X0043828D01*
X0043926Y0045460D02*
X0043826D01*
X0043923Y0045451D02*
X0043823D01*
X0043921Y0045442D02*
X0043821D01*
X0043919Y0045433D02*
X0043819D01*
X0043917Y0045424D02*
X0043817D01*
X0043915Y0045415D02*
X0043815D01*
X0043913Y0045406D02*
X0043813D01*
X0043911Y0045397D02*
X0043811D01*
X0043910Y0045388D02*
X0043809D01*
X0043908Y0045379D02*
X0043808D01*
X0043906Y0045370D02*
X0043806D01*
X0043905Y0045361D02*
X0043805D01*
X0043903Y0045352D02*
X0043803D01*
X0043902Y0045343D02*
X0043802D01*
X0043901Y0045334D02*
X0043801D01*
X0043899Y0045325D02*
X0043799D01*
X0043898Y0045316D02*
X0043798D01*
X0043897Y0045307D02*
X0043797D01*
X0043896Y0045298D02*
X0043796D01*
X0043895Y0045289D02*
X0043795D01*
X0043894Y0045280D02*
X0043794D01*
X0043894Y0045271D02*
X0043794D01*
X0043893Y0045262D02*
X0043793D01*
X0043892Y0045253D02*
X0043792D01*
X0043892Y0045244D02*
X0043792D01*
X0043891Y0045235D02*
X0043791D01*
X0043891Y0045226D02*
X0043791D01*
X0043890Y0045217D02*
X0043790D01*
X0043890Y0045208D02*
X0043790D01*
X0043890Y0045199D02*
X0043790D01*
X0043890Y0045190D02*
X0043790D01*
X0043890Y0045181D02*
X0043790D01*
X0043890Y0045172D02*
X0043790D01*
X0043890Y0045163D02*
X0043790D01*
X0043794Y0045271D02*
Y0045150D01*
X0044240Y0046000D02*
X0044140D01*
X0043890Y0045150D02*
X0043790D01*
X0044226Y0046000D02*
Y0045986D01*
X0044217Y0046000D02*
Y0045977D01*
X0044208Y0046000D02*
Y0045967D01*
X0044199Y0046000D02*
Y0045958D01*
X0044190Y0046000D02*
Y0045948D01*
X0044181Y0046000D02*
Y0045938D01*
X0044172Y0046000D02*
Y0045928D01*
X0044163Y0046000D02*
Y0045917D01*
X0044154Y0046000D02*
Y0045907D01*
X0044145Y0046005D02*
Y0045896D01*
X0044136Y0046005D02*
Y0045884D01*
X0044127Y0045987D02*
Y0045873D01*
X0044118Y0045978D02*
Y0045861D01*
X0044109Y0045968D02*
Y0045849D01*
X0044100Y0045959D02*
Y0045836D01*
X0044091Y0045949D02*
Y0045823D01*
X0044082Y0045939D02*
Y0045810D01*
X0044073Y0045929D02*
Y0045796D01*
X0044064Y0045919D02*
Y0045782D01*
X0044055Y0045908D02*
Y0045767D01*
X0044046Y0045897D02*
Y0045752D01*
X0044037Y0045886D02*
Y0045736D01*
X0044028Y0045874D02*
Y0045720D01*
X0044019Y0045862D02*
Y0045703D01*
X0044010Y0045850D02*
Y0045685D01*
X0044001Y0045838D02*
Y0045667D01*
X0043992Y0045825D02*
Y0045648D01*
X0043983Y0045812D02*
Y0045627D01*
X0043974Y0045798D02*
Y0045606D01*
X0043965Y0045784D02*
Y0045583D01*
X0043956Y0045769D02*
Y0045558D01*
X0043947Y0045754D02*
Y0045532D01*
X0043938Y0045738D02*
Y0045503D01*
X0043929Y0045722D02*
Y0045471D01*
X0043920Y0045705D02*
Y0045435D01*
X0043911Y0045688D02*
Y0045393D01*
X0043902Y0045669D02*
Y0045340D01*
X0043893Y0045650D02*
Y0045257D01*
X0043884Y0045630D02*
Y0045150D01*
X0043875Y0045608D02*
Y0045150D01*
X0043866Y0045585D02*
Y0045150D01*
X0043857Y0045561D02*
Y0045150D01*
X0043848Y0045535D02*
Y0045150D01*
X0043839Y0045506D02*
Y0045150D01*
X0043830Y0045475D02*
Y0045150D01*
X0043821Y0045440D02*
Y0045150D01*
X0043812Y0045398D02*
Y0045150D01*
X0043803Y0045347D02*
Y0045150D01*
X0044231Y0045991D02*
X0044131D01*
X0044222Y0045982D02*
X0044122D01*
X0044213Y0045973D02*
X0044113D01*
X0044204Y0045964D02*
X0044104D01*
X0044196Y0045955D02*
X0044096D01*
X0044187Y0045946D02*
X0044087D01*
X0044179Y0045937D02*
X0044079D01*
X0044171Y0045928D02*
X0044071D01*
X0044164Y0045919D02*
X0044064D01*
X0044156Y0045910D02*
X0044056D01*
X0044149Y0045901D02*
X0044049D01*
X0044141Y0045892D02*
X0044041D01*
X0044134Y0045883D02*
X0044034D01*
X0044127Y0045874D02*
X0044027D01*
X0044120Y0045865D02*
X0044020D01*
X0044114Y0045856D02*
X0044014D01*
X0044107Y0045847D02*
X0044007D01*
X0044101Y0045838D02*
X0044001D01*
X0044094Y0045829D02*
X0043994D01*
X0044088Y0045820D02*
X0043988D01*
X0044082Y0045811D02*
X0043982D01*
X0044076Y0045802D02*
X0043976D01*
X0044070Y0045793D02*
X0043970D01*
X0044065Y0045784D02*
X0043965D01*
X0044059Y0045775D02*
X0043959D01*
X0044054Y0045766D02*
X0043954D01*
X0044048Y0045757D02*
X0043948D01*
X0044043Y0045748D02*
X0043943D01*
X0044038Y0045739D02*
X0043938D01*
X0044033Y0045730D02*
X0043933D01*
X0044028Y0045721D02*
X0043928D01*
X0044023Y0045712D02*
X0043923D01*
X0044018Y0045703D02*
X0043918D01*
X0044014Y0045694D02*
X0043914D01*
X0044009Y0045685D02*
X0043909D01*
X0044005Y0045676D02*
X0043905D01*
X0044000Y0045667D02*
X0043900D01*
X0043996Y0045658D02*
X0043896D01*
X0043992Y0045649D02*
X0043892D01*
X0043988Y0045640D02*
X0043888D01*
X0043984Y0045631D02*
X0043884D01*
X0043980Y0045622D02*
X0043880D01*
X0043977Y0045613D02*
X0043876D01*
X0043973Y0045604D02*
X0043873D01*
X0043969Y0045595D02*
X0043869D01*
X0043966Y0045586D02*
X0043866D01*
X0043962Y0045577D02*
X0043862D01*
X0043959Y0045568D02*
X0043859D01*
X0043956Y0045559D02*
X0043856D01*
X0043953Y0045550D02*
X0043853D01*
X0043950Y0045541D02*
X0043850D01*
X0043947Y0045532D02*
X0043847D01*
X0043944Y0045523D02*
X0043844D01*
X0043941Y0045514D02*
X0043841D01*
X0043938Y0045505D02*
X0043838D01*
X0043935Y0045496D02*
X0043835D01*
X0043933Y0045487D02*
X0043833D01*
X0043930Y0045478D02*
X0043830D01*
X0043928Y0045469D02*
X0043828D01*
X0043926Y0045460D02*
X0043826D01*
X0043923Y0045451D02*
X0043823D01*
X0043921Y0045442D02*
X0043821D01*
X0043919Y0045433D02*
X0043819D01*
X0043917Y0045424D02*
X0043817D01*
X0043915Y0045415D02*
X0043815D01*
X0043913Y0045406D02*
X0043813D01*
X0043911Y0045397D02*
X0043811D01*
X0043910Y0045388D02*
X0043809D01*
X0043908Y0045379D02*
X0043808D01*
X0043906Y0045370D02*
X0043806D01*
X0043905Y0045361D02*
X0043805D01*
X0043903Y0045352D02*
X0043803D01*
X0043902Y0045343D02*
X0043802D01*
X0043901Y0045334D02*
X0043801D01*
X0043899Y0045325D02*
X0043799D01*
X0043898Y0045316D02*
X0043798D01*
X0043897Y0045307D02*
X0043797D01*
X0043896Y0045298D02*
X0043796D01*
X0043895Y0045289D02*
X0043795D01*
X0043894Y0045280D02*
X0043794D01*
X0043894Y0045271D02*
X0043794D01*
X0043893Y0045262D02*
X0043793D01*
X0043892Y0045253D02*
X0043792D01*
X0043892Y0045244D02*
X0043792D01*
X0043891Y0045235D02*
X0043791D01*
X0043891Y0045226D02*
X0043791D01*
X0043890Y0045217D02*
X0043790D01*
X0043890Y0045208D02*
X0043790D01*
X0043890Y0045199D02*
X0043790D01*
X0043890Y0045190D02*
X0043790D01*
X0043890Y0045181D02*
X0043790D01*
X0043890Y0045172D02*
X0043790D01*
X0043890Y0045163D02*
X0043790D01*
X0042890Y0045260D02*
Y0045160D01*
X0043740Y0045610D02*
Y0045510D01*
X0043731Y0045610D02*
Y0045510D01*
X0043722Y0045610D02*
Y0045510D01*
X0043713Y0045610D02*
Y0045510D01*
X0043704Y0045610D02*
Y0045510D01*
X0043695Y0045610D02*
Y0045510D01*
X0043686Y0045610D02*
Y0045510D01*
X0043677Y0045610D02*
Y0045510D01*
X0043668Y0045609D02*
Y0045509D01*
X0043659Y0045609D02*
Y0045509D01*
X0043650Y0045609D02*
Y0045509D01*
X0043641Y0045608D02*
Y0045508D01*
X0043632Y0045607D02*
Y0045507D01*
X0043623Y0045607D02*
Y0045507D01*
X0043614Y0045606D02*
Y0045506D01*
X0043605Y0045605D02*
Y0045505D01*
X0043596Y0045604D02*
Y0045504D01*
X0043587Y0045603D02*
Y0045503D01*
X0043578Y0045602D02*
Y0045502D01*
X0043569Y0045601D02*
Y0045501D01*
X0043560Y0045600D02*
Y0045500D01*
X0043551Y0045599D02*
Y0045499D01*
X0043542Y0045597D02*
Y0045497D01*
X0043533Y0045596D02*
Y0045496D01*
X0043524Y0045594D02*
Y0045494D01*
X0043515Y0045593D02*
Y0045493D01*
X0043506Y0045591D02*
Y0045491D01*
X0043497Y0045590D02*
Y0045490D01*
X0043488Y0045588D02*
Y0045488D01*
X0043479Y0045586D02*
Y0045486D01*
X0043470Y0045584D02*
Y0045484D01*
X0043461Y0045582D02*
Y0045482D01*
X0043452Y0045580D02*
Y0045480D01*
X0043443Y0045578D02*
Y0045478D01*
X0043434Y0045575D02*
Y0045475D01*
X0043425Y0045573D02*
Y0045473D01*
X0043416Y0045571D02*
Y0045471D01*
X0043407Y0045568D02*
Y0045468D01*
X0043398Y0045566D02*
Y0045466D01*
X0043389Y0045563D02*
Y0045463D01*
X0043380Y0045560D02*
Y0045460D01*
X0043371Y0045558D02*
Y0045458D01*
X0043362Y0045555D02*
Y0045455D01*
X0043353Y0045552D02*
Y0045452D01*
X0043344Y0045549D02*
Y0045449D01*
X0043335Y0045546D02*
Y0045446D01*
X0043326Y0045542D02*
Y0045442D01*
X0043317Y0045539D02*
Y0045439D01*
X0043308Y0045536D02*
Y0045436D01*
X0043299Y0045532D02*
Y0045432D01*
X0043290Y0045529D02*
Y0045429D01*
X0043281Y0045525D02*
Y0045425D01*
X0043272Y0045521D02*
Y0045421D01*
X0043263Y0045518D02*
Y0045418D01*
X0043254Y0045514D02*
Y0045414D01*
X0043245Y0045510D02*
Y0045410D01*
X0043236Y0045506D02*
Y0045406D01*
X0043227Y0045501D02*
Y0045401D01*
X0043218Y0045497D02*
Y0045397D01*
X0043209Y0045493D02*
Y0045393D01*
X0043200Y0045488D02*
Y0045388D01*
X0043191Y0045484D02*
Y0045384D01*
X0043182Y0045479D02*
Y0045379D01*
X0043173Y0045474D02*
Y0045374D01*
X0043164Y0045469D02*
Y0045369D01*
X0043155Y0045464D02*
Y0045364D01*
X0043146Y0045459D02*
Y0045359D01*
X0043137Y0045454D02*
Y0045354D01*
X0043128Y0045449D02*
Y0045349D01*
X0043119Y0045443D02*
Y0045343D01*
X0043110Y0045438D02*
Y0045338D01*
X0043101Y0045432D02*
Y0045332D01*
X0043092Y0045426D02*
Y0045326D01*
X0043083Y0045421D02*
Y0045321D01*
X0043074Y0045415D02*
Y0045315D01*
X0043065Y0045408D02*
Y0045308D01*
X0043056Y0045402D02*
Y0045302D01*
X0043047Y0045396D02*
Y0045296D01*
X0043038Y0045389D02*
Y0045289D01*
X0043029Y0045383D02*
Y0045283D01*
X0043020Y0045376D02*
Y0045276D01*
X0043011Y0045369D02*
Y0045269D01*
X0043002Y0045362D02*
Y0045262D01*
X0042993Y0045355D02*
Y0045255D01*
X0042984Y0045347D02*
Y0045247D01*
X0042975Y0045340D02*
Y0045240D01*
X0042966Y0045332D02*
Y0045232D01*
X0042957Y0045324D02*
Y0045224D01*
X0042948Y0045316D02*
Y0045216D01*
X0042939Y0045308D02*
Y0045208D01*
X0042930Y0045300D02*
Y0045200D01*
X0042921Y0045291D02*
Y0045191D01*
X0042912Y0045282D02*
Y0045182D01*
X0042903Y0045273D02*
Y0045173D01*
X0043745Y0045605D02*
X0043605D01*
X0043740Y0045596D02*
X0043535D01*
X0043740Y0045587D02*
X0043485D01*
X0043740Y0045578D02*
X0043445D01*
X0043740Y0045569D02*
X0043410D01*
X0043740Y0045560D02*
X0043379D01*
X0043740Y0045551D02*
X0043351D01*
X0043740Y0045542D02*
X0043325D01*
X0043740Y0045533D02*
X0043301D01*
X0043740Y0045524D02*
X0043279D01*
X0043740Y0045515D02*
X0043258D01*
X0043616Y0045506D02*
X0043237D01*
X0043541Y0045497D02*
X0043218D01*
X0043490Y0045488D02*
X0043200D01*
X0043449Y0045479D02*
X0043182D01*
X0043414Y0045470D02*
X0043166D01*
X0043383Y0045461D02*
X0043149D01*
X0043354Y0045452D02*
X0043134D01*
X0043328Y0045443D02*
X0043119D01*
X0043304Y0045434D02*
X0043104D01*
X0043281Y0045425D02*
X0043090D01*
X0043260Y0045416D02*
X0043077D01*
X0043240Y0045407D02*
X0043063D01*
X0043220Y0045398D02*
X0043051D01*
X0043202Y0045389D02*
X0043038D01*
X0043184Y0045380D02*
X0043026D01*
X0043167Y0045371D02*
X0043014D01*
X0043151Y0045362D02*
X0043003D01*
X0043136Y0045353D02*
X0042991D01*
X0043120Y0045344D02*
X0042980D01*
X0043106Y0045335D02*
X0042970D01*
X0043092Y0045326D02*
X0042959D01*
X0043078Y0045317D02*
X0042949D01*
X0043065Y0045308D02*
X0042939D01*
X0043052Y0045299D02*
X0042930D01*
X0043039Y0045290D02*
X0042920D01*
X0043027Y0045281D02*
X0042911D01*
X0043015Y0045272D02*
X0042902D01*
X0043004Y0045263D02*
X0042890D01*
X0042993Y0045254D02*
X0042890D01*
X0042982Y0045245D02*
X0042890D01*
X0042971Y0045236D02*
X0042890D01*
X0042961Y0045227D02*
X0042890D01*
X0042950Y0045218D02*
X0042890D01*
X0042940Y0045209D02*
X0042890D01*
X0042931Y0045200D02*
X0042890D01*
X0042921Y0045191D02*
X0042890D01*
X0042912Y0045182D02*
X0042890D01*
X0042903Y0045173D02*
X0042890D01*
X0043094Y0045271D02*
Y0045150D01*
X0043540Y0046000D02*
X0043440D01*
X0043190Y0045150D02*
X0043090D01*
X0043526Y0046000D02*
Y0045986D01*
X0043517Y0046000D02*
Y0045977D01*
X0043508Y0046000D02*
Y0045967D01*
X0043499Y0046000D02*
Y0045958D01*
X0043490Y0046000D02*
Y0045948D01*
X0043481Y0046000D02*
Y0045938D01*
X0043472Y0046000D02*
Y0045928D01*
X0043463Y0046000D02*
Y0045917D01*
X0043454Y0046000D02*
Y0045907D01*
X0043445Y0046005D02*
Y0045896D01*
X0043436Y0046005D02*
Y0045884D01*
X0043427Y0045987D02*
Y0045873D01*
X0043418Y0045978D02*
Y0045861D01*
X0043409Y0045968D02*
Y0045849D01*
X0043400Y0045959D02*
Y0045836D01*
X0043391Y0045949D02*
Y0045823D01*
X0043382Y0045939D02*
Y0045810D01*
X0043373Y0045929D02*
Y0045796D01*
X0043364Y0045919D02*
Y0045782D01*
X0043355Y0045908D02*
Y0045767D01*
X0043346Y0045897D02*
Y0045752D01*
X0043337Y0045886D02*
Y0045736D01*
X0043328Y0045874D02*
Y0045720D01*
X0043319Y0045862D02*
Y0045703D01*
X0043310Y0045850D02*
Y0045685D01*
X0043301Y0045838D02*
Y0045667D01*
X0043292Y0045825D02*
Y0045648D01*
X0043283Y0045812D02*
Y0045627D01*
X0043274Y0045798D02*
Y0045606D01*
X0043265Y0045784D02*
Y0045583D01*
X0043256Y0045769D02*
Y0045558D01*
X0043247Y0045754D02*
Y0045532D01*
X0043238Y0045738D02*
Y0045503D01*
X0043229Y0045722D02*
Y0045471D01*
X0043220Y0045705D02*
Y0045435D01*
X0043211Y0045688D02*
Y0045393D01*
X0043202Y0045669D02*
Y0045340D01*
X0043193Y0045650D02*
Y0045257D01*
X0043184Y0045630D02*
Y0045150D01*
X0043175Y0045608D02*
Y0045150D01*
X0043166Y0045585D02*
Y0045150D01*
X0043157Y0045561D02*
Y0045150D01*
X0043148Y0045535D02*
Y0045150D01*
X0043139Y0045506D02*
Y0045150D01*
X0043130Y0045475D02*
Y0045150D01*
X0043121Y0045440D02*
Y0045150D01*
X0043112Y0045398D02*
Y0045150D01*
X0043103Y0045347D02*
Y0045150D01*
X0043531Y0045991D02*
X0043431D01*
X0043522Y0045982D02*
X0043422D01*
X0043513Y0045973D02*
X0043413D01*
X0043504Y0045964D02*
X0043404D01*
X0043496Y0045955D02*
X0043396D01*
X0043487Y0045946D02*
X0043387D01*
X0043479Y0045937D02*
X0043379D01*
X0043471Y0045928D02*
X0043371D01*
X0043464Y0045919D02*
X0043364D01*
X0043456Y0045910D02*
X0043356D01*
X0043449Y0045901D02*
X0043349D01*
X0043441Y0045892D02*
X0043341D01*
X0043434Y0045883D02*
X0043334D01*
X0043427Y0045874D02*
X0043327D01*
X0043420Y0045865D02*
X0043320D01*
X0043414Y0045856D02*
X0043314D01*
X0043407Y0045847D02*
X0043307D01*
X0043401Y0045838D02*
X0043301D01*
X0043394Y0045829D02*
X0043294D01*
X0043388Y0045820D02*
X0043288D01*
X0043382Y0045811D02*
X0043282D01*
X0043376Y0045802D02*
X0043276D01*
X0043370Y0045793D02*
X0043270D01*
X0043365Y0045784D02*
X0043265D01*
X0043359Y0045775D02*
X0043259D01*
X0043354Y0045766D02*
X0043254D01*
X0043348Y0045757D02*
X0043248D01*
X0043343Y0045748D02*
X0043243D01*
X0043338Y0045739D02*
X0043238D01*
X0043333Y0045730D02*
X0043233D01*
X0043328Y0045721D02*
X0043228D01*
X0043323Y0045712D02*
X0043223D01*
X0043318Y0045703D02*
X0043218D01*
X0043314Y0045694D02*
X0043214D01*
X0043309Y0045685D02*
X0043209D01*
X0043305Y0045676D02*
X0043205D01*
X0043300Y0045667D02*
X0043200D01*
X0043296Y0045658D02*
X0043196D01*
X0043292Y0045649D02*
X0043192D01*
X0043288Y0045640D02*
X0043188D01*
X0043284Y0045631D02*
X0043184D01*
X0043280Y0045622D02*
X0043180D01*
X0043277Y0045613D02*
X0043176D01*
X0043273Y0045604D02*
X0043173D01*
X0043269Y0045595D02*
X0043169D01*
X0043266Y0045586D02*
X0043166D01*
X0043262Y0045577D02*
X0043162D01*
X0043259Y0045568D02*
X0043159D01*
X0043256Y0045559D02*
X0043156D01*
X0043253Y0045550D02*
X0043153D01*
X0043250Y0045541D02*
X0043150D01*
X0043247Y0045532D02*
X0043147D01*
X0043244Y0045523D02*
X0043144D01*
X0043241Y0045514D02*
X0043141D01*
X0043238Y0045505D02*
X0043138D01*
X0043235Y0045496D02*
X0043135D01*
X0043233Y0045487D02*
X0043133D01*
X0043230Y0045478D02*
X0043130D01*
X0043228Y0045469D02*
X0043128D01*
X0043226Y0045460D02*
X0043126D01*
X0043223Y0045451D02*
X0043123D01*
X0043221Y0045442D02*
X0043121D01*
X0043219Y0045433D02*
X0043119D01*
X0043217Y0045424D02*
X0043117D01*
X0043215Y0045415D02*
X0043115D01*
X0043213Y0045406D02*
X0043113D01*
X0043211Y0045397D02*
X0043111D01*
X0043210Y0045388D02*
X0043109D01*
X0043208Y0045379D02*
X0043108D01*
X0043206Y0045370D02*
X0043106D01*
X0043205Y0045361D02*
X0043105D01*
X0043203Y0045352D02*
X0043103D01*
X0043202Y0045343D02*
X0043102D01*
X0043201Y0045334D02*
X0043101D01*
X0043199Y0045325D02*
X0043099D01*
X0043198Y0045316D02*
X0043098D01*
X0043197Y0045307D02*
X0043097D01*
X0043196Y0045298D02*
X0043096D01*
X0043195Y0045289D02*
X0043095D01*
X0043194Y0045280D02*
X0043094D01*
X0043194Y0045271D02*
X0043094D01*
X0043193Y0045262D02*
X0043093D01*
X0043192Y0045253D02*
X0043092D01*
X0043192Y0045244D02*
X0043092D01*
X0043191Y0045235D02*
X0043091D01*
X0043191Y0045226D02*
X0043091D01*
X0043190Y0045217D02*
X0043090D01*
X0043190Y0045208D02*
X0043090D01*
X0043190Y0045199D02*
X0043090D01*
X0043190Y0045190D02*
X0043090D01*
X0043190Y0045181D02*
X0043090D01*
X0043190Y0045172D02*
X0043090D01*
X0043190Y0045163D02*
X0043090D01*
Y0045175D02*
G03X0043090Y0045150I0001146J0000000D01*
G01X0043440Y0046000D02*
G03X0043090Y0045175I0000796J0000825D01*
G01X0043540Y0046000D02*
G03X0043190Y0045175I0000796J0000825D01*
G03X0043190Y0045150I0001146J0000000D01*
G01X0043440Y0046003D02*
G03X0043440Y0045978I0001146J0000025D01*
G03X0043790Y0045153I0001146J0000000D01*
G01X0043540Y0045978D02*
G03X0043890Y0045153I0001146J0000000D01*
G01X0043540Y0046003D02*
G03X0043540Y0045978I0001146J0000025D01*
G01X0043790Y0045175D02*
G03X0043790Y0045150I0001146J0000000D01*
G01X0044140Y0046000D02*
G03X0043790Y0045175I0000796J0000825D01*
G01X0044240Y0046000D02*
G03X0043890Y0045175I0000796J0000825D01*
G03X0043890Y0045150I0001146J0000000D01*
G01X0043790Y0045175D02*
G03X0043790Y0045150I0001146J0000000D01*
G01X0044140Y0046000D02*
G03X0043790Y0045175I0000796J0000825D01*
G01X0044240Y0046000D02*
G03X0043890Y0045175I0000796J0000825D01*
G03X0043890Y0045150I0001146J0000000D01*
G01X0043740Y0045610D02*
G03X0043715Y0045610I0000025J0001146D01*
G03X0042890Y0045260I0000000J0001146D01*
G01X0043715Y0045510D02*
G03X0042890Y0045160I0000000J0001146D01*
G01X0043740Y0045510D02*
G03X0043715Y0045510I0000025J0001146D01*
G01X0043090Y0045175D02*
G03X0043090Y0045150I0001146J0000000D01*
G01X0043440Y0046000D02*
G03X0043090Y0045175I0000796J0000825D01*
G01X0043540Y0046000D02*
G03X0043190Y0045175I0000796J0000825D01*
G03X0043190Y0045150I0001146J0000000D01*
G54D35*
G01X0044165Y0044619D02*
X0044110Y0044674D01*
X0044082Y0044730D01*
Y0044841D01*
X0044110Y0044897D01*
X0044165Y0044952D01*
X0044221D01*
X0044276Y0044897D01*
X0044304Y0044841D01*
Y0044730D01*
X0044276Y0044674D01*
X0044221Y0044619D01*
X0044165D01*
X0043894D02*
X0043783D01*
X0043839D02*
Y0044952D01*
X0043783Y0044897D01*
X0043401Y0044619D02*
X0043345Y0044674D01*
X0043318Y0044730D01*
Y0044841D01*
X0043345Y0044897D01*
X0043401Y0044952D01*
X0043457D01*
X0043512Y0044897D01*
X0043540Y0044841D01*
Y0044730D01*
X0043512Y0044674D01*
X0043457Y0044619D01*
X0043401D01*
X0043130D02*
X0042908D01*
X0043130Y0044841D01*
Y0044897D01*
X0043102Y0044952D01*
X0042935D01*
X0042908Y0044897D01*
X0044106Y0043926D02*
Y0043927D01*
X0044107D01*
Y0043926D01*
X0044106D01*
X0044107Y0044127D02*
Y0044327D01*
X0043780Y0043927D02*
Y0044127D01*
X0043747Y0044193D01*
X0043547D01*
Y0043927D02*
Y0044327D01*
X0043320Y0044193D02*
X0043120D01*
X0043353Y0043927D02*
X0043220D01*
X0043187Y0043993D01*
Y0044327D01*
X0042927Y0043927D02*
Y0044127D01*
X0042893Y0044193D01*
X0042693D01*
Y0043927D01*
X0042267D02*
X0042233Y0043993D01*
Y0044127D01*
X0042267Y0044193D01*
X0042467D01*
X0042500Y0044127D01*
Y0043993D01*
X0042467Y0043927D01*
X0042267D01*
X0041907D02*
Y0044127D01*
X0042040Y0043927D02*
Y0044127D01*
X0042007Y0044193D01*
X0041940D01*
X0041907Y0044127D01*
X0041873Y0044193D01*
X0041807D01*
X0041773Y0044127D01*
Y0043927D01*
X0040937Y0044193D02*
X0040737D01*
X0040970Y0043927D02*
X0040837D01*
X0040803Y0043993D01*
Y0044327D01*
X0040510Y0044193D02*
X0040310D01*
X0040277Y0044127D01*
X0040310Y0044060D01*
X0040510D01*
X0040543Y0043993D01*
X0040510Y0043927D01*
X0040310D01*
X0040083D02*
X0039950D01*
X0040017D02*
Y0044327D01*
X0039950Y0044260D01*
X0038880Y0044193D02*
X0039013D01*
X0039047Y0044127D01*
Y0043993D01*
X0039080Y0043927D01*
X0038847D01*
X0038813Y0043993D01*
X0038847Y0044060D01*
X0039047D01*
X0038620Y0043927D02*
Y0044127D01*
X0038587Y0044193D01*
X0038387D01*
Y0043927D01*
X0038126Y0044326D02*
Y0044327D01*
X0038127D01*
Y0044326D01*
X0038126D01*
X0038193Y0043927D02*
X0038060D01*
X0038127D02*
Y0044193D01*
X0038060D01*
X0037833D02*
X0037700D01*
X0037667Y0044127D01*
X0037600D01*
Y0044193D02*
Y0043927D01*
X0037373D02*
X0037173D01*
X0037140Y0043993D01*
Y0044127D01*
X0037173Y0044193D01*
X0037373D01*
X0037407Y0044127D01*
Y0044060D01*
X0037140D01*
X0036913Y0044193D02*
X0036713D01*
X0036947Y0043927D02*
X0036813D01*
X0036780Y0043993D01*
Y0044327D01*
X0036320Y0044193D02*
X0036453D01*
X0036487Y0044127D01*
Y0043993D01*
X0036520Y0043927D01*
X0036287D01*
X0036253Y0043993D01*
X0036287Y0044060D01*
X0036487D01*
X0036060Y0043927D02*
X0035860Y0044127D01*
X0036060Y0044327D01*
X0035793D02*
Y0043927D01*
X0020640Y0069040D02*
Y0067520D01*
X0021600Y0066560D01*
Y0064720D01*
X0022560Y0063760D01*
Y0062480D01*
X0023760D02*
X0022560D01*
X0023760Y0062800D02*
Y0062480D01*
Y0062800D02*
X0022880D01*
Y0063920D02*
Y0062800D01*
X0021920Y0064880D02*
X0022880Y0063920D01*
X0021920Y0066720D02*
Y0064880D01*
X0020960Y0067680D02*
X0021920Y0066720D01*
X0020960Y0069920D02*
Y0067680D01*
Y0069920D02*
X0019280D01*
Y0069280D01*
X0020640D02*
X0019280D01*
X0020640D02*
Y0069040D01*
X0023748Y0062800D02*
Y0062480D01*
X0023676Y0062800D02*
Y0062480D01*
X0023604Y0062800D02*
Y0062480D01*
X0023532Y0062800D02*
Y0062480D01*
X0023460Y0062800D02*
Y0062480D01*
X0023388Y0062800D02*
Y0062480D01*
X0023316Y0062800D02*
Y0062480D01*
X0023244Y0062800D02*
Y0062480D01*
X0023172Y0062800D02*
Y0062480D01*
X0023100Y0062800D02*
Y0062480D01*
X0023028Y0062800D02*
Y0062480D01*
X0022956Y0062800D02*
Y0062480D01*
X0022884Y0062800D02*
Y0062480D01*
X0022812Y0063988D02*
Y0062480D01*
X0022740Y0064060D02*
Y0062480D01*
X0022668Y0064132D02*
Y0062480D01*
X0022596Y0064204D02*
Y0062480D01*
X0022524Y0064276D02*
Y0063796D01*
X0022452Y0064348D02*
Y0063868D01*
X0022380Y0064420D02*
Y0063940D01*
X0022308Y0064492D02*
Y0064012D01*
X0022236Y0064564D02*
Y0064084D01*
X0022164Y0064636D02*
Y0064156D01*
X0022092Y0064708D02*
Y0064228D01*
X0022020Y0064780D02*
Y0064300D01*
X0021948Y0064852D02*
Y0064372D01*
X0021876Y0066764D02*
Y0064444D01*
X0021804Y0066836D02*
Y0064516D01*
X0021732Y0066908D02*
Y0064588D01*
X0021660Y0066980D02*
Y0064660D01*
X0021588Y0067052D02*
Y0066572D01*
X0021516Y0067124D02*
Y0066644D01*
X0021444Y0067196D02*
Y0066716D01*
X0021372Y0067268D02*
Y0066788D01*
X0021300Y0067340D02*
Y0066860D01*
X0021228Y0067412D02*
Y0066932D01*
X0021156Y0067484D02*
Y0067004D01*
X0021084Y0067556D02*
Y0067076D01*
X0021012Y0067628D02*
Y0067148D01*
X0020940Y0069920D02*
Y0067220D01*
X0020868Y0069920D02*
Y0067292D01*
X0020796Y0069920D02*
Y0067364D01*
X0020724Y0069920D02*
Y0067436D01*
X0020652Y0069920D02*
Y0067508D01*
X0020580Y0069920D02*
Y0069280D01*
X0020508Y0069920D02*
Y0069280D01*
X0020436Y0069920D02*
Y0069280D01*
X0020364Y0069920D02*
Y0069280D01*
X0020292Y0069920D02*
Y0069280D01*
X0020220Y0069920D02*
Y0069280D01*
X0020148Y0069920D02*
Y0069280D01*
X0020076Y0069920D02*
Y0069280D01*
X0020004Y0069920D02*
Y0069280D01*
X0019932Y0069920D02*
Y0069280D01*
X0019860Y0069920D02*
Y0069280D01*
X0019788Y0069920D02*
Y0069280D01*
X0019716Y0069920D02*
Y0069280D01*
X0019644Y0069920D02*
Y0069280D01*
X0019572Y0069920D02*
Y0069280D01*
X0019500Y0069920D02*
Y0069280D01*
X0019428Y0069920D02*
Y0069280D01*
X0019356Y0069920D02*
Y0069280D01*
X0020960Y0069900D02*
X0019280D01*
X0020960Y0069828D02*
X0019280D01*
X0020960Y0069756D02*
X0019280D01*
X0020960Y0069684D02*
X0019280D01*
X0020960Y0069612D02*
X0019280D01*
X0020960Y0069540D02*
X0019280D01*
X0020960Y0069468D02*
X0019280D01*
X0020960Y0069396D02*
X0019280D01*
X0020960Y0069324D02*
X0019280D01*
X0020960Y0069252D02*
X0020640D01*
X0020960Y0069180D02*
X0020640D01*
X0020960Y0069108D02*
X0020640D01*
X0020960Y0069036D02*
X0020640D01*
X0020960Y0068964D02*
X0020640D01*
X0020960Y0068892D02*
X0020640D01*
X0020960Y0068820D02*
X0020640D01*
X0020960Y0068748D02*
X0020640D01*
X0020960Y0068676D02*
X0020640D01*
X0020960Y0068604D02*
X0020640D01*
X0020960Y0068532D02*
X0020640D01*
X0020960Y0068460D02*
X0020640D01*
X0020960Y0068388D02*
X0020640D01*
X0020960Y0068316D02*
X0020640D01*
X0020960Y0068244D02*
X0020640D01*
X0020960Y0068172D02*
X0020640D01*
X0020960Y0068100D02*
X0020640D01*
X0020960Y0068028D02*
X0020640D01*
X0020960Y0067956D02*
X0020640D01*
X0020960Y0067884D02*
X0020640D01*
X0020960Y0067812D02*
X0020640D01*
X0020960Y0067740D02*
X0020640D01*
X0020972Y0067668D02*
X0020640D01*
X0021044Y0067596D02*
X0020640D01*
X0021116Y0067524D02*
X0020640D01*
X0021188Y0067452D02*
X0020708D01*
X0021260Y0067380D02*
X0020780D01*
X0021332Y0067308D02*
X0020852D01*
X0021404Y0067236D02*
X0020924D01*
X0021476Y0067164D02*
X0020996D01*
X0021548Y0067092D02*
X0021068D01*
X0021620Y0067020D02*
X0021140D01*
X0021692Y0066948D02*
X0021212D01*
X0021764Y0066876D02*
X0021284D01*
X0021836Y0066804D02*
X0021356D01*
X0021908Y0066732D02*
X0021428D01*
X0021920Y0066660D02*
X0021500D01*
X0021920Y0066588D02*
X0021572D01*
X0021920Y0066516D02*
X0021600D01*
X0021920Y0066444D02*
X0021600D01*
X0021920Y0066372D02*
X0021600D01*
X0021920Y0066300D02*
X0021600D01*
X0021920Y0066228D02*
X0021600D01*
X0021920Y0066156D02*
X0021600D01*
X0021920Y0066084D02*
X0021600D01*
X0021920Y0066012D02*
X0021600D01*
X0021920Y0065940D02*
X0021600D01*
X0021920Y0065868D02*
X0021600D01*
X0021920Y0065796D02*
X0021600D01*
X0021920Y0065724D02*
X0021600D01*
X0021920Y0065652D02*
X0021600D01*
X0021920Y0065580D02*
X0021600D01*
X0021920Y0065508D02*
X0021600D01*
X0021920Y0065436D02*
X0021600D01*
X0021920Y0065364D02*
X0021600D01*
X0021920Y0065292D02*
X0021600D01*
X0021920Y0065220D02*
X0021600D01*
X0021920Y0065148D02*
X0021600D01*
X0021920Y0065076D02*
X0021600D01*
X0021920Y0065004D02*
X0021600D01*
X0021920Y0064932D02*
X0021600D01*
X0021940Y0064860D02*
X0021600D01*
X0022012Y0064788D02*
X0021600D01*
X0022084Y0064716D02*
X0021604D01*
X0022156Y0064644D02*
X0021676D01*
X0022228Y0064572D02*
X0021748D01*
X0022300Y0064500D02*
X0021820D01*
X0022372Y0064428D02*
X0021892D01*
X0022444Y0064356D02*
X0021964D01*
X0022516Y0064284D02*
X0022036D01*
X0022588Y0064212D02*
X0022108D01*
X0022660Y0064140D02*
X0022180D01*
X0022732Y0064068D02*
X0022252D01*
X0022804Y0063996D02*
X0022324D01*
X0022876Y0063924D02*
X0022396D01*
X0022880Y0063852D02*
X0022468D01*
X0022880Y0063780D02*
X0022540D01*
X0022880Y0063708D02*
X0022560D01*
X0022880Y0063636D02*
X0022560D01*
X0022880Y0063564D02*
X0022560D01*
X0022880Y0063492D02*
X0022560D01*
X0022880Y0063420D02*
X0022560D01*
X0022880Y0063348D02*
X0022560D01*
X0022880Y0063276D02*
X0022560D01*
X0022880Y0063204D02*
X0022560D01*
X0022880Y0063132D02*
X0022560D01*
X0022880Y0063060D02*
X0022560D01*
X0022880Y0062988D02*
X0022560D01*
X0022880Y0062916D02*
X0022560D01*
X0022880Y0062844D02*
X0022560D01*
X0023760Y0062772D02*
X0022560D01*
X0023760Y0062700D02*
X0022560D01*
X0023760Y0062628D02*
X0022560D01*
X0023760Y0062556D02*
X0022560D01*
X0024320Y0069920D02*
Y0068560D01*
X0028240D02*
X0024320D01*
X0028240D02*
X0028640Y0068160D01*
Y0062800D01*
X0029760D02*
X0028640D01*
X0029760D02*
Y0062560D01*
X0028320D01*
Y0068000D02*
Y0062560D01*
X0028080Y0068240D02*
X0028320Y0068000D01*
X0028080Y0068240D02*
X0024000D01*
Y0069200D02*
Y0068240D01*
Y0069200D02*
X0022640D01*
Y0069920D02*
Y0069200D01*
X0024320Y0069920D02*
X0022640D01*
X0029700Y0062800D02*
Y0062560D01*
X0029628Y0062800D02*
Y0062560D01*
X0029556Y0062800D02*
Y0062560D01*
X0029484Y0062800D02*
Y0062560D01*
X0029412Y0062800D02*
Y0062560D01*
X0029340Y0062800D02*
Y0062560D01*
X0029268Y0062800D02*
Y0062560D01*
X0029196Y0062800D02*
Y0062560D01*
X0029124Y0062800D02*
Y0062560D01*
X0029052Y0062800D02*
Y0062560D01*
X0028980Y0062800D02*
Y0062560D01*
X0028908Y0062800D02*
Y0062560D01*
X0028836Y0062800D02*
Y0062560D01*
X0028764Y0062800D02*
Y0062560D01*
X0028692Y0062800D02*
Y0062560D01*
X0028620Y0068180D02*
Y0062560D01*
X0028548Y0068252D02*
Y0062560D01*
X0028476Y0068324D02*
Y0062560D01*
X0028404Y0068396D02*
Y0062560D01*
X0028332Y0068468D02*
Y0062560D01*
X0028260Y0068540D02*
Y0068060D01*
X0028188Y0068560D02*
Y0068132D01*
X0028116Y0068560D02*
Y0068204D01*
X0028044Y0068560D02*
Y0068240D01*
X0027972Y0068560D02*
Y0068240D01*
X0027900Y0068560D02*
Y0068240D01*
X0027828Y0068560D02*
Y0068240D01*
X0027756Y0068560D02*
Y0068240D01*
X0027684Y0068560D02*
Y0068240D01*
X0027612Y0068560D02*
Y0068240D01*
X0027540Y0068560D02*
Y0068240D01*
X0027468Y0068560D02*
Y0068240D01*
X0027396Y0068560D02*
Y0068240D01*
X0027324Y0068560D02*
Y0068240D01*
X0027252Y0068560D02*
Y0068240D01*
X0027180Y0068560D02*
Y0068240D01*
X0027108Y0068560D02*
Y0068240D01*
X0027036Y0068560D02*
Y0068240D01*
X0026964Y0068560D02*
Y0068240D01*
X0026892Y0068560D02*
Y0068240D01*
X0026820Y0068560D02*
Y0068240D01*
X0026748Y0068560D02*
Y0068240D01*
X0026676Y0068560D02*
Y0068240D01*
X0026604Y0068560D02*
Y0068240D01*
X0026532Y0068560D02*
Y0068240D01*
X0026460Y0068560D02*
Y0068240D01*
X0026388Y0068560D02*
Y0068240D01*
X0026316Y0068560D02*
Y0068240D01*
X0026244Y0068560D02*
Y0068240D01*
X0026172Y0068560D02*
Y0068240D01*
X0026100Y0068560D02*
Y0068240D01*
X0026028Y0068560D02*
Y0068240D01*
X0025956Y0068560D02*
Y0068240D01*
X0025884Y0068560D02*
Y0068240D01*
X0025812Y0068560D02*
Y0068240D01*
X0025740Y0068560D02*
Y0068240D01*
X0025668Y0068560D02*
Y0068240D01*
X0025596Y0068560D02*
Y0068240D01*
X0025524Y0068560D02*
Y0068240D01*
X0025452Y0068560D02*
Y0068240D01*
X0025380Y0068560D02*
Y0068240D01*
X0025308Y0068560D02*
Y0068240D01*
X0025236Y0068560D02*
Y0068240D01*
X0025164Y0068560D02*
Y0068240D01*
X0025092Y0068560D02*
Y0068240D01*
X0025020Y0068560D02*
Y0068240D01*
X0024948Y0068560D02*
Y0068240D01*
X0024876Y0068560D02*
Y0068240D01*
X0024804Y0068560D02*
Y0068240D01*
X0024732Y0068560D02*
Y0068240D01*
X0024660Y0068560D02*
Y0068240D01*
X0024588Y0068560D02*
Y0068240D01*
X0024516Y0068560D02*
Y0068240D01*
X0024444Y0068560D02*
Y0068240D01*
X0024372Y0068560D02*
Y0068240D01*
X0024300Y0069920D02*
Y0068240D01*
X0024228Y0069920D02*
Y0068240D01*
X0024156Y0069920D02*
Y0068240D01*
X0024084Y0069920D02*
Y0068240D01*
X0024012Y0069920D02*
Y0068240D01*
X0023940Y0069920D02*
Y0069200D01*
X0023868Y0069920D02*
Y0069200D01*
X0023796Y0069920D02*
Y0069200D01*
X0023724Y0069920D02*
Y0069200D01*
X0023652Y0069920D02*
Y0069200D01*
X0023580Y0069920D02*
Y0069200D01*
X0023508Y0069920D02*
Y0069200D01*
X0023436Y0069920D02*
Y0069200D01*
X0023364Y0069920D02*
Y0069200D01*
X0023292Y0069920D02*
Y0069200D01*
X0023220Y0069920D02*
Y0069200D01*
X0023148Y0069920D02*
Y0069200D01*
X0023076Y0069920D02*
Y0069200D01*
X0023004Y0069920D02*
Y0069200D01*
X0022932Y0069920D02*
Y0069200D01*
X0022860Y0069920D02*
Y0069200D01*
X0022788Y0069920D02*
Y0069200D01*
X0022716Y0069920D02*
Y0069200D01*
X0024320Y0069908D02*
X0022640D01*
X0024320Y0069836D02*
X0022640D01*
X0024320Y0069764D02*
X0022640D01*
X0024320Y0069692D02*
X0022640D01*
X0024320Y0069620D02*
X0022640D01*
X0024320Y0069548D02*
X0022640D01*
X0024320Y0069476D02*
X0022640D01*
X0024320Y0069404D02*
X0022640D01*
X0024320Y0069332D02*
X0022640D01*
X0024320Y0069260D02*
X0022640D01*
X0024320Y0069188D02*
X0024000D01*
X0024320Y0069116D02*
X0024000D01*
X0024320Y0069044D02*
X0024000D01*
X0024320Y0068972D02*
X0024000D01*
X0024320Y0068900D02*
X0024000D01*
X0024320Y0068828D02*
X0024000D01*
X0024320Y0068756D02*
X0024000D01*
X0024320Y0068684D02*
X0024000D01*
X0024320Y0068612D02*
X0024000D01*
X0028260Y0068540D02*
X0024000D01*
X0028332Y0068468D02*
X0024000D01*
X0028404Y0068396D02*
X0024000D01*
X0028476Y0068324D02*
X0024000D01*
X0028548Y0068252D02*
X0024000D01*
X0028620Y0068180D02*
X0028140D01*
X0028640Y0068108D02*
X0028212D01*
X0028640Y0068036D02*
X0028284D01*
X0028640Y0067964D02*
X0028320D01*
X0028640Y0067892D02*
X0028320D01*
X0028640Y0067820D02*
X0028320D01*
X0028640Y0067748D02*
X0028320D01*
X0028640Y0067676D02*
X0028320D01*
X0028640Y0067604D02*
X0028320D01*
X0028640Y0067532D02*
X0028320D01*
X0028640Y0067460D02*
X0028320D01*
X0028640Y0067388D02*
X0028320D01*
X0028640Y0067316D02*
X0028320D01*
X0028640Y0067244D02*
X0028320D01*
X0028640Y0067172D02*
X0028320D01*
X0028640Y0067100D02*
X0028320D01*
X0028640Y0067028D02*
X0028320D01*
X0028640Y0066956D02*
X0028320D01*
X0028640Y0066884D02*
X0028320D01*
X0028640Y0066812D02*
X0028320D01*
X0028640Y0066740D02*
X0028320D01*
X0028640Y0066668D02*
X0028320D01*
X0028640Y0066596D02*
X0028320D01*
X0028640Y0066524D02*
X0028320D01*
X0028640Y0066452D02*
X0028320D01*
X0028640Y0066380D02*
X0028320D01*
X0028640Y0066308D02*
X0028320D01*
X0028640Y0066236D02*
X0028320D01*
X0028640Y0066164D02*
X0028320D01*
X0028640Y0066092D02*
X0028320D01*
X0028640Y0066020D02*
X0028320D01*
X0028640Y0065948D02*
X0028320D01*
X0028640Y0065876D02*
X0028320D01*
X0028640Y0065804D02*
X0028320D01*
X0028640Y0065732D02*
X0028320D01*
X0028640Y0065660D02*
X0028320D01*
X0028640Y0065588D02*
X0028320D01*
X0028640Y0065516D02*
X0028320D01*
X0028640Y0065444D02*
X0028320D01*
X0028640Y0065372D02*
X0028320D01*
X0028640Y0065300D02*
X0028320D01*
X0028640Y0065228D02*
X0028320D01*
X0028640Y0065156D02*
X0028320D01*
X0028640Y0065084D02*
X0028320D01*
X0028640Y0065012D02*
X0028320D01*
X0028640Y0064940D02*
X0028320D01*
X0028640Y0064868D02*
X0028320D01*
X0028640Y0064796D02*
X0028320D01*
X0028640Y0064724D02*
X0028320D01*
X0028640Y0064652D02*
X0028320D01*
X0028640Y0064580D02*
X0028320D01*
X0028640Y0064508D02*
X0028320D01*
X0028640Y0064436D02*
X0028320D01*
X0028640Y0064364D02*
X0028320D01*
X0028640Y0064292D02*
X0028320D01*
X0028640Y0064220D02*
X0028320D01*
X0028640Y0064148D02*
X0028320D01*
X0028640Y0064076D02*
X0028320D01*
X0028640Y0064004D02*
X0028320D01*
X0028640Y0063932D02*
X0028320D01*
X0028640Y0063860D02*
X0028320D01*
X0028640Y0063788D02*
X0028320D01*
X0028640Y0063716D02*
X0028320D01*
X0028640Y0063644D02*
X0028320D01*
X0028640Y0063572D02*
X0028320D01*
X0028640Y0063500D02*
X0028320D01*
X0028640Y0063428D02*
X0028320D01*
X0028640Y0063356D02*
X0028320D01*
X0028640Y0063284D02*
X0028320D01*
X0028640Y0063212D02*
X0028320D01*
X0028640Y0063140D02*
X0028320D01*
X0028640Y0063068D02*
X0028320D01*
X0028640Y0062996D02*
X0028320D01*
X0028640Y0062924D02*
X0028320D01*
X0028640Y0062852D02*
X0028320D01*
X0029760Y0062780D02*
X0028320D01*
X0029760Y0062708D02*
X0028320D01*
X0029760Y0062636D02*
X0028320D01*
X0022480Y0066160D02*
Y0065440D01*
X0023840D02*
X0022480D01*
X0023840D02*
X0024960Y0064320D01*
Y0057440D01*
X0025680D02*
X0024960D01*
X0025680Y0057760D02*
Y0057440D01*
Y0057760D02*
X0025280D01*
Y0064400D02*
Y0057760D01*
X0024240Y0065440D02*
X0025280Y0064400D01*
X0024240Y0066160D02*
Y0065440D01*
Y0066160D02*
X0022480D01*
X0025280Y0061836D02*
X0024960D01*
X0025652Y0057760D02*
Y0057440D01*
X0025580Y0057760D02*
Y0057440D01*
X0025508Y0057760D02*
Y0057440D01*
X0025436Y0057760D02*
Y0057440D01*
X0025364Y0057760D02*
Y0057440D01*
X0025292Y0057760D02*
Y0057440D01*
X0025220Y0064460D02*
Y0057440D01*
X0025148Y0064532D02*
Y0057440D01*
X0025076Y0064604D02*
Y0057440D01*
X0025004Y0064676D02*
Y0057440D01*
X0024932Y0064748D02*
Y0064348D01*
X0024860Y0064820D02*
Y0064420D01*
X0024788Y0064892D02*
Y0064492D01*
X0024716Y0064964D02*
Y0064564D01*
X0024644Y0065036D02*
Y0064636D01*
X0024572Y0065108D02*
Y0064708D01*
X0024500Y0065180D02*
Y0064780D01*
X0024428Y0065252D02*
Y0064852D01*
X0024356Y0065324D02*
Y0064924D01*
X0024284Y0065396D02*
Y0064996D01*
X0024212Y0066160D02*
Y0065068D01*
X0024140Y0066160D02*
Y0065140D01*
X0024068Y0066160D02*
Y0065212D01*
X0023996Y0066160D02*
Y0065284D01*
X0023924Y0066160D02*
Y0065356D01*
X0023852Y0066160D02*
Y0065428D01*
X0023780Y0066160D02*
Y0065440D01*
X0023708Y0066160D02*
Y0065440D01*
X0023636Y0066160D02*
Y0065440D01*
X0023564Y0066160D02*
Y0065440D01*
X0023492Y0066160D02*
Y0065440D01*
X0023420Y0066160D02*
Y0065440D01*
X0023348Y0066160D02*
Y0065440D01*
X0023276Y0066160D02*
Y0065440D01*
X0023204Y0066160D02*
Y0065440D01*
X0023132Y0066160D02*
Y0065440D01*
X0023060Y0066160D02*
Y0065440D01*
X0022988Y0066160D02*
Y0065440D01*
X0022916Y0066160D02*
Y0065440D01*
X0022844Y0066160D02*
Y0065440D01*
X0022772Y0066160D02*
Y0065440D01*
X0022700Y0066160D02*
Y0065440D01*
X0022628Y0066160D02*
Y0065440D01*
X0022556Y0066160D02*
Y0065440D01*
X0024240Y0066084D02*
X0022480D01*
X0024240Y0066012D02*
X0022480D01*
X0024240Y0065940D02*
X0022480D01*
X0024240Y0065868D02*
X0022480D01*
X0024240Y0065796D02*
X0022480D01*
X0024240Y0065724D02*
X0022480D01*
X0024240Y0065652D02*
X0022480D01*
X0024240Y0065580D02*
X0022480D01*
X0024240Y0065508D02*
X0022480D01*
X0024244Y0065436D02*
X0023844D01*
X0024316Y0065364D02*
X0023916D01*
X0024388Y0065292D02*
X0023988D01*
X0024460Y0065220D02*
X0024060D01*
X0024532Y0065148D02*
X0024132D01*
X0024604Y0065076D02*
X0024204D01*
X0024676Y0065004D02*
X0024276D01*
X0024748Y0064932D02*
X0024348D01*
X0024820Y0064860D02*
X0024420D01*
X0024892Y0064788D02*
X0024492D01*
X0024964Y0064716D02*
X0024564D01*
X0025036Y0064644D02*
X0024636D01*
X0025108Y0064572D02*
X0024708D01*
X0025180Y0064500D02*
X0024780D01*
X0025252Y0064428D02*
X0024852D01*
X0025280Y0064356D02*
X0024924D01*
X0025280Y0064284D02*
X0024960D01*
X0025280Y0064212D02*
X0024960D01*
X0025280Y0064140D02*
X0024960D01*
X0025280Y0064068D02*
X0024960D01*
X0025280Y0063996D02*
X0024960D01*
X0025280Y0063924D02*
X0024960D01*
X0025280Y0063852D02*
X0024960D01*
X0025280Y0063780D02*
X0024960D01*
X0025280Y0063708D02*
X0024960D01*
X0025280Y0063636D02*
X0024960D01*
X0025280Y0063564D02*
X0024960D01*
X0025280Y0063492D02*
X0024960D01*
X0025280Y0063420D02*
X0024960D01*
X0025280Y0063348D02*
X0024960D01*
X0025280Y0063276D02*
X0024960D01*
X0025280Y0063204D02*
X0024960D01*
X0025280Y0063132D02*
X0024960D01*
X0025280Y0063060D02*
X0024960D01*
X0025280Y0062988D02*
X0024960D01*
X0025280Y0062916D02*
X0024960D01*
X0025280Y0062844D02*
X0024960D01*
X0025280Y0062772D02*
X0024960D01*
X0025280Y0062700D02*
X0024960D01*
X0025280Y0062628D02*
X0024960D01*
X0025280Y0062556D02*
X0024960D01*
X0025280Y0062484D02*
X0024960D01*
X0025280Y0062412D02*
X0024960D01*
X0025280Y0062340D02*
X0024960D01*
X0025280Y0062268D02*
X0024960D01*
X0025280Y0062196D02*
X0024960D01*
X0025280Y0062124D02*
X0024960D01*
X0025280Y0062052D02*
X0024960D01*
X0025280Y0061980D02*
X0024960D01*
X0025280Y0061908D02*
X0024960D01*
X0025280Y0061764D02*
X0024960D01*
X0025280Y0061692D02*
X0024960D01*
X0025280Y0061620D02*
X0024960D01*
X0025280Y0061548D02*
X0024960D01*
X0025280Y0061476D02*
X0024960D01*
X0025280Y0061404D02*
X0024960D01*
X0025280Y0061332D02*
X0024960D01*
X0025280Y0061260D02*
X0024960D01*
X0025280Y0061188D02*
X0024960D01*
X0025280Y0061116D02*
X0024960D01*
X0025280Y0061044D02*
X0024960D01*
X0025280Y0060972D02*
X0024960D01*
X0025280Y0060900D02*
X0024960D01*
X0025280Y0060828D02*
X0024960D01*
X0025280Y0060756D02*
X0024960D01*
X0025280Y0060684D02*
X0024960D01*
X0025280Y0060612D02*
X0024960D01*
X0025280Y0060540D02*
X0024960D01*
X0025280Y0060468D02*
X0024960D01*
X0025280Y0060396D02*
X0024960D01*
X0025280Y0060324D02*
X0024960D01*
X0025280Y0060252D02*
X0024960D01*
X0025280Y0060180D02*
X0024960D01*
X0025280Y0060108D02*
X0024960D01*
X0025280Y0060036D02*
X0024960D01*
X0025280Y0059964D02*
X0024960D01*
X0025280Y0059892D02*
X0024960D01*
X0025280Y0059820D02*
X0024960D01*
X0025280Y0059748D02*
X0024960D01*
X0025280Y0059676D02*
X0024960D01*
X0025280Y0059604D02*
X0024960D01*
X0025280Y0059532D02*
X0024960D01*
X0025280Y0059460D02*
X0024960D01*
X0025280Y0059388D02*
X0024960D01*
X0025280Y0059316D02*
X0024960D01*
X0025280Y0059244D02*
X0024960D01*
X0025280Y0059172D02*
X0024960D01*
X0025280Y0059100D02*
X0024960D01*
X0025280Y0059028D02*
X0024960D01*
X0025280Y0058956D02*
X0024960D01*
X0025280Y0058884D02*
X0024960D01*
X0025280Y0058812D02*
X0024960D01*
X0025280Y0058740D02*
X0024960D01*
X0025280Y0058668D02*
X0024960D01*
X0025280Y0058596D02*
X0024960D01*
X0025280Y0058524D02*
X0024960D01*
X0025280Y0058452D02*
X0024960D01*
X0025280Y0058380D02*
X0024960D01*
X0025280Y0058308D02*
X0024960D01*
X0025280Y0058236D02*
X0024960D01*
X0025280Y0058164D02*
X0024960D01*
X0025280Y0058092D02*
X0024960D01*
X0025280Y0058020D02*
X0024960D01*
X0025280Y0057948D02*
X0024960D01*
X0025280Y0057876D02*
X0024960D01*
X0025280Y0057804D02*
X0024960D01*
X0025680Y0057732D02*
X0024960D01*
X0025680Y0057660D02*
X0024960D01*
X0025680Y0057588D02*
X0024960D01*
X0025680Y0057516D02*
X0024960D01*
X0019788Y0057760D02*
Y0057440D01*
X0019716Y0066160D02*
Y0057440D01*
X0019644Y0066160D02*
Y0057440D01*
X0019572Y0066160D02*
Y0057440D01*
X0019500Y0066160D02*
Y0057440D01*
X0019428Y0066160D02*
Y0065440D01*
X0019356Y0066160D02*
Y0065440D01*
X0020880Y0066084D02*
X0019280D01*
X0020880Y0066012D02*
X0019280D01*
X0020880Y0065940D02*
X0019280D01*
X0020880Y0065868D02*
X0019280D01*
X0020880Y0065796D02*
X0019280D01*
X0020880Y0065724D02*
X0019280D01*
X0020880Y0065652D02*
X0019280D01*
X0020880Y0065580D02*
X0019280D01*
X0020880Y0065508D02*
X0019280D01*
X0019760Y0065436D02*
X0019440D01*
X0019760Y0065364D02*
X0019440D01*
X0019760Y0065292D02*
X0019440D01*
X0019760Y0065220D02*
X0019440D01*
X0019760Y0065148D02*
X0019440D01*
X0019760Y0065076D02*
X0019440D01*
X0019760Y0065004D02*
X0019440D01*
X0019760Y0064932D02*
X0019440D01*
X0019760Y0064860D02*
X0019440D01*
X0019760Y0064788D02*
X0019440D01*
X0019760Y0064716D02*
X0019440D01*
X0019760Y0064644D02*
X0019440D01*
X0019760Y0064572D02*
X0019440D01*
X0019760Y0064500D02*
X0019440D01*
X0019760Y0064428D02*
X0019440D01*
X0019760Y0064356D02*
X0019440D01*
X0019760Y0064284D02*
X0019440D01*
X0019760Y0064212D02*
X0019440D01*
X0019760Y0064140D02*
X0019440D01*
X0019760Y0064068D02*
X0019440D01*
X0019760Y0063996D02*
X0019440D01*
X0019760Y0063924D02*
X0019440D01*
X0019760Y0063852D02*
X0019440D01*
X0019760Y0063780D02*
X0019440D01*
X0019760Y0063708D02*
X0019440D01*
X0019760Y0063636D02*
X0019440D01*
X0019760Y0063564D02*
X0019440D01*
X0019760Y0063492D02*
X0019440D01*
X0019760Y0063420D02*
X0019440D01*
X0019760Y0063348D02*
X0019440D01*
X0019760Y0063276D02*
X0019440D01*
X0019760Y0063204D02*
X0019440D01*
X0019760Y0063132D02*
X0019440D01*
X0019760Y0063060D02*
X0019440D01*
X0019760Y0062988D02*
X0019440D01*
X0019760Y0062916D02*
X0019440D01*
X0019760Y0062844D02*
X0019440D01*
X0019760Y0062772D02*
X0019440D01*
X0019760Y0062700D02*
X0019440D01*
X0019760Y0062628D02*
X0019440D01*
X0019760Y0062556D02*
X0019440D01*
X0019760Y0062484D02*
X0019440D01*
X0019760Y0062412D02*
X0019440D01*
X0019760Y0062340D02*
X0019440D01*
X0019760Y0062268D02*
X0019440D01*
X0019760Y0062196D02*
X0019440D01*
X0019760Y0062124D02*
X0019440D01*
X0019760Y0062052D02*
X0019440D01*
X0019760Y0061980D02*
X0019440D01*
X0019760Y0061908D02*
X0019440D01*
X0019788Y0066160D02*
Y0065440D01*
X0019760Y0061764D02*
X0019440D01*
X0019760Y0061692D02*
X0019440D01*
X0019760Y0061620D02*
X0019440D01*
X0019760Y0061548D02*
X0019440D01*
X0019760Y0061476D02*
X0019440D01*
X0019760Y0061404D02*
X0019440D01*
X0019760Y0061332D02*
X0019440D01*
X0019760Y0061260D02*
X0019440D01*
X0019760Y0061188D02*
X0019440D01*
X0019760Y0061116D02*
X0019440D01*
X0019760Y0061044D02*
X0019440D01*
X0019760Y0060972D02*
X0019440D01*
X0019760Y0060900D02*
X0019440D01*
X0019760Y0060828D02*
X0019440D01*
X0019760Y0060756D02*
X0019440D01*
X0019760Y0060684D02*
X0019440D01*
X0019760Y0060612D02*
X0019440D01*
X0019760Y0060540D02*
X0019440D01*
X0019760Y0060468D02*
X0019440D01*
X0019760Y0060396D02*
X0019440D01*
X0019760Y0060324D02*
X0019440D01*
X0019760Y0060252D02*
X0019440D01*
X0019760Y0060180D02*
X0019440D01*
X0019760Y0060108D02*
X0019440D01*
X0019760Y0060036D02*
X0019440D01*
X0019760Y0059964D02*
X0019440D01*
X0019760Y0059892D02*
X0019440D01*
X0019760Y0059820D02*
X0019440D01*
X0019760Y0059748D02*
X0019440D01*
X0019760Y0059676D02*
X0019440D01*
X0019760Y0059604D02*
X0019440D01*
X0019760Y0059532D02*
X0019440D01*
X0019760Y0059460D02*
X0019440D01*
X0019760Y0059388D02*
X0019440D01*
X0019760Y0059316D02*
X0019440D01*
X0019760Y0059244D02*
X0019440D01*
X0019760Y0059172D02*
X0019440D01*
X0019760Y0059100D02*
X0019440D01*
X0019760Y0059028D02*
X0019440D01*
X0019760Y0058956D02*
X0019440D01*
X0019760Y0058884D02*
X0019440D01*
X0019760Y0058812D02*
X0019440D01*
X0019760Y0058740D02*
X0019440D01*
X0019760Y0058668D02*
X0019440D01*
X0019760Y0058596D02*
X0019440D01*
X0019760Y0058524D02*
X0019440D01*
X0019760Y0058452D02*
X0019440D01*
X0019760Y0058380D02*
X0019440D01*
X0019760Y0058308D02*
X0019440D01*
X0019760Y0058236D02*
X0019440D01*
X0019760Y0058164D02*
X0019440D01*
X0019760Y0058092D02*
X0019440D01*
X0019760Y0058020D02*
X0019440D01*
X0019760Y0057948D02*
X0019440D01*
X0019760Y0057876D02*
X0019440D01*
X0019760Y0057804D02*
X0019440D01*
X0020240Y0057732D02*
X0019440D01*
X0020240Y0057660D02*
X0019440D01*
X0020240Y0057588D02*
X0019440D01*
X0020240Y0057516D02*
X0019440D01*
X0020220Y0066160D02*
Y0065440D01*
X0020148Y0066160D02*
Y0065440D01*
X0020076Y0066160D02*
Y0065440D01*
X0020004Y0066160D02*
Y0065440D01*
X0019932Y0066160D02*
Y0065440D01*
X0019860Y0066160D02*
Y0065440D01*
X0020880D02*
X0020000D01*
X0020880Y0066160D02*
Y0065440D01*
Y0066160D02*
X0019280D01*
Y0065440D01*
X0019440D02*
X0019280D01*
X0019440D02*
Y0057440D01*
X0020240D02*
X0019440D01*
X0020240Y0057760D02*
Y0057440D01*
Y0057760D02*
X0019760D01*
Y0065440D02*
Y0057760D01*
X0020000Y0065440D02*
X0019760D01*
Y0061836D02*
X0019440D01*
X0020868Y0066160D02*
Y0065440D01*
X0020796Y0066160D02*
Y0065440D01*
X0020724Y0066160D02*
Y0065440D01*
X0020652Y0066160D02*
Y0065440D01*
X0020580Y0066160D02*
Y0065440D01*
X0020508Y0066160D02*
Y0065440D01*
X0020436Y0066160D02*
Y0065440D01*
X0020364Y0066160D02*
Y0065440D01*
X0020292Y0066160D02*
Y0065440D01*
X0020220Y0057760D02*
Y0057440D01*
X0020148Y0057760D02*
Y0057440D01*
X0020076Y0057760D02*
Y0057440D01*
X0020004Y0057760D02*
Y0057440D01*
X0019932Y0057760D02*
Y0057440D01*
X0019860Y0057760D02*
Y0057440D01*
X0031948Y0050772D02*
Y0050132D01*
X0031876Y0050844D02*
Y0050204D01*
X0031804Y0050916D02*
Y0050276D01*
X0031732Y0050988D02*
Y0050348D01*
X0031660Y0051060D02*
Y0050420D01*
X0031588Y0051132D02*
Y0050492D01*
X0031516Y0051204D02*
Y0050564D01*
X0031444Y0051276D02*
Y0050636D01*
X0031372Y0051348D02*
Y0050708D01*
X0031300Y0066400D02*
Y0050780D01*
X0031228Y0066400D02*
Y0050852D01*
X0031156Y0066400D02*
Y0050924D01*
X0031084Y0066400D02*
Y0050996D01*
X0031012Y0066400D02*
Y0051068D01*
Y0044772D02*
Y0043972D01*
X0030940Y0066400D02*
Y0051140D01*
Y0044700D02*
Y0043900D01*
X0030868Y0066400D02*
Y0065440D01*
Y0044628D02*
Y0043828D01*
X0030796Y0066400D02*
Y0065440D01*
Y0044556D02*
Y0043756D01*
X0030724Y0066400D02*
Y0065440D01*
Y0044484D02*
Y0043684D01*
X0030652Y0066400D02*
Y0065440D01*
Y0044412D02*
Y0043612D01*
X0030580Y0066400D02*
Y0065440D01*
X0030508Y0066400D02*
Y0065440D01*
X0030436Y0066400D02*
Y0065440D01*
X0030364Y0066400D02*
Y0065440D01*
X0030292Y0066400D02*
Y0065440D01*
X0030220Y0066400D02*
Y0065440D01*
X0030148Y0066400D02*
Y0065440D01*
X0030076Y0066400D02*
Y0065440D01*
X0030004Y0066400D02*
Y0065440D01*
X0029932Y0066400D02*
Y0065440D01*
X0029860Y0066400D02*
Y0065440D01*
X0029788Y0066400D02*
Y0065440D01*
X0029716Y0066400D02*
Y0065440D01*
X0029644Y0066400D02*
Y0065440D01*
X0029572Y0066400D02*
Y0065440D01*
X0029500Y0066400D02*
Y0065440D01*
X0029280Y0066400D02*
Y0065440D01*
X0030880D02*
X0029280D01*
X0030880D02*
Y0051200D01*
X0032000Y0050080D01*
Y0045760D01*
X0029840Y0043600D01*
X0029360D01*
Y0042800D01*
X0031040D02*
X0029360D01*
X0031040Y0043600D02*
Y0042800D01*
Y0043600D02*
X0030640D01*
X0032480Y0045440D02*
X0030640Y0043600D01*
X0032480Y0050240D02*
Y0045440D01*
X0031360Y0051360D02*
X0032480Y0050240D01*
X0031360Y0066400D02*
Y0051360D01*
Y0066400D02*
X0029280D01*
X0031360Y0054612D02*
X0030880D01*
X0032452Y0050268D02*
Y0045412D01*
X0032380Y0050340D02*
Y0045340D01*
X0032308Y0050412D02*
Y0045268D01*
X0032236Y0050484D02*
Y0045196D01*
X0032164Y0050556D02*
Y0045124D01*
X0032092Y0050628D02*
Y0045052D01*
X0032020Y0050700D02*
Y0044980D01*
X0031948Y0045708D02*
Y0044908D01*
X0031876Y0045636D02*
Y0044836D01*
X0031804Y0045564D02*
Y0044764D01*
X0031732Y0045492D02*
Y0044692D01*
X0031660Y0045420D02*
Y0044620D01*
X0031588Y0045348D02*
Y0044548D01*
X0031516Y0045276D02*
Y0044476D01*
X0031444Y0045204D02*
Y0044404D01*
X0031372Y0045132D02*
Y0044332D01*
X0031300Y0045060D02*
Y0044260D01*
X0031228Y0044988D02*
Y0044188D01*
X0031156Y0044916D02*
Y0044116D01*
X0031084Y0044844D02*
Y0044044D01*
X0031012Y0043600D02*
Y0042800D01*
X0032480Y0048708D02*
X0032000D01*
X0030868Y0043600D02*
Y0042800D01*
X0030796Y0043600D02*
Y0042800D01*
X0030724Y0043600D02*
Y0042800D01*
X0030652Y0043600D02*
Y0042800D01*
X0030580Y0044340D02*
Y0042800D01*
X0030508Y0044268D02*
Y0042800D01*
X0030436Y0044196D02*
Y0042800D01*
X0030364Y0044124D02*
Y0042800D01*
X0030292Y0044052D02*
Y0042800D01*
X0030220Y0043980D02*
Y0042800D01*
X0030148Y0043908D02*
Y0042800D01*
X0030076Y0043836D02*
Y0042800D01*
X0030004Y0043764D02*
Y0042800D01*
X0029932Y0043692D02*
Y0042800D01*
X0029860Y0043620D02*
Y0042800D01*
X0029788Y0043600D02*
Y0042800D01*
X0029716Y0043600D02*
Y0042800D01*
X0029644Y0043600D02*
Y0042800D01*
X0029572Y0043600D02*
Y0042800D01*
X0029500Y0043600D02*
Y0042800D01*
X0029428Y0043600D02*
Y0042800D01*
X0029356Y0066400D02*
Y0065440D01*
X0031360Y0066348D02*
X0029280D01*
X0031360Y0066276D02*
X0029280D01*
X0031360Y0066204D02*
X0029280D01*
X0031360Y0066132D02*
X0029280D01*
X0031360Y0066060D02*
X0029280D01*
X0031360Y0065988D02*
X0029280D01*
X0031360Y0065916D02*
X0029280D01*
X0031360Y0065844D02*
X0029280D01*
X0031360Y0065772D02*
X0029280D01*
X0031360Y0065700D02*
X0029280D01*
X0031360Y0065628D02*
X0029280D01*
X0031360Y0065556D02*
X0029280D01*
X0031360Y0065484D02*
X0029280D01*
X0031360Y0065412D02*
X0030880D01*
X0031360Y0065340D02*
X0030880D01*
X0031360Y0065268D02*
X0030880D01*
X0031360Y0065196D02*
X0030880D01*
X0031360Y0065124D02*
X0030880D01*
X0031360Y0065052D02*
X0030880D01*
X0031360Y0064980D02*
X0030880D01*
X0031360Y0064908D02*
X0030880D01*
X0031360Y0064836D02*
X0030880D01*
X0031360Y0064764D02*
X0030880D01*
X0031360Y0064692D02*
X0030880D01*
X0031360Y0064620D02*
X0030880D01*
X0031360Y0064548D02*
X0030880D01*
X0031360Y0064476D02*
X0030880D01*
X0031360Y0064404D02*
X0030880D01*
X0031360Y0064332D02*
X0030880D01*
X0031360Y0064260D02*
X0030880D01*
X0031360Y0064188D02*
X0030880D01*
X0031360Y0064116D02*
X0030880D01*
X0031360Y0064044D02*
X0030880D01*
X0031360Y0063972D02*
X0030880D01*
X0031360Y0063900D02*
X0030880D01*
X0031360Y0063828D02*
X0030880D01*
X0031360Y0063756D02*
X0030880D01*
X0031360Y0063684D02*
X0030880D01*
X0031360Y0063612D02*
X0030880D01*
X0031360Y0063540D02*
X0030880D01*
X0031360Y0063468D02*
X0030880D01*
X0031360Y0063396D02*
X0030880D01*
X0031360Y0063324D02*
X0030880D01*
X0031360Y0063252D02*
X0030880D01*
X0031360Y0063180D02*
X0030880D01*
X0031360Y0063108D02*
X0030880D01*
X0031360Y0063036D02*
X0030880D01*
X0031360Y0062964D02*
X0030880D01*
X0031360Y0062892D02*
X0030880D01*
X0031360Y0062820D02*
X0030880D01*
X0031360Y0062748D02*
X0030880D01*
X0031360Y0062676D02*
X0030880D01*
X0031360Y0062604D02*
X0030880D01*
X0031360Y0062532D02*
X0030880D01*
X0031360Y0062460D02*
X0030880D01*
X0031360Y0062388D02*
X0030880D01*
X0031360Y0062316D02*
X0030880D01*
X0031360Y0062244D02*
X0030880D01*
X0031360Y0062172D02*
X0030880D01*
X0031360Y0062100D02*
X0030880D01*
X0031360Y0062028D02*
X0030880D01*
X0031360Y0061956D02*
X0030880D01*
X0031360Y0061884D02*
X0030880D01*
X0031360Y0061812D02*
X0030880D01*
X0031360Y0061740D02*
X0030880D01*
X0031360Y0061668D02*
X0030880D01*
X0031360Y0061596D02*
X0030880D01*
X0031360Y0061524D02*
X0030880D01*
X0031360Y0061452D02*
X0030880D01*
X0031360Y0061380D02*
X0030880D01*
X0031360Y0061308D02*
X0030880D01*
X0031360Y0061236D02*
X0030880D01*
X0031360Y0061164D02*
X0030880D01*
X0031360Y0061092D02*
X0030880D01*
X0031360Y0061020D02*
X0030880D01*
X0031360Y0060948D02*
X0030880D01*
X0031360Y0060876D02*
X0030880D01*
X0031360Y0060804D02*
X0030880D01*
X0031360Y0060732D02*
X0030880D01*
X0031360Y0060660D02*
X0030880D01*
X0031360Y0060588D02*
X0030880D01*
X0031360Y0060516D02*
X0030880D01*
X0031360Y0060444D02*
X0030880D01*
X0031360Y0060372D02*
X0030880D01*
X0031360Y0060300D02*
X0030880D01*
X0031360Y0060228D02*
X0030880D01*
X0031360Y0060156D02*
X0030880D01*
X0031360Y0060084D02*
X0030880D01*
X0031360Y0060012D02*
X0030880D01*
X0031360Y0059940D02*
X0030880D01*
X0031360Y0059868D02*
X0030880D01*
X0031360Y0059796D02*
X0030880D01*
X0031360Y0059724D02*
X0030880D01*
X0031360Y0059652D02*
X0030880D01*
X0031360Y0059580D02*
X0030880D01*
X0031360Y0059508D02*
X0030880D01*
X0031360Y0059436D02*
X0030880D01*
X0031360Y0059364D02*
X0030880D01*
X0031360Y0059292D02*
X0030880D01*
X0031360Y0059220D02*
X0030880D01*
X0031360Y0059148D02*
X0030880D01*
X0031360Y0059076D02*
X0030880D01*
X0031360Y0059004D02*
X0030880D01*
X0031360Y0058932D02*
X0030880D01*
X0031360Y0058860D02*
X0030880D01*
X0031360Y0058788D02*
X0030880D01*
X0031360Y0058716D02*
X0030880D01*
X0031360Y0058644D02*
X0030880D01*
X0031360Y0058572D02*
X0030880D01*
X0031360Y0058500D02*
X0030880D01*
X0031360Y0058428D02*
X0030880D01*
X0031360Y0058356D02*
X0030880D01*
X0031360Y0058284D02*
X0030880D01*
X0031360Y0058212D02*
X0030880D01*
X0031360Y0058140D02*
X0030880D01*
X0031360Y0058068D02*
X0030880D01*
X0031360Y0057996D02*
X0030880D01*
X0031360Y0057924D02*
X0030880D01*
X0031360Y0057852D02*
X0030880D01*
X0031360Y0057780D02*
X0030880D01*
X0031360Y0057708D02*
X0030880D01*
X0031360Y0057636D02*
X0030880D01*
X0031360Y0057564D02*
X0030880D01*
X0031360Y0057492D02*
X0030880D01*
X0031360Y0057420D02*
X0030880D01*
X0031360Y0057348D02*
X0030880D01*
X0031360Y0057276D02*
X0030880D01*
X0031360Y0057204D02*
X0030880D01*
X0031360Y0057132D02*
X0030880D01*
X0031360Y0057060D02*
X0030880D01*
X0031360Y0056988D02*
X0030880D01*
X0031360Y0056916D02*
X0030880D01*
X0031360Y0056844D02*
X0030880D01*
X0031360Y0056772D02*
X0030880D01*
X0031360Y0056700D02*
X0030880D01*
X0031360Y0056628D02*
X0030880D01*
X0031360Y0056556D02*
X0030880D01*
X0031360Y0056484D02*
X0030880D01*
X0031360Y0056412D02*
X0030880D01*
X0031360Y0056340D02*
X0030880D01*
X0031360Y0056268D02*
X0030880D01*
X0031360Y0056196D02*
X0030880D01*
X0031360Y0056124D02*
X0030880D01*
X0031360Y0056052D02*
X0030880D01*
X0031360Y0055980D02*
X0030880D01*
X0031360Y0055908D02*
X0030880D01*
X0031360Y0055836D02*
X0030880D01*
X0031360Y0055764D02*
X0030880D01*
X0031360Y0055692D02*
X0030880D01*
X0031360Y0055620D02*
X0030880D01*
X0031360Y0055548D02*
X0030880D01*
X0031360Y0055476D02*
X0030880D01*
X0031360Y0055404D02*
X0030880D01*
X0031360Y0055332D02*
X0030880D01*
X0031360Y0055260D02*
X0030880D01*
X0031360Y0055188D02*
X0030880D01*
X0031360Y0055116D02*
X0030880D01*
X0031360Y0055044D02*
X0030880D01*
X0031360Y0054972D02*
X0030880D01*
X0031360Y0054900D02*
X0030880D01*
X0031360Y0054828D02*
X0030880D01*
X0031360Y0054756D02*
X0030880D01*
X0031360Y0054684D02*
X0030880D01*
X0030940Y0043600D02*
Y0042800D01*
X0031360Y0054540D02*
X0030880D01*
X0031360Y0054468D02*
X0030880D01*
X0031360Y0054396D02*
X0030880D01*
X0031360Y0054324D02*
X0030880D01*
X0031360Y0054252D02*
X0030880D01*
X0031360Y0054180D02*
X0030880D01*
X0031360Y0054108D02*
X0030880D01*
X0031360Y0054036D02*
X0030880D01*
X0031360Y0053964D02*
X0030880D01*
X0031360Y0053892D02*
X0030880D01*
X0031360Y0053820D02*
X0030880D01*
X0031360Y0053748D02*
X0030880D01*
X0031360Y0053676D02*
X0030880D01*
X0031360Y0053604D02*
X0030880D01*
X0031360Y0053532D02*
X0030880D01*
X0031360Y0053460D02*
X0030880D01*
X0031360Y0053388D02*
X0030880D01*
X0031360Y0053316D02*
X0030880D01*
X0031360Y0053244D02*
X0030880D01*
X0031360Y0053172D02*
X0030880D01*
X0031360Y0053100D02*
X0030880D01*
X0031360Y0053028D02*
X0030880D01*
X0031360Y0052956D02*
X0030880D01*
X0031360Y0052884D02*
X0030880D01*
X0031360Y0052812D02*
X0030880D01*
X0031360Y0052740D02*
X0030880D01*
X0031360Y0052668D02*
X0030880D01*
X0031360Y0052596D02*
X0030880D01*
X0031360Y0052524D02*
X0030880D01*
X0031360Y0052452D02*
X0030880D01*
X0031360Y0052380D02*
X0030880D01*
X0031360Y0052308D02*
X0030880D01*
X0031360Y0052236D02*
X0030880D01*
X0031360Y0052164D02*
X0030880D01*
X0031360Y0052092D02*
X0030880D01*
X0031360Y0052020D02*
X0030880D01*
X0031360Y0051948D02*
X0030880D01*
X0031360Y0051876D02*
X0030880D01*
X0031360Y0051804D02*
X0030880D01*
X0031360Y0051732D02*
X0030880D01*
X0031360Y0051660D02*
X0030880D01*
X0031360Y0051588D02*
X0030880D01*
X0031360Y0051516D02*
X0030880D01*
X0031360Y0051444D02*
X0030880D01*
X0031360Y0051372D02*
X0030880D01*
X0031420Y0051300D02*
X0030880D01*
X0031492Y0051228D02*
X0030880D01*
X0031564Y0051156D02*
X0030924D01*
X0031636Y0051084D02*
X0030996D01*
X0031708Y0051012D02*
X0031068D01*
X0031780Y0050940D02*
X0031140D01*
X0031852Y0050868D02*
X0031212D01*
X0031924Y0050796D02*
X0031284D01*
X0031996Y0050724D02*
X0031356D01*
X0032068Y0050652D02*
X0031428D01*
X0032140Y0050580D02*
X0031500D01*
X0032212Y0050508D02*
X0031572D01*
X0032284Y0050436D02*
X0031644D01*
X0032356Y0050364D02*
X0031716D01*
X0032428Y0050292D02*
X0031788D01*
X0032480Y0050220D02*
X0031860D01*
X0032480Y0050148D02*
X0031932D01*
X0032480Y0050076D02*
X0032000D01*
X0032480Y0050004D02*
X0032000D01*
X0032480Y0049932D02*
X0032000D01*
X0032480Y0049860D02*
X0032000D01*
X0032480Y0049788D02*
X0032000D01*
X0032480Y0049716D02*
X0032000D01*
X0032480Y0049644D02*
X0032000D01*
X0032480Y0049572D02*
X0032000D01*
X0032480Y0049500D02*
X0032000D01*
X0032480Y0049428D02*
X0032000D01*
X0032480Y0049356D02*
X0032000D01*
X0032480Y0049284D02*
X0032000D01*
X0032480Y0049212D02*
X0032000D01*
X0032480Y0049140D02*
X0032000D01*
X0032480Y0049068D02*
X0032000D01*
X0032480Y0048996D02*
X0032000D01*
X0032480Y0048924D02*
X0032000D01*
X0032480Y0048852D02*
X0032000D01*
X0032480Y0048780D02*
X0032000D01*
X0029428Y0066400D02*
Y0065440D01*
X0032480Y0048636D02*
X0032000D01*
X0032480Y0048564D02*
X0032000D01*
X0032480Y0048492D02*
X0032000D01*
X0032480Y0048420D02*
X0032000D01*
X0032480Y0048348D02*
X0032000D01*
X0032480Y0048276D02*
X0032000D01*
X0032480Y0048204D02*
X0032000D01*
X0032480Y0048132D02*
X0032000D01*
X0032480Y0048060D02*
X0032000D01*
X0032480Y0047988D02*
X0032000D01*
X0032480Y0047916D02*
X0032000D01*
X0032480Y0047844D02*
X0032000D01*
X0032480Y0047772D02*
X0032000D01*
X0032480Y0047700D02*
X0032000D01*
X0032480Y0047628D02*
X0032000D01*
X0032480Y0047556D02*
X0032000D01*
X0032480Y0047484D02*
X0032000D01*
X0032480Y0047412D02*
X0032000D01*
X0032480Y0047340D02*
X0032000D01*
X0032480Y0047268D02*
X0032000D01*
X0032480Y0047196D02*
X0032000D01*
X0032480Y0047124D02*
X0032000D01*
X0032480Y0047052D02*
X0032000D01*
X0032480Y0046980D02*
X0032000D01*
X0032480Y0046908D02*
X0032000D01*
X0032480Y0046836D02*
X0032000D01*
X0032480Y0046764D02*
X0032000D01*
X0032480Y0046692D02*
X0032000D01*
X0032480Y0046620D02*
X0032000D01*
X0032480Y0046548D02*
X0032000D01*
X0032480Y0046476D02*
X0032000D01*
X0032480Y0046404D02*
X0032000D01*
X0032480Y0046332D02*
X0032000D01*
X0032480Y0046260D02*
X0032000D01*
X0032480Y0046188D02*
X0032000D01*
X0032480Y0046116D02*
X0032000D01*
X0032480Y0046044D02*
X0032000D01*
X0032480Y0045972D02*
X0032000D01*
X0032480Y0045900D02*
X0032000D01*
X0032480Y0045828D02*
X0032000D01*
X0032480Y0045756D02*
X0031996D01*
X0032480Y0045684D02*
X0031924D01*
X0032480Y0045612D02*
X0031852D01*
X0032480Y0045540D02*
X0031780D01*
X0032480Y0045468D02*
X0031708D01*
X0032436Y0045396D02*
X0031636D01*
X0032364Y0045324D02*
X0031564D01*
X0032292Y0045252D02*
X0031492D01*
X0032220Y0045180D02*
X0031420D01*
X0032148Y0045108D02*
X0031348D01*
X0032076Y0045036D02*
X0031276D01*
X0032004Y0044964D02*
X0031204D01*
X0031932Y0044892D02*
X0031132D01*
X0031860Y0044820D02*
X0031060D01*
X0031788Y0044748D02*
X0030988D01*
X0031716Y0044676D02*
X0030916D01*
X0031644Y0044604D02*
X0030844D01*
X0031572Y0044532D02*
X0030772D01*
X0031500Y0044460D02*
X0030700D01*
X0031428Y0044388D02*
X0030628D01*
X0031356Y0044316D02*
X0030556D01*
X0031284Y0044244D02*
X0030484D01*
X0031212Y0044172D02*
X0030412D01*
X0031140Y0044100D02*
X0030340D01*
X0031068Y0044028D02*
X0030268D01*
X0030996Y0043956D02*
X0030196D01*
X0030924Y0043884D02*
X0030124D01*
X0030852Y0043812D02*
X0030052D01*
X0030780Y0043740D02*
X0029980D01*
X0030708Y0043668D02*
X0029908D01*
X0031040Y0043596D02*
X0029360D01*
X0031040Y0043524D02*
X0029360D01*
X0031040Y0043452D02*
X0029360D01*
X0031040Y0043380D02*
X0029360D01*
X0031040Y0043308D02*
X0029360D01*
X0031040Y0043236D02*
X0029360D01*
X0031040Y0043164D02*
X0029360D01*
X0031040Y0043092D02*
X0029360D01*
X0031040Y0043020D02*
X0029360D01*
X0031040Y0042948D02*
X0029360D01*
X0031040Y0042876D02*
X0029360D01*
X0034260Y0066400D02*
Y0065440D01*
X0034188Y0066400D02*
Y0065440D01*
X0034116Y0066400D02*
Y0065440D01*
X0034044Y0066400D02*
Y0065440D01*
X0033972Y0066400D02*
Y0065440D01*
X0033900Y0066400D02*
Y0065440D01*
X0033828Y0066400D02*
Y0065440D01*
X0033756Y0066400D02*
Y0065440D01*
X0033684Y0066400D02*
Y0065440D01*
X0033612Y0066400D02*
Y0065440D01*
X0033540Y0066400D02*
Y0065440D01*
X0033468Y0066400D02*
Y0065440D01*
X0033396Y0066400D02*
Y0065440D01*
X0033324Y0066400D02*
Y0065440D01*
X0033252Y0066400D02*
Y0065440D01*
X0033180Y0066400D02*
Y0065440D01*
Y0051300D02*
Y0050740D01*
X0033108Y0066400D02*
Y0065440D01*
Y0051372D02*
Y0050812D01*
X0033036Y0066400D02*
Y0065440D01*
Y0051444D02*
Y0050884D01*
X0032964Y0066400D02*
Y0065440D01*
Y0051516D02*
Y0050956D01*
X0032892Y0066400D02*
Y0065440D01*
Y0051588D02*
Y0051028D01*
X0032820Y0066400D02*
Y0065440D01*
Y0051660D02*
Y0051100D01*
X0032748Y0066400D02*
Y0065440D01*
Y0051732D02*
Y0051172D01*
X0032676Y0066400D02*
Y0051244D01*
X0032604Y0066400D02*
Y0051316D01*
X0032532Y0066400D02*
Y0051388D01*
X0032460Y0066400D02*
Y0051460D01*
X0034320Y0066400D02*
X0032240D01*
X0034320D02*
Y0065440D01*
X0032720D01*
Y0051760D01*
X0033680Y0050800D01*
Y0043600D01*
X0034400D02*
X0033680D01*
X0034400D02*
Y0042800D01*
X0032320D01*
Y0043600D02*
Y0042800D01*
X0033200Y0043600D02*
X0032320D01*
X0033200Y0050720D02*
Y0043600D01*
X0032240Y0051680D02*
X0033200Y0050720D01*
X0032240Y0066400D02*
Y0051680D01*
X0032720Y0054612D02*
X0032240D01*
X0034332Y0043600D02*
Y0042800D01*
X0034260Y0043600D02*
Y0042800D01*
X0034188Y0043600D02*
Y0042800D01*
X0034116Y0043600D02*
Y0042800D01*
X0034044Y0043600D02*
Y0042800D01*
X0033972Y0043600D02*
Y0042800D01*
X0033900Y0043600D02*
Y0042800D01*
X0033828Y0043600D02*
Y0042800D01*
X0033756Y0043600D02*
Y0042800D01*
X0033684Y0043600D02*
Y0042800D01*
X0033612Y0050868D02*
Y0042800D01*
X0033540Y0050940D02*
Y0042800D01*
X0033468Y0051012D02*
Y0042800D01*
X0033396Y0051084D02*
Y0042800D01*
X0033680Y0048708D02*
X0033200D01*
X0033252Y0051228D02*
Y0042800D01*
X0033180Y0043600D02*
Y0042800D01*
X0033108Y0043600D02*
Y0042800D01*
X0033036Y0043600D02*
Y0042800D01*
X0032964Y0043600D02*
Y0042800D01*
X0032892Y0043600D02*
Y0042800D01*
X0032820Y0043600D02*
Y0042800D01*
X0032748Y0043600D02*
Y0042800D01*
X0032676Y0043600D02*
Y0042800D01*
X0032604Y0043600D02*
Y0042800D01*
X0032532Y0043600D02*
Y0042800D01*
X0032460Y0043600D02*
Y0042800D01*
X0032388Y0043600D02*
Y0042800D01*
X0032316Y0066400D02*
Y0051604D01*
X0034320Y0066348D02*
X0032240D01*
X0034320Y0066276D02*
X0032240D01*
X0034320Y0066204D02*
X0032240D01*
X0034320Y0066132D02*
X0032240D01*
X0034320Y0066060D02*
X0032240D01*
X0034320Y0065988D02*
X0032240D01*
X0034320Y0065916D02*
X0032240D01*
X0034320Y0065844D02*
X0032240D01*
X0034320Y0065772D02*
X0032240D01*
X0034320Y0065700D02*
X0032240D01*
X0034320Y0065628D02*
X0032240D01*
X0034320Y0065556D02*
X0032240D01*
X0034320Y0065484D02*
X0032240D01*
X0032720Y0065412D02*
X0032240D01*
X0032720Y0065340D02*
X0032240D01*
X0032720Y0065268D02*
X0032240D01*
X0032720Y0065196D02*
X0032240D01*
X0032720Y0065124D02*
X0032240D01*
X0032720Y0065052D02*
X0032240D01*
X0032720Y0064980D02*
X0032240D01*
X0032720Y0064908D02*
X0032240D01*
X0032720Y0064836D02*
X0032240D01*
X0032720Y0064764D02*
X0032240D01*
X0032720Y0064692D02*
X0032240D01*
X0032720Y0064620D02*
X0032240D01*
X0032720Y0064548D02*
X0032240D01*
X0032720Y0064476D02*
X0032240D01*
X0032720Y0064404D02*
X0032240D01*
X0032720Y0064332D02*
X0032240D01*
X0032720Y0064260D02*
X0032240D01*
X0032720Y0064188D02*
X0032240D01*
X0032720Y0064116D02*
X0032240D01*
X0032720Y0064044D02*
X0032240D01*
X0032720Y0063972D02*
X0032240D01*
X0032720Y0063900D02*
X0032240D01*
X0032720Y0063828D02*
X0032240D01*
X0032720Y0063756D02*
X0032240D01*
X0032720Y0063684D02*
X0032240D01*
X0032720Y0063612D02*
X0032240D01*
X0032720Y0063540D02*
X0032240D01*
X0032720Y0063468D02*
X0032240D01*
X0032720Y0063396D02*
X0032240D01*
X0032720Y0063324D02*
X0032240D01*
X0032720Y0063252D02*
X0032240D01*
X0032720Y0063180D02*
X0032240D01*
X0032720Y0063108D02*
X0032240D01*
X0032720Y0063036D02*
X0032240D01*
X0032720Y0062964D02*
X0032240D01*
X0032720Y0062892D02*
X0032240D01*
X0032720Y0062820D02*
X0032240D01*
X0032720Y0062748D02*
X0032240D01*
X0032720Y0062676D02*
X0032240D01*
X0032720Y0062604D02*
X0032240D01*
X0032720Y0062532D02*
X0032240D01*
X0032720Y0062460D02*
X0032240D01*
X0032720Y0062388D02*
X0032240D01*
X0032720Y0062316D02*
X0032240D01*
X0032720Y0062244D02*
X0032240D01*
X0032720Y0062172D02*
X0032240D01*
X0032720Y0062100D02*
X0032240D01*
X0032720Y0062028D02*
X0032240D01*
X0032720Y0061956D02*
X0032240D01*
X0032720Y0061884D02*
X0032240D01*
X0032720Y0061812D02*
X0032240D01*
X0032720Y0061740D02*
X0032240D01*
X0032720Y0061668D02*
X0032240D01*
X0032720Y0061596D02*
X0032240D01*
X0032720Y0061524D02*
X0032240D01*
X0032720Y0061452D02*
X0032240D01*
X0032720Y0061380D02*
X0032240D01*
X0032720Y0061308D02*
X0032240D01*
X0032720Y0061236D02*
X0032240D01*
X0032720Y0061164D02*
X0032240D01*
X0032720Y0061092D02*
X0032240D01*
X0032720Y0061020D02*
X0032240D01*
X0032720Y0060948D02*
X0032240D01*
X0032720Y0060876D02*
X0032240D01*
X0032720Y0060804D02*
X0032240D01*
X0032720Y0060732D02*
X0032240D01*
X0032720Y0060660D02*
X0032240D01*
X0032720Y0060588D02*
X0032240D01*
X0032720Y0060516D02*
X0032240D01*
X0032720Y0060444D02*
X0032240D01*
X0032720Y0060372D02*
X0032240D01*
X0032720Y0060300D02*
X0032240D01*
X0032720Y0060228D02*
X0032240D01*
X0032720Y0060156D02*
X0032240D01*
X0032720Y0060084D02*
X0032240D01*
X0032720Y0060012D02*
X0032240D01*
X0032720Y0059940D02*
X0032240D01*
X0032720Y0059868D02*
X0032240D01*
X0032720Y0059796D02*
X0032240D01*
X0032720Y0059724D02*
X0032240D01*
X0032720Y0059652D02*
X0032240D01*
X0032720Y0059580D02*
X0032240D01*
X0032720Y0059508D02*
X0032240D01*
X0032720Y0059436D02*
X0032240D01*
X0032720Y0059364D02*
X0032240D01*
X0032720Y0059292D02*
X0032240D01*
X0032720Y0059220D02*
X0032240D01*
X0032720Y0059148D02*
X0032240D01*
X0032720Y0059076D02*
X0032240D01*
X0032720Y0059004D02*
X0032240D01*
X0032720Y0058932D02*
X0032240D01*
X0032720Y0058860D02*
X0032240D01*
X0032720Y0058788D02*
X0032240D01*
X0032720Y0058716D02*
X0032240D01*
X0032720Y0058644D02*
X0032240D01*
X0032720Y0058572D02*
X0032240D01*
X0032720Y0058500D02*
X0032240D01*
X0032720Y0058428D02*
X0032240D01*
X0032720Y0058356D02*
X0032240D01*
X0032720Y0058284D02*
X0032240D01*
X0032720Y0058212D02*
X0032240D01*
X0032720Y0058140D02*
X0032240D01*
X0032720Y0058068D02*
X0032240D01*
X0032720Y0057996D02*
X0032240D01*
X0032720Y0057924D02*
X0032240D01*
X0032720Y0057852D02*
X0032240D01*
X0032720Y0057780D02*
X0032240D01*
X0032720Y0057708D02*
X0032240D01*
X0032720Y0057636D02*
X0032240D01*
X0032720Y0057564D02*
X0032240D01*
X0032720Y0057492D02*
X0032240D01*
X0032720Y0057420D02*
X0032240D01*
X0032720Y0057348D02*
X0032240D01*
X0032720Y0057276D02*
X0032240D01*
X0032720Y0057204D02*
X0032240D01*
X0032720Y0057132D02*
X0032240D01*
X0032720Y0057060D02*
X0032240D01*
X0032720Y0056988D02*
X0032240D01*
X0032720Y0056916D02*
X0032240D01*
X0032720Y0056844D02*
X0032240D01*
X0032720Y0056772D02*
X0032240D01*
X0032720Y0056700D02*
X0032240D01*
X0032720Y0056628D02*
X0032240D01*
X0032720Y0056556D02*
X0032240D01*
X0032720Y0056484D02*
X0032240D01*
X0032720Y0056412D02*
X0032240D01*
X0032720Y0056340D02*
X0032240D01*
X0032720Y0056268D02*
X0032240D01*
X0032720Y0056196D02*
X0032240D01*
X0032720Y0056124D02*
X0032240D01*
X0032720Y0056052D02*
X0032240D01*
X0032720Y0055980D02*
X0032240D01*
X0032720Y0055908D02*
X0032240D01*
X0032720Y0055836D02*
X0032240D01*
X0032720Y0055764D02*
X0032240D01*
X0032720Y0055692D02*
X0032240D01*
X0032720Y0055620D02*
X0032240D01*
X0032720Y0055548D02*
X0032240D01*
X0032720Y0055476D02*
X0032240D01*
X0032720Y0055404D02*
X0032240D01*
X0032720Y0055332D02*
X0032240D01*
X0032720Y0055260D02*
X0032240D01*
X0032720Y0055188D02*
X0032240D01*
X0032720Y0055116D02*
X0032240D01*
X0032720Y0055044D02*
X0032240D01*
X0032720Y0054972D02*
X0032240D01*
X0032720Y0054900D02*
X0032240D01*
X0032720Y0054828D02*
X0032240D01*
X0032720Y0054756D02*
X0032240D01*
X0032720Y0054684D02*
X0032240D01*
X0033324Y0051156D02*
Y0042800D01*
X0032720Y0054540D02*
X0032240D01*
X0032720Y0054468D02*
X0032240D01*
X0032720Y0054396D02*
X0032240D01*
X0032720Y0054324D02*
X0032240D01*
X0032720Y0054252D02*
X0032240D01*
X0032720Y0054180D02*
X0032240D01*
X0032720Y0054108D02*
X0032240D01*
X0032720Y0054036D02*
X0032240D01*
X0032720Y0053964D02*
X0032240D01*
X0032720Y0053892D02*
X0032240D01*
X0032720Y0053820D02*
X0032240D01*
X0032720Y0053748D02*
X0032240D01*
X0032720Y0053676D02*
X0032240D01*
X0032720Y0053604D02*
X0032240D01*
X0032720Y0053532D02*
X0032240D01*
X0032720Y0053460D02*
X0032240D01*
X0032720Y0053388D02*
X0032240D01*
X0032720Y0053316D02*
X0032240D01*
X0032720Y0053244D02*
X0032240D01*
X0032720Y0053172D02*
X0032240D01*
X0032720Y0053100D02*
X0032240D01*
X0032720Y0053028D02*
X0032240D01*
X0032720Y0052956D02*
X0032240D01*
X0032720Y0052884D02*
X0032240D01*
X0032720Y0052812D02*
X0032240D01*
X0032720Y0052740D02*
X0032240D01*
X0032720Y0052668D02*
X0032240D01*
X0032720Y0052596D02*
X0032240D01*
X0032720Y0052524D02*
X0032240D01*
X0032720Y0052452D02*
X0032240D01*
X0032720Y0052380D02*
X0032240D01*
X0032720Y0052308D02*
X0032240D01*
X0032720Y0052236D02*
X0032240D01*
X0032720Y0052164D02*
X0032240D01*
X0032720Y0052092D02*
X0032240D01*
X0032720Y0052020D02*
X0032240D01*
X0032720Y0051948D02*
X0032240D01*
X0032720Y0051876D02*
X0032240D01*
X0032720Y0051804D02*
X0032240D01*
X0032748Y0051732D02*
X0032240D01*
X0032820Y0051660D02*
X0032260D01*
X0032892Y0051588D02*
X0032332D01*
X0032964Y0051516D02*
X0032404D01*
X0033036Y0051444D02*
X0032476D01*
X0033108Y0051372D02*
X0032548D01*
X0033180Y0051300D02*
X0032620D01*
X0033252Y0051228D02*
X0032692D01*
X0033324Y0051156D02*
X0032764D01*
X0033396Y0051084D02*
X0032836D01*
X0033468Y0051012D02*
X0032908D01*
X0033540Y0050940D02*
X0032980D01*
X0033612Y0050868D02*
X0033052D01*
X0033680Y0050796D02*
X0033124D01*
X0033680Y0050724D02*
X0033196D01*
X0033680Y0050652D02*
X0033200D01*
X0033680Y0050580D02*
X0033200D01*
X0033680Y0050508D02*
X0033200D01*
X0033680Y0050436D02*
X0033200D01*
X0033680Y0050364D02*
X0033200D01*
X0033680Y0050292D02*
X0033200D01*
X0033680Y0050220D02*
X0033200D01*
X0033680Y0050148D02*
X0033200D01*
X0033680Y0050076D02*
X0033200D01*
X0033680Y0050004D02*
X0033200D01*
X0033680Y0049932D02*
X0033200D01*
X0033680Y0049860D02*
X0033200D01*
X0033680Y0049788D02*
X0033200D01*
X0033680Y0049716D02*
X0033200D01*
X0033680Y0049644D02*
X0033200D01*
X0033680Y0049572D02*
X0033200D01*
X0033680Y0049500D02*
X0033200D01*
X0033680Y0049428D02*
X0033200D01*
X0033680Y0049356D02*
X0033200D01*
X0033680Y0049284D02*
X0033200D01*
X0033680Y0049212D02*
X0033200D01*
X0033680Y0049140D02*
X0033200D01*
X0033680Y0049068D02*
X0033200D01*
X0033680Y0048996D02*
X0033200D01*
X0033680Y0048924D02*
X0033200D01*
X0033680Y0048852D02*
X0033200D01*
X0033680Y0048780D02*
X0033200D01*
X0032388Y0066400D02*
Y0051532D01*
X0033680Y0048636D02*
X0033200D01*
X0033680Y0048564D02*
X0033200D01*
X0033680Y0048492D02*
X0033200D01*
X0033680Y0048420D02*
X0033200D01*
X0033680Y0048348D02*
X0033200D01*
X0033680Y0048276D02*
X0033200D01*
X0033680Y0048204D02*
X0033200D01*
X0033680Y0048132D02*
X0033200D01*
X0033680Y0048060D02*
X0033200D01*
X0033680Y0047988D02*
X0033200D01*
X0033680Y0047916D02*
X0033200D01*
X0033680Y0047844D02*
X0033200D01*
X0033680Y0047772D02*
X0033200D01*
X0033680Y0047700D02*
X0033200D01*
X0033680Y0047628D02*
X0033200D01*
X0033680Y0047556D02*
X0033200D01*
X0033680Y0047484D02*
X0033200D01*
X0033680Y0047412D02*
X0033200D01*
X0033680Y0047340D02*
X0033200D01*
X0033680Y0047268D02*
X0033200D01*
X0033680Y0047196D02*
X0033200D01*
X0033680Y0047124D02*
X0033200D01*
X0033680Y0047052D02*
X0033200D01*
X0033680Y0046980D02*
X0033200D01*
X0033680Y0046908D02*
X0033200D01*
X0033680Y0046836D02*
X0033200D01*
X0033680Y0046764D02*
X0033200D01*
X0033680Y0046692D02*
X0033200D01*
X0033680Y0046620D02*
X0033200D01*
X0033680Y0046548D02*
X0033200D01*
X0033680Y0046476D02*
X0033200D01*
X0033680Y0046404D02*
X0033200D01*
X0033680Y0046332D02*
X0033200D01*
X0033680Y0046260D02*
X0033200D01*
X0033680Y0046188D02*
X0033200D01*
X0033680Y0046116D02*
X0033200D01*
X0033680Y0046044D02*
X0033200D01*
X0033680Y0045972D02*
X0033200D01*
X0033680Y0045900D02*
X0033200D01*
X0033680Y0045828D02*
X0033200D01*
X0033680Y0045756D02*
X0033200D01*
X0033680Y0045684D02*
X0033200D01*
X0033680Y0045612D02*
X0033200D01*
X0033680Y0045540D02*
X0033200D01*
X0033680Y0045468D02*
X0033200D01*
X0033680Y0045396D02*
X0033200D01*
X0033680Y0045324D02*
X0033200D01*
X0033680Y0045252D02*
X0033200D01*
X0033680Y0045180D02*
X0033200D01*
X0033680Y0045108D02*
X0033200D01*
X0033680Y0045036D02*
X0033200D01*
X0033680Y0044964D02*
X0033200D01*
X0033680Y0044892D02*
X0033200D01*
X0033680Y0044820D02*
X0033200D01*
X0033680Y0044748D02*
X0033200D01*
X0033680Y0044676D02*
X0033200D01*
X0033680Y0044604D02*
X0033200D01*
X0033680Y0044532D02*
X0033200D01*
X0033680Y0044460D02*
X0033200D01*
X0033680Y0044388D02*
X0033200D01*
X0033680Y0044316D02*
X0033200D01*
X0033680Y0044244D02*
X0033200D01*
X0033680Y0044172D02*
X0033200D01*
X0033680Y0044100D02*
X0033200D01*
X0033680Y0044028D02*
X0033200D01*
X0033680Y0043956D02*
X0033200D01*
X0033680Y0043884D02*
X0033200D01*
X0033680Y0043812D02*
X0033200D01*
X0033680Y0043740D02*
X0033200D01*
X0033680Y0043668D02*
X0033200D01*
X0034400Y0043596D02*
X0032320D01*
X0034400Y0043524D02*
X0032320D01*
X0034400Y0043452D02*
X0032320D01*
X0034400Y0043380D02*
X0032320D01*
X0034400Y0043308D02*
X0032320D01*
X0034400Y0043236D02*
X0032320D01*
X0034400Y0043164D02*
X0032320D01*
X0034400Y0043092D02*
X0032320D01*
X0034400Y0043020D02*
X0032320D01*
X0034400Y0042948D02*
X0032320D01*
X0034400Y0042876D02*
X0032320D01*
G54D10*
X0042880Y0067520D03*
X0044258D03*
X0039520D03*
X0040898D03*
X0036320D03*
X0037698D03*
X0032800D03*
X0034178D03*
X0029440D03*
X0030818D03*
X0026160D03*
X0027538D03*
X0022800D03*
X0024178D03*
X0019440D03*
X0020818D03*
X0032800Y0041360D03*
X0034178D03*
X0042800Y0041440D03*
X0044178D03*
X0039440D03*
X0040818D03*
X0036000Y0041360D03*
X0037378D03*
X0029520D03*
X0030898D03*
X0026160D03*
X0027538D03*
X0019440D03*
X0020818D03*
X0024178D03*
X0022800D03*
G54D12*
X0019600Y0048400D03*
Y0049700D03*
G54D13*
X0020880Y0054080D03*
Y0052820D03*
G54D15*
X0021840Y0060480D03*
Y0061270D03*
X0027360Y0057680D03*
Y0058470D03*
Y0061760D03*
Y0062550D03*
X0021840Y0055920D03*
Y0056710D03*
G54D17*
X0027360Y0056480D03*
Y0055640D03*
X0027280Y0059680D03*
Y0060520D03*
X0022480Y0054800D03*
Y0053960D03*
X0021840Y0058480D03*
Y0059320D03*
X0023760Y0054240D03*
Y0053400D03*
X0024720Y0054240D03*
Y0053400D03*
X0025680Y0054240D03*
Y0053400D03*
X0026720Y0054240D03*
Y0053400D03*
X0023600Y0050560D03*
Y0051400D03*
X0026320Y0057680D03*
Y0058520D03*
Y0061760D03*
Y0062600D03*
X0020800Y0055920D03*
Y0056760D03*
Y0060480D03*
Y0061320D03*
X0043840Y0049680D03*
Y0048840D03*
X0042960Y0049680D03*
Y0048840D03*
X0040240Y0049680D03*
Y0048840D03*
X0039360Y0049680D03*
Y0048840D03*
X0036000Y0049680D03*
Y0048840D03*
X0036880Y0049680D03*
Y0048840D03*
G54D19*
X0043000Y0055000D03*
Y0052000D03*
X0044000D03*
X0043000Y0060240D03*
Y0057240D03*
X0044000D03*
X0039000Y0060240D03*
Y0057240D03*
X0040000D03*
X0035000Y0055000D03*
Y0052000D03*
X0036000D03*
X0035000Y0060240D03*
Y0057240D03*
X0036000D03*
X0039000Y0055000D03*
Y0052000D03*
X0040000D03*
X0033680Y0057240D03*
X0041750Y0052000D03*
X0041680Y0057240D03*
X0037750Y0052000D03*
X0037680Y0057240D03*
X0033750Y0052000D03*
G54D20*
X0044000Y0055000D03*
Y0060240D03*
X0040000D03*
X0036000Y0055000D03*
Y0060240D03*
X0040000Y0055000D03*
X0033680Y0060240D03*
X0041750Y0055000D03*
X0041680Y0060240D03*
X0037750Y0055000D03*
X0037680Y0060240D03*
X0033750Y0055000D03*
G54D21*
X0021760Y0049800D03*
Y0050800D03*
X0029600Y0057640D03*
Y0058640D03*
Y0062680D03*
Y0063680D03*
X0023680Y0057640D03*
Y0058640D03*
Y0062680D03*
Y0063680D03*
G54D22*
X0021760Y0048800D03*
X0029600Y0056640D03*
Y0061680D03*
X0023680Y0056640D03*
Y0061680D03*
G54D24*
X0025690Y0046160D03*
X0026005D03*
X0026320D03*
X0026635D03*
X0026950D03*
X0027265D03*
X0027580D03*
X0027895D03*
X0028525D03*
X0028840D03*
Y0050690D03*
X0028525D03*
X0028210D03*
X0027895D03*
X0027580D03*
X0027265D03*
X0026635D03*
X0026320D03*
X0026005D03*
X0025690D03*
G54D25*
X0028210Y0046160D03*
X0026950Y0050690D03*
G54D26*
X0025000Y0049685D03*
Y0049370D03*
Y0049055D03*
Y0048740D03*
Y0048425D03*
Y0048110D03*
Y0047795D03*
Y0047480D03*
Y0046850D03*
X0029530D03*
Y0047165D03*
Y0047480D03*
Y0047795D03*
Y0048110D03*
Y0048425D03*
Y0048740D03*
Y0049370D03*
Y0049685D03*
Y0050000D03*
G54D27*
X0025000D03*
Y0047165D03*
X0029530Y0049055D03*
G54D40*
X0030960Y0049600D03*
Y0048760D03*
X0028080Y0052320D03*
Y0053160D03*
X0030960Y0046960D03*
Y0047800D03*
X0023520Y0048800D03*
Y0047960D03*
X0019600Y0054080D03*
Y0053240D03*
Y0046800D03*
Y0045960D03*
G54D41*
X0026960Y0044720D03*
X0027800D03*
G54D42*
X0043110Y0039370D03*
X0043897D03*
X0043110Y0043149D03*
X0043897D03*
X0039764Y0039370D03*
X0040551D03*
X0039764Y0043149D03*
X0040551D03*
X0036417Y0039370D03*
X0037205D03*
X0036417Y0043149D03*
X0037205D03*
X0033071Y0039370D03*
X0033858D03*
X0033071Y0043149D03*
X0033858D03*
X0029724Y0039370D03*
X0030512D03*
X0029724Y0043149D03*
X0030512D03*
X0026378Y0039370D03*
X0027165D03*
X0026378Y0043149D03*
X0027165D03*
X0023031Y0039370D03*
X0023819D03*
X0023031Y0043149D03*
X0023819D03*
X0019685Y0039370D03*
X0020472D03*
X0019685Y0043149D03*
X0020472D03*
X0019685Y0065827D03*
X0020472D03*
X0019685Y0069606D03*
X0020472D03*
X0043110Y0065827D03*
X0043897D03*
X0043110Y0069606D03*
X0043897D03*
X0039764Y0065827D03*
X0040551D03*
X0039764Y0069606D03*
X0040551D03*
X0036417Y0065827D03*
X0037205D03*
X0036417Y0069606D03*
X0037205D03*
X0033071Y0065827D03*
X0033858D03*
X0033071Y0069606D03*
X0033858D03*
X0029724Y0065827D03*
X0030512D03*
X0029724Y0069606D03*
X0030512D03*
X0026378Y0065827D03*
X0027165D03*
X0026378Y0069606D03*
X0027165D03*
X0023031Y0065827D03*
X0023819D03*
X0023031Y0069606D03*
X0023819D03*
X0039360Y0045800D03*
X0038360Y0046800D03*
Y0045800D03*
X0037360Y0046800D03*
Y0045800D03*
X0036360Y0046800D03*
Y0045800D03*
X0035360Y0046800D03*
Y0045800D03*
G54D43*
X0039360Y0046800D03*
G54D44*
X0042047Y0062854D03*
Y0046122D03*
X0021535Y0062854D03*
Y0046122D03*
G54D45*
X0040400Y0062480D03*
Y0063780D03*
X0044000Y0061840D03*
Y0063140D03*
X0038960Y0061840D03*
Y0063140D03*
X0037840Y0061840D03*
Y0063140D03*
X0034160Y0061840D03*
Y0063140D03*
X0035280Y0061840D03*
Y0063140D03*
G54D46*
X0032480Y0058160D03*
X0027440Y0049360D03*
X0036880Y0048160D03*
X0042960D03*
X0027680Y0049120D03*
X0031120Y0064640D03*
X0025760Y0048210D03*
X0030160Y0064640D03*
X0032480Y0058640D03*
X0026160Y0049440D03*
X0040400Y0064640D03*
X0025600Y0057600D03*
X0039360Y0050480D03*
X0019600Y0057600D03*
X0020160D03*
X0019600Y0058240D03*
X0021840Y0057600D03*
X0035280Y0064640D03*
X0038960D03*
X0044000D03*
X0029600D03*
X0032480Y0063680D03*
Y0062720D03*
Y0057680D03*
Y0063200D03*
X0029520Y0058640D03*
X0028000Y0049120D03*
G54D47*
X0036000Y0048160D03*
X0039360D03*
X0040240D03*
X0043840D03*
X0040240Y0045280D03*
X0026480Y0064640D03*
X0020480Y0064590D03*
Y0047280D03*
X0028560Y0048320D03*
X0027840Y0047040D03*
X0037280Y0053920D03*
X0028160Y0057600D03*
X0033440Y0047520D03*
X0041040Y0054000D03*
X0029600Y0050720D03*
X0042960Y0050480D03*
X0029600Y0052000D03*
Y0052640D03*
X0030400Y0050240D03*
X0028080Y0055760D03*
X0023760Y0055440D03*
X0024720Y0054960D03*
X0030320D03*
X0037760Y0048960D03*
X0028560Y0049840D03*
X0022720Y0048080D03*
X0040000Y0050480D03*
X0030160Y0051360D03*
X0029600Y0046000D03*
X0034240Y0046400D03*
X0042400Y0056000D03*
X0044000D03*
X0029520Y0044480D03*
X0029440Y0045440D03*
X0034240D03*
X0025120Y0057600D03*
X0030160Y0046160D03*
M02*
