*
G04 Mass Parameters ***
*
G04 Image ***
*
%INC:\MYWORKS\HOMELIGHTING\02_HW\HOMELIGHTING.SMB*%
%ICAS*%
%MOIN*%
%IPPOS*%
%ASAXBY*%
G74*%FSLAN2X34Y34*%
*
G04 Aperture Definitions ***
*
%ADD10C,0.0600*%
%ADD11R,0.0700X0.0500*%
%ADD12R,0.0600X0.0600*%
%ADD13R,0.0480X0.0860*%
%ADD14R,0.0500X0.0700*%
%ADD15R,0.0760X0.0480*%
%ADD16C,0.0620*%
%ADD17R,0.0620X0.0620*%
%ADD18C,0.1200*%
%ADD19C,0.0580*%
%ADD20R,0.0580X0.0580*%
%ADD21C,0.0750*%
%ADD22R,0.0750X0.0750*%
%ADD23R,0.0500X0.0500*%
%ADD24O,0.0180X0.0700*%
%ADD25R,0.0180X0.0700*%
%ADD26O,0.0700X0.0180*%
%ADD27R,0.0700X0.0180*%
%ADD28C,0.0400*%
%ADD29C,0.0260*%
%ADD30C,0.0010*%
%ADD31C,0.0120*%
%ADD32C,0.0180*%
%ADD33C,0.0400*%
%ADD34C,0.0600*%
%ADD35C,0.0080*%
%ADD36C,0.0800*%
%ADD37C,0.0320*%
%ADD38C,0.0400*%
%ADD39C,0.0060*%
%ADD40R,0.0750X0.0550*%
%ADD41R,0.0550X0.0750*%
%ADD42C,0.0670*%
%ADD43R,0.0670X0.0670*%
%ADD44C,0.1250*%
%ADD45R,0.0720X0.0720*%
%ADD46C,0.0420*%
%ADD47C,0.0420*%
*
G04 Plot Data ***
*
G54D35*
G01X0020812Y0057760D02*
Y0057440D01*
X0020740Y0057760D02*
Y0057440D01*
X0020668Y0057760D02*
Y0057440D01*
X0020596Y0057760D02*
Y0057440D01*
X0020524Y0057760D02*
Y0057440D01*
X0020452Y0057760D02*
Y0057440D01*
X0020380Y0057760D02*
Y0057440D01*
X0020308Y0057760D02*
Y0057440D01*
X0020236Y0057760D02*
Y0057440D01*
X0020164Y0057760D02*
Y0057440D01*
X0020092Y0057760D02*
Y0057440D01*
X0020020Y0057760D02*
Y0057440D01*
X0019948Y0057760D02*
Y0057440D01*
X0019876Y0057760D02*
Y0057440D01*
X0019804Y0057760D02*
Y0057440D01*
X0019732Y0058240D02*
Y0057440D01*
X0019660Y0058240D02*
Y0057440D01*
X0019588Y0058240D02*
Y0057452D01*
X0019516Y0058240D02*
Y0057524D01*
X0019760Y0058164D02*
X0019440D01*
X0019760Y0058092D02*
X0019440D01*
X0019760Y0058020D02*
X0019440D01*
X0019760Y0057948D02*
X0019440D01*
X0019760Y0057876D02*
X0019440D01*
X0019760Y0057804D02*
X0019440D01*
X0023520Y0057732D02*
X0019440D01*
X0023520Y0057660D02*
X0019440D01*
X0023520Y0057588D02*
X0019452D01*
X0023520Y0057516D02*
X0019524D01*
X0023044Y0057760D02*
Y0057440D01*
X0022972Y0057760D02*
Y0057440D01*
X0022900Y0057760D02*
Y0057440D01*
X0022828Y0057760D02*
Y0057440D01*
X0022756Y0057760D02*
Y0057440D01*
X0022684Y0057760D02*
Y0057440D01*
X0022612Y0057760D02*
Y0057440D01*
X0022540Y0057760D02*
Y0057440D01*
X0022468Y0057760D02*
Y0057440D01*
X0022396Y0057760D02*
Y0057440D01*
X0022324Y0057760D02*
Y0057440D01*
X0022252Y0057760D02*
Y0057440D01*
X0022180Y0057760D02*
Y0057440D01*
X0022108Y0057760D02*
Y0057440D01*
X0022036Y0057760D02*
Y0057440D01*
X0021964Y0057760D02*
Y0057440D01*
X0021892Y0057760D02*
Y0057440D01*
X0021820Y0057760D02*
Y0057440D01*
X0021748Y0057760D02*
Y0057440D01*
X0021676Y0057760D02*
Y0057440D01*
X0021604Y0057760D02*
Y0057440D01*
X0021532Y0057760D02*
Y0057440D01*
X0021460Y0057760D02*
Y0057440D01*
X0021388Y0057760D02*
Y0057440D01*
X0021316Y0057760D02*
Y0057440D01*
X0021244Y0057760D02*
Y0057440D01*
X0021172Y0057760D02*
Y0057440D01*
X0021100Y0057760D02*
Y0057440D01*
X0021028Y0057760D02*
Y0057440D01*
X0020956Y0057760D02*
Y0057440D01*
X0020884Y0057760D02*
Y0057440D01*
X0019440Y0058240D02*
Y0057600D01*
X0019600Y0057440D01*
X0023520D02*
X0019600D01*
X0023520Y0057760D02*
Y0057440D01*
Y0057760D02*
X0019760D01*
Y0058240D02*
Y0057760D01*
Y0058240D02*
X0019440D01*
X0023476Y0057760D02*
Y0057440D01*
X0023404Y0057760D02*
Y0057440D01*
X0023332Y0057760D02*
Y0057440D01*
X0023260Y0057760D02*
Y0057440D01*
X0023188Y0057760D02*
Y0057440D01*
X0023116Y0057760D02*
Y0057440D01*
X0025772Y0057760D02*
Y0057440D01*
X0025700Y0057760D02*
Y0057440D01*
X0025628Y0057760D02*
Y0057440D01*
X0025556Y0057760D02*
Y0057440D01*
X0025484Y0057760D02*
Y0057440D01*
X0025412Y0057760D02*
Y0057440D01*
X0025340Y0057760D02*
Y0057440D01*
X0025268Y0057760D02*
Y0057440D01*
X0025196Y0057760D02*
Y0057440D01*
X0029520Y0057732D02*
X0025120D01*
X0029520Y0057660D02*
X0025120D01*
X0029520Y0057588D02*
X0025120D01*
X0029520Y0057516D02*
X0025120D01*
X0026780Y0057760D02*
Y0057440D01*
X0026708Y0057760D02*
Y0057440D01*
X0026636Y0057760D02*
Y0057440D01*
X0026564Y0057760D02*
Y0057440D01*
X0026492Y0057760D02*
Y0057440D01*
X0026420Y0057760D02*
Y0057440D01*
X0026348Y0057760D02*
Y0057440D01*
X0026276Y0057760D02*
Y0057440D01*
X0026204Y0057760D02*
Y0057440D01*
X0026132Y0057760D02*
Y0057440D01*
X0026060Y0057760D02*
Y0057440D01*
X0025988Y0057760D02*
Y0057440D01*
X0025916Y0057760D02*
Y0057440D01*
X0025844Y0057760D02*
Y0057440D01*
X0027788Y0057760D02*
Y0057440D01*
X0027716Y0057760D02*
Y0057440D01*
X0027644Y0057760D02*
Y0057440D01*
X0027572Y0057760D02*
Y0057440D01*
X0027500Y0057760D02*
Y0057440D01*
X0027428Y0057760D02*
Y0057440D01*
X0027356Y0057760D02*
Y0057440D01*
X0027284Y0057760D02*
Y0057440D01*
X0027212Y0057760D02*
Y0057440D01*
X0027140Y0057760D02*
Y0057440D01*
X0027068Y0057760D02*
Y0057440D01*
X0026996Y0057760D02*
Y0057440D01*
X0026924Y0057760D02*
Y0057440D01*
X0026852Y0057760D02*
Y0057440D01*
X0028796Y0057760D02*
Y0057440D01*
X0028724Y0057760D02*
Y0057440D01*
X0028652Y0057760D02*
Y0057440D01*
X0028580Y0057760D02*
Y0057440D01*
X0028508Y0057760D02*
Y0057440D01*
X0028436Y0057760D02*
Y0057440D01*
X0028364Y0057760D02*
Y0057440D01*
X0028292Y0057760D02*
Y0057440D01*
X0028220Y0057760D02*
Y0057440D01*
X0028148Y0057760D02*
Y0057440D01*
X0028076Y0057760D02*
Y0057440D01*
X0028004Y0057760D02*
Y0057440D01*
X0027932Y0057760D02*
Y0057440D01*
X0027860Y0057760D02*
Y0057440D01*
X0029520D02*
X0025120D01*
X0029520Y0057760D02*
Y0057440D01*
Y0057760D02*
X0025120D01*
X0029444D02*
Y0057440D01*
X0029372Y0057760D02*
Y0057440D01*
X0029300Y0057760D02*
Y0057440D01*
X0029228Y0057760D02*
Y0057440D01*
X0029156Y0057760D02*
Y0057440D01*
X0029084Y0057760D02*
Y0057440D01*
X0029012Y0057760D02*
Y0057440D01*
X0028940Y0057760D02*
Y0057440D01*
X0028868Y0057760D02*
Y0057440D01*
X0025120Y0057760D02*
Y0057440D01*
X0029876Y0058880D02*
Y0058400D01*
X0029804Y0058880D02*
Y0058400D01*
X0029732Y0058880D02*
Y0058400D01*
X0029660Y0058880D02*
Y0058400D01*
X0029588Y0058880D02*
Y0058400D01*
X0029516Y0058880D02*
Y0058400D01*
X0029444Y0058880D02*
Y0058400D01*
X0029372Y0058880D02*
Y0058400D01*
X0029300Y0058880D02*
Y0058400D01*
X0029228Y0058880D02*
Y0058400D01*
X0029156Y0058880D02*
Y0058400D01*
X0029084Y0058880D02*
Y0058400D01*
X0029012Y0058880D02*
Y0058400D01*
X0028940Y0058880D02*
Y0058400D01*
X0028868Y0058880D02*
Y0058400D01*
X0028796Y0058880D02*
Y0058400D01*
X0028724Y0058880D02*
Y0058400D01*
X0028652Y0058880D02*
Y0058400D01*
X0028580Y0058880D02*
Y0058400D01*
X0028508Y0058880D02*
Y0058400D01*
X0028436Y0058880D02*
Y0058400D01*
X0028364Y0058880D02*
Y0058400D01*
X0028292Y0058880D02*
Y0058400D01*
X0028220Y0058880D02*
Y0058400D01*
X0028148Y0058880D02*
Y0058400D01*
X0028076Y0058880D02*
Y0058400D01*
X0028004Y0058880D02*
Y0058400D01*
X0027932Y0058880D02*
Y0058400D01*
X0027860Y0058880D02*
Y0058400D01*
X0027788Y0058880D02*
Y0058400D01*
X0027716Y0058880D02*
Y0058400D01*
X0027644Y0058880D02*
Y0058400D01*
X0027572Y0058880D02*
Y0058400D01*
X0027500Y0058880D02*
Y0058400D01*
X0027428Y0058880D02*
Y0058400D01*
X0027356Y0058880D02*
Y0058400D01*
X0027284Y0058880D02*
Y0058400D01*
X0027212Y0058880D02*
Y0058400D01*
X0027140Y0058880D02*
Y0058400D01*
X0027068Y0058880D02*
Y0058400D01*
X0026996Y0058880D02*
Y0058400D01*
X0026924Y0058880D02*
Y0058400D01*
X0026852Y0058880D02*
Y0058400D01*
X0026780Y0058880D02*
Y0058400D01*
X0026708Y0058880D02*
Y0058400D01*
X0026636Y0058880D02*
Y0058400D01*
X0026564Y0058880D02*
Y0058400D01*
X0026492Y0058880D02*
Y0058400D01*
X0026420Y0058880D02*
Y0058400D01*
X0026348Y0058880D02*
Y0058400D01*
X0026276Y0058880D02*
Y0058400D01*
X0026204Y0058880D02*
Y0058400D01*
X0026132Y0058880D02*
Y0058400D01*
X0026060Y0058880D02*
Y0058400D01*
X0025988Y0058880D02*
Y0058400D01*
X0025916Y0058880D02*
Y0058400D01*
X0025844Y0058880D02*
Y0058400D01*
X0025772Y0058880D02*
Y0058400D01*
X0025700Y0058880D02*
Y0058400D01*
X0025628Y0058880D02*
Y0058400D01*
X0025556Y0058880D02*
Y0058400D01*
X0025484Y0058880D02*
Y0058400D01*
X0025412Y0058880D02*
Y0058400D01*
X0025340Y0058880D02*
Y0058400D01*
X0025268Y0058880D02*
Y0058400D01*
X0025196Y0058880D02*
Y0058400D01*
X0025124Y0058880D02*
Y0058400D01*
X0025052Y0058880D02*
Y0058400D01*
X0024980Y0058880D02*
Y0058400D01*
X0024908Y0058880D02*
Y0058400D01*
X0024836Y0058880D02*
Y0058400D01*
X0024764Y0058880D02*
Y0058400D01*
X0024692Y0058880D02*
Y0058400D01*
X0024620Y0058880D02*
Y0058400D01*
X0024548Y0058880D02*
Y0058400D01*
X0024476Y0058880D02*
Y0058400D01*
X0024404Y0058880D02*
Y0058400D01*
X0024332Y0058880D02*
Y0058400D01*
X0024260Y0058880D02*
Y0058400D01*
X0024188Y0058880D02*
Y0058400D01*
X0024116Y0058880D02*
Y0058400D01*
X0024044Y0058880D02*
Y0058400D01*
X0023972Y0058880D02*
Y0058400D01*
X0023900Y0058880D02*
Y0058400D01*
X0023828Y0058880D02*
Y0058400D01*
X0023756Y0058880D02*
Y0058400D01*
X0032612Y0058828D02*
X0023680D01*
X0032684Y0058756D02*
X0023680D01*
X0032720Y0058684D02*
X0023680D01*
X0032720Y0058612D02*
X0023680D01*
X0032720Y0058540D02*
X0023680D01*
X0032720Y0058468D02*
X0023680D01*
X0032720Y0058396D02*
X0032240D01*
X0032720Y0058324D02*
X0032240D01*
X0032720Y0058180D02*
X0032240D01*
X0032720Y0058108D02*
X0032240D01*
X0032720Y0058036D02*
X0032240D01*
X0032720Y0057964D02*
X0032240D01*
X0032720Y0057892D02*
X0032240D01*
X0032720Y0057820D02*
X0032240D01*
X0032720Y0057748D02*
X0032240D01*
X0032720Y0057676D02*
X0032240D01*
X0032560Y0058880D02*
X0032720Y0058720D01*
X0032560Y0058880D02*
X0023680D01*
Y0058400D01*
X0032240D02*
X0023680D01*
X0032240D02*
Y0057600D01*
X0032720D02*
X0032240D01*
X0032720Y0058720D02*
Y0057600D01*
Y0058252D02*
X0032240D01*
X0032684Y0058756D02*
Y0057600D01*
X0032612Y0058828D02*
Y0057600D01*
X0032540Y0058880D02*
Y0057600D01*
X0032468Y0058880D02*
Y0057600D01*
X0032396Y0058880D02*
Y0057600D01*
X0032324Y0058880D02*
Y0057600D01*
X0032252Y0058880D02*
Y0057600D01*
X0032180Y0058880D02*
Y0058400D01*
X0032108Y0058880D02*
Y0058400D01*
X0032036Y0058880D02*
Y0058400D01*
X0031964Y0058880D02*
Y0058400D01*
X0031892Y0058880D02*
Y0058400D01*
X0031820Y0058880D02*
Y0058400D01*
X0031748Y0058880D02*
Y0058400D01*
X0031676Y0058880D02*
Y0058400D01*
X0031604Y0058880D02*
Y0058400D01*
X0031532Y0058880D02*
Y0058400D01*
X0031460Y0058880D02*
Y0058400D01*
X0031388Y0058880D02*
Y0058400D01*
X0031316Y0058880D02*
Y0058400D01*
X0031244Y0058880D02*
Y0058400D01*
X0031172Y0058880D02*
Y0058400D01*
X0031100Y0058880D02*
Y0058400D01*
X0031028Y0058880D02*
Y0058400D01*
X0030956Y0058880D02*
Y0058400D01*
X0030884Y0058880D02*
Y0058400D01*
X0030812Y0058880D02*
Y0058400D01*
X0030740Y0058880D02*
Y0058400D01*
X0030668Y0058880D02*
Y0058400D01*
X0030596Y0058880D02*
Y0058400D01*
X0030524Y0058880D02*
Y0058400D01*
X0030452Y0058880D02*
Y0058400D01*
X0030380Y0058880D02*
Y0058400D01*
X0030308Y0058880D02*
Y0058400D01*
X0030236Y0058880D02*
Y0058400D01*
X0030164Y0058880D02*
Y0058400D01*
X0030092Y0058880D02*
Y0058400D01*
X0030020Y0058880D02*
Y0058400D01*
X0029948Y0058880D02*
Y0058400D01*
X0024964Y0063920D02*
Y0063440D01*
X0024892Y0063920D02*
Y0063440D01*
X0024820Y0063920D02*
Y0063440D01*
X0024748Y0063920D02*
Y0063440D01*
X0024676Y0063920D02*
Y0063440D01*
X0024604Y0063920D02*
Y0063440D01*
X0024532Y0063920D02*
Y0063440D01*
X0024460Y0063920D02*
Y0063440D01*
X0024388Y0063920D02*
Y0063440D01*
X0024316Y0063920D02*
Y0063440D01*
X0024244Y0063920D02*
Y0063440D01*
X0024172Y0063920D02*
Y0063440D01*
X0024100Y0063920D02*
Y0063440D01*
X0024028Y0063920D02*
Y0063440D01*
X0023956Y0063920D02*
Y0063440D01*
X0023884Y0063920D02*
Y0063440D01*
X0023812Y0063920D02*
Y0063440D01*
X0023740Y0063920D02*
Y0063440D01*
X0023668Y0063920D02*
Y0063440D01*
X0023596Y0063916D02*
Y0063440D01*
X0029644Y0063876D02*
X0023556D01*
X0029680Y0063804D02*
X0023520D01*
X0029680Y0063732D02*
X0023520D01*
X0029680Y0063660D02*
X0023520D01*
X0029680Y0063588D02*
X0023520D01*
X0029676Y0063516D02*
X0023524D01*
X0026908Y0063920D02*
Y0063440D01*
X0026836Y0063920D02*
Y0063440D01*
X0026764Y0063920D02*
Y0063440D01*
X0026692Y0063920D02*
Y0063440D01*
X0026620Y0063920D02*
Y0063440D01*
X0026548Y0063920D02*
Y0063440D01*
X0026476Y0063920D02*
Y0063440D01*
X0026404Y0063920D02*
Y0063440D01*
X0026332Y0063920D02*
Y0063440D01*
X0026260Y0063920D02*
Y0063440D01*
X0026188Y0063920D02*
Y0063440D01*
X0026116Y0063920D02*
Y0063440D01*
X0026044Y0063920D02*
Y0063440D01*
X0025972Y0063920D02*
Y0063440D01*
X0025900Y0063920D02*
Y0063440D01*
X0025828Y0063920D02*
Y0063440D01*
X0025756Y0063920D02*
Y0063440D01*
X0025684Y0063920D02*
Y0063440D01*
X0025612Y0063920D02*
Y0063440D01*
X0025540Y0063920D02*
Y0063440D01*
X0025468Y0063920D02*
Y0063440D01*
X0025396Y0063920D02*
Y0063440D01*
X0025324Y0063920D02*
Y0063440D01*
X0025252Y0063920D02*
Y0063440D01*
X0025180Y0063920D02*
Y0063440D01*
X0025108Y0063920D02*
Y0063440D01*
X0025036Y0063920D02*
Y0063440D01*
X0028852Y0063920D02*
Y0063440D01*
X0028780Y0063920D02*
Y0063440D01*
X0028708Y0063920D02*
Y0063440D01*
X0028636Y0063920D02*
Y0063440D01*
X0028564Y0063920D02*
Y0063440D01*
X0028492Y0063920D02*
Y0063440D01*
X0028420Y0063920D02*
Y0063440D01*
X0028348Y0063920D02*
Y0063440D01*
X0028276Y0063920D02*
Y0063440D01*
X0028204Y0063920D02*
Y0063440D01*
X0028132Y0063920D02*
Y0063440D01*
X0028060Y0063920D02*
Y0063440D01*
X0027988Y0063920D02*
Y0063440D01*
X0027916Y0063920D02*
Y0063440D01*
X0027844Y0063920D02*
Y0063440D01*
X0027772Y0063920D02*
Y0063440D01*
X0027700Y0063920D02*
Y0063440D01*
X0027628Y0063920D02*
Y0063440D01*
X0027556Y0063920D02*
Y0063440D01*
X0027484Y0063920D02*
Y0063440D01*
X0027412Y0063920D02*
Y0063440D01*
X0027340Y0063920D02*
Y0063440D01*
X0027268Y0063920D02*
Y0063440D01*
X0027196Y0063920D02*
Y0063440D01*
X0027124Y0063920D02*
Y0063440D01*
X0027052Y0063920D02*
Y0063440D01*
X0026980Y0063920D02*
Y0063440D01*
X0023520Y0063840D02*
Y0063520D01*
X0023600Y0063440D01*
X0029600D02*
X0023600D01*
X0029680Y0063520D02*
X0029600Y0063440D01*
X0029680Y0063840D02*
Y0063520D01*
X0029600Y0063920D02*
X0029680Y0063840D01*
X0029600Y0063920D02*
X0023600D01*
X0023520Y0063840D01*
X0029644Y0063876D02*
Y0063484D01*
X0029572Y0063920D02*
Y0063440D01*
X0029500Y0063920D02*
Y0063440D01*
X0029428Y0063920D02*
Y0063440D01*
X0029356Y0063920D02*
Y0063440D01*
X0029284Y0063920D02*
Y0063440D01*
X0029212Y0063920D02*
Y0063440D01*
X0029140Y0063920D02*
Y0063440D01*
X0029068Y0063920D02*
Y0063440D01*
X0028996Y0063920D02*
Y0063440D01*
X0028924Y0063920D02*
Y0063440D01*
X0030244Y0063920D02*
Y0063440D01*
X0030172Y0063920D02*
Y0063440D01*
X0030100Y0063920D02*
Y0063440D01*
X0030028Y0063920D02*
Y0063440D01*
X0029956Y0063920D02*
Y0063440D01*
X0029884Y0063920D02*
Y0063440D01*
X0029812Y0063920D02*
Y0063440D01*
X0029740Y0063920D02*
Y0063440D01*
X0029668Y0063920D02*
Y0063440D01*
X0029596Y0063920D02*
Y0063440D01*
X0029524Y0063920D02*
Y0063440D01*
X0029452Y0063920D02*
Y0063440D01*
X0029380Y0063920D02*
Y0063440D01*
X0029308Y0063920D02*
Y0063440D01*
X0029236Y0063920D02*
Y0063440D01*
X0029164Y0063920D02*
Y0063440D01*
X0029092Y0063920D02*
Y0063440D01*
X0029020Y0063920D02*
Y0063440D01*
X0028948Y0063920D02*
Y0063440D01*
X0028876Y0063920D02*
Y0063440D01*
X0028804Y0063920D02*
Y0063440D01*
X0028732Y0063920D02*
Y0063440D01*
X0028660Y0063920D02*
Y0063440D01*
X0028588Y0063920D02*
Y0063440D01*
X0028516Y0063920D02*
Y0063440D01*
X0028444Y0063920D02*
Y0063440D01*
X0028372Y0063920D02*
Y0063440D01*
X0028300Y0063920D02*
Y0063440D01*
X0028228Y0063920D02*
Y0063440D01*
X0028156Y0063920D02*
Y0063440D01*
X0028084Y0063920D02*
Y0063440D01*
X0028012Y0063920D02*
Y0063440D01*
X0027940Y0063920D02*
Y0063440D01*
X0027868Y0063920D02*
Y0063440D01*
X0027796Y0063920D02*
Y0063440D01*
X0027724Y0063920D02*
Y0063440D01*
X0027652Y0063920D02*
Y0063440D01*
X0027580Y0063920D02*
Y0063440D01*
X0027508Y0063920D02*
Y0063440D01*
X0027436Y0063920D02*
Y0063440D01*
X0027364Y0063920D02*
Y0063440D01*
X0027292Y0063920D02*
Y0063440D01*
X0027220Y0063920D02*
Y0063440D01*
X0027148Y0063920D02*
Y0063440D01*
X0027076Y0063920D02*
Y0063440D01*
X0027004Y0063920D02*
Y0063440D01*
X0026932Y0063920D02*
Y0063440D01*
X0026860Y0063920D02*
Y0063440D01*
X0026788Y0063920D02*
Y0063440D01*
X0026716Y0063920D02*
Y0063440D01*
X0026644Y0063920D02*
Y0063440D01*
X0026572Y0063920D02*
Y0063440D01*
X0026500Y0063920D02*
Y0063440D01*
X0026428Y0063920D02*
Y0063440D01*
X0026356Y0063920D02*
Y0063440D01*
X0026284Y0063920D02*
Y0063440D01*
X0026212Y0063920D02*
Y0063440D01*
X0026140Y0063920D02*
Y0063440D01*
X0026068Y0063920D02*
Y0063440D01*
X0025996Y0063920D02*
Y0063440D01*
X0025924Y0063920D02*
Y0063440D01*
X0025852Y0063920D02*
Y0063440D01*
X0025780Y0063920D02*
Y0063440D01*
X0025708Y0063920D02*
Y0063440D01*
X0025636Y0063920D02*
Y0063440D01*
X0025564Y0063920D02*
Y0063440D01*
X0025492Y0063920D02*
Y0063440D01*
X0025420Y0063920D02*
Y0063440D01*
X0025348Y0063920D02*
Y0063440D01*
X0025276Y0063920D02*
Y0063440D01*
X0025204Y0063920D02*
Y0063440D01*
X0025132Y0063920D02*
Y0063440D01*
X0025060Y0063920D02*
Y0063440D01*
X0024988Y0063920D02*
Y0063440D01*
X0024916Y0063920D02*
Y0063440D01*
X0024844Y0063920D02*
Y0063440D01*
X0024772Y0063920D02*
Y0063440D01*
X0024700Y0063920D02*
Y0063440D01*
X0024628Y0063920D02*
Y0063440D01*
X0024556Y0063920D02*
Y0063440D01*
X0024484Y0063920D02*
Y0063440D01*
X0024412Y0063920D02*
Y0063440D01*
X0024340Y0063920D02*
Y0063440D01*
X0024268Y0063920D02*
Y0063440D01*
X0024196Y0063920D02*
Y0063440D01*
X0024124Y0063920D02*
Y0063440D01*
X0024052Y0063920D02*
Y0063440D01*
X0023980Y0063920D02*
Y0063440D01*
X0023908Y0063920D02*
Y0063440D01*
X0023836Y0063920D02*
Y0063440D01*
X0032620Y0063860D02*
X0023760D01*
X0032692Y0063788D02*
X0023760D01*
X0032720Y0063716D02*
X0023760D01*
X0032720Y0063644D02*
X0023760D01*
X0032720Y0063572D02*
X0023760D01*
X0032720Y0063500D02*
X0023760D01*
X0032720Y0063428D02*
X0032240D01*
X0032720Y0063356D02*
X0032240D01*
X0032720Y0063212D02*
X0032240D01*
X0032720Y0063140D02*
X0032240D01*
X0032720Y0063068D02*
X0032240D01*
X0032720Y0062996D02*
X0032240D01*
X0032720Y0062924D02*
X0032240D01*
X0032720Y0062852D02*
X0032240D01*
X0032720Y0062780D02*
X0032240D01*
X0032720Y0062708D02*
X0032240D01*
X0032720Y0062636D02*
X0032240D01*
X0023760Y0063920D02*
Y0063440D01*
X0032240D02*
X0023760D01*
X0032240D02*
Y0062560D01*
X0032720D02*
X0032240D01*
X0032720Y0063760D02*
Y0062560D01*
X0032560Y0063920D02*
X0032720Y0063760D01*
X0032560Y0063920D02*
X0023760D01*
X0032720Y0063284D02*
X0032240D01*
X0032692Y0063788D02*
Y0062560D01*
X0032620Y0063860D02*
Y0062560D01*
X0032548Y0063920D02*
Y0062560D01*
X0032476Y0063920D02*
Y0062560D01*
X0032404Y0063920D02*
Y0062560D01*
X0032332Y0063920D02*
Y0062560D01*
X0032260Y0063920D02*
Y0062560D01*
X0032188Y0063920D02*
Y0063440D01*
X0032116Y0063920D02*
Y0063440D01*
X0032044Y0063920D02*
Y0063440D01*
X0031972Y0063920D02*
Y0063440D01*
X0031900Y0063920D02*
Y0063440D01*
X0031828Y0063920D02*
Y0063440D01*
X0031756Y0063920D02*
Y0063440D01*
X0031684Y0063920D02*
Y0063440D01*
X0031612Y0063920D02*
Y0063440D01*
X0031540Y0063920D02*
Y0063440D01*
X0031468Y0063920D02*
Y0063440D01*
X0031396Y0063920D02*
Y0063440D01*
X0031324Y0063920D02*
Y0063440D01*
X0031252Y0063920D02*
Y0063440D01*
X0031180Y0063920D02*
Y0063440D01*
X0031108Y0063920D02*
Y0063440D01*
X0031036Y0063920D02*
Y0063440D01*
X0030964Y0063920D02*
Y0063440D01*
X0030892Y0063920D02*
Y0063440D01*
X0030820Y0063920D02*
Y0063440D01*
X0030748Y0063920D02*
Y0063440D01*
X0030676Y0063920D02*
Y0063440D01*
X0030604Y0063920D02*
Y0063440D01*
X0030532Y0063920D02*
Y0063440D01*
X0030460Y0063920D02*
Y0063440D01*
X0030388Y0063920D02*
Y0063440D01*
X0030316Y0063920D02*
Y0063440D01*
G54D10*
X0042880Y0067520D03*
X0044258D03*
X0039520D03*
X0040898D03*
X0036320D03*
X0037698D03*
X0032800D03*
X0034178D03*
X0029440D03*
X0030818D03*
X0026160D03*
X0027538D03*
X0022800D03*
X0024178D03*
X0019440D03*
X0020818D03*
X0032800Y0041360D03*
X0034178D03*
X0042800Y0041440D03*
X0044178D03*
X0039440D03*
X0040818D03*
X0036000Y0041360D03*
X0037378D03*
X0029520D03*
X0030898D03*
X0026160D03*
X0027538D03*
X0019440D03*
X0020818D03*
X0024178D03*
X0022800D03*
G54D19*
X0043000Y0055000D03*
Y0052000D03*
X0044000D03*
X0043000Y0060240D03*
Y0057240D03*
X0044000D03*
X0039000Y0060240D03*
Y0057240D03*
X0040000D03*
X0035000Y0055000D03*
Y0052000D03*
X0036000D03*
X0035000Y0060240D03*
Y0057240D03*
X0036000D03*
X0039000Y0055000D03*
Y0052000D03*
X0040000D03*
X0033680Y0057240D03*
X0041750Y0052000D03*
X0041680Y0057240D03*
X0037750Y0052000D03*
X0037680Y0057240D03*
X0033750Y0052000D03*
G54D20*
X0044000Y0055000D03*
Y0060240D03*
X0040000D03*
X0036000Y0055000D03*
Y0060240D03*
X0040000Y0055000D03*
X0033680Y0060240D03*
X0041750Y0055000D03*
X0041680Y0060240D03*
X0037750Y0055000D03*
X0037680Y0060240D03*
X0033750Y0055000D03*
G54D21*
X0021760Y0049800D03*
Y0050800D03*
X0029600Y0057640D03*
Y0058640D03*
Y0062680D03*
Y0063680D03*
X0023680Y0057640D03*
Y0058640D03*
Y0062680D03*
Y0063680D03*
G54D22*
X0021760Y0048800D03*
X0029600Y0056640D03*
Y0061680D03*
X0023680Y0056640D03*
Y0061680D03*
G54D42*
X0043110Y0039370D03*
X0043897D03*
X0043110Y0043149D03*
X0043897D03*
X0039764Y0039370D03*
X0040551D03*
X0039764Y0043149D03*
X0040551D03*
X0036417Y0039370D03*
X0037205D03*
X0036417Y0043149D03*
X0037205D03*
X0033071Y0039370D03*
X0033858D03*
X0033071Y0043149D03*
X0033858D03*
X0029724Y0039370D03*
X0030512D03*
X0029724Y0043149D03*
X0030512D03*
X0026378Y0039370D03*
X0027165D03*
X0026378Y0043149D03*
X0027165D03*
X0023031Y0039370D03*
X0023819D03*
X0023031Y0043149D03*
X0023819D03*
X0019685Y0039370D03*
X0020472D03*
X0019685Y0043149D03*
X0020472D03*
X0019685Y0065827D03*
X0020472D03*
X0019685Y0069606D03*
X0020472D03*
X0043110Y0065827D03*
X0043897D03*
X0043110Y0069606D03*
X0043897D03*
X0039764Y0065827D03*
X0040551D03*
X0039764Y0069606D03*
X0040551D03*
X0036417Y0065827D03*
X0037205D03*
X0036417Y0069606D03*
X0037205D03*
X0033071Y0065827D03*
X0033858D03*
X0033071Y0069606D03*
X0033858D03*
X0029724Y0065827D03*
X0030512D03*
X0029724Y0069606D03*
X0030512D03*
X0026378Y0065827D03*
X0027165D03*
X0026378Y0069606D03*
X0027165D03*
X0023031Y0065827D03*
X0023819D03*
X0023031Y0069606D03*
X0023819D03*
X0039360Y0046800D03*
Y0045800D03*
X0038360Y0046800D03*
Y0045800D03*
X0037360Y0046800D03*
Y0045800D03*
X0036360Y0046800D03*
Y0045800D03*
X0035360Y0046800D03*
Y0045800D03*
G54D44*
X0042047Y0062854D03*
Y0046122D03*
X0021535Y0062854D03*
Y0046122D03*
G54D46*
X0032480Y0058160D03*
X0027440Y0049360D03*
X0036880Y0048160D03*
X0042960D03*
X0027680Y0049120D03*
X0031120Y0064640D03*
X0025760Y0048210D03*
X0030160Y0064640D03*
X0032480Y0058640D03*
X0026160Y0049440D03*
X0040400Y0064640D03*
X0025600Y0057600D03*
X0039360Y0050480D03*
X0019600Y0057600D03*
X0020160D03*
X0019600Y0058240D03*
X0021840Y0057600D03*
X0035280Y0064640D03*
X0038960D03*
X0044000D03*
X0029600D03*
X0032480Y0063680D03*
Y0062720D03*
Y0057680D03*
Y0063200D03*
X0029520Y0058640D03*
X0028000Y0049120D03*
G54D47*
X0036000Y0048160D03*
X0039360D03*
X0040240D03*
X0043840D03*
X0040240Y0045280D03*
X0026480Y0064640D03*
X0020480Y0064590D03*
Y0047280D03*
X0028560Y0048320D03*
X0027840Y0047040D03*
X0037280Y0053920D03*
X0028160Y0057600D03*
X0033440Y0047520D03*
X0041040Y0054000D03*
X0029600Y0050720D03*
X0042960Y0050480D03*
X0029600Y0052000D03*
Y0052640D03*
X0030400Y0050240D03*
X0028080Y0055760D03*
X0023760Y0055440D03*
X0024720Y0054960D03*
X0030320D03*
X0037760Y0048960D03*
X0028560Y0049840D03*
X0022720Y0048080D03*
X0040000Y0050480D03*
X0030160Y0051360D03*
X0029600Y0046000D03*
X0034240Y0046400D03*
X0042400Y0056000D03*
X0044000D03*
X0029520Y0044480D03*
X0029440Y0045440D03*
X0034240D03*
X0025120Y0057600D03*
X0030160Y0046160D03*
M02*
