*
G04 Mass Parameters ***
*
G04 Image ***
*
%INC:\MYWORKS\HOMELIGHTING\02_HW\HOMELIGHTING.TOP*%
%ICAS*%
%MOIN*%
%IPPOS*%
%ASAXBY*%
G74*%FSLAN2X34Y34*%
*
G04 Aperture Definitions ***
*
%ADD10C,0.0600*%
%ADD11R,0.0700X0.0500*%
%ADD12R,0.0600X0.0600*%
%ADD13R,0.0480X0.0860*%
%ADD14R,0.0500X0.0700*%
%ADD15R,0.0760X0.0480*%
%ADD16C,0.0620*%
%ADD17R,0.0620X0.0620*%
%ADD18C,0.1200*%
%ADD19C,0.0580*%
%ADD20R,0.0580X0.0580*%
%ADD21C,0.0750*%
%ADD22R,0.0750X0.0750*%
%ADD23R,0.0500X0.0500*%
%ADD24O,0.0180X0.0700*%
%ADD25R,0.0180X0.0700*%
%ADD26O,0.0700X0.0180*%
%ADD27R,0.0700X0.0180*%
%ADD28C,0.0400*%
%ADD29C,0.0260*%
%ADD30C,0.0010*%
%ADD31C,0.0120*%
%ADD32C,0.0180*%
%ADD33C,0.0400*%
%ADD34C,0.0600*%
%ADD35C,0.0080*%
%ADD36C,0.0800*%
%ADD37C,0.0320*%
%ADD38C,0.0400*%
%ADD39C,0.0060*%
*
G04 Plot Data ***
*
G54D29*
G01X0027627Y0039764D02*
Y0038976D01*
X0027393Y0039764D02*
Y0038976D01*
X0027159Y0039764D02*
Y0038976D01*
X0026925Y0039764D02*
Y0038976D01*
X0026691Y0039764D02*
Y0038976D01*
X0026457Y0039764D02*
Y0038976D01*
X0026223Y0039764D02*
Y0038976D01*
X0025989Y0039764D02*
Y0038976D01*
X0027756Y0039646D02*
X0025787D01*
X0027756Y0039412D02*
X0025787D01*
X0027756Y0039178D02*
X0025787D01*
X0027756Y0039764D02*
X0025787D01*
X0027756D02*
Y0038976D01*
X0025787D01*
Y0039764D02*
Y0038976D01*
X0027627Y0043503D02*
Y0042716D01*
X0027393Y0043503D02*
Y0042716D01*
X0027159Y0043503D02*
Y0042716D01*
X0026925Y0043503D02*
Y0042716D01*
X0026691Y0043503D02*
Y0042716D01*
X0026457Y0043503D02*
Y0042716D01*
X0026223Y0043503D02*
Y0042716D01*
X0025989Y0043503D02*
Y0042716D01*
X0027756Y0043386D02*
X0025787D01*
X0027756Y0043152D02*
X0025787D01*
X0027756Y0042918D02*
X0025787D01*
X0027756Y0043503D02*
X0025787D01*
X0027756D02*
Y0042716D01*
X0025787D01*
Y0043503D02*
Y0042716D01*
X0041013Y0039764D02*
Y0038976D01*
X0040779Y0039764D02*
Y0038976D01*
X0040545Y0039764D02*
Y0038976D01*
X0040311Y0039764D02*
Y0038976D01*
X0040077Y0039764D02*
Y0038976D01*
X0039843Y0039764D02*
Y0038976D01*
X0039609Y0039764D02*
Y0038976D01*
X0039375Y0039764D02*
Y0038976D01*
X0041142Y0039646D02*
X0039173D01*
X0041142Y0039412D02*
X0039173D01*
X0041142Y0039178D02*
X0039173D01*
X0041142Y0039764D02*
X0039173D01*
X0041142D02*
Y0038976D01*
X0039173D01*
Y0039764D02*
Y0038976D01*
X0041013Y0043503D02*
Y0042716D01*
X0040779Y0043503D02*
Y0042716D01*
X0040545Y0043503D02*
Y0042716D01*
X0040311Y0043503D02*
Y0042716D01*
X0040077Y0043503D02*
Y0042716D01*
X0039843Y0043503D02*
Y0042716D01*
X0039609Y0043503D02*
Y0042716D01*
X0039375Y0043503D02*
Y0042716D01*
X0041142Y0043386D02*
X0039173D01*
X0041142Y0043152D02*
X0039173D01*
X0041142Y0042918D02*
X0039173D01*
X0041142Y0043503D02*
X0039173D01*
X0041142D02*
Y0042716D01*
X0039173D01*
Y0043503D02*
Y0042716D01*
X0024281Y0039764D02*
Y0038976D01*
X0024047Y0039764D02*
Y0038976D01*
X0023813Y0039764D02*
Y0038976D01*
X0023579Y0039764D02*
Y0038976D01*
X0023345Y0039764D02*
Y0038976D01*
X0023111Y0039764D02*
Y0038976D01*
X0022877Y0039764D02*
Y0038976D01*
X0022643Y0039764D02*
Y0038976D01*
X0024409Y0039646D02*
X0022441D01*
X0024409Y0039412D02*
X0022441D01*
X0024409Y0039178D02*
X0022441D01*
X0024409Y0039764D02*
X0022441D01*
X0024409D02*
Y0038976D01*
X0022441D01*
Y0039764D02*
Y0038976D01*
X0024281Y0043503D02*
Y0042716D01*
X0024047Y0043503D02*
Y0042716D01*
X0023813Y0043503D02*
Y0042716D01*
X0023579Y0043503D02*
Y0042716D01*
X0023345Y0043503D02*
Y0042716D01*
X0023111Y0043503D02*
Y0042716D01*
X0022877Y0043503D02*
Y0042716D01*
X0022643Y0043503D02*
Y0042716D01*
X0024409Y0043386D02*
X0022441D01*
X0024409Y0043152D02*
X0022441D01*
X0024409Y0042918D02*
X0022441D01*
X0024409Y0043503D02*
X0022441D01*
X0024409D02*
Y0042716D01*
X0022441D01*
Y0043503D02*
Y0042716D01*
X0034320Y0066220D02*
Y0065433D01*
X0034086Y0066220D02*
Y0065433D01*
X0033852Y0066220D02*
Y0065433D01*
X0033618Y0066220D02*
Y0065433D01*
X0033384Y0066220D02*
Y0065433D01*
X0033150Y0066220D02*
Y0065433D01*
X0032916Y0066220D02*
Y0065433D01*
X0032682Y0066220D02*
Y0065433D01*
X0034449Y0066103D02*
X0032480D01*
X0034449Y0065869D02*
X0032480D01*
X0034449Y0065635D02*
X0032480D01*
X0034449Y0066220D02*
X0032480D01*
X0034449D02*
Y0065433D01*
X0032480D01*
Y0066220D02*
Y0065433D01*
X0034320Y0069960D02*
Y0069173D01*
X0034086Y0069960D02*
Y0069173D01*
X0033852Y0069960D02*
Y0069173D01*
X0033618Y0069960D02*
Y0069173D01*
X0033384Y0069960D02*
Y0069173D01*
X0033150Y0069960D02*
Y0069173D01*
X0032916Y0069960D02*
Y0069173D01*
X0032682Y0069960D02*
Y0069173D01*
X0034449Y0069843D02*
X0032480D01*
X0034449Y0069609D02*
X0032480D01*
X0034449Y0069375D02*
X0032480D01*
X0034449Y0069960D02*
X0032480D01*
X0034449D02*
Y0069173D01*
X0032480D01*
Y0069960D02*
Y0069173D01*
X0044360Y0066220D02*
Y0065433D01*
X0044126Y0066220D02*
Y0065433D01*
X0043892Y0066220D02*
Y0065433D01*
X0043658Y0066220D02*
Y0065433D01*
X0043424Y0066220D02*
Y0065433D01*
X0043190Y0066220D02*
Y0065433D01*
X0042956Y0066220D02*
Y0065433D01*
X0042722Y0066220D02*
Y0065433D01*
X0044488Y0066103D02*
X0042520D01*
X0044488Y0065869D02*
X0042520D01*
X0044488Y0065635D02*
X0042520D01*
X0044488Y0066220D02*
X0042520D01*
X0044488D02*
Y0065433D01*
X0042520D01*
Y0066220D02*
Y0065433D01*
X0044360Y0069960D02*
Y0069173D01*
X0044126Y0069960D02*
Y0069173D01*
X0043892Y0069960D02*
Y0069173D01*
X0043658Y0069960D02*
Y0069173D01*
X0043424Y0069960D02*
Y0069173D01*
X0043190Y0069960D02*
Y0069173D01*
X0042956Y0069960D02*
Y0069173D01*
X0042722Y0069960D02*
Y0069173D01*
X0044488Y0069843D02*
X0042520D01*
X0044488Y0069609D02*
X0042520D01*
X0044488Y0069375D02*
X0042520D01*
X0044488Y0069960D02*
X0042520D01*
X0044488D02*
Y0069173D01*
X0042520D01*
Y0069960D02*
Y0069173D01*
X0034320Y0039764D02*
Y0038976D01*
X0034086Y0039764D02*
Y0038976D01*
X0033852Y0039764D02*
Y0038976D01*
X0033618Y0039764D02*
Y0038976D01*
X0033384Y0039764D02*
Y0038976D01*
X0033150Y0039764D02*
Y0038976D01*
X0032916Y0039764D02*
Y0038976D01*
X0032682Y0039764D02*
Y0038976D01*
X0034449Y0039646D02*
X0032480D01*
X0034449Y0039412D02*
X0032480D01*
X0034449Y0039178D02*
X0032480D01*
X0034449Y0039764D02*
X0032480D01*
X0034449D02*
Y0038976D01*
X0032480D01*
Y0039764D02*
Y0038976D01*
X0034320Y0043503D02*
Y0042716D01*
X0034086Y0043503D02*
Y0042716D01*
X0033852Y0043503D02*
Y0042716D01*
X0033618Y0043503D02*
Y0042716D01*
X0033384Y0043503D02*
Y0042716D01*
X0033150Y0043503D02*
Y0042716D01*
X0032916Y0043503D02*
Y0042716D01*
X0032682Y0043503D02*
Y0042716D01*
X0034449Y0043386D02*
X0032480D01*
X0034449Y0043152D02*
X0032480D01*
X0034449Y0042918D02*
X0032480D01*
X0034449Y0043503D02*
X0032480D01*
X0034449D02*
Y0042716D01*
X0032480D01*
Y0043503D02*
Y0042716D01*
X0020934Y0066220D02*
Y0065433D01*
X0020700Y0066220D02*
Y0065433D01*
X0020466Y0066220D02*
Y0065433D01*
X0020232Y0066220D02*
Y0065433D01*
X0019998Y0066220D02*
Y0065433D01*
X0019764Y0066220D02*
Y0065433D01*
X0019530Y0066220D02*
Y0065433D01*
X0019296Y0066220D02*
Y0065433D01*
X0021063Y0066103D02*
X0019094D01*
X0021063Y0065869D02*
X0019094D01*
X0021063Y0065635D02*
X0019094D01*
X0021063Y0066220D02*
X0019094D01*
X0021063D02*
Y0065433D01*
X0019094D01*
Y0066220D02*
Y0065433D01*
X0020934Y0069960D02*
Y0069173D01*
X0020700Y0069960D02*
Y0069173D01*
X0020466Y0069960D02*
Y0069173D01*
X0020232Y0069960D02*
Y0069173D01*
X0019998Y0069960D02*
Y0069173D01*
X0019764Y0069960D02*
Y0069173D01*
X0019530Y0069960D02*
Y0069173D01*
X0019296Y0069960D02*
Y0069173D01*
X0021063Y0069843D02*
X0019094D01*
X0021063Y0069609D02*
X0019094D01*
X0021063Y0069375D02*
X0019094D01*
X0021063Y0069960D02*
X0019094D01*
X0021063D02*
Y0069173D01*
X0019094D01*
Y0069960D02*
Y0069173D01*
X0037667Y0066220D02*
Y0065433D01*
X0037433Y0066220D02*
Y0065433D01*
X0037199Y0066220D02*
Y0065433D01*
X0036965Y0066220D02*
Y0065433D01*
X0036731Y0066220D02*
Y0065433D01*
X0036497Y0066220D02*
Y0065433D01*
X0036263Y0066220D02*
Y0065433D01*
X0036029Y0066220D02*
Y0065433D01*
X0037795Y0066103D02*
X0035827D01*
X0037795Y0065869D02*
X0035827D01*
X0037795Y0065635D02*
X0035827D01*
X0037795Y0066220D02*
X0035827D01*
X0037795D02*
Y0065433D01*
X0035827D01*
Y0066220D02*
Y0065433D01*
X0037667Y0069960D02*
Y0069173D01*
X0037433Y0069960D02*
Y0069173D01*
X0037199Y0069960D02*
Y0069173D01*
X0036965Y0069960D02*
Y0069173D01*
X0036731Y0069960D02*
Y0069173D01*
X0036497Y0069960D02*
Y0069173D01*
X0036263Y0069960D02*
Y0069173D01*
X0036029Y0069960D02*
Y0069173D01*
X0037795Y0069843D02*
X0035827D01*
X0037795Y0069609D02*
X0035827D01*
X0037795Y0069375D02*
X0035827D01*
X0037795Y0069960D02*
X0035827D01*
X0037795D02*
Y0069173D01*
X0035827D01*
Y0069960D02*
Y0069173D01*
X0027627Y0066220D02*
Y0065433D01*
X0027393Y0066220D02*
Y0065433D01*
X0027159Y0066220D02*
Y0065433D01*
X0026925Y0066220D02*
Y0065433D01*
X0026691Y0066220D02*
Y0065433D01*
X0026457Y0066220D02*
Y0065433D01*
X0026223Y0066220D02*
Y0065433D01*
X0025989Y0066220D02*
Y0065433D01*
X0027756Y0066103D02*
X0025787D01*
X0027756Y0065869D02*
X0025787D01*
X0027756Y0065635D02*
X0025787D01*
X0027756Y0066220D02*
X0025787D01*
X0027756D02*
Y0065433D01*
X0025787D01*
Y0066220D02*
Y0065433D01*
X0027627Y0069960D02*
Y0069173D01*
X0027393Y0069960D02*
Y0069173D01*
X0027159Y0069960D02*
Y0069173D01*
X0026925Y0069960D02*
Y0069173D01*
X0026691Y0069960D02*
Y0069173D01*
X0026457Y0069960D02*
Y0069173D01*
X0026223Y0069960D02*
Y0069173D01*
X0025989Y0069960D02*
Y0069173D01*
X0027756Y0069843D02*
X0025787D01*
X0027756Y0069609D02*
X0025787D01*
X0027756Y0069375D02*
X0025787D01*
X0027756Y0069960D02*
X0025787D01*
X0027756D02*
Y0069173D01*
X0025787D01*
Y0069960D02*
Y0069173D01*
X0030974Y0039764D02*
Y0038976D01*
X0030740Y0039764D02*
Y0038976D01*
X0030506Y0039764D02*
Y0038976D01*
X0030272Y0039764D02*
Y0038976D01*
X0030038Y0039764D02*
Y0038976D01*
X0029804Y0039764D02*
Y0038976D01*
X0029570Y0039764D02*
Y0038976D01*
X0029336Y0039764D02*
Y0038976D01*
X0031102Y0039646D02*
X0029134D01*
X0031102Y0039412D02*
X0029134D01*
X0031102Y0039178D02*
X0029134D01*
X0031102Y0039764D02*
X0029134D01*
X0031102D02*
Y0038976D01*
X0029134D01*
Y0039764D02*
Y0038976D01*
X0030974Y0043503D02*
Y0042716D01*
X0030740Y0043503D02*
Y0042716D01*
X0030506Y0043503D02*
Y0042716D01*
X0030272Y0043503D02*
Y0042716D01*
X0030038Y0043503D02*
Y0042716D01*
X0029804Y0043503D02*
Y0042716D01*
X0029570Y0043503D02*
Y0042716D01*
X0029336Y0043503D02*
Y0042716D01*
X0031102Y0043386D02*
X0029134D01*
X0031102Y0043152D02*
X0029134D01*
X0031102Y0042918D02*
X0029134D01*
X0031102Y0043503D02*
X0029134D01*
X0031102D02*
Y0042716D01*
X0029134D01*
Y0043503D02*
Y0042716D01*
X0020934Y0039764D02*
Y0038976D01*
X0020700Y0039764D02*
Y0038976D01*
X0020466Y0039764D02*
Y0038976D01*
X0020232Y0039764D02*
Y0038976D01*
X0019998Y0039764D02*
Y0038976D01*
X0019764Y0039764D02*
Y0038976D01*
X0019530Y0039764D02*
Y0038976D01*
X0019296Y0039764D02*
Y0038976D01*
X0021063Y0039646D02*
X0019094D01*
X0021063Y0039412D02*
X0019094D01*
X0021063Y0039178D02*
X0019094D01*
X0021063Y0039764D02*
X0019094D01*
X0021063D02*
Y0038976D01*
X0019094D01*
Y0039764D02*
Y0038976D01*
X0020934Y0043503D02*
Y0042716D01*
X0020700Y0043503D02*
Y0042716D01*
X0020466Y0043503D02*
Y0042716D01*
X0020232Y0043503D02*
Y0042716D01*
X0019998Y0043503D02*
Y0042716D01*
X0019764Y0043503D02*
Y0042716D01*
X0019530Y0043503D02*
Y0042716D01*
X0019296Y0043503D02*
Y0042716D01*
X0021063Y0043386D02*
X0019094D01*
X0021063Y0043152D02*
X0019094D01*
X0021063Y0042918D02*
X0019094D01*
X0021063Y0043503D02*
X0019094D01*
X0021063D02*
Y0042716D01*
X0019094D01*
Y0043503D02*
Y0042716D01*
X0030974Y0066220D02*
Y0065433D01*
X0030740Y0066220D02*
Y0065433D01*
X0030506Y0066220D02*
Y0065433D01*
X0030272Y0066220D02*
Y0065433D01*
X0030038Y0066220D02*
Y0065433D01*
X0029804Y0066220D02*
Y0065433D01*
X0029570Y0066220D02*
Y0065433D01*
X0029336Y0066220D02*
Y0065433D01*
X0031102Y0066103D02*
X0029134D01*
X0031102Y0065869D02*
X0029134D01*
X0031102Y0065635D02*
X0029134D01*
X0031102Y0066220D02*
X0029134D01*
X0031102D02*
Y0065433D01*
X0029134D01*
Y0066220D02*
Y0065433D01*
X0030974Y0069960D02*
Y0069173D01*
X0030740Y0069960D02*
Y0069173D01*
X0030506Y0069960D02*
Y0069173D01*
X0030272Y0069960D02*
Y0069173D01*
X0030038Y0069960D02*
Y0069173D01*
X0029804Y0069960D02*
Y0069173D01*
X0029570Y0069960D02*
Y0069173D01*
X0029336Y0069960D02*
Y0069173D01*
X0031102Y0069843D02*
X0029134D01*
X0031102Y0069609D02*
X0029134D01*
X0031102Y0069375D02*
X0029134D01*
X0031102Y0069960D02*
X0029134D01*
X0031102D02*
Y0069173D01*
X0029134D01*
Y0069960D02*
Y0069173D01*
X0037667Y0039764D02*
Y0038976D01*
X0037433Y0039764D02*
Y0038976D01*
X0037199Y0039764D02*
Y0038976D01*
X0036965Y0039764D02*
Y0038976D01*
X0036731Y0039764D02*
Y0038976D01*
X0036497Y0039764D02*
Y0038976D01*
X0036263Y0039764D02*
Y0038976D01*
X0036029Y0039764D02*
Y0038976D01*
X0037795Y0039646D02*
X0035827D01*
X0037795Y0039412D02*
X0035827D01*
X0037795Y0039178D02*
X0035827D01*
X0037795Y0039764D02*
X0035827D01*
X0037795D02*
Y0038976D01*
X0035827D01*
Y0039764D02*
Y0038976D01*
X0037667Y0043503D02*
Y0042716D01*
X0037433Y0043503D02*
Y0042716D01*
X0037199Y0043503D02*
Y0042716D01*
X0036965Y0043503D02*
Y0042716D01*
X0036731Y0043503D02*
Y0042716D01*
X0036497Y0043503D02*
Y0042716D01*
X0036263Y0043503D02*
Y0042716D01*
X0036029Y0043503D02*
Y0042716D01*
X0037795Y0043386D02*
X0035827D01*
X0037795Y0043152D02*
X0035827D01*
X0037795Y0042918D02*
X0035827D01*
X0037795Y0043503D02*
X0035827D01*
X0037795D02*
Y0042716D01*
X0035827D01*
Y0043503D02*
Y0042716D01*
X0041013Y0066220D02*
Y0065433D01*
X0040779Y0066220D02*
Y0065433D01*
X0040545Y0066220D02*
Y0065433D01*
X0040311Y0066220D02*
Y0065433D01*
X0040077Y0066220D02*
Y0065433D01*
X0039843Y0066220D02*
Y0065433D01*
X0039609Y0066220D02*
Y0065433D01*
X0039375Y0066220D02*
Y0065433D01*
X0041142Y0066103D02*
X0039173D01*
X0041142Y0065869D02*
X0039173D01*
X0041142Y0065635D02*
X0039173D01*
X0041142Y0066220D02*
X0039173D01*
X0041142D02*
Y0065433D01*
X0039173D01*
Y0066220D02*
Y0065433D01*
X0041013Y0069960D02*
Y0069173D01*
X0040779Y0069960D02*
Y0069173D01*
X0040545Y0069960D02*
Y0069173D01*
X0040311Y0069960D02*
Y0069173D01*
X0040077Y0069960D02*
Y0069173D01*
X0039843Y0069960D02*
Y0069173D01*
X0039609Y0069960D02*
Y0069173D01*
X0039375Y0069960D02*
Y0069173D01*
X0041142Y0069843D02*
X0039173D01*
X0041142Y0069609D02*
X0039173D01*
X0041142Y0069375D02*
X0039173D01*
X0041142Y0069960D02*
X0039173D01*
X0041142D02*
Y0069173D01*
X0039173D01*
Y0069960D02*
Y0069173D01*
X0044360Y0039764D02*
Y0038976D01*
X0044126Y0039764D02*
Y0038976D01*
X0043892Y0039764D02*
Y0038976D01*
X0043658Y0039764D02*
Y0038976D01*
X0043424Y0039764D02*
Y0038976D01*
X0043190Y0039764D02*
Y0038976D01*
X0042956Y0039764D02*
Y0038976D01*
X0042722Y0039764D02*
Y0038976D01*
X0044488Y0039646D02*
X0042520D01*
X0044488Y0039412D02*
X0042520D01*
X0044488Y0039178D02*
X0042520D01*
X0044488Y0039764D02*
X0042520D01*
X0044488D02*
Y0038976D01*
X0042520D01*
Y0039764D02*
Y0038976D01*
X0044360Y0043503D02*
Y0042716D01*
X0044126Y0043503D02*
Y0042716D01*
X0043892Y0043503D02*
Y0042716D01*
X0043658Y0043503D02*
Y0042716D01*
X0043424Y0043503D02*
Y0042716D01*
X0043190Y0043503D02*
Y0042716D01*
X0042956Y0043503D02*
Y0042716D01*
X0042722Y0043503D02*
Y0042716D01*
X0044488Y0043386D02*
X0042520D01*
X0044488Y0043152D02*
X0042520D01*
X0044488Y0042918D02*
X0042520D01*
X0044488Y0043503D02*
X0042520D01*
X0044488D02*
Y0042716D01*
X0042520D01*
Y0043503D02*
Y0042716D01*
X0024281Y0066220D02*
Y0065433D01*
X0024047Y0066220D02*
Y0065433D01*
X0023813Y0066220D02*
Y0065433D01*
X0023579Y0066220D02*
Y0065433D01*
X0023345Y0066220D02*
Y0065433D01*
X0023111Y0066220D02*
Y0065433D01*
X0022877Y0066220D02*
Y0065433D01*
X0022643Y0066220D02*
Y0065433D01*
X0024409Y0066103D02*
X0022441D01*
X0024409Y0065869D02*
X0022441D01*
X0024409Y0065635D02*
X0022441D01*
X0024409Y0066220D02*
X0022441D01*
X0024409D02*
Y0065433D01*
X0022441D01*
Y0066220D02*
Y0065433D01*
X0024281Y0069960D02*
Y0069173D01*
X0024047Y0069960D02*
Y0069173D01*
X0023813Y0069960D02*
Y0069173D01*
X0023579Y0069960D02*
Y0069173D01*
X0023345Y0069960D02*
Y0069173D01*
X0023111Y0069960D02*
Y0069173D01*
X0022877Y0069960D02*
Y0069173D01*
X0022643Y0069960D02*
Y0069173D01*
X0024409Y0069843D02*
X0022441D01*
X0024409Y0069609D02*
X0022441D01*
X0024409Y0069375D02*
X0022441D01*
X0024409Y0069960D02*
X0022441D01*
X0024409D02*
Y0069173D01*
X0022441D01*
Y0069960D02*
Y0069173D01*
G54D30*
G01X0043094Y0045271D02*
Y0045150D01*
X0043540Y0046000D02*
X0043440D01*
X0043190Y0045150D02*
X0043090D01*
X0043526Y0046000D02*
Y0045986D01*
X0043517Y0046000D02*
Y0045977D01*
X0043508Y0046000D02*
Y0045967D01*
X0043499Y0046000D02*
Y0045958D01*
X0043490Y0046000D02*
Y0045948D01*
X0043481Y0046000D02*
Y0045938D01*
X0043472Y0046000D02*
Y0045928D01*
X0043463Y0046000D02*
Y0045917D01*
X0043454Y0046000D02*
Y0045907D01*
X0043445Y0046005D02*
Y0045896D01*
X0043436Y0046005D02*
Y0045884D01*
X0043427Y0045987D02*
Y0045873D01*
X0043418Y0045978D02*
Y0045861D01*
X0043409Y0045968D02*
Y0045849D01*
X0043400Y0045959D02*
Y0045836D01*
X0043391Y0045949D02*
Y0045823D01*
X0043382Y0045939D02*
Y0045810D01*
X0043373Y0045929D02*
Y0045796D01*
X0043364Y0045919D02*
Y0045782D01*
X0043355Y0045908D02*
Y0045767D01*
X0043346Y0045897D02*
Y0045752D01*
X0043337Y0045886D02*
Y0045736D01*
X0043328Y0045874D02*
Y0045720D01*
X0043319Y0045862D02*
Y0045703D01*
X0043310Y0045850D02*
Y0045685D01*
X0043301Y0045838D02*
Y0045667D01*
X0043292Y0045825D02*
Y0045648D01*
X0043283Y0045812D02*
Y0045627D01*
X0043274Y0045798D02*
Y0045606D01*
X0043265Y0045784D02*
Y0045583D01*
X0043256Y0045769D02*
Y0045558D01*
X0043247Y0045754D02*
Y0045532D01*
X0043238Y0045738D02*
Y0045503D01*
X0043229Y0045722D02*
Y0045471D01*
X0043220Y0045705D02*
Y0045435D01*
X0043211Y0045688D02*
Y0045393D01*
X0043202Y0045669D02*
Y0045340D01*
X0043193Y0045650D02*
Y0045257D01*
X0043184Y0045630D02*
Y0045150D01*
X0043175Y0045608D02*
Y0045150D01*
X0043166Y0045585D02*
Y0045150D01*
X0043157Y0045561D02*
Y0045150D01*
X0043148Y0045535D02*
Y0045150D01*
X0043139Y0045506D02*
Y0045150D01*
X0043130Y0045475D02*
Y0045150D01*
X0043121Y0045440D02*
Y0045150D01*
X0043112Y0045398D02*
Y0045150D01*
X0043103Y0045347D02*
Y0045150D01*
X0043531Y0045991D02*
X0043431D01*
X0043522Y0045982D02*
X0043422D01*
X0043513Y0045973D02*
X0043413D01*
X0043504Y0045964D02*
X0043404D01*
X0043496Y0045955D02*
X0043396D01*
X0043487Y0045946D02*
X0043387D01*
X0043479Y0045937D02*
X0043379D01*
X0043471Y0045928D02*
X0043371D01*
X0043464Y0045919D02*
X0043364D01*
X0043456Y0045910D02*
X0043356D01*
X0043449Y0045901D02*
X0043349D01*
X0043441Y0045892D02*
X0043341D01*
X0043434Y0045883D02*
X0043334D01*
X0043427Y0045874D02*
X0043327D01*
X0043420Y0045865D02*
X0043320D01*
X0043414Y0045856D02*
X0043314D01*
X0043407Y0045847D02*
X0043307D01*
X0043401Y0045838D02*
X0043301D01*
X0043394Y0045829D02*
X0043294D01*
X0043388Y0045820D02*
X0043288D01*
X0043382Y0045811D02*
X0043282D01*
X0043376Y0045802D02*
X0043276D01*
X0043370Y0045793D02*
X0043270D01*
X0043365Y0045784D02*
X0043265D01*
X0043359Y0045775D02*
X0043259D01*
X0043354Y0045766D02*
X0043254D01*
X0043348Y0045757D02*
X0043248D01*
X0043343Y0045748D02*
X0043243D01*
X0043338Y0045739D02*
X0043238D01*
X0043333Y0045730D02*
X0043233D01*
X0043328Y0045721D02*
X0043228D01*
X0043323Y0045712D02*
X0043223D01*
X0043318Y0045703D02*
X0043218D01*
X0043314Y0045694D02*
X0043214D01*
X0043309Y0045685D02*
X0043209D01*
X0043305Y0045676D02*
X0043205D01*
X0043300Y0045667D02*
X0043200D01*
X0043296Y0045658D02*
X0043196D01*
X0043292Y0045649D02*
X0043192D01*
X0043288Y0045640D02*
X0043188D01*
X0043284Y0045631D02*
X0043184D01*
X0043280Y0045622D02*
X0043180D01*
X0043277Y0045613D02*
X0043176D01*
X0043273Y0045604D02*
X0043173D01*
X0043269Y0045595D02*
X0043169D01*
X0043266Y0045586D02*
X0043166D01*
X0043262Y0045577D02*
X0043162D01*
X0043259Y0045568D02*
X0043159D01*
X0043256Y0045559D02*
X0043156D01*
X0043253Y0045550D02*
X0043153D01*
X0043250Y0045541D02*
X0043150D01*
X0043247Y0045532D02*
X0043147D01*
X0043244Y0045523D02*
X0043144D01*
X0043241Y0045514D02*
X0043141D01*
X0043238Y0045505D02*
X0043138D01*
X0043235Y0045496D02*
X0043135D01*
X0043233Y0045487D02*
X0043133D01*
X0043230Y0045478D02*
X0043130D01*
X0043228Y0045469D02*
X0043128D01*
X0043226Y0045460D02*
X0043126D01*
X0043223Y0045451D02*
X0043123D01*
X0043221Y0045442D02*
X0043121D01*
X0043219Y0045433D02*
X0043119D01*
X0043217Y0045424D02*
X0043117D01*
X0043215Y0045415D02*
X0043115D01*
X0043213Y0045406D02*
X0043113D01*
X0043211Y0045397D02*
X0043111D01*
X0043210Y0045388D02*
X0043109D01*
X0043208Y0045379D02*
X0043108D01*
X0043206Y0045370D02*
X0043106D01*
X0043205Y0045361D02*
X0043105D01*
X0043203Y0045352D02*
X0043103D01*
X0043202Y0045343D02*
X0043102D01*
X0043201Y0045334D02*
X0043101D01*
X0043199Y0045325D02*
X0043099D01*
X0043198Y0045316D02*
X0043098D01*
X0043197Y0045307D02*
X0043097D01*
X0043196Y0045298D02*
X0043096D01*
X0043195Y0045289D02*
X0043095D01*
X0043194Y0045280D02*
X0043094D01*
X0043194Y0045271D02*
X0043094D01*
X0043193Y0045262D02*
X0043093D01*
X0043192Y0045253D02*
X0043092D01*
X0043192Y0045244D02*
X0043092D01*
X0043191Y0045235D02*
X0043091D01*
X0043191Y0045226D02*
X0043091D01*
X0043190Y0045217D02*
X0043090D01*
X0043190Y0045208D02*
X0043090D01*
X0043190Y0045199D02*
X0043090D01*
X0043190Y0045190D02*
X0043090D01*
X0043190Y0045181D02*
X0043090D01*
X0043190Y0045172D02*
X0043090D01*
X0043190Y0045163D02*
X0043090D01*
X0043444Y0046008D02*
Y0045882D01*
X0043890Y0045153D02*
X0043790D01*
X0043540Y0046003D02*
X0043440D01*
X0043876Y0045167D02*
Y0045153D01*
X0043867Y0045176D02*
Y0045153D01*
X0043858Y0045186D02*
Y0045153D01*
X0043849Y0045195D02*
Y0045153D01*
X0043840Y0045205D02*
Y0045153D01*
X0043831Y0045215D02*
Y0045153D01*
X0043822Y0045225D02*
Y0045153D01*
X0043813Y0045236D02*
Y0045153D01*
X0043804Y0045246D02*
Y0045153D01*
X0043795Y0045257D02*
Y0045153D01*
X0043786Y0045269D02*
Y0045153D01*
X0043777Y0045280D02*
Y0045166D01*
X0043768Y0045292D02*
Y0045175D01*
X0043759Y0045304D02*
Y0045185D01*
X0043750Y0045317D02*
Y0045194D01*
X0043741Y0045330D02*
Y0045204D01*
X0043732Y0045343D02*
Y0045214D01*
X0043723Y0045357D02*
Y0045224D01*
X0043714Y0045371D02*
Y0045234D01*
X0043705Y0045386D02*
Y0045245D01*
X0043696Y0045401D02*
Y0045256D01*
X0043687Y0045417D02*
Y0045267D01*
X0043678Y0045433D02*
Y0045279D01*
X0043669Y0045450D02*
Y0045291D01*
X0043660Y0045468D02*
Y0045303D01*
X0043651Y0045486D02*
Y0045315D01*
X0043642Y0045505D02*
Y0045328D01*
X0043633Y0045526D02*
Y0045341D01*
X0043624Y0045547D02*
Y0045355D01*
X0043615Y0045570D02*
Y0045369D01*
X0043606Y0045595D02*
Y0045384D01*
X0043597Y0045621D02*
Y0045399D01*
X0043588Y0045650D02*
Y0045415D01*
X0043579Y0045682D02*
Y0045431D01*
X0043570Y0045718D02*
Y0045448D01*
X0043561Y0045760D02*
Y0045465D01*
X0043552Y0045813D02*
Y0045484D01*
X0043543Y0045896D02*
Y0045503D01*
X0043534Y0046003D02*
Y0045523D01*
X0043525Y0046003D02*
Y0045545D01*
X0043516Y0046003D02*
Y0045568D01*
X0043507Y0046003D02*
Y0045592D01*
X0043498Y0046003D02*
Y0045618D01*
X0043489Y0046003D02*
Y0045647D01*
X0043480Y0046003D02*
Y0045678D01*
X0043471Y0046003D02*
Y0045713D01*
X0043462Y0046003D02*
Y0045755D01*
X0043453Y0046003D02*
Y0045806D01*
X0043540Y0045994D02*
X0043440D01*
X0043540Y0045985D02*
X0043440D01*
X0043540Y0045976D02*
X0043440D01*
X0043540Y0045967D02*
X0043440D01*
X0043540Y0045958D02*
X0043440D01*
X0043540Y0045949D02*
X0043440D01*
X0043540Y0045940D02*
X0043440D01*
X0043541Y0045931D02*
X0043441D01*
X0043541Y0045922D02*
X0043441D01*
X0043541Y0045913D02*
X0043441D01*
X0043542Y0045904D02*
X0043442D01*
X0043543Y0045895D02*
X0043443D01*
X0043543Y0045886D02*
X0043443D01*
X0043544Y0045877D02*
X0043444D01*
X0043545Y0045868D02*
X0043445D01*
X0043546Y0045859D02*
X0043446D01*
X0043547Y0045850D02*
X0043447D01*
X0043548Y0045841D02*
X0043448D01*
X0043549Y0045832D02*
X0043449D01*
X0043550Y0045823D02*
X0043450D01*
X0043551Y0045814D02*
X0043451D01*
X0043553Y0045805D02*
X0043453D01*
X0043554Y0045796D02*
X0043454D01*
X0043556Y0045787D02*
X0043456D01*
X0043557Y0045778D02*
X0043457D01*
X0043559Y0045769D02*
X0043459D01*
X0043560Y0045760D02*
X0043460D01*
X0043562Y0045751D02*
X0043462D01*
X0043564Y0045742D02*
X0043464D01*
X0043566Y0045733D02*
X0043466D01*
X0043568Y0045724D02*
X0043468D01*
X0043570Y0045715D02*
X0043470D01*
X0043572Y0045706D02*
X0043472D01*
X0043575Y0045697D02*
X0043475D01*
X0043577Y0045688D02*
X0043477D01*
X0043579Y0045679D02*
X0043479D01*
X0043582Y0045670D02*
X0043482D01*
X0043584Y0045661D02*
X0043484D01*
X0043587Y0045652D02*
X0043487D01*
X0043590Y0045643D02*
X0043490D01*
X0043592Y0045634D02*
X0043492D01*
X0043595Y0045625D02*
X0043495D01*
X0043598Y0045616D02*
X0043498D01*
X0043601Y0045607D02*
X0043501D01*
X0043604Y0045598D02*
X0043504D01*
X0043608Y0045589D02*
X0043508D01*
X0043611Y0045580D02*
X0043511D01*
X0043614Y0045571D02*
X0043514D01*
X0043618Y0045562D02*
X0043518D01*
X0043621Y0045553D02*
X0043521D01*
X0043625Y0045544D02*
X0043525D01*
X0043629Y0045535D02*
X0043529D01*
X0043632Y0045526D02*
X0043532D01*
X0043636Y0045517D02*
X0043536D01*
X0043640Y0045508D02*
X0043540D01*
X0043644Y0045499D02*
X0043544D01*
X0043649Y0045490D02*
X0043549D01*
X0043653Y0045481D02*
X0043553D01*
X0043657Y0045472D02*
X0043557D01*
X0043662Y0045463D02*
X0043562D01*
X0043666Y0045454D02*
X0043566D01*
X0043671Y0045445D02*
X0043571D01*
X0043676Y0045436D02*
X0043576D01*
X0043681Y0045427D02*
X0043581D01*
X0043686Y0045418D02*
X0043586D01*
X0043691Y0045409D02*
X0043591D01*
X0043696Y0045400D02*
X0043596D01*
X0043701Y0045391D02*
X0043601D01*
X0043707Y0045382D02*
X0043607D01*
X0043712Y0045373D02*
X0043612D01*
X0043718Y0045364D02*
X0043618D01*
X0043724Y0045355D02*
X0043624D01*
X0043729Y0045346D02*
X0043629D01*
X0043735Y0045337D02*
X0043635D01*
X0043742Y0045328D02*
X0043642D01*
X0043748Y0045319D02*
X0043648D01*
X0043754Y0045310D02*
X0043654D01*
X0043761Y0045301D02*
X0043661D01*
X0043767Y0045292D02*
X0043667D01*
X0043774Y0045283D02*
X0043674D01*
X0043781Y0045274D02*
X0043681D01*
X0043788Y0045265D02*
X0043688D01*
X0043795Y0045256D02*
X0043695D01*
X0043803Y0045247D02*
X0043703D01*
X0043810Y0045238D02*
X0043710D01*
X0043818Y0045229D02*
X0043718D01*
X0043826Y0045220D02*
X0043726D01*
X0043834Y0045211D02*
X0043734D01*
X0043842Y0045202D02*
X0043742D01*
X0043850Y0045193D02*
X0043750D01*
X0043859Y0045184D02*
X0043759D01*
X0043868Y0045175D02*
X0043768D01*
X0043877Y0045166D02*
X0043777D01*
X0043794Y0045271D02*
Y0045150D01*
X0044240Y0046000D02*
X0044140D01*
X0043890Y0045150D02*
X0043790D01*
X0044226Y0046000D02*
Y0045986D01*
X0044217Y0046000D02*
Y0045977D01*
X0044208Y0046000D02*
Y0045967D01*
X0044199Y0046000D02*
Y0045958D01*
X0044190Y0046000D02*
Y0045948D01*
X0044181Y0046000D02*
Y0045938D01*
X0044172Y0046000D02*
Y0045928D01*
X0044163Y0046000D02*
Y0045917D01*
X0044154Y0046000D02*
Y0045907D01*
X0044145Y0046005D02*
Y0045896D01*
X0044136Y0046005D02*
Y0045884D01*
X0044127Y0045987D02*
Y0045873D01*
X0044118Y0045978D02*
Y0045861D01*
X0044109Y0045968D02*
Y0045849D01*
X0044100Y0045959D02*
Y0045836D01*
X0044091Y0045949D02*
Y0045823D01*
X0044082Y0045939D02*
Y0045810D01*
X0044073Y0045929D02*
Y0045796D01*
X0044064Y0045919D02*
Y0045782D01*
X0044055Y0045908D02*
Y0045767D01*
X0044046Y0045897D02*
Y0045752D01*
X0044037Y0045886D02*
Y0045736D01*
X0044028Y0045874D02*
Y0045720D01*
X0044019Y0045862D02*
Y0045703D01*
X0044010Y0045850D02*
Y0045685D01*
X0044001Y0045838D02*
Y0045667D01*
X0043992Y0045825D02*
Y0045648D01*
X0043983Y0045812D02*
Y0045627D01*
X0043974Y0045798D02*
Y0045606D01*
X0043965Y0045784D02*
Y0045583D01*
X0043956Y0045769D02*
Y0045558D01*
X0043947Y0045754D02*
Y0045532D01*
X0043938Y0045738D02*
Y0045503D01*
X0043929Y0045722D02*
Y0045471D01*
X0043920Y0045705D02*
Y0045435D01*
X0043911Y0045688D02*
Y0045393D01*
X0043902Y0045669D02*
Y0045340D01*
X0043893Y0045650D02*
Y0045257D01*
X0043884Y0045630D02*
Y0045150D01*
X0043875Y0045608D02*
Y0045150D01*
X0043866Y0045585D02*
Y0045150D01*
X0043857Y0045561D02*
Y0045150D01*
X0043848Y0045535D02*
Y0045150D01*
X0043839Y0045506D02*
Y0045150D01*
X0043830Y0045475D02*
Y0045150D01*
X0043821Y0045440D02*
Y0045150D01*
X0043812Y0045398D02*
Y0045150D01*
X0043803Y0045347D02*
Y0045150D01*
X0044231Y0045991D02*
X0044131D01*
X0044222Y0045982D02*
X0044122D01*
X0044213Y0045973D02*
X0044113D01*
X0044204Y0045964D02*
X0044104D01*
X0044196Y0045955D02*
X0044096D01*
X0044187Y0045946D02*
X0044087D01*
X0044179Y0045937D02*
X0044079D01*
X0044171Y0045928D02*
X0044071D01*
X0044164Y0045919D02*
X0044064D01*
X0044156Y0045910D02*
X0044056D01*
X0044149Y0045901D02*
X0044049D01*
X0044141Y0045892D02*
X0044041D01*
X0044134Y0045883D02*
X0044034D01*
X0044127Y0045874D02*
X0044027D01*
X0044120Y0045865D02*
X0044020D01*
X0044114Y0045856D02*
X0044014D01*
X0044107Y0045847D02*
X0044007D01*
X0044101Y0045838D02*
X0044001D01*
X0044094Y0045829D02*
X0043994D01*
X0044088Y0045820D02*
X0043988D01*
X0044082Y0045811D02*
X0043982D01*
X0044076Y0045802D02*
X0043976D01*
X0044070Y0045793D02*
X0043970D01*
X0044065Y0045784D02*
X0043965D01*
X0044059Y0045775D02*
X0043959D01*
X0044054Y0045766D02*
X0043954D01*
X0044048Y0045757D02*
X0043948D01*
X0044043Y0045748D02*
X0043943D01*
X0044038Y0045739D02*
X0043938D01*
X0044033Y0045730D02*
X0043933D01*
X0044028Y0045721D02*
X0043928D01*
X0044023Y0045712D02*
X0043923D01*
X0044018Y0045703D02*
X0043918D01*
X0044014Y0045694D02*
X0043914D01*
X0044009Y0045685D02*
X0043909D01*
X0044005Y0045676D02*
X0043905D01*
X0044000Y0045667D02*
X0043900D01*
X0043996Y0045658D02*
X0043896D01*
X0043992Y0045649D02*
X0043892D01*
X0043988Y0045640D02*
X0043888D01*
X0043984Y0045631D02*
X0043884D01*
X0043980Y0045622D02*
X0043880D01*
X0043977Y0045613D02*
X0043876D01*
X0043973Y0045604D02*
X0043873D01*
X0043969Y0045595D02*
X0043869D01*
X0043966Y0045586D02*
X0043866D01*
X0043962Y0045577D02*
X0043862D01*
X0043959Y0045568D02*
X0043859D01*
X0043956Y0045559D02*
X0043856D01*
X0043953Y0045550D02*
X0043853D01*
X0043950Y0045541D02*
X0043850D01*
X0043947Y0045532D02*
X0043847D01*
X0043944Y0045523D02*
X0043844D01*
X0043941Y0045514D02*
X0043841D01*
X0043938Y0045505D02*
X0043838D01*
X0043935Y0045496D02*
X0043835D01*
X0043933Y0045487D02*
X0043833D01*
X0043930Y0045478D02*
X0043830D01*
X0043928Y0045469D02*
X0043828D01*
X0043926Y0045460D02*
X0043826D01*
X0043923Y0045451D02*
X0043823D01*
X0043921Y0045442D02*
X0043821D01*
X0043919Y0045433D02*
X0043819D01*
X0043917Y0045424D02*
X0043817D01*
X0043915Y0045415D02*
X0043815D01*
X0043913Y0045406D02*
X0043813D01*
X0043911Y0045397D02*
X0043811D01*
X0043910Y0045388D02*
X0043809D01*
X0043908Y0045379D02*
X0043808D01*
X0043906Y0045370D02*
X0043806D01*
X0043905Y0045361D02*
X0043805D01*
X0043903Y0045352D02*
X0043803D01*
X0043902Y0045343D02*
X0043802D01*
X0043901Y0045334D02*
X0043801D01*
X0043899Y0045325D02*
X0043799D01*
X0043898Y0045316D02*
X0043798D01*
X0043897Y0045307D02*
X0043797D01*
X0043896Y0045298D02*
X0043796D01*
X0043895Y0045289D02*
X0043795D01*
X0043894Y0045280D02*
X0043794D01*
X0043894Y0045271D02*
X0043794D01*
X0043893Y0045262D02*
X0043793D01*
X0043892Y0045253D02*
X0043792D01*
X0043892Y0045244D02*
X0043792D01*
X0043891Y0045235D02*
X0043791D01*
X0043891Y0045226D02*
X0043791D01*
X0043890Y0045217D02*
X0043790D01*
X0043890Y0045208D02*
X0043790D01*
X0043890Y0045199D02*
X0043790D01*
X0043890Y0045190D02*
X0043790D01*
X0043890Y0045181D02*
X0043790D01*
X0043890Y0045172D02*
X0043790D01*
X0043890Y0045163D02*
X0043790D01*
X0043794Y0045271D02*
Y0045150D01*
X0044240Y0046000D02*
X0044140D01*
X0043890Y0045150D02*
X0043790D01*
X0044226Y0046000D02*
Y0045986D01*
X0044217Y0046000D02*
Y0045977D01*
X0044208Y0046000D02*
Y0045967D01*
X0044199Y0046000D02*
Y0045958D01*
X0044190Y0046000D02*
Y0045948D01*
X0044181Y0046000D02*
Y0045938D01*
X0044172Y0046000D02*
Y0045928D01*
X0044163Y0046000D02*
Y0045917D01*
X0044154Y0046000D02*
Y0045907D01*
X0044145Y0046005D02*
Y0045896D01*
X0044136Y0046005D02*
Y0045884D01*
X0044127Y0045987D02*
Y0045873D01*
X0044118Y0045978D02*
Y0045861D01*
X0044109Y0045968D02*
Y0045849D01*
X0044100Y0045959D02*
Y0045836D01*
X0044091Y0045949D02*
Y0045823D01*
X0044082Y0045939D02*
Y0045810D01*
X0044073Y0045929D02*
Y0045796D01*
X0044064Y0045919D02*
Y0045782D01*
X0044055Y0045908D02*
Y0045767D01*
X0044046Y0045897D02*
Y0045752D01*
X0044037Y0045886D02*
Y0045736D01*
X0044028Y0045874D02*
Y0045720D01*
X0044019Y0045862D02*
Y0045703D01*
X0044010Y0045850D02*
Y0045685D01*
X0044001Y0045838D02*
Y0045667D01*
X0043992Y0045825D02*
Y0045648D01*
X0043983Y0045812D02*
Y0045627D01*
X0043974Y0045798D02*
Y0045606D01*
X0043965Y0045784D02*
Y0045583D01*
X0043956Y0045769D02*
Y0045558D01*
X0043947Y0045754D02*
Y0045532D01*
X0043938Y0045738D02*
Y0045503D01*
X0043929Y0045722D02*
Y0045471D01*
X0043920Y0045705D02*
Y0045435D01*
X0043911Y0045688D02*
Y0045393D01*
X0043902Y0045669D02*
Y0045340D01*
X0043893Y0045650D02*
Y0045257D01*
X0043884Y0045630D02*
Y0045150D01*
X0043875Y0045608D02*
Y0045150D01*
X0043866Y0045585D02*
Y0045150D01*
X0043857Y0045561D02*
Y0045150D01*
X0043848Y0045535D02*
Y0045150D01*
X0043839Y0045506D02*
Y0045150D01*
X0043830Y0045475D02*
Y0045150D01*
X0043821Y0045440D02*
Y0045150D01*
X0043812Y0045398D02*
Y0045150D01*
X0043803Y0045347D02*
Y0045150D01*
X0044231Y0045991D02*
X0044131D01*
X0044222Y0045982D02*
X0044122D01*
X0044213Y0045973D02*
X0044113D01*
X0044204Y0045964D02*
X0044104D01*
X0044196Y0045955D02*
X0044096D01*
X0044187Y0045946D02*
X0044087D01*
X0044179Y0045937D02*
X0044079D01*
X0044171Y0045928D02*
X0044071D01*
X0044164Y0045919D02*
X0044064D01*
X0044156Y0045910D02*
X0044056D01*
X0044149Y0045901D02*
X0044049D01*
X0044141Y0045892D02*
X0044041D01*
X0044134Y0045883D02*
X0044034D01*
X0044127Y0045874D02*
X0044027D01*
X0044120Y0045865D02*
X0044020D01*
X0044114Y0045856D02*
X0044014D01*
X0044107Y0045847D02*
X0044007D01*
X0044101Y0045838D02*
X0044001D01*
X0044094Y0045829D02*
X0043994D01*
X0044088Y0045820D02*
X0043988D01*
X0044082Y0045811D02*
X0043982D01*
X0044076Y0045802D02*
X0043976D01*
X0044070Y0045793D02*
X0043970D01*
X0044065Y0045784D02*
X0043965D01*
X0044059Y0045775D02*
X0043959D01*
X0044054Y0045766D02*
X0043954D01*
X0044048Y0045757D02*
X0043948D01*
X0044043Y0045748D02*
X0043943D01*
X0044038Y0045739D02*
X0043938D01*
X0044033Y0045730D02*
X0043933D01*
X0044028Y0045721D02*
X0043928D01*
X0044023Y0045712D02*
X0043923D01*
X0044018Y0045703D02*
X0043918D01*
X0044014Y0045694D02*
X0043914D01*
X0044009Y0045685D02*
X0043909D01*
X0044005Y0045676D02*
X0043905D01*
X0044000Y0045667D02*
X0043900D01*
X0043996Y0045658D02*
X0043896D01*
X0043992Y0045649D02*
X0043892D01*
X0043988Y0045640D02*
X0043888D01*
X0043984Y0045631D02*
X0043884D01*
X0043980Y0045622D02*
X0043880D01*
X0043977Y0045613D02*
X0043876D01*
X0043973Y0045604D02*
X0043873D01*
X0043969Y0045595D02*
X0043869D01*
X0043966Y0045586D02*
X0043866D01*
X0043962Y0045577D02*
X0043862D01*
X0043959Y0045568D02*
X0043859D01*
X0043956Y0045559D02*
X0043856D01*
X0043953Y0045550D02*
X0043853D01*
X0043950Y0045541D02*
X0043850D01*
X0043947Y0045532D02*
X0043847D01*
X0043944Y0045523D02*
X0043844D01*
X0043941Y0045514D02*
X0043841D01*
X0043938Y0045505D02*
X0043838D01*
X0043935Y0045496D02*
X0043835D01*
X0043933Y0045487D02*
X0043833D01*
X0043930Y0045478D02*
X0043830D01*
X0043928Y0045469D02*
X0043828D01*
X0043926Y0045460D02*
X0043826D01*
X0043923Y0045451D02*
X0043823D01*
X0043921Y0045442D02*
X0043821D01*
X0043919Y0045433D02*
X0043819D01*
X0043917Y0045424D02*
X0043817D01*
X0043915Y0045415D02*
X0043815D01*
X0043913Y0045406D02*
X0043813D01*
X0043911Y0045397D02*
X0043811D01*
X0043910Y0045388D02*
X0043809D01*
X0043908Y0045379D02*
X0043808D01*
X0043906Y0045370D02*
X0043806D01*
X0043905Y0045361D02*
X0043805D01*
X0043903Y0045352D02*
X0043803D01*
X0043902Y0045343D02*
X0043802D01*
X0043901Y0045334D02*
X0043801D01*
X0043899Y0045325D02*
X0043799D01*
X0043898Y0045316D02*
X0043798D01*
X0043897Y0045307D02*
X0043797D01*
X0043896Y0045298D02*
X0043796D01*
X0043895Y0045289D02*
X0043795D01*
X0043894Y0045280D02*
X0043794D01*
X0043894Y0045271D02*
X0043794D01*
X0043893Y0045262D02*
X0043793D01*
X0043892Y0045253D02*
X0043792D01*
X0043892Y0045244D02*
X0043792D01*
X0043891Y0045235D02*
X0043791D01*
X0043891Y0045226D02*
X0043791D01*
X0043890Y0045217D02*
X0043790D01*
X0043890Y0045208D02*
X0043790D01*
X0043890Y0045199D02*
X0043790D01*
X0043890Y0045190D02*
X0043790D01*
X0043890Y0045181D02*
X0043790D01*
X0043890Y0045172D02*
X0043790D01*
X0043890Y0045163D02*
X0043790D01*
X0042890Y0045260D02*
Y0045160D01*
X0043740Y0045610D02*
Y0045510D01*
X0043731Y0045610D02*
Y0045510D01*
X0043722Y0045610D02*
Y0045510D01*
X0043713Y0045610D02*
Y0045510D01*
X0043704Y0045610D02*
Y0045510D01*
X0043695Y0045610D02*
Y0045510D01*
X0043686Y0045610D02*
Y0045510D01*
X0043677Y0045610D02*
Y0045510D01*
X0043668Y0045609D02*
Y0045509D01*
X0043659Y0045609D02*
Y0045509D01*
X0043650Y0045609D02*
Y0045509D01*
X0043641Y0045608D02*
Y0045508D01*
X0043632Y0045607D02*
Y0045507D01*
X0043623Y0045607D02*
Y0045507D01*
X0043614Y0045606D02*
Y0045506D01*
X0043605Y0045605D02*
Y0045505D01*
X0043596Y0045604D02*
Y0045504D01*
X0043587Y0045603D02*
Y0045503D01*
X0043578Y0045602D02*
Y0045502D01*
X0043569Y0045601D02*
Y0045501D01*
X0043560Y0045600D02*
Y0045500D01*
X0043551Y0045599D02*
Y0045499D01*
X0043542Y0045597D02*
Y0045497D01*
X0043533Y0045596D02*
Y0045496D01*
X0043524Y0045594D02*
Y0045494D01*
X0043515Y0045593D02*
Y0045493D01*
X0043506Y0045591D02*
Y0045491D01*
X0043497Y0045590D02*
Y0045490D01*
X0043488Y0045588D02*
Y0045488D01*
X0043479Y0045586D02*
Y0045486D01*
X0043470Y0045584D02*
Y0045484D01*
X0043461Y0045582D02*
Y0045482D01*
X0043452Y0045580D02*
Y0045480D01*
X0043443Y0045578D02*
Y0045478D01*
X0043434Y0045575D02*
Y0045475D01*
X0043425Y0045573D02*
Y0045473D01*
X0043416Y0045571D02*
Y0045471D01*
X0043407Y0045568D02*
Y0045468D01*
X0043398Y0045566D02*
Y0045466D01*
X0043389Y0045563D02*
Y0045463D01*
X0043380Y0045560D02*
Y0045460D01*
X0043371Y0045558D02*
Y0045458D01*
X0043362Y0045555D02*
Y0045455D01*
X0043353Y0045552D02*
Y0045452D01*
X0043344Y0045549D02*
Y0045449D01*
X0043335Y0045546D02*
Y0045446D01*
X0043326Y0045542D02*
Y0045442D01*
X0043317Y0045539D02*
Y0045439D01*
X0043308Y0045536D02*
Y0045436D01*
X0043299Y0045532D02*
Y0045432D01*
X0043290Y0045529D02*
Y0045429D01*
X0043281Y0045525D02*
Y0045425D01*
X0043272Y0045521D02*
Y0045421D01*
X0043263Y0045518D02*
Y0045418D01*
X0043254Y0045514D02*
Y0045414D01*
X0043245Y0045510D02*
Y0045410D01*
X0043236Y0045506D02*
Y0045406D01*
X0043227Y0045501D02*
Y0045401D01*
X0043218Y0045497D02*
Y0045397D01*
X0043209Y0045493D02*
Y0045393D01*
X0043200Y0045488D02*
Y0045388D01*
X0043191Y0045484D02*
Y0045384D01*
X0043182Y0045479D02*
Y0045379D01*
X0043173Y0045474D02*
Y0045374D01*
X0043164Y0045469D02*
Y0045369D01*
X0043155Y0045464D02*
Y0045364D01*
X0043146Y0045459D02*
Y0045359D01*
X0043137Y0045454D02*
Y0045354D01*
X0043128Y0045449D02*
Y0045349D01*
X0043119Y0045443D02*
Y0045343D01*
X0043110Y0045438D02*
Y0045338D01*
X0043101Y0045432D02*
Y0045332D01*
X0043092Y0045426D02*
Y0045326D01*
X0043083Y0045421D02*
Y0045321D01*
X0043074Y0045415D02*
Y0045315D01*
X0043065Y0045408D02*
Y0045308D01*
X0043056Y0045402D02*
Y0045302D01*
X0043047Y0045396D02*
Y0045296D01*
X0043038Y0045389D02*
Y0045289D01*
X0043029Y0045383D02*
Y0045283D01*
X0043020Y0045376D02*
Y0045276D01*
X0043011Y0045369D02*
Y0045269D01*
X0043002Y0045362D02*
Y0045262D01*
X0042993Y0045355D02*
Y0045255D01*
X0042984Y0045347D02*
Y0045247D01*
X0042975Y0045340D02*
Y0045240D01*
X0042966Y0045332D02*
Y0045232D01*
X0042957Y0045324D02*
Y0045224D01*
X0042948Y0045316D02*
Y0045216D01*
X0042939Y0045308D02*
Y0045208D01*
X0042930Y0045300D02*
Y0045200D01*
X0042921Y0045291D02*
Y0045191D01*
X0042912Y0045282D02*
Y0045182D01*
X0042903Y0045273D02*
Y0045173D01*
X0043745Y0045605D02*
X0043605D01*
X0043740Y0045596D02*
X0043535D01*
X0043740Y0045587D02*
X0043485D01*
X0043740Y0045578D02*
X0043445D01*
X0043740Y0045569D02*
X0043410D01*
X0043740Y0045560D02*
X0043379D01*
X0043740Y0045551D02*
X0043351D01*
X0043740Y0045542D02*
X0043325D01*
X0043740Y0045533D02*
X0043301D01*
X0043740Y0045524D02*
X0043279D01*
X0043740Y0045515D02*
X0043258D01*
X0043616Y0045506D02*
X0043237D01*
X0043541Y0045497D02*
X0043218D01*
X0043490Y0045488D02*
X0043200D01*
X0043449Y0045479D02*
X0043182D01*
X0043414Y0045470D02*
X0043166D01*
X0043383Y0045461D02*
X0043149D01*
X0043354Y0045452D02*
X0043134D01*
X0043328Y0045443D02*
X0043119D01*
X0043304Y0045434D02*
X0043104D01*
X0043281Y0045425D02*
X0043090D01*
X0043260Y0045416D02*
X0043077D01*
X0043240Y0045407D02*
X0043063D01*
X0043220Y0045398D02*
X0043051D01*
X0043202Y0045389D02*
X0043038D01*
X0043184Y0045380D02*
X0043026D01*
X0043167Y0045371D02*
X0043014D01*
X0043151Y0045362D02*
X0043003D01*
X0043136Y0045353D02*
X0042991D01*
X0043120Y0045344D02*
X0042980D01*
X0043106Y0045335D02*
X0042970D01*
X0043092Y0045326D02*
X0042959D01*
X0043078Y0045317D02*
X0042949D01*
X0043065Y0045308D02*
X0042939D01*
X0043052Y0045299D02*
X0042930D01*
X0043039Y0045290D02*
X0042920D01*
X0043027Y0045281D02*
X0042911D01*
X0043015Y0045272D02*
X0042902D01*
X0043004Y0045263D02*
X0042890D01*
X0042993Y0045254D02*
X0042890D01*
X0042982Y0045245D02*
X0042890D01*
X0042971Y0045236D02*
X0042890D01*
X0042961Y0045227D02*
X0042890D01*
X0042950Y0045218D02*
X0042890D01*
X0042940Y0045209D02*
X0042890D01*
X0042931Y0045200D02*
X0042890D01*
X0042921Y0045191D02*
X0042890D01*
X0042912Y0045182D02*
X0042890D01*
X0042903Y0045173D02*
X0042890D01*
X0043094Y0045271D02*
Y0045150D01*
X0043540Y0046000D02*
X0043440D01*
X0043190Y0045150D02*
X0043090D01*
X0043526Y0046000D02*
Y0045986D01*
X0043517Y0046000D02*
Y0045977D01*
X0043508Y0046000D02*
Y0045967D01*
X0043499Y0046000D02*
Y0045958D01*
X0043490Y0046000D02*
Y0045948D01*
X0043481Y0046000D02*
Y0045938D01*
X0043472Y0046000D02*
Y0045928D01*
X0043463Y0046000D02*
Y0045917D01*
X0043454Y0046000D02*
Y0045907D01*
X0043445Y0046005D02*
Y0045896D01*
X0043436Y0046005D02*
Y0045884D01*
X0043427Y0045987D02*
Y0045873D01*
X0043418Y0045978D02*
Y0045861D01*
X0043409Y0045968D02*
Y0045849D01*
X0043400Y0045959D02*
Y0045836D01*
X0043391Y0045949D02*
Y0045823D01*
X0043382Y0045939D02*
Y0045810D01*
X0043373Y0045929D02*
Y0045796D01*
X0043364Y0045919D02*
Y0045782D01*
X0043355Y0045908D02*
Y0045767D01*
X0043346Y0045897D02*
Y0045752D01*
X0043337Y0045886D02*
Y0045736D01*
X0043328Y0045874D02*
Y0045720D01*
X0043319Y0045862D02*
Y0045703D01*
X0043310Y0045850D02*
Y0045685D01*
X0043301Y0045838D02*
Y0045667D01*
X0043292Y0045825D02*
Y0045648D01*
X0043283Y0045812D02*
Y0045627D01*
X0043274Y0045798D02*
Y0045606D01*
X0043265Y0045784D02*
Y0045583D01*
X0043256Y0045769D02*
Y0045558D01*
X0043247Y0045754D02*
Y0045532D01*
X0043238Y0045738D02*
Y0045503D01*
X0043229Y0045722D02*
Y0045471D01*
X0043220Y0045705D02*
Y0045435D01*
X0043211Y0045688D02*
Y0045393D01*
X0043202Y0045669D02*
Y0045340D01*
X0043193Y0045650D02*
Y0045257D01*
X0043184Y0045630D02*
Y0045150D01*
X0043175Y0045608D02*
Y0045150D01*
X0043166Y0045585D02*
Y0045150D01*
X0043157Y0045561D02*
Y0045150D01*
X0043148Y0045535D02*
Y0045150D01*
X0043139Y0045506D02*
Y0045150D01*
X0043130Y0045475D02*
Y0045150D01*
X0043121Y0045440D02*
Y0045150D01*
X0043112Y0045398D02*
Y0045150D01*
X0043103Y0045347D02*
Y0045150D01*
X0043531Y0045991D02*
X0043431D01*
X0043522Y0045982D02*
X0043422D01*
X0043513Y0045973D02*
X0043413D01*
X0043504Y0045964D02*
X0043404D01*
X0043496Y0045955D02*
X0043396D01*
X0043487Y0045946D02*
X0043387D01*
X0043479Y0045937D02*
X0043379D01*
X0043471Y0045928D02*
X0043371D01*
X0043464Y0045919D02*
X0043364D01*
X0043456Y0045910D02*
X0043356D01*
X0043449Y0045901D02*
X0043349D01*
X0043441Y0045892D02*
X0043341D01*
X0043434Y0045883D02*
X0043334D01*
X0043427Y0045874D02*
X0043327D01*
X0043420Y0045865D02*
X0043320D01*
X0043414Y0045856D02*
X0043314D01*
X0043407Y0045847D02*
X0043307D01*
X0043401Y0045838D02*
X0043301D01*
X0043394Y0045829D02*
X0043294D01*
X0043388Y0045820D02*
X0043288D01*
X0043382Y0045811D02*
X0043282D01*
X0043376Y0045802D02*
X0043276D01*
X0043370Y0045793D02*
X0043270D01*
X0043365Y0045784D02*
X0043265D01*
X0043359Y0045775D02*
X0043259D01*
X0043354Y0045766D02*
X0043254D01*
X0043348Y0045757D02*
X0043248D01*
X0043343Y0045748D02*
X0043243D01*
X0043338Y0045739D02*
X0043238D01*
X0043333Y0045730D02*
X0043233D01*
X0043328Y0045721D02*
X0043228D01*
X0043323Y0045712D02*
X0043223D01*
X0043318Y0045703D02*
X0043218D01*
X0043314Y0045694D02*
X0043214D01*
X0043309Y0045685D02*
X0043209D01*
X0043305Y0045676D02*
X0043205D01*
X0043300Y0045667D02*
X0043200D01*
X0043296Y0045658D02*
X0043196D01*
X0043292Y0045649D02*
X0043192D01*
X0043288Y0045640D02*
X0043188D01*
X0043284Y0045631D02*
X0043184D01*
X0043280Y0045622D02*
X0043180D01*
X0043277Y0045613D02*
X0043176D01*
X0043273Y0045604D02*
X0043173D01*
X0043269Y0045595D02*
X0043169D01*
X0043266Y0045586D02*
X0043166D01*
X0043262Y0045577D02*
X0043162D01*
X0043259Y0045568D02*
X0043159D01*
X0043256Y0045559D02*
X0043156D01*
X0043253Y0045550D02*
X0043153D01*
X0043250Y0045541D02*
X0043150D01*
X0043247Y0045532D02*
X0043147D01*
X0043244Y0045523D02*
X0043144D01*
X0043241Y0045514D02*
X0043141D01*
X0043238Y0045505D02*
X0043138D01*
X0043235Y0045496D02*
X0043135D01*
X0043233Y0045487D02*
X0043133D01*
X0043230Y0045478D02*
X0043130D01*
X0043228Y0045469D02*
X0043128D01*
X0043226Y0045460D02*
X0043126D01*
X0043223Y0045451D02*
X0043123D01*
X0043221Y0045442D02*
X0043121D01*
X0043219Y0045433D02*
X0043119D01*
X0043217Y0045424D02*
X0043117D01*
X0043215Y0045415D02*
X0043115D01*
X0043213Y0045406D02*
X0043113D01*
X0043211Y0045397D02*
X0043111D01*
X0043210Y0045388D02*
X0043109D01*
X0043208Y0045379D02*
X0043108D01*
X0043206Y0045370D02*
X0043106D01*
X0043205Y0045361D02*
X0043105D01*
X0043203Y0045352D02*
X0043103D01*
X0043202Y0045343D02*
X0043102D01*
X0043201Y0045334D02*
X0043101D01*
X0043199Y0045325D02*
X0043099D01*
X0043198Y0045316D02*
X0043098D01*
X0043197Y0045307D02*
X0043097D01*
X0043196Y0045298D02*
X0043096D01*
X0043195Y0045289D02*
X0043095D01*
X0043194Y0045280D02*
X0043094D01*
X0043194Y0045271D02*
X0043094D01*
X0043193Y0045262D02*
X0043093D01*
X0043192Y0045253D02*
X0043092D01*
X0043192Y0045244D02*
X0043092D01*
X0043191Y0045235D02*
X0043091D01*
X0043191Y0045226D02*
X0043091D01*
X0043190Y0045217D02*
X0043090D01*
X0043190Y0045208D02*
X0043090D01*
X0043190Y0045199D02*
X0043090D01*
X0043190Y0045190D02*
X0043090D01*
X0043190Y0045181D02*
X0043090D01*
X0043190Y0045172D02*
X0043090D01*
X0043190Y0045163D02*
X0043090D01*
Y0045175D02*
G03X0043090Y0045150I0001146J0000000D01*
G01X0043440Y0046000D02*
G03X0043090Y0045175I0000796J0000825D01*
G01X0043540Y0046000D02*
G03X0043190Y0045175I0000796J0000825D01*
G03X0043190Y0045150I0001146J0000000D01*
G01X0043440Y0046003D02*
G03X0043440Y0045978I0001146J0000025D01*
G03X0043790Y0045153I0001146J0000000D01*
G01X0043540Y0045978D02*
G03X0043890Y0045153I0001146J0000000D01*
G01X0043540Y0046003D02*
G03X0043540Y0045978I0001146J0000025D01*
G01X0043790Y0045175D02*
G03X0043790Y0045150I0001146J0000000D01*
G01X0044140Y0046000D02*
G03X0043790Y0045175I0000796J0000825D01*
G01X0044240Y0046000D02*
G03X0043890Y0045175I0000796J0000825D01*
G03X0043890Y0045150I0001146J0000000D01*
G01X0043790Y0045175D02*
G03X0043790Y0045150I0001146J0000000D01*
G01X0044140Y0046000D02*
G03X0043790Y0045175I0000796J0000825D01*
G01X0044240Y0046000D02*
G03X0043890Y0045175I0000796J0000825D01*
G03X0043890Y0045150I0001146J0000000D01*
G01X0043740Y0045610D02*
G03X0043715Y0045610I0000025J0001146D01*
G03X0042890Y0045260I0000000J0001146D01*
G01X0043715Y0045510D02*
G03X0042890Y0045160I0000000J0001146D01*
G01X0043740Y0045510D02*
G03X0043715Y0045510I0000025J0001146D01*
G01X0043090Y0045175D02*
G03X0043090Y0045150I0001146J0000000D01*
G01X0043440Y0046000D02*
G03X0043090Y0045175I0000796J0000825D01*
G01X0043540Y0046000D02*
G03X0043190Y0045175I0000796J0000825D01*
G03X0043190Y0045150I0001146J0000000D01*
G54D31*
G01X0042960Y0048840D02*
Y0048160D01*
X0036880Y0048840D02*
Y0048160D01*
X0036000D02*
Y0048840D01*
X0039360Y0048160D02*
Y0048840D01*
X0043840Y0048160D02*
Y0048840D01*
X0021760Y0051440D02*
X0023560D01*
X0023600Y0051400D01*
X0040240Y0048160D02*
Y0048840D01*
X0044000Y0064640D02*
Y0063140D01*
X0038960Y0064640D02*
Y0063140D01*
X0037840D01*
X0035280Y0064640D02*
Y0063140D01*
X0034160D01*
X0026320Y0058520D02*
X0025680Y0059160D01*
Y0062320D01*
X0025960Y0062600D01*
X0026320D01*
X0020800Y0056760D02*
Y0059280D01*
X0020240Y0059840D01*
Y0060960D01*
X0020600Y0061320D01*
X0020800D01*
Y0061840D01*
X0020480Y0062160D01*
Y0064590D01*
X0021840Y0058480D02*
X0022000Y0058640D01*
X0022720D01*
X0023680D01*
X0029600D02*
Y0059280D01*
X0029200Y0059680D01*
X0027280D01*
X0022480Y0054800D02*
X0022560D01*
X0022720Y0054960D01*
Y0058640D01*
X0023680D01*
X0029520D02*
X0029120D01*
X0028720Y0058240D01*
Y0057040D01*
X0028160Y0056480D01*
X0027360D01*
X0029600Y0058640D02*
X0029520D01*
X0040400Y0064640D02*
Y0063780D01*
X0037280Y0053920D02*
X0037120Y0054080D01*
Y0056240D01*
X0036720Y0056640D01*
Y0060960D01*
X0036160Y0061520D01*
Y0065637D01*
X0036387Y0065827D01*
X0036417D01*
X0027360Y0058470D02*
X0027930D01*
X0028160Y0058240D01*
Y0057600D01*
X0021840D02*
Y0056710D01*
X0038960Y0061840D02*
X0039440D01*
X0040640Y0060640D01*
Y0056720D01*
X0040000Y0056080D01*
Y0055000D01*
X0033680Y0060240D02*
Y0060720D01*
X0033360Y0061040D01*
Y0063440D01*
X0035120Y0065200D01*
Y0069200D01*
X0035526Y0069606D01*
X0036417D01*
X0037680Y0060240D02*
Y0060720D01*
X0037040Y0061360D01*
Y0063840D01*
X0038640Y0065440D01*
Y0069120D01*
X0039126Y0069606D01*
X0039764D01*
X0041040Y0054000D02*
Y0060798D01*
X0039764Y0062078D01*
Y0065827D01*
X0029530Y0050000D02*
Y0050530D01*
X0029520Y0050540D01*
Y0050640D01*
X0029600Y0050720D01*
X0042960Y0050480D02*
Y0049680D01*
X0043000Y0055000D02*
Y0056200D01*
X0043500Y0056700D01*
Y0061060D01*
X0043360Y0061200D01*
Y0064800D01*
X0043110Y0065050D01*
Y0065827D01*
X0022800Y0062640D02*
Y0061760D01*
X0022310Y0061270D01*
X0021840D01*
X0029600Y0052000D02*
X0029400D01*
X0028525Y0051125D01*
Y0050690D01*
X0028210D02*
Y0051330D01*
X0029520Y0052640D01*
X0029600D01*
X0023680Y0061680D02*
Y0059840D01*
X0024480Y0059040D01*
Y0057280D01*
X0026720Y0055040D01*
Y0054240D01*
X0030400Y0050240D02*
Y0050080D01*
X0030005Y0049685D01*
X0029530D01*
X0039360Y0050480D02*
X0039520Y0050640D01*
Y0056320D01*
X0040000Y0056800D01*
Y0057240D01*
X0044000Y0052000D02*
Y0049840D01*
X0043840Y0049680D01*
X0027360Y0055640D02*
X0027480Y0055760D01*
X0028080D01*
X0023760Y0055440D02*
Y0054260D01*
X0023750Y0054250D01*
X0023760Y0054240D01*
Y0053400D02*
Y0052720D01*
X0024160Y0052320D01*
X0024960D01*
X0026005Y0051275D01*
Y0050690D01*
X0022480Y0053960D02*
X0022640D01*
X0023200Y0054520D01*
Y0056160D01*
X0023680Y0056640D01*
X0024720Y0054240D02*
X0024690Y0054270D01*
Y0054930D01*
X0024720Y0054960D01*
X0030320D02*
Y0060960D01*
X0029600Y0061680D01*
X0036880Y0049680D02*
X0037520D01*
X0037760Y0049440D01*
Y0048960D01*
X0028560Y0049840D02*
X0028110D01*
X0027895Y0050055D01*
Y0050690D01*
X0043110Y0069606D02*
X0042326D01*
X0042000Y0069280D01*
Y0064800D01*
X0043000Y0063800D01*
Y0060240D01*
X0040898Y0067520D02*
X0040794Y0067588D01*
Y0069606D01*
X0039764D01*
X0036000Y0052000D02*
Y0049680D01*
X0023600Y0050560D02*
X0023200D01*
X0022720Y0050080D01*
Y0048080D01*
X0027280Y0060520D02*
X0027320Y0060560D01*
X0027920D01*
X0029040Y0061680D01*
X0029600D01*
X0025680Y0054240D02*
Y0055200D01*
X0024240Y0056640D01*
X0023680D01*
X0029600D02*
X0029200D01*
X0028320Y0055760D01*
X0028080D01*
X0027480D01*
X0027360Y0055640D01*
X0040000Y0052000D02*
Y0050480D01*
X0030160Y0051360D02*
X0029440D01*
X0028840Y0050760D01*
Y0050690D01*
X0042880Y0067520D02*
Y0066057D01*
X0043110Y0065827D01*
X0036320Y0067520D02*
Y0065924D01*
X0036417Y0065827D01*
X0029600Y0062680D02*
X0029470Y0062550D01*
X0027360D01*
X0039520Y0067520D02*
Y0066071D01*
X0039764Y0065827D01*
X0037840Y0061840D02*
Y0061520D01*
X0038240Y0061120D01*
X0039600D01*
X0040000Y0060720D01*
Y0060240D01*
X0036880Y0049680D02*
X0036720Y0049840D01*
Y0055840D01*
X0036000Y0056560D01*
Y0057240D01*
X0040240Y0049680D02*
Y0050240D01*
X0040000Y0050480D01*
Y0052000D01*
X0021840Y0055920D02*
X0020800D01*
X0027360Y0061760D02*
X0026320D01*
X0044000Y0057240D02*
Y0056640D01*
X0043500Y0056140D01*
Y0051000D01*
X0042980Y0050480D01*
X0042960D01*
Y0049680D01*
X0029530Y0046850D02*
Y0046070D01*
X0029600Y0046000D01*
X0034240Y0046400D02*
Y0047280D01*
X0034640Y0047680D01*
X0037680D01*
X0038360Y0047000D01*
Y0046800D01*
X0026635Y0050690D02*
Y0051925D01*
X0025680Y0052880D01*
Y0053400D01*
X0037698Y0067520D02*
X0037600Y0067618D01*
Y0069600D01*
X0036424D01*
X0036417Y0069606D01*
X0021840Y0060480D02*
X0020800D01*
X0026950Y0050690D02*
Y0052240D01*
X0026720Y0052470D01*
Y0053400D01*
X0044258Y0067520D02*
X0044160Y0067618D01*
Y0069440D01*
X0043994Y0069606D01*
X0043110D01*
X0039360Y0050480D02*
Y0049680D01*
X0036000Y0060240D02*
Y0060880D01*
X0035280Y0061600D01*
Y0061840D01*
X0030960Y0049600D02*
X0030480D01*
X0030160Y0049280D01*
Y0048920D01*
X0029980Y0048740D01*
X0029530D01*
X0034160Y0061840D02*
X0034000Y0061680D01*
Y0061280D01*
X0034400Y0060880D01*
Y0056800D01*
X0036000Y0055200D01*
Y0055000D01*
X0040400Y0062480D02*
Y0062000D01*
X0041280Y0061120D01*
X0042000D01*
X0042400Y0060720D01*
Y0056000D01*
X0044000D02*
Y0055000D01*
X0029520Y0044480D02*
X0029120D01*
X0028525Y0045075D01*
Y0046160D01*
X0026320Y0050690D02*
Y0051600D01*
X0024720Y0053200D01*
Y0053400D01*
X0044000Y0061840D02*
Y0060240D01*
X0021840Y0059320D02*
X0021880D01*
X0022400Y0059840D01*
X0023680D01*
Y0061680D01*
X0028840Y0046160D02*
Y0045720D01*
X0029120Y0045440D01*
X0029440D01*
X0034240D02*
X0034720Y0045920D01*
Y0047120D01*
X0034960Y0047360D01*
X0036960D01*
X0037360Y0046960D01*
Y0046800D01*
X0027360Y0057680D02*
X0026320D01*
X0030160Y0046160D02*
Y0046960D01*
X0029955Y0047165D01*
X0029530D01*
X0025000Y0049055D02*
X0024560D01*
X0024240Y0049375D01*
Y0049920D01*
X0023600Y0050560D01*
X0028320Y0049380D02*
X0026660D01*
X0028320Y0049164D02*
X0026503D01*
X0028320Y0049056D02*
X0026480D01*
X0028320Y0048948D02*
X0026480D01*
X0027105Y0049590D02*
X0026870D01*
X0027884Y0049600D02*
Y0047760D01*
X0026588Y0049308D02*
Y0047760D01*
X0028320Y0048840D02*
X0026480D01*
X0028166Y0048516D02*
X0026480D01*
X0028129Y0048408D02*
X0026480D01*
X0028120Y0048300D02*
X0026480D01*
X0026696Y0049416D02*
Y0047760D01*
X0026870Y0049590D02*
X0026575Y0049295D01*
X0027452Y0049600D02*
Y0047760D01*
X0027236Y0049600D02*
Y0047760D01*
X0026480Y0049138D02*
Y0047760D01*
X0028320Y0049272D02*
X0026566D01*
X0027992Y0049564D02*
Y0047760D01*
X0027930Y0049600D02*
X0027185D01*
X0026912Y0049590D02*
Y0047760D01*
X0028296Y0049488D02*
X0026768D01*
X0026804Y0049524D02*
Y0047760D01*
X0028320D02*
X0026480D01*
X0028139Y0048192D02*
X0026480D01*
X0028208Y0049540D02*
Y0048584D01*
X0028238Y0049540D02*
X0028110D01*
X0028320Y0047951D02*
Y0047760D01*
Y0048732D02*
X0026480D01*
X0027776Y0049600D02*
Y0047760D01*
X0027668Y0049600D02*
Y0047760D01*
X0027560Y0049600D02*
Y0047760D01*
X0028208Y0048056D02*
Y0047760D01*
X0027344Y0049600D02*
Y0047760D01*
X0028188Y0048084D02*
X0026480D01*
X0027020Y0049590D02*
Y0047760D01*
X0028285Y0047976D02*
X0026480D01*
X0027128Y0049591D02*
Y0047760D01*
X0028320Y0049471D02*
Y0048689D01*
Y0047868D02*
X0026480D01*
X0028100Y0049540D02*
Y0047760D01*
X0028242Y0048624D02*
X0026480D01*
G01X0027930Y0049600D02*
G03X0028110Y0049540I0000180J0000240D01*
G01X0028120Y0048320D02*
G03X0028320Y0047951I0000440J0000000D01*
Y0048689D02*
G03X0028120Y0048320I0000240J0000369D01*
G03X0028320Y0047951I0000440J0000000D01*
G01X0028238Y0049540D02*
G03X0028320Y0049471I0000322J0000300D01*
G01X0027105Y0049590D02*
G03X0027185Y0049600I0000000J0000330D01*
G01X0028320Y0048689D02*
G03X0028120Y0048320I0000240J0000369D01*
G01X0026480Y0049138D02*
G03X0026575Y0049295I0000320J0000302D01*
G54D32*
G01X0025760Y0048740D02*
X0025000D01*
X0027760Y0048560D02*
Y0048320D01*
X0028240Y0047840D01*
X0028800D01*
X0029070Y0048110D01*
X0029530D01*
X0027265Y0046160D02*
Y0048465D01*
X0026900Y0048740D02*
X0025760D01*
X0025000D01*
X0027265Y0046160D02*
Y0048465D01*
X0027760Y0048560D02*
Y0048320D01*
X0028240Y0047840D01*
X0028800D01*
X0029070Y0048110D01*
X0029530D01*
X0026960Y0045200D02*
X0027265Y0045505D01*
Y0046160D01*
X0025000Y0048740D02*
X0024160D01*
X0024100Y0048800D01*
X0027440Y0049360D02*
Y0049680D01*
X0027580Y0049820D01*
Y0050690D01*
X0028080Y0052320D02*
X0028000D01*
X0027920Y0052240D01*
Y0051680D02*
X0027580Y0051340D01*
Y0050690D01*
X0029530Y0048110D02*
X0030050D01*
X0030240Y0047920D01*
Y0047360D01*
X0030640Y0046960D01*
X0030960D01*
X0025000Y0048425D02*
X0025545D01*
X0025760Y0048210D01*
X0029530Y0048425D02*
X0030185D01*
X0030520Y0048760D01*
X0027265Y0050690D02*
Y0052905D01*
X0027520Y0053160D01*
X0026160Y0049440D02*
X0026640Y0049920D01*
X0027105D01*
X0027265Y0050080D01*
Y0050690D01*
X0023520Y0047960D02*
X0023560Y0047920D01*
X0024080D02*
X0024585Y0048425D01*
X0025000D01*
X0028560Y0048320D02*
X0028665Y0048425D01*
X0029530D01*
X0028665D01*
X0028560Y0048320D01*
X0027840Y0047040D02*
X0027580Y0046780D01*
Y0046160D01*
X0027800Y0045400D02*
X0027580Y0045620D01*
Y0046160D01*
Y0046780D01*
X0027840Y0047040D01*
X0031600Y0068760D02*
X0029120D01*
X0031600Y0068598D02*
X0029120D01*
X0031600Y0068436D02*
X0029120D01*
X0031600Y0068274D02*
X0029120D01*
X0031600Y0068112D02*
X0029120D01*
X0031600Y0067950D02*
X0029120D01*
X0031600Y0067788D02*
X0029120D01*
X0031600Y0067626D02*
X0029120D01*
X0031600Y0067464D02*
X0029120D01*
X0031600Y0067302D02*
X0029120D01*
X0031600Y0067140D02*
X0029120D01*
X0031600Y0066978D02*
X0029120D01*
X0031600Y0066816D02*
X0029120D01*
X0031600Y0066654D02*
X0029120D01*
X0031600Y0066492D02*
X0029120D01*
X0031600Y0066330D02*
X0029120D01*
X0031600Y0066168D02*
X0029120D01*
X0031600Y0066006D02*
X0029120D01*
X0031600Y0065844D02*
X0029120D01*
X0031600Y0065682D02*
X0029120D01*
X0031600Y0065520D02*
X0029120D01*
X0031600Y0065358D02*
X0029120D01*
X0031600Y0065196D02*
X0029120D01*
X0031600Y0065034D02*
X0029120D01*
X0031600Y0064872D02*
X0029120D01*
X0031600Y0064710D02*
X0029120D01*
X0031536Y0070080D02*
Y0064400D01*
X0031374Y0070080D02*
Y0064400D01*
X0031212Y0070080D02*
Y0064400D01*
X0031050Y0070080D02*
Y0064400D01*
X0030888Y0070080D02*
Y0064400D01*
X0030726Y0070080D02*
Y0064400D01*
X0030564Y0070080D02*
Y0064400D01*
X0030402Y0070080D02*
Y0064400D01*
X0030240Y0070080D02*
Y0064400D01*
X0030078Y0070080D02*
Y0064400D01*
X0029916Y0070080D02*
Y0064400D01*
X0029754Y0070080D02*
Y0064400D01*
X0029592Y0070080D02*
Y0064400D01*
X0029430Y0070080D02*
Y0064400D01*
X0029268Y0070080D02*
Y0064400D01*
X0031600Y0070056D02*
X0029120D01*
X0031600Y0069894D02*
X0029120D01*
X0031600Y0069732D02*
X0029120D01*
X0031600Y0069570D02*
X0029120D01*
X0031600Y0069408D02*
X0029120D01*
X0031600Y0069246D02*
X0029120D01*
X0031600Y0069084D02*
X0029120D01*
X0031600Y0068922D02*
X0029120D01*
X0031600Y0064548D02*
X0029120D01*
X0031600Y0070080D02*
X0029120D01*
X0031600D02*
Y0064400D01*
X0029120D01*
Y0070080D02*
Y0064400D01*
X0034640Y0069072D02*
X0032160D01*
X0034640Y0068910D02*
X0032160D01*
X0034640Y0068748D02*
X0032160D01*
X0034640Y0068586D02*
X0032160D01*
X0034640Y0068424D02*
X0032160D01*
X0034640Y0068262D02*
X0032160D01*
X0034640Y0068100D02*
X0032160D01*
X0034640Y0067938D02*
X0032160D01*
X0034640Y0067776D02*
X0032160D01*
X0034640Y0067614D02*
X0032160D01*
X0034640Y0067452D02*
X0032160D01*
X0034640Y0067290D02*
X0032160D01*
X0034640Y0067128D02*
X0032160D01*
X0034640Y0066966D02*
X0032160D01*
X0034640Y0066804D02*
X0032160D01*
X0034640Y0066642D02*
X0032160D01*
X0034640Y0066480D02*
X0032160D01*
X0034640Y0066318D02*
X0032160D01*
X0034640Y0066156D02*
X0032160D01*
X0034640Y0065994D02*
X0032160D01*
X0034640Y0065832D02*
X0032160D01*
X0034640Y0065670D02*
X0032160D01*
X0034576Y0070160D02*
Y0065360D01*
X0034414Y0070160D02*
Y0065360D01*
X0034252Y0070160D02*
Y0065360D01*
X0034090Y0070160D02*
Y0065360D01*
X0033928Y0070160D02*
Y0065360D01*
X0033766Y0070160D02*
Y0065360D01*
X0033604Y0070160D02*
Y0065360D01*
X0033442Y0070160D02*
Y0065360D01*
X0033280Y0070160D02*
Y0065360D01*
X0033118Y0070160D02*
Y0065360D01*
X0032956Y0070160D02*
Y0065360D01*
X0032794Y0070160D02*
Y0065360D01*
X0032632Y0070160D02*
Y0065360D01*
X0032470Y0070160D02*
Y0065360D01*
X0032308Y0070160D02*
Y0065360D01*
X0034640Y0070044D02*
X0032160D01*
X0034640Y0069882D02*
X0032160D01*
X0034640Y0069720D02*
X0032160D01*
X0034640Y0069558D02*
X0032160D01*
X0034640Y0069396D02*
X0032160D01*
X0034640Y0069234D02*
X0032160D01*
X0034640Y0065508D02*
X0032160D01*
X0034640Y0070160D02*
X0032160D01*
X0034640D02*
Y0065360D01*
X0032160D01*
Y0070160D02*
Y0065360D01*
X0044320Y0043600D02*
X0032240D01*
X0044560Y0041295D02*
X0032000D01*
X0044460Y0043538D02*
Y0038782D01*
X0044298Y0043600D02*
Y0038718D01*
X0044136Y0043600D02*
Y0038720D01*
X0043974Y0043600D02*
Y0038720D01*
X0043812Y0043600D02*
Y0038720D01*
X0043650Y0043600D02*
Y0038720D01*
X0043488Y0043600D02*
Y0038720D01*
X0043326Y0043600D02*
Y0038720D01*
X0043164Y0043600D02*
Y0038720D01*
X0043002Y0043600D02*
Y0038720D01*
X0042840Y0043600D02*
Y0038720D01*
X0042678Y0043600D02*
Y0038720D01*
X0042516Y0043600D02*
Y0038720D01*
X0042354Y0043600D02*
Y0038720D01*
X0042192Y0043600D02*
Y0038720D01*
X0042030Y0043600D02*
Y0038720D01*
X0041868Y0043600D02*
Y0038720D01*
X0041706Y0043600D02*
Y0038720D01*
X0041544Y0043600D02*
Y0038720D01*
X0041382Y0043600D02*
Y0038720D01*
X0041220Y0043600D02*
Y0038720D01*
X0041058Y0043600D02*
Y0038720D01*
X0040896Y0043600D02*
Y0038720D01*
X0040734Y0043600D02*
Y0038720D01*
X0040572Y0043600D02*
Y0038720D01*
X0040410Y0043600D02*
Y0038720D01*
X0040248Y0043600D02*
Y0038720D01*
X0040086Y0043600D02*
Y0038720D01*
X0039924Y0043600D02*
Y0038720D01*
X0039762Y0043600D02*
Y0038720D01*
X0039600Y0043600D02*
Y0038720D01*
X0039438Y0043600D02*
Y0038720D01*
X0039276Y0043600D02*
Y0038720D01*
X0039114Y0043600D02*
Y0038720D01*
X0038952Y0043600D02*
Y0038720D01*
X0038790Y0043600D02*
Y0038720D01*
X0038628Y0043600D02*
Y0038720D01*
X0038466Y0043600D02*
Y0038720D01*
X0038304Y0043600D02*
Y0038720D01*
X0038142Y0043600D02*
Y0038720D01*
X0037980Y0043600D02*
Y0038720D01*
X0037818Y0043600D02*
Y0038720D01*
X0037656Y0043600D02*
Y0038720D01*
X0037494Y0043600D02*
Y0038720D01*
X0037332Y0043600D02*
Y0038720D01*
X0037170Y0043600D02*
Y0038720D01*
X0037008Y0043600D02*
Y0038720D01*
X0036846Y0043600D02*
Y0038720D01*
X0036684Y0043600D02*
Y0038720D01*
X0036522Y0043600D02*
Y0038720D01*
X0036360Y0043600D02*
Y0038720D01*
X0036198Y0043600D02*
Y0038720D01*
X0036036Y0043600D02*
Y0038720D01*
X0035874Y0043600D02*
Y0038720D01*
X0035712Y0043600D02*
Y0038720D01*
X0035550Y0043600D02*
Y0038720D01*
X0035388Y0043600D02*
Y0038720D01*
X0035226Y0043600D02*
Y0038720D01*
X0035064Y0043600D02*
Y0038720D01*
X0034902Y0043600D02*
Y0038720D01*
X0034740Y0043600D02*
Y0038720D01*
X0034578Y0043600D02*
Y0038720D01*
X0034416Y0043600D02*
Y0038720D01*
X0034254Y0043600D02*
Y0038720D01*
X0034092Y0043600D02*
Y0038720D01*
X0033930Y0043600D02*
Y0038720D01*
X0033768Y0043600D02*
Y0038720D01*
X0033606Y0043600D02*
Y0038720D01*
X0033444Y0043600D02*
Y0038720D01*
X0033282Y0043600D02*
Y0038720D01*
X0033120Y0043600D02*
Y0038720D01*
X0032958Y0043600D02*
Y0038720D01*
X0032796Y0043600D02*
Y0038720D01*
X0032634Y0043600D02*
Y0038720D01*
X0032472Y0043600D02*
Y0038720D01*
X0032310Y0043600D02*
Y0038720D01*
X0044424Y0043563D02*
X0032135D01*
X0044551Y0043401D02*
X0032009D01*
X0044560Y0043239D02*
X0032000D01*
X0044560Y0043077D02*
X0032000D01*
X0044560Y0042915D02*
X0032000D01*
X0044560Y0042753D02*
X0032000D01*
X0044560Y0042591D02*
X0032000D01*
X0044560Y0042429D02*
X0032000D01*
X0044560Y0042267D02*
X0032000D01*
X0044560Y0042105D02*
X0032000D01*
X0044560Y0041943D02*
X0032000D01*
X0044560Y0041781D02*
X0032000D01*
X0044560Y0041619D02*
X0032000D01*
X0044560Y0041457D02*
X0032000D01*
X0032148Y0043570D02*
Y0038750D01*
X0044560Y0041133D02*
X0032000D01*
X0044560Y0040971D02*
X0032000D01*
X0044560Y0040809D02*
X0032000D01*
X0044560Y0040647D02*
X0032000D01*
X0044560Y0040485D02*
X0032000D01*
X0044560Y0040323D02*
X0032000D01*
X0044560Y0040161D02*
X0032000D01*
X0044560Y0039999D02*
X0032000D01*
X0044560Y0039837D02*
X0032000D01*
X0044560Y0039675D02*
X0032000D01*
X0044560Y0039513D02*
X0032000D01*
X0044560Y0039351D02*
X0032000D01*
X0044560Y0039189D02*
X0032000D01*
X0044561Y0039027D02*
X0032000D01*
X0044528Y0038865D02*
X0032031D01*
X0044560Y0043360D02*
Y0039040D01*
X0044240Y0038720D02*
X0032240D01*
X0032000Y0043360D02*
Y0038960D01*
X0019200Y0043600D02*
X0018960Y0043360D01*
X0031280Y0043600D02*
X0019200D01*
X0031520Y0041295D02*
X0018960D01*
X0031420Y0043460D02*
Y0038782D01*
X0031258Y0043600D02*
Y0038718D01*
X0031096Y0043600D02*
Y0038720D01*
X0030934Y0043600D02*
Y0038720D01*
X0030772Y0043600D02*
Y0038720D01*
X0030610Y0043600D02*
Y0038720D01*
X0030448Y0043600D02*
Y0038720D01*
X0030286Y0043600D02*
Y0038720D01*
X0030124Y0043600D02*
Y0038720D01*
X0029962Y0043600D02*
Y0038720D01*
X0029800Y0043600D02*
Y0038720D01*
X0029638Y0043600D02*
Y0038720D01*
X0029476Y0043600D02*
Y0038720D01*
X0029314Y0043600D02*
Y0038720D01*
X0029152Y0043600D02*
Y0038720D01*
X0028990Y0043600D02*
Y0038720D01*
X0028828Y0043600D02*
Y0038720D01*
X0028666Y0043600D02*
Y0038720D01*
X0028504Y0043600D02*
Y0038720D01*
X0028342Y0043600D02*
Y0038720D01*
X0028180Y0043600D02*
Y0038720D01*
X0028018Y0043600D02*
Y0038720D01*
X0027856Y0043600D02*
Y0038720D01*
X0027694Y0043600D02*
Y0038720D01*
X0027532Y0043600D02*
Y0038720D01*
X0027370Y0043600D02*
Y0038720D01*
X0027208Y0043600D02*
Y0038720D01*
X0027046Y0043600D02*
Y0038720D01*
X0026884Y0043600D02*
Y0038720D01*
X0026722Y0043600D02*
Y0038720D01*
X0026560Y0043600D02*
Y0038720D01*
X0026398Y0043600D02*
Y0038720D01*
X0026236Y0043600D02*
Y0038720D01*
X0026074Y0043600D02*
Y0038720D01*
X0025912Y0043600D02*
Y0038720D01*
X0025750Y0043600D02*
Y0038720D01*
X0025588Y0043600D02*
Y0038720D01*
X0025426Y0043600D02*
Y0038720D01*
X0025264Y0043600D02*
Y0038720D01*
X0025102Y0043600D02*
Y0038720D01*
X0024940Y0043600D02*
Y0038720D01*
X0024778Y0043600D02*
Y0038720D01*
X0024616Y0043600D02*
Y0038720D01*
X0024454Y0043600D02*
Y0038720D01*
X0024292Y0043600D02*
Y0038720D01*
X0024130Y0043600D02*
Y0038720D01*
X0023968Y0043600D02*
Y0038720D01*
X0023806Y0043600D02*
Y0038720D01*
X0023644Y0043600D02*
Y0038720D01*
X0023482Y0043600D02*
Y0038720D01*
X0023320Y0043600D02*
Y0038720D01*
X0023158Y0043600D02*
Y0038720D01*
X0022996Y0043600D02*
Y0038720D01*
X0022834Y0043600D02*
Y0038720D01*
X0022672Y0043600D02*
Y0038720D01*
X0022510Y0043600D02*
Y0038720D01*
X0022348Y0043600D02*
Y0038720D01*
X0022186Y0043600D02*
Y0038720D01*
X0022024Y0043600D02*
Y0038720D01*
X0021862Y0043600D02*
Y0038720D01*
X0021700Y0043600D02*
Y0038720D01*
X0021538Y0043600D02*
Y0038720D01*
X0021376Y0043600D02*
Y0038720D01*
X0021214Y0043600D02*
Y0038720D01*
X0021052Y0043600D02*
Y0038720D01*
X0020890Y0043600D02*
Y0038720D01*
X0020728Y0043600D02*
Y0038720D01*
X0020566Y0043600D02*
Y0038720D01*
X0020404Y0043600D02*
Y0038720D01*
X0020242Y0043600D02*
Y0038720D01*
X0020080Y0043600D02*
Y0038720D01*
X0019918Y0043600D02*
Y0038720D01*
X0019756Y0043600D02*
Y0038720D01*
X0019594Y0043600D02*
Y0038720D01*
X0019432Y0043600D02*
Y0038720D01*
X0019270Y0043600D02*
Y0038720D01*
X0031317Y0043563D02*
X0019163D01*
X0031479Y0043401D02*
X0019001D01*
X0031520Y0043239D02*
X0018960D01*
X0031520Y0043077D02*
X0018960D01*
X0031520Y0042915D02*
X0018960D01*
X0031520Y0042753D02*
X0018960D01*
X0031520Y0042591D02*
X0018960D01*
X0031520Y0042429D02*
X0018960D01*
X0031520Y0042267D02*
X0018960D01*
X0031520Y0042105D02*
X0018960D01*
X0031520Y0041943D02*
X0018960D01*
X0031520Y0041781D02*
X0018960D01*
X0031520Y0041619D02*
X0018960D01*
X0031520Y0041457D02*
X0018960D01*
X0019108Y0043508D02*
Y0038750D01*
X0031520Y0041133D02*
X0018960D01*
X0031520Y0040971D02*
X0018960D01*
X0031520Y0040809D02*
X0018960D01*
X0031520Y0040647D02*
X0018960D01*
X0031520Y0040485D02*
X0018960D01*
X0031520Y0040323D02*
X0018960D01*
X0031520Y0040161D02*
X0018960D01*
X0031520Y0039999D02*
X0018960D01*
X0031520Y0039837D02*
X0018960D01*
X0031520Y0039675D02*
X0018960D01*
X0031520Y0039513D02*
X0018960D01*
X0031520Y0039351D02*
X0018960D01*
X0031520Y0039189D02*
X0018960D01*
X0031521Y0039027D02*
X0018960D01*
X0031488Y0038865D02*
X0018991D01*
X0031280Y0043600D02*
X0031520Y0043360D01*
Y0039040D01*
X0031200Y0038720D02*
X0019200D01*
X0018960Y0043360D02*
Y0038960D01*
G01X0044560Y0043360D02*
G03X0044320Y0043600I0000280J0000040D01*
G01X0044563Y0039000D02*
G03X0044560Y0039040I0000283J0000000D01*
G01X0044280Y0038717D02*
G03X0044563Y0039000I0000000J0000283D01*
G01X0044240Y0038720D02*
G03X0044280Y0038717I0000040J0000280D01*
G01X0032000Y0038960D02*
G03X0032240Y0038720I0000280J0000040D01*
Y0043600D02*
G03X0032000Y0043360I0000040J0000280D01*
G01X0031523Y0039000D02*
G03X0031520Y0039040I0000283J0000000D01*
G01X0031240Y0038717D02*
G03X0031523Y0039000I0000000J0000283D01*
G01X0031200Y0038720D02*
G03X0031240Y0038717I0000040J0000280D01*
G01X0018960Y0038960D02*
G03X0019200Y0038720I0000280J0000040D01*
G54D34*
G01X0029724Y0069606D02*
X0029440Y0069322D01*
Y0067520D01*
X0023031Y0043149D02*
X0023040Y0043158D01*
Y0046560D01*
X0021760Y0047840D01*
Y0048800D01*
X0032699Y0065830D02*
X0033068D01*
X0033071Y0065827D01*
X0032464Y0065814D02*
X0032480Y0065830D01*
X0032699D01*
X0019440Y0067520D02*
Y0066072D01*
X0019685Y0065827D01*
X0019600Y0065742D01*
Y0058240D01*
X0023031Y0065827D02*
X0023045Y0065840D01*
X0023600D01*
X0025120Y0064320D01*
Y0057600D01*
X0025600D01*
X0023680Y0062680D02*
X0023640Y0062640D01*
X0022800D01*
X0022720D01*
Y0063840D01*
X0021760Y0064800D01*
Y0066640D01*
X0020880Y0067520D01*
X0020818D01*
X0023680Y0062680D02*
X0023640Y0062640D01*
X0022800D01*
Y0067520D02*
Y0066058D01*
X0023031Y0065827D01*
X0020818Y0067520D02*
X0020800Y0067538D01*
Y0069520D01*
X0020714Y0069606D01*
X0019685D01*
X0029600Y0062680D02*
X0028560D01*
X0028480Y0062760D01*
Y0068080D01*
X0028160Y0068400D01*
X0024315D01*
X0019600Y0058240D02*
Y0057600D01*
X0020160D01*
X0024178Y0067520D02*
Y0069555D01*
X0024160Y0069537D01*
X0025120Y0057600D02*
Y0064320D01*
X0023600Y0065840D01*
X0023045D01*
X0023031Y0065827D01*
G54D35*
G01X0044165Y0044619D02*
X0044110Y0044674D01*
X0044082Y0044730D01*
Y0044841D01*
X0044110Y0044897D01*
X0044165Y0044952D01*
X0044221D01*
X0044276Y0044897D01*
X0044304Y0044841D01*
Y0044730D01*
X0044276Y0044674D01*
X0044221Y0044619D01*
X0044165D01*
X0043894D02*
X0043783D01*
X0043839D02*
Y0044952D01*
X0043783Y0044897D01*
X0043401Y0044619D02*
X0043345Y0044674D01*
X0043318Y0044730D01*
Y0044841D01*
X0043345Y0044897D01*
X0043401Y0044952D01*
X0043457D01*
X0043512Y0044897D01*
X0043540Y0044841D01*
Y0044730D01*
X0043512Y0044674D01*
X0043457Y0044619D01*
X0043401D01*
X0043130D02*
X0042908D01*
X0043130Y0044841D01*
Y0044897D01*
X0043102Y0044952D01*
X0042935D01*
X0042908Y0044897D01*
X0044106Y0043926D02*
Y0043927D01*
X0044107D01*
Y0043926D01*
X0044106D01*
X0044107Y0044127D02*
Y0044327D01*
X0043780Y0043927D02*
Y0044127D01*
X0043747Y0044193D01*
X0043547D01*
Y0043927D02*
Y0044327D01*
X0043320Y0044193D02*
X0043120D01*
X0043353Y0043927D02*
X0043220D01*
X0043187Y0043993D01*
Y0044327D01*
X0042927Y0043927D02*
Y0044127D01*
X0042893Y0044193D01*
X0042693D01*
Y0043927D01*
X0042267D02*
X0042233Y0043993D01*
Y0044127D01*
X0042267Y0044193D01*
X0042467D01*
X0042500Y0044127D01*
Y0043993D01*
X0042467Y0043927D01*
X0042267D01*
X0041907D02*
Y0044127D01*
X0042040Y0043927D02*
Y0044127D01*
X0042007Y0044193D01*
X0041940D01*
X0041907Y0044127D01*
X0041873Y0044193D01*
X0041807D01*
X0041773Y0044127D01*
Y0043927D01*
X0040937Y0044193D02*
X0040737D01*
X0040970Y0043927D02*
X0040837D01*
X0040803Y0043993D01*
Y0044327D01*
X0040510Y0044193D02*
X0040310D01*
X0040277Y0044127D01*
X0040310Y0044060D01*
X0040510D01*
X0040543Y0043993D01*
X0040510Y0043927D01*
X0040310D01*
X0040083D02*
X0039950D01*
X0040017D02*
Y0044327D01*
X0039950Y0044260D01*
X0038880Y0044193D02*
X0039013D01*
X0039047Y0044127D01*
Y0043993D01*
X0039080Y0043927D01*
X0038847D01*
X0038813Y0043993D01*
X0038847Y0044060D01*
X0039047D01*
X0038620Y0043927D02*
Y0044127D01*
X0038587Y0044193D01*
X0038387D01*
Y0043927D01*
X0038126Y0044326D02*
Y0044327D01*
X0038127D01*
Y0044326D01*
X0038126D01*
X0038193Y0043927D02*
X0038060D01*
X0038127D02*
Y0044193D01*
X0038060D01*
X0037833D02*
X0037700D01*
X0037667Y0044127D01*
X0037600D01*
Y0044193D02*
Y0043927D01*
X0037373D02*
X0037173D01*
X0037140Y0043993D01*
Y0044127D01*
X0037173Y0044193D01*
X0037373D01*
X0037407Y0044127D01*
Y0044060D01*
X0037140D01*
X0036913Y0044193D02*
X0036713D01*
X0036947Y0043927D02*
X0036813D01*
X0036780Y0043993D01*
Y0044327D01*
X0036320Y0044193D02*
X0036453D01*
X0036487Y0044127D01*
Y0043993D01*
X0036520Y0043927D01*
X0036287D01*
X0036253Y0043993D01*
X0036287Y0044060D01*
X0036487D01*
X0036060Y0043927D02*
X0035860Y0044127D01*
X0036060Y0044327D01*
X0035793D02*
Y0043927D01*
X0025770Y0048750D02*
X0025760Y0048740D01*
X0040240Y0048160D02*
Y0048840D01*
X0029724Y0065827D02*
X0029600Y0065702D01*
Y0064640D01*
X0029440Y0067520D02*
Y0066111D01*
X0029724Y0065827D01*
X0026320Y0062600D02*
X0026480Y0062760D01*
Y0064640D01*
X0044000Y0057250D02*
Y0057240D01*
G54D36*
G01X0029724Y0043149D02*
X0029754Y0043120D01*
X0030240D01*
Y0043600D01*
X0032240Y0045600D01*
Y0050160D01*
X0031120Y0051280D01*
Y0064640D01*
X0032480Y0057680D02*
Y0052000D01*
X0033071Y0043149D02*
X0033440Y0043519D01*
Y0047520D01*
Y0050800D01*
X0032464Y0051776D01*
Y0065814D01*
X0033071Y0043149D02*
X0033440Y0043519D01*
Y0047520D01*
X0032480Y0062720D02*
Y0058640D01*
X0033071Y0043149D02*
X0033440Y0043519D01*
Y0047520D01*
X0032480Y0057680D02*
Y0058160D01*
Y0058640D01*
Y0062720D02*
Y0063200D01*
Y0063680D01*
G54D37*
G01X0026960Y0044720D02*
Y0045200D01*
X0040240Y0045280D02*
Y0048160D01*
X0030520Y0048760D02*
X0030960D01*
X0032480Y0052000D02*
X0033750D01*
X0019600Y0052560D02*
X0020620D01*
X0020880Y0052820D01*
X0032480Y0063680D02*
X0032699Y0065830D01*
X0039764Y0043149D02*
X0039734Y0043120D01*
X0035360D01*
Y0045040D01*
Y0045800D01*
X0032699Y0065830D02*
X0032480Y0063680D01*
X0019600Y0045960D02*
X0020200D01*
X0020480Y0046240D01*
Y0047280D01*
X0027800Y0044720D02*
Y0045400D01*
X0035360Y0045800D02*
Y0045040D01*
X0039360D01*
Y0045800D01*
X0030960Y0048760D02*
Y0047800D01*
X0033071Y0065827D02*
X0033084Y0065840D01*
X0033920D01*
G54D38*
G01X0020880Y0054080D02*
X0019600D01*
X0024100Y0048800D02*
X0023520D01*
X0021760Y0050800D02*
Y0051440D01*
Y0050800D02*
Y0051440D01*
Y0053600D01*
X0021280Y0054080D01*
X0020880D01*
X0027920Y0052240D02*
Y0051680D01*
X0019600Y0048400D02*
Y0046800D01*
Y0048400D02*
X0020400D01*
X0020800Y0048800D01*
X0021760D01*
X0019600Y0053240D02*
Y0052560D01*
Y0049700D01*
X0021760Y0049800D02*
X0019700D01*
X0019600Y0049700D01*
Y0052560D01*
X0027520Y0053160D02*
X0028080D01*
X0023560Y0047920D02*
X0024080D01*
G54D39*
G01X0023723Y0040580D02*
X0023812D01*
X0023767D02*
Y0040313D01*
X0023812Y0040358D01*
X0024154Y0040580D02*
Y0040313D01*
X0024176Y0040580D02*
X0024043D01*
X0023998Y0040536D01*
Y0040491D01*
X0024021Y0040447D01*
X0024154D02*
X0024021D01*
X0023998Y0040402D01*
Y0040358D01*
X0024043Y0040313D01*
X0024176D01*
G54D10*
X0042880Y0067520D03*
X0044258D03*
X0039520D03*
X0040898D03*
X0036320D03*
X0037698D03*
X0032800D03*
X0034178D03*
X0029440D03*
X0030818D03*
X0026160D03*
X0027538D03*
X0022800D03*
X0024178D03*
X0019440D03*
X0020818D03*
X0032800Y0041360D03*
X0034178D03*
X0042800Y0041440D03*
X0044178D03*
X0039440D03*
X0040818D03*
X0036000Y0041360D03*
X0037378D03*
X0029520D03*
X0030898D03*
X0026160D03*
X0027538D03*
X0019440D03*
X0020818D03*
X0024178D03*
X0022800D03*
G54D11*
X0030960Y0049600D03*
Y0048760D03*
X0028080Y0052320D03*
Y0053160D03*
X0030960Y0046960D03*
Y0047800D03*
X0023520Y0048800D03*
Y0047960D03*
X0019600Y0054080D03*
Y0053240D03*
Y0046800D03*
Y0045960D03*
G54D12*
X0040400Y0062480D03*
Y0063780D03*
X0044000Y0061840D03*
Y0063140D03*
X0038960Y0061840D03*
Y0063140D03*
X0037840Y0061840D03*
Y0063140D03*
X0034160Y0061840D03*
Y0063140D03*
X0035280Y0061840D03*
Y0063140D03*
X0019600Y0048400D03*
Y0049700D03*
G54D13*
X0020880Y0054080D03*
Y0052820D03*
G54D14*
X0026960Y0044720D03*
X0027800D03*
G54D15*
X0021840Y0060480D03*
Y0061270D03*
X0027360Y0057680D03*
Y0058470D03*
Y0061760D03*
Y0062550D03*
X0021840Y0055920D03*
Y0056710D03*
G54D16*
X0043110Y0039370D03*
X0043897D03*
X0043110Y0043149D03*
X0043897D03*
X0039764Y0039370D03*
X0040551D03*
X0039764Y0043149D03*
X0040551D03*
X0036417Y0039370D03*
X0037205D03*
X0036417Y0043149D03*
X0037205D03*
X0033071Y0039370D03*
X0033858D03*
X0033071Y0043149D03*
X0033858D03*
X0029724Y0039370D03*
X0030512D03*
X0029724Y0043149D03*
X0030512D03*
X0026378Y0039370D03*
X0027165D03*
X0026378Y0043149D03*
X0027165D03*
X0023031Y0039370D03*
X0023819D03*
X0023031Y0043149D03*
X0023819D03*
X0019685Y0039370D03*
X0020472D03*
X0019685Y0043149D03*
X0020472D03*
X0019685Y0065827D03*
X0020472D03*
X0019685Y0069606D03*
X0020472D03*
X0043110Y0065827D03*
X0043897D03*
X0043110Y0069606D03*
X0043897D03*
X0039764Y0065827D03*
X0040551D03*
X0039764Y0069606D03*
X0040551D03*
X0036417Y0065827D03*
X0037205D03*
X0036417Y0069606D03*
X0037205D03*
X0033071Y0065827D03*
X0033858D03*
X0033071Y0069606D03*
X0033858D03*
X0029724Y0065827D03*
X0030512D03*
X0029724Y0069606D03*
X0030512D03*
X0026378Y0065827D03*
X0027165D03*
X0026378Y0069606D03*
X0027165D03*
X0023031Y0065827D03*
X0023819D03*
X0023031Y0069606D03*
X0023819D03*
X0039360Y0045800D03*
X0038360Y0046800D03*
Y0045800D03*
X0037360Y0046800D03*
Y0045800D03*
X0036360Y0046800D03*
Y0045800D03*
X0035360Y0046800D03*
Y0045800D03*
G54D17*
X0039360Y0046800D03*
G54D18*
X0042047Y0062854D03*
Y0046122D03*
X0021535Y0062854D03*
Y0046122D03*
G54D19*
X0043000Y0055000D03*
Y0052000D03*
X0044000D03*
X0043000Y0060240D03*
Y0057240D03*
X0044000D03*
X0039000Y0060240D03*
Y0057240D03*
X0040000D03*
X0035000Y0055000D03*
Y0052000D03*
X0036000D03*
X0035000Y0060240D03*
Y0057240D03*
X0036000D03*
X0039000Y0055000D03*
Y0052000D03*
X0040000D03*
X0033680Y0057240D03*
X0041750Y0052000D03*
X0041680Y0057240D03*
X0037750Y0052000D03*
X0037680Y0057240D03*
X0033750Y0052000D03*
G54D20*
X0044000Y0055000D03*
Y0060240D03*
X0040000D03*
X0036000Y0055000D03*
Y0060240D03*
X0040000Y0055000D03*
X0033680Y0060240D03*
X0041750Y0055000D03*
X0041680Y0060240D03*
X0037750Y0055000D03*
X0037680Y0060240D03*
X0033750Y0055000D03*
G54D21*
X0021760Y0049800D03*
Y0050800D03*
X0029600Y0057640D03*
Y0058640D03*
Y0062680D03*
Y0063680D03*
X0023680Y0057640D03*
Y0058640D03*
Y0062680D03*
Y0063680D03*
G54D22*
X0021760Y0048800D03*
X0029600Y0056640D03*
Y0061680D03*
X0023680Y0056640D03*
Y0061680D03*
G54D23*
X0027360Y0056480D03*
Y0055640D03*
X0027280Y0059680D03*
Y0060520D03*
X0022480Y0054800D03*
Y0053960D03*
X0021840Y0058480D03*
Y0059320D03*
X0023760Y0054240D03*
Y0053400D03*
X0024720Y0054240D03*
Y0053400D03*
X0025680Y0054240D03*
Y0053400D03*
X0026720Y0054240D03*
Y0053400D03*
X0023600Y0050560D03*
Y0051400D03*
X0026320Y0057680D03*
Y0058520D03*
Y0061760D03*
Y0062600D03*
X0020800Y0055920D03*
Y0056760D03*
Y0060480D03*
Y0061320D03*
X0043840Y0049680D03*
Y0048840D03*
X0042960Y0049680D03*
Y0048840D03*
X0040240Y0049680D03*
Y0048840D03*
X0039360Y0049680D03*
Y0048840D03*
X0036000Y0049680D03*
Y0048840D03*
X0036880Y0049680D03*
Y0048840D03*
G54D24*
X0025690Y0046160D03*
X0026005D03*
X0026320D03*
X0026635D03*
X0026950D03*
X0027265D03*
X0027580D03*
X0027895D03*
X0028525D03*
X0028840D03*
Y0050690D03*
X0028525D03*
X0028210D03*
X0027895D03*
X0027580D03*
X0027265D03*
X0026635D03*
X0026320D03*
X0026005D03*
X0025690D03*
G54D25*
X0028210Y0046160D03*
X0026950Y0050690D03*
G54D26*
X0025000Y0049685D03*
Y0049370D03*
Y0049055D03*
Y0048740D03*
Y0048425D03*
Y0048110D03*
Y0047795D03*
Y0047480D03*
Y0046850D03*
X0029530D03*
Y0047165D03*
Y0047480D03*
Y0047795D03*
Y0048110D03*
Y0048425D03*
Y0048740D03*
Y0049370D03*
Y0049685D03*
Y0050000D03*
G54D27*
X0025000D03*
Y0047165D03*
X0029530Y0049055D03*
G54D28*
X0032480Y0058160D03*
X0027440Y0049360D03*
X0036880Y0048160D03*
X0042960D03*
X0027680Y0049120D03*
X0031120Y0064640D03*
X0025760Y0048210D03*
X0030160Y0064640D03*
X0032480Y0058640D03*
X0026160Y0049440D03*
X0040400Y0064640D03*
X0025600Y0057600D03*
X0039360Y0050480D03*
X0019600Y0057600D03*
X0020160D03*
X0019600Y0058240D03*
X0021840Y0057600D03*
X0035280Y0064640D03*
X0038960D03*
X0044000D03*
X0029600D03*
X0032480Y0063680D03*
Y0062720D03*
Y0057680D03*
Y0063200D03*
X0029520Y0058640D03*
X0028000Y0049120D03*
G54D33*
X0036000Y0048160D03*
X0039360D03*
X0040240D03*
X0043840D03*
X0040240Y0045280D03*
X0026480Y0064640D03*
X0020480Y0064590D03*
Y0047280D03*
X0028560Y0048320D03*
X0027840Y0047040D03*
X0037280Y0053920D03*
X0028160Y0057600D03*
X0033440Y0047520D03*
X0041040Y0054000D03*
X0029600Y0050720D03*
X0042960Y0050480D03*
X0029600Y0052000D03*
Y0052640D03*
X0030400Y0050240D03*
X0028080Y0055760D03*
X0023760Y0055440D03*
X0024720Y0054960D03*
X0030320D03*
X0037760Y0048960D03*
X0028560Y0049840D03*
X0022720Y0048080D03*
X0040000Y0050480D03*
X0030160Y0051360D03*
X0029600Y0046000D03*
X0034240Y0046400D03*
X0042400Y0056000D03*
X0044000D03*
X0029520Y0044480D03*
X0029440Y0045440D03*
X0034240D03*
X0025120Y0057600D03*
X0030160Y0046160D03*
M02*
