*
G04 Mass Parameters ***
*
G04 Image ***
*
%INC:\MYWORKS\HOMELIGHTING\02_HW\HOMELIGHTING.DRD*%
%ICAS*%
%MOIN*%
%IPPOS*%
%ASAXBY*%
G74*%FSLAN2X34Y34*%
*
G04 Aperture Definitions ***
*
%ADD10C,0.0600*%
%ADD11R,0.0700X0.0500*%
%ADD12R,0.0600X0.0600*%
%ADD13R,0.0480X0.0860*%
%ADD14R,0.0500X0.0700*%
%ADD15R,0.0760X0.0480*%
%ADD16C,0.0620*%
%ADD17R,0.0620X0.0620*%
%ADD18C,0.1200*%
%ADD19C,0.0580*%
%ADD20R,0.0580X0.0580*%
%ADD21C,0.0750*%
%ADD22R,0.0750X0.0750*%
%ADD23R,0.0500X0.0500*%
%ADD24O,0.0180X0.0700*%
%ADD25R,0.0180X0.0700*%
%ADD26O,0.0700X0.0180*%
%ADD27R,0.0700X0.0180*%
%ADD28C,0.0400*%
%ADD29C,0.0260*%
%ADD30C,0.0010*%
%ADD31C,0.0120*%
%ADD32C,0.0180*%
%ADD33C,0.0400*%
%ADD34C,0.0600*%
%ADD35C,0.0080*%
%ADD36C,0.0800*%
%ADD37C,0.0320*%
%ADD38C,0.0400*%
%ADD39C,0.0060*%
%ADD40R,0.0750X0.0550*%
%ADD41R,0.0550X0.0750*%
%ADD42C,0.0670*%
%ADD43R,0.0670X0.0670*%
%ADD44C,0.1250*%
%ADD45R,0.0720X0.0720*%
%ADD46C,0.0420*%
%ADD47C,0.0420*%
%ADD48C,0.0100*%
%ADD49C,0.0079*%
*
G04 Plot Data ***
*
G54D48*
G01X0069792Y0083583D02*
X0069875Y0083417D01*
X0070375D01*
X0070458Y0083583D01*
Y0083917D01*
X0070292Y0084083D01*
X0069792D01*
Y0084417D01*
X0070458D01*
X0069508Y0083417D02*
X0068842D01*
X0069508Y0084083D01*
Y0084250D01*
X0069425Y0084417D01*
X0068925D01*
X0068842Y0084250D01*
X0068558Y0083417D02*
X0067892D01*
X0068558Y0084083D01*
Y0084250D01*
X0068475Y0084417D01*
X0067975D01*
X0067892Y0084250D01*
X0058062Y0083417D02*
X0057479D01*
Y0084417D01*
X0057196Y0083750D02*
X0056529D01*
X0057196Y0083417D02*
Y0083917D01*
X0056946Y0084417D01*
X0056779D01*
X0056529Y0083917D01*
Y0083417D01*
X0055912D02*
Y0084417D01*
X0056246D02*
X0055579D01*
X0054712Y0083417D02*
X0054629Y0083583D01*
Y0084250D01*
X0054712Y0084417D01*
X0055212D01*
X0055296Y0084250D01*
Y0083583D01*
X0055212Y0083417D01*
X0054712D01*
X0054012D02*
Y0084417D01*
X0054346D02*
X0053679D01*
X0070458Y0085500D02*
X0070014D01*
X0070236Y0085944D01*
X0070347D01*
Y0085278D01*
X0056564D02*
X0056453Y0085389D01*
X0056397Y0085500D01*
Y0085722D01*
X0056453Y0085833D01*
X0056564Y0085944D01*
X0056675D01*
X0056786Y0085833D01*
X0056842Y0085722D01*
Y0085500D01*
X0056786Y0085389D01*
X0056675Y0085278D01*
X0056564D01*
X0055864D02*
X0055753Y0085389D01*
X0055697Y0085500D01*
Y0085722D01*
X0055753Y0085833D01*
X0055864Y0085944D01*
X0055975D01*
X0056086Y0085833D01*
X0056142Y0085722D01*
Y0085500D01*
X0056086Y0085389D01*
X0055975Y0085278D01*
X0055864D01*
X0055442D02*
X0055219D01*
X0055330D02*
Y0085944D01*
X0055219Y0085833D01*
X0054742Y0085278D02*
X0054853D01*
Y0085389D01*
X0054742D01*
Y0085278D01*
X0054097D02*
X0053986Y0085389D01*
X0053931Y0085500D01*
Y0085722D01*
X0053986Y0085833D01*
X0054097Y0085944D01*
X0054208D01*
X0054319Y0085833D01*
X0054375Y0085722D01*
Y0085500D01*
X0054319Y0085389D01*
X0054208Y0085278D01*
X0054097D01*
X0070014Y0086889D02*
X0070069Y0086778D01*
X0070403D01*
X0070458Y0086889D01*
Y0087111D01*
X0070347Y0087222D01*
X0070014D01*
Y0087444D01*
X0070458D01*
X0069758Y0086778D02*
X0069536D01*
X0069647D02*
Y0087444D01*
X0069536Y0087333D01*
X0056842Y0087000D02*
X0056397D01*
X0056619Y0087444D01*
X0056730D01*
Y0086778D01*
X0055697Y0086889D02*
X0055753Y0086778D01*
X0056086D01*
X0056142Y0086889D01*
Y0087111D01*
X0056030Y0087222D01*
X0055697D01*
Y0087444D01*
X0056142D01*
X0055164Y0086778D02*
X0055053Y0086889D01*
X0054997Y0087000D01*
Y0087222D01*
X0055053Y0087333D01*
X0055164Y0087444D01*
X0055275D01*
X0055386Y0087333D01*
X0055442Y0087222D01*
Y0087000D01*
X0055386Y0086889D01*
X0055275Y0086778D01*
X0055164D01*
X0054631D02*
X0054742D01*
Y0086889D01*
X0054631D01*
Y0086778D01*
X0053986D02*
X0053875Y0086889D01*
X0053819Y0087000D01*
Y0087222D01*
X0053875Y0087333D01*
X0053986Y0087444D01*
X0054097D01*
X0054208Y0087333D01*
X0054264Y0087222D01*
Y0087000D01*
X0054208Y0086889D01*
X0054097Y0086778D01*
X0053986D01*
X0070180Y0088278D02*
X0070069Y0088389D01*
X0070014Y0088500D01*
Y0088722D01*
X0070069Y0088833D01*
X0070180Y0088944D01*
X0070292D01*
X0070403Y0088833D01*
X0070458Y0088722D01*
Y0088500D01*
X0070403Y0088389D01*
X0070292Y0088278D01*
X0070180D01*
X0069758D02*
X0069536D01*
X0069647D02*
Y0088944D01*
X0069536Y0088833D01*
X0056564Y0088278D02*
X0056453Y0088389D01*
X0056397Y0088500D01*
Y0088722D01*
X0056453Y0088833D01*
X0056564Y0088944D01*
X0056675D01*
X0056786Y0088833D01*
X0056842Y0088722D01*
Y0088500D01*
X0056786Y0088389D01*
X0056675Y0088278D01*
X0056564D01*
X0056142Y0088500D02*
X0055697D01*
X0055919Y0088944D01*
X0056030D01*
Y0088278D01*
X0055164D02*
X0055053Y0088389D01*
X0054997Y0088500D01*
Y0088722D01*
X0055053Y0088833D01*
X0055164Y0088944D01*
X0055275D01*
X0055386Y0088833D01*
X0055442Y0088722D01*
Y0088500D01*
X0055386Y0088389D01*
X0055275Y0088278D01*
X0055164D01*
X0054631D02*
X0054742D01*
Y0088389D01*
X0054631D01*
Y0088278D01*
X0053986D02*
X0053875Y0088389D01*
X0053819Y0088500D01*
Y0088722D01*
X0053875Y0088833D01*
X0053986Y0088944D01*
X0054097D01*
X0054208Y0088833D01*
X0054264Y0088722D01*
Y0088500D01*
X0054208Y0088389D01*
X0054097Y0088278D01*
X0053986D01*
X0070458Y0090000D02*
X0070014D01*
X0070236Y0090444D01*
X0070347D01*
Y0089778D01*
X0069369Y0090111D02*
X0069703D01*
X0069758Y0090000D01*
Y0089889D01*
X0069703Y0089778D01*
X0069369D01*
X0069314Y0089889D01*
Y0090000D01*
X0069536Y0090444D01*
X0056786Y0090111D02*
X0056842Y0090222D01*
Y0090333D01*
X0056786Y0090444D01*
X0056453D01*
X0056397Y0090333D01*
Y0090222D01*
X0056453Y0090111D01*
X0056786D01*
X0056842Y0090000D01*
Y0089889D01*
X0056786Y0089778D01*
X0056453D01*
X0056397Y0089889D01*
Y0090000D01*
X0056453Y0090111D01*
X0055697Y0089889D02*
X0055808Y0089778D01*
X0056030D01*
X0056142Y0089889D01*
Y0090000D01*
X0055919Y0090222D01*
X0056142Y0090444D01*
X0055697D01*
X0055164Y0089778D02*
X0055053Y0089889D01*
X0054997Y0090000D01*
Y0090222D01*
X0055053Y0090333D01*
X0055164Y0090444D01*
X0055275D01*
X0055386Y0090333D01*
X0055442Y0090222D01*
Y0090000D01*
X0055386Y0089889D01*
X0055275Y0089778D01*
X0055164D01*
X0054631D02*
X0054742D01*
Y0089889D01*
X0054631D01*
Y0089778D01*
X0053986D02*
X0053875Y0089889D01*
X0053819Y0090000D01*
Y0090222D01*
X0053875Y0090333D01*
X0053986Y0090444D01*
X0054097D01*
X0054208Y0090333D01*
X0054264Y0090222D01*
Y0090000D01*
X0054208Y0089889D01*
X0054097Y0089778D01*
X0053986D01*
X0070458Y0091278D02*
X0070014D01*
X0070458Y0091722D01*
Y0091833D01*
X0070403Y0091944D01*
X0070069D01*
X0070014Y0091833D01*
X0069314Y0091389D02*
X0069425Y0091278D01*
X0069647D01*
X0069758Y0091389D01*
Y0091500D01*
X0069536Y0091722D01*
X0069758Y0091944D01*
X0069314D01*
X0056453Y0091611D02*
X0056786D01*
X0056842Y0091500D01*
Y0091389D01*
X0056786Y0091278D01*
X0056453D01*
X0056397Y0091389D01*
Y0091500D01*
X0056619Y0091944D01*
X0055697Y0091389D02*
X0055808Y0091278D01*
X0056030D01*
X0056142Y0091389D01*
Y0091500D01*
X0055919Y0091722D01*
X0056142Y0091944D01*
X0055697D01*
X0055164Y0091278D02*
X0055053Y0091389D01*
X0054997Y0091500D01*
Y0091722D01*
X0055053Y0091833D01*
X0055164Y0091944D01*
X0055275D01*
X0055386Y0091833D01*
X0055442Y0091722D01*
Y0091500D01*
X0055386Y0091389D01*
X0055275Y0091278D01*
X0055164D01*
X0054631D02*
X0054742D01*
Y0091389D01*
X0054631D01*
Y0091278D01*
X0053986D02*
X0053875Y0091389D01*
X0053819Y0091500D01*
Y0091722D01*
X0053875Y0091833D01*
X0053986Y0091944D01*
X0054097D01*
X0054208Y0091833D01*
X0054264Y0091722D01*
Y0091500D01*
X0054208Y0091389D01*
X0054097Y0091278D01*
X0053986D01*
X0070069Y0093111D02*
X0070403D01*
X0070458Y0093000D01*
Y0092889D01*
X0070403Y0092778D01*
X0070069D01*
X0070014Y0092889D01*
Y0093000D01*
X0070236Y0093444D01*
X0069314Y0092889D02*
X0069425Y0092778D01*
X0069647D01*
X0069758Y0092889D01*
Y0093000D01*
X0069536Y0093222D01*
X0069758Y0093444D01*
X0069314D01*
X0056842Y0093000D02*
X0056397D01*
X0056619Y0093444D01*
X0056730D01*
Y0092778D01*
X0055697Y0092889D02*
X0055808Y0092778D01*
X0056030D01*
X0056142Y0092889D01*
Y0093000D01*
X0055919Y0093222D01*
X0056142Y0093444D01*
X0055697D01*
X0055164Y0092778D02*
X0055053Y0092889D01*
X0054997Y0093000D01*
Y0093222D01*
X0055053Y0093333D01*
X0055164Y0093444D01*
X0055275D01*
X0055386Y0093333D01*
X0055442Y0093222D01*
Y0093000D01*
X0055386Y0092889D01*
X0055275Y0092778D01*
X0055164D01*
X0054631D02*
X0054742D01*
Y0092889D01*
X0054631D01*
Y0092778D01*
X0053986D02*
X0053875Y0092889D01*
X0053819Y0093000D01*
Y0093222D01*
X0053875Y0093333D01*
X0053986Y0093444D01*
X0054097D01*
X0054208Y0093333D01*
X0054264Y0093222D01*
Y0093000D01*
X0054208Y0092889D01*
X0054097Y0092778D01*
X0053986D01*
X0070458Y0094500D02*
X0070014D01*
X0070236Y0094944D01*
X0070347D01*
Y0094278D01*
X0069369Y0094611D02*
X0069703D01*
X0069758Y0094500D01*
Y0094389D01*
X0069703Y0094278D01*
X0069369D01*
X0069314Y0094389D01*
Y0094500D01*
X0069536Y0094944D01*
X0056842Y0094500D02*
X0056397D01*
X0056619Y0094944D01*
X0056730D01*
Y0094278D01*
X0056142D02*
X0055697D01*
X0056142Y0094722D01*
Y0094833D01*
X0056086Y0094944D01*
X0055753D01*
X0055697Y0094833D01*
X0055164Y0094278D02*
X0055053Y0094389D01*
X0054997Y0094500D01*
Y0094722D01*
X0055053Y0094833D01*
X0055164Y0094944D01*
X0055275D01*
X0055386Y0094833D01*
X0055442Y0094722D01*
Y0094500D01*
X0055386Y0094389D01*
X0055275Y0094278D01*
X0055164D01*
X0054631D02*
X0054742D01*
Y0094389D01*
X0054631D01*
Y0094278D01*
X0053986D02*
X0053875Y0094389D01*
X0053819Y0094500D01*
Y0094722D01*
X0053875Y0094833D01*
X0053986Y0094944D01*
X0054097D01*
X0054208Y0094833D01*
X0054264Y0094722D01*
Y0094500D01*
X0054208Y0094389D01*
X0054097Y0094278D01*
X0053986D01*
X0078862Y0096417D02*
X0078362D01*
X0079029Y0095917D02*
X0078362D01*
Y0096917D01*
X0079029D01*
X0077746Y0095917D02*
Y0096917D01*
X0078079D02*
X0077412D01*
X0076546Y0095917D02*
X0076462Y0096083D01*
Y0096750D01*
X0076546Y0096917D01*
X0077046D01*
X0077129Y0096750D01*
Y0096083D01*
X0077046Y0095917D01*
X0076546D01*
X0076179Y0096917D02*
Y0095917D01*
X0076012Y0096083D01*
X0075679Y0096750D01*
X0075512Y0096917D01*
Y0095917D01*
X0069675D02*
Y0096417D01*
X0070008Y0096917D02*
X0069758Y0096417D01*
X0069592D01*
X0069342Y0096917D01*
X0068725Y0095917D02*
Y0096917D01*
X0069058D02*
X0068392D01*
X0067775Y0096250D02*
X0068108Y0095917D01*
X0067442Y0096083D02*
X0067525Y0095917D01*
X0067858D01*
X0067942Y0096083D01*
X0068108Y0096250D01*
Y0096750D01*
X0068025Y0096917D01*
X0067525D01*
X0067442Y0096750D01*
Y0096083D01*
X0063158Y0095917D02*
X0062575D01*
Y0096917D01*
X0061708Y0095917D02*
X0061625Y0096083D01*
Y0096750D01*
X0061708Y0096917D01*
X0062208D01*
X0062292Y0096750D01*
Y0096083D01*
X0062208Y0095917D01*
X0061708D01*
X0061008D02*
Y0096917D01*
X0061342D02*
X0060675D01*
X0055337Y0095917D02*
Y0096917D01*
X0055171Y0096750D01*
X0055004Y0096417D01*
X0054837Y0096750D01*
X0054671Y0096917D01*
Y0095917D01*
X0054387Y0096250D02*
X0053721D01*
X0054387Y0095917D02*
Y0096417D01*
X0054137Y0096917D01*
X0053971D01*
X0053721Y0096417D01*
Y0095917D01*
X0053437D02*
X0053104D01*
X0053271D02*
Y0096917D01*
X0053437D02*
X0053104D01*
X0052071Y0095917D02*
Y0096917D01*
X0051987Y0095917D02*
X0052487D01*
X0052654Y0096250D01*
Y0096583D01*
X0052487Y0096917D01*
X0051987D01*
X0048900Y0095917D02*
Y0096917D01*
X0048733Y0096750D01*
X0048567Y0096417D01*
X0048400Y0096750D01*
X0048233Y0096917D01*
Y0095917D01*
X0047617D02*
Y0096417D01*
X0047950Y0096917D02*
X0047700Y0096417D01*
X0047533D01*
X0047283Y0096917D01*
X0047000Y0096750D02*
X0046917Y0096917D01*
X0046417D01*
X0046333Y0096750D01*
Y0096583D01*
X0046417Y0096417D01*
X0046917D01*
X0047000Y0096250D01*
Y0096083D01*
X0046917Y0095917D01*
X0046417D01*
X0046333Y0096083D01*
X0069187Y0097917D02*
Y0098917D01*
X0069521D02*
X0068854D01*
X0068321Y0098417D02*
X0068571Y0097917D01*
X0067904Y0098417D02*
X0068404D01*
X0068571Y0098583D01*
Y0098750D01*
X0068404Y0098917D01*
X0067904D01*
Y0097917D01*
X0067621Y0098250D02*
X0066954D01*
X0067621Y0097917D02*
Y0098417D01*
X0067371Y0098917D01*
X0067204D01*
X0066954Y0098417D01*
Y0097917D01*
X0066671Y0098417D02*
X0066004D01*
X0066671Y0097917D02*
Y0098917D01*
X0066004Y0097917D02*
Y0098917D01*
X0065721Y0098083D02*
X0065637Y0097917D01*
X0065137D01*
X0065054Y0098083D01*
Y0098750D01*
X0065137Y0098917D01*
X0065637D01*
X0065721Y0098750D01*
X0063446Y0097917D02*
X0062862D01*
Y0098917D01*
X0062579Y0097917D02*
X0061996D01*
Y0098917D01*
X0061712Y0097917D02*
X0061379D01*
X0061546D02*
Y0098917D01*
X0061712D02*
X0061379D01*
X0060679Y0098417D02*
X0060929Y0097917D01*
X0060262Y0098417D02*
X0060762D01*
X0060929Y0098583D01*
Y0098750D01*
X0060762Y0098917D01*
X0060262D01*
Y0097917D01*
X0059396D02*
Y0098917D01*
X0059312Y0097917D02*
X0059812D01*
X0059979Y0098250D01*
Y0098583D01*
X0059812Y0098917D01*
X0059312D01*
X0035750Y0048410D02*
Y0048160D01*
X0036000Y0048410D02*
X0035750D01*
X0036000Y0047910D02*
Y0048410D01*
X0036250Y0047910D02*
X0036000D01*
X0036250Y0048160D02*
Y0047910D01*
X0035750Y0048160D02*
X0036250D01*
X0039110Y0048410D02*
Y0048160D01*
X0039360Y0048410D02*
X0039110D01*
X0039360Y0047910D02*
Y0048410D01*
X0039610Y0047910D02*
X0039360D01*
X0039610Y0048160D02*
Y0047910D01*
X0039110Y0048160D02*
X0039610D01*
X0039990Y0048410D02*
Y0048160D01*
X0040240Y0048410D02*
X0039990D01*
X0040240Y0047910D02*
Y0048410D01*
X0040490Y0047910D02*
X0040240D01*
X0040490Y0048160D02*
Y0047910D01*
X0039990Y0048160D02*
X0040490D01*
X0043590Y0048410D02*
Y0048160D01*
X0043840Y0048410D02*
X0043590D01*
X0043840Y0047910D02*
Y0048410D01*
X0044090Y0047910D02*
X0043840D01*
X0044090Y0048160D02*
Y0047910D01*
X0043590Y0048160D02*
X0044090D01*
X0039990Y0045530D02*
Y0045280D01*
X0040240Y0045530D02*
X0039990D01*
X0040240Y0045030D02*
Y0045530D01*
X0040490Y0045030D02*
X0040240D01*
X0040490Y0045280D02*
Y0045030D01*
X0039990Y0045280D02*
X0040490D01*
X0026230Y0064890D02*
Y0064640D01*
X0026480Y0064890D02*
X0026230D01*
X0026480Y0064390D02*
Y0064890D01*
X0026730Y0064390D02*
X0026480D01*
X0026730Y0064640D02*
Y0064390D01*
X0026230Y0064640D02*
X0026730D01*
X0020230Y0064840D02*
Y0064590D01*
X0020480Y0064840D02*
X0020230D01*
X0020480Y0064340D02*
Y0064840D01*
X0020730Y0064340D02*
X0020480D01*
X0020730Y0064590D02*
Y0064340D01*
X0020230Y0064590D02*
X0020730D01*
X0020230Y0047530D02*
Y0047280D01*
X0020480Y0047530D02*
X0020230D01*
X0020480Y0047030D02*
Y0047530D01*
X0020730Y0047030D02*
X0020480D01*
X0020730Y0047280D02*
Y0047030D01*
X0020230Y0047280D02*
X0020730D01*
X0033190Y0047770D02*
Y0047520D01*
X0033440Y0047770D02*
X0033190D01*
X0033440Y0047270D02*
Y0047770D01*
X0033690Y0047270D02*
X0033440D01*
X0033690Y0047520D02*
Y0047270D01*
X0033190Y0047520D02*
X0033690D01*
X0028310Y0048570D02*
Y0048320D01*
X0028560Y0048570D02*
X0028310D01*
X0028560Y0048070D02*
Y0048570D01*
X0028810Y0048070D02*
X0028560D01*
X0028810Y0048320D02*
Y0048070D01*
X0028310Y0048320D02*
X0028810D01*
X0028310Y0048570D02*
Y0048320D01*
X0028560Y0048570D02*
X0028310D01*
X0028560Y0048070D02*
Y0048570D01*
X0028810Y0048070D02*
X0028560D01*
X0028810Y0048320D02*
Y0048070D01*
X0028310Y0048320D02*
X0028810D01*
X0027590Y0047290D02*
Y0047040D01*
X0027840Y0047290D02*
X0027590D01*
X0027840Y0046790D02*
Y0047290D01*
X0028090Y0046790D02*
X0027840D01*
X0028090Y0047040D02*
Y0046790D01*
X0027590Y0047040D02*
X0028090D01*
X0027590Y0047290D02*
Y0047040D01*
X0027840Y0047290D02*
X0027590D01*
X0027840Y0046790D02*
Y0047290D01*
X0028090Y0046790D02*
X0027840D01*
X0028090Y0047040D02*
Y0046790D01*
X0027590Y0047040D02*
X0028090D01*
X0037030Y0054170D02*
Y0053920D01*
X0037280Y0054170D02*
X0037030D01*
X0037280Y0053670D02*
Y0054170D01*
X0037530Y0053670D02*
X0037280D01*
X0037530Y0053920D02*
Y0053670D01*
X0037030Y0053920D02*
X0037530D01*
X0027910Y0057850D02*
Y0057600D01*
X0028160Y0057850D02*
X0027910D01*
X0028160Y0057350D02*
Y0057850D01*
X0028410Y0057350D02*
X0028160D01*
X0028410Y0057600D02*
Y0057350D01*
X0027910Y0057600D02*
X0028410D01*
X0033190Y0047770D02*
Y0047520D01*
X0033440Y0047770D02*
X0033190D01*
X0033440Y0047270D02*
Y0047770D01*
X0033690Y0047270D02*
X0033440D01*
X0033690Y0047520D02*
Y0047270D01*
X0033190Y0047520D02*
X0033690D01*
X0040790Y0054250D02*
Y0054000D01*
X0041040Y0054250D02*
X0040790D01*
X0041040Y0053750D02*
Y0054250D01*
X0041290Y0053750D02*
X0041040D01*
X0041290Y0054000D02*
Y0053750D01*
X0040790Y0054000D02*
X0041290D01*
X0029350Y0050970D02*
Y0050720D01*
X0029600Y0050970D02*
X0029350D01*
X0029600Y0050470D02*
Y0050970D01*
X0029850Y0050470D02*
X0029600D01*
X0029850Y0050720D02*
Y0050470D01*
X0029350Y0050720D02*
X0029850D01*
X0042710Y0050730D02*
Y0050480D01*
X0042960Y0050730D02*
X0042710D01*
X0042960Y0050230D02*
Y0050730D01*
X0043210Y0050230D02*
X0042960D01*
X0043210Y0050480D02*
Y0050230D01*
X0042710Y0050480D02*
X0043210D01*
X0029350Y0052250D02*
Y0052000D01*
X0029600Y0052250D02*
X0029350D01*
X0029600Y0051750D02*
Y0052250D01*
X0029850Y0051750D02*
X0029600D01*
X0029850Y0052000D02*
Y0051750D01*
X0029350Y0052000D02*
X0029850D01*
X0029350Y0052890D02*
Y0052640D01*
X0029600Y0052890D02*
X0029350D01*
X0029600Y0052390D02*
Y0052890D01*
X0029850Y0052390D02*
X0029600D01*
X0029850Y0052640D02*
Y0052390D01*
X0029350Y0052640D02*
X0029850D01*
X0030150Y0050490D02*
Y0050240D01*
X0030400Y0050490D02*
X0030150D01*
X0030400Y0049990D02*
Y0050490D01*
X0030650Y0049990D02*
X0030400D01*
X0030650Y0050240D02*
Y0049990D01*
X0030150Y0050240D02*
X0030650D01*
X0027830Y0056010D02*
Y0055760D01*
X0028080Y0056010D02*
X0027830D01*
X0028080Y0055510D02*
Y0056010D01*
X0028330Y0055510D02*
X0028080D01*
X0028330Y0055760D02*
Y0055510D01*
X0027830Y0055760D02*
X0028330D01*
X0023510Y0055690D02*
Y0055440D01*
X0023760Y0055690D02*
X0023510D01*
X0023760Y0055190D02*
Y0055690D01*
X0024010Y0055190D02*
X0023760D01*
X0024010Y0055440D02*
Y0055190D01*
X0023510Y0055440D02*
X0024010D01*
X0024470Y0055210D02*
Y0054960D01*
X0024720Y0055210D02*
X0024470D01*
X0024720Y0054710D02*
Y0055210D01*
X0024970Y0054710D02*
X0024720D01*
X0024970Y0054960D02*
Y0054710D01*
X0024470Y0054960D02*
X0024970D01*
X0030070Y0055210D02*
Y0054960D01*
X0030320Y0055210D02*
X0030070D01*
X0030320Y0054710D02*
Y0055210D01*
X0030570Y0054710D02*
X0030320D01*
X0030570Y0054960D02*
Y0054710D01*
X0030070Y0054960D02*
X0030570D01*
X0037510Y0049210D02*
Y0048960D01*
X0037760Y0049210D02*
X0037510D01*
X0037760Y0048710D02*
Y0049210D01*
X0038010Y0048710D02*
X0037760D01*
X0038010Y0048960D02*
Y0048710D01*
X0037510Y0048960D02*
X0038010D01*
X0028310Y0050090D02*
Y0049840D01*
X0028560Y0050090D02*
X0028310D01*
X0028560Y0049590D02*
Y0050090D01*
X0028810Y0049590D02*
X0028560D01*
X0028810Y0049840D02*
Y0049590D01*
X0028310Y0049840D02*
X0028810D01*
X0022470Y0048330D02*
Y0048080D01*
X0022720Y0048330D02*
X0022470D01*
X0022720Y0047830D02*
Y0048330D01*
X0022970Y0047830D02*
X0022720D01*
X0022970Y0048080D02*
Y0047830D01*
X0022470Y0048080D02*
X0022970D01*
X0039750Y0050730D02*
Y0050480D01*
X0040000Y0050730D02*
X0039750D01*
X0040000Y0050230D02*
Y0050730D01*
X0040250Y0050230D02*
X0040000D01*
X0040250Y0050480D02*
Y0050230D01*
X0039750Y0050480D02*
X0040250D01*
X0029910Y0051610D02*
Y0051360D01*
X0030160Y0051610D02*
X0029910D01*
X0030160Y0051110D02*
Y0051610D01*
X0030410Y0051110D02*
X0030160D01*
X0030410Y0051360D02*
Y0051110D01*
X0029910Y0051360D02*
X0030410D01*
X0029350Y0046250D02*
Y0046000D01*
X0029600Y0046250D02*
X0029350D01*
X0029600Y0045750D02*
Y0046250D01*
X0029850Y0045750D02*
X0029600D01*
X0029850Y0046000D02*
Y0045750D01*
X0029350Y0046000D02*
X0029850D01*
X0033990Y0046650D02*
Y0046400D01*
X0034240Y0046650D02*
X0033990D01*
X0034240Y0046150D02*
Y0046650D01*
X0034490Y0046150D02*
X0034240D01*
X0034490Y0046400D02*
Y0046150D01*
X0033990Y0046400D02*
X0034490D01*
X0042150Y0056250D02*
Y0056000D01*
X0042400Y0056250D02*
X0042150D01*
X0042400Y0055750D02*
Y0056250D01*
X0042650Y0055750D02*
X0042400D01*
X0042650Y0056000D02*
Y0055750D01*
X0042150Y0056000D02*
X0042650D01*
X0043750Y0056250D02*
Y0056000D01*
X0044000Y0056250D02*
X0043750D01*
X0044000Y0055750D02*
Y0056250D01*
X0044250Y0055750D02*
X0044000D01*
X0044250Y0056000D02*
Y0055750D01*
X0043750Y0056000D02*
X0044250D01*
X0029270Y0044730D02*
Y0044480D01*
X0029520Y0044730D02*
X0029270D01*
X0029520Y0044230D02*
Y0044730D01*
X0029770Y0044230D02*
X0029520D01*
X0029770Y0044480D02*
Y0044230D01*
X0029270Y0044480D02*
X0029770D01*
X0029190Y0045690D02*
Y0045440D01*
X0029440Y0045690D02*
X0029190D01*
X0029440Y0045190D02*
Y0045690D01*
X0029690Y0045190D02*
X0029440D01*
X0029690Y0045440D02*
Y0045190D01*
X0029190Y0045440D02*
X0029690D01*
X0033990Y0045690D02*
Y0045440D01*
X0034240Y0045690D02*
X0033990D01*
X0034240Y0045190D02*
Y0045690D01*
X0034490Y0045190D02*
X0034240D01*
X0034490Y0045440D02*
Y0045190D01*
X0033990Y0045440D02*
X0034490D01*
X0024870Y0057850D02*
Y0057600D01*
X0025120Y0057850D02*
X0024870D01*
X0025120Y0057350D02*
Y0057850D01*
X0025370Y0057350D02*
X0025120D01*
X0025370Y0057600D02*
Y0057350D01*
X0024870Y0057600D02*
X0025370D01*
X0029910Y0046410D02*
Y0046160D01*
X0030160Y0046410D02*
X0029910D01*
X0030160Y0045910D02*
Y0046410D01*
X0030410Y0045910D02*
X0030160D01*
X0030410Y0046160D02*
Y0045910D01*
X0029910Y0046160D02*
X0030410D01*
X0047325Y0085750D02*
Y0085500D01*
X0047575Y0085750D02*
X0047325D01*
X0047575Y0085250D02*
Y0085750D01*
X0047825Y0085250D02*
X0047575D01*
X0047825Y0085500D02*
Y0085250D01*
X0047325Y0085500D02*
X0047825D01*
X0047325Y0087250D02*
Y0086750D01*
X0047825Y0087250D02*
X0047325D01*
X0047825Y0086750D02*
Y0087250D01*
X0047325Y0086750D02*
X0047825D01*
Y0087000D02*
X0047325D01*
X0047575Y0087250D02*
Y0086750D01*
X0047325Y0088750D02*
Y0088250D01*
X0047825Y0088750D02*
X0047325D01*
X0047825Y0088250D02*
Y0088750D01*
X0047325Y0088250D02*
X0047825D01*
Y0088750D02*
X0047325Y0088250D01*
X0047825D02*
X0047325Y0088750D01*
X0047575Y0090250D02*
X0047325Y0090000D01*
X0047825D02*
X0047575Y0090250D01*
Y0089750D02*
X0047825Y0090000D01*
X0047325D02*
X0047575Y0089750D01*
X0047825Y0091500D02*
X0047325D01*
X0047575Y0091750D02*
Y0091250D01*
X0047825Y0093250D02*
X0047325Y0092750D01*
X0047825D02*
X0047325Y0093250D01*
Y0094750D02*
Y0094500D01*
X0047575Y0094750D02*
X0047325D01*
X0047575Y0094250D02*
Y0094750D01*
X0047825Y0094250D02*
X0047575D01*
X0047825Y0094500D02*
Y0094250D01*
X0047325Y0094500D02*
X0047825D01*
X0083050Y0082700D02*
X0045700D01*
X0083000Y0082750D02*
X0045750D01*
X0083000Y0084750D02*
X0045750D01*
X0083000Y0086250D02*
X0045750D01*
X0083000Y0087750D02*
X0045750D01*
X0083000Y0089250D02*
X0045750D01*
X0083000Y0090750D02*
X0045750D01*
X0083000Y0092250D02*
X0045750D01*
X0083000Y0093750D02*
X0045750D01*
X0083000Y0095250D02*
X0045750D01*
X0083000Y0095300D02*
X0045750D01*
X0083000Y0097250D02*
X0045750D01*
X0083000Y0097300D02*
X0045750D01*
X0083000Y0099250D02*
X0045750D01*
X0083050Y0099300D02*
X0045700D01*
X0083050Y0082750D02*
Y0099250D01*
X0083000Y0082750D02*
Y0099250D01*
X0071458Y0082750D02*
Y0097250D01*
X0065908Y0082750D02*
Y0097250D01*
X0057842Y0084750D02*
Y0097250D01*
X0049450Y0084750D02*
Y0097250D01*
X0049400Y0084750D02*
Y0097250D01*
X0045700Y0082750D02*
Y0099250D01*
X0045750Y0082750D02*
Y0099250D01*
X0032230Y0058410D02*
Y0058160D01*
X0032480Y0058410D02*
X0032230D01*
X0032480Y0057910D02*
Y0058410D01*
X0032730Y0057910D02*
X0032480D01*
X0032730Y0058160D02*
Y0057910D01*
X0032230Y0058160D02*
X0032730D01*
X0027190Y0049610D02*
Y0049360D01*
X0027440Y0049610D02*
X0027190D01*
X0027440Y0049110D02*
Y0049610D01*
X0027690Y0049110D02*
X0027440D01*
X0027690Y0049360D02*
Y0049110D01*
X0027190Y0049360D02*
X0027690D01*
X0036630Y0048410D02*
Y0048160D01*
X0036880Y0048410D02*
X0036630D01*
X0036880Y0047910D02*
Y0048410D01*
X0037130Y0047910D02*
X0036880D01*
X0037130Y0048160D02*
Y0047910D01*
X0036630Y0048160D02*
X0037130D01*
X0042710Y0048410D02*
Y0048160D01*
X0042960Y0048410D02*
X0042710D01*
X0042960Y0047910D02*
Y0048410D01*
X0043210Y0047910D02*
X0042960D01*
X0043210Y0048160D02*
Y0047910D01*
X0042710Y0048160D02*
X0043210D01*
X0027430Y0049370D02*
Y0049120D01*
X0027680Y0049370D02*
X0027430D01*
X0027680Y0048870D02*
Y0049370D01*
X0027930Y0048870D02*
X0027680D01*
X0027930Y0049120D02*
Y0048870D01*
X0027430Y0049120D02*
X0027930D01*
X0030870Y0064890D02*
Y0064640D01*
X0031120Y0064890D02*
X0030870D01*
X0031120Y0064390D02*
Y0064890D01*
X0031370Y0064390D02*
X0031120D01*
X0031370Y0064640D02*
Y0064390D01*
X0030870Y0064640D02*
X0031370D01*
X0025510Y0048460D02*
Y0048210D01*
X0025760Y0048460D02*
X0025510D01*
X0025760Y0047960D02*
Y0048460D01*
X0026010Y0047960D02*
X0025760D01*
X0026010Y0048210D02*
Y0047960D01*
X0025510Y0048210D02*
X0026010D01*
X0029910Y0064890D02*
Y0064640D01*
X0030160Y0064890D02*
X0029910D01*
X0030160Y0064390D02*
Y0064890D01*
X0030410Y0064390D02*
X0030160D01*
X0030410Y0064640D02*
Y0064390D01*
X0029910Y0064640D02*
X0030410D01*
X0032230Y0058890D02*
Y0058640D01*
X0032480Y0058890D02*
X0032230D01*
X0032480Y0058390D02*
Y0058890D01*
X0032730Y0058390D02*
X0032480D01*
X0032730Y0058640D02*
Y0058390D01*
X0032230Y0058640D02*
X0032730D01*
X0025910Y0049690D02*
Y0049440D01*
X0026160Y0049690D02*
X0025910D01*
X0026160Y0049190D02*
Y0049690D01*
X0026410Y0049190D02*
X0026160D01*
X0026410Y0049440D02*
Y0049190D01*
X0025910Y0049440D02*
X0026410D01*
X0040150Y0064890D02*
Y0064640D01*
X0040400Y0064890D02*
X0040150D01*
X0040400Y0064390D02*
Y0064890D01*
X0040650Y0064390D02*
X0040400D01*
X0040650Y0064640D02*
Y0064390D01*
X0040150Y0064640D02*
X0040650D01*
X0025350Y0057850D02*
Y0057600D01*
X0025600Y0057850D02*
X0025350D01*
X0025600Y0057350D02*
Y0057850D01*
X0025850Y0057350D02*
X0025600D01*
X0025850Y0057600D02*
Y0057350D01*
X0025350Y0057600D02*
X0025850D01*
X0039110Y0050730D02*
Y0050480D01*
X0039360Y0050730D02*
X0039110D01*
X0039360Y0050230D02*
Y0050730D01*
X0039610Y0050230D02*
X0039360D01*
X0039610Y0050480D02*
Y0050230D01*
X0039110Y0050480D02*
X0039610D01*
X0019350Y0057850D02*
Y0057600D01*
X0019600Y0057850D02*
X0019350D01*
X0019600Y0057350D02*
Y0057850D01*
X0019850Y0057350D02*
X0019600D01*
X0019850Y0057600D02*
Y0057350D01*
X0019350Y0057600D02*
X0019850D01*
X0019910Y0057850D02*
Y0057600D01*
X0020160Y0057850D02*
X0019910D01*
X0020160Y0057350D02*
Y0057850D01*
X0020410Y0057350D02*
X0020160D01*
X0020410Y0057600D02*
Y0057350D01*
X0019910Y0057600D02*
X0020410D01*
X0019350Y0058490D02*
Y0058240D01*
X0019600Y0058490D02*
X0019350D01*
X0019600Y0057990D02*
Y0058490D01*
X0019850Y0057990D02*
X0019600D01*
X0019850Y0058240D02*
Y0057990D01*
X0019350Y0058240D02*
X0019850D01*
X0021590Y0057850D02*
Y0057600D01*
X0021840Y0057850D02*
X0021590D01*
X0021840Y0057350D02*
Y0057850D01*
X0022090Y0057350D02*
X0021840D01*
X0022090Y0057600D02*
Y0057350D01*
X0021590Y0057600D02*
X0022090D01*
X0035030Y0064890D02*
Y0064640D01*
X0035280Y0064890D02*
X0035030D01*
X0035280Y0064390D02*
Y0064890D01*
X0035530Y0064390D02*
X0035280D01*
X0035530Y0064640D02*
Y0064390D01*
X0035030Y0064640D02*
X0035530D01*
X0038710Y0064890D02*
Y0064640D01*
X0038960Y0064890D02*
X0038710D01*
X0038960Y0064390D02*
Y0064890D01*
X0039210Y0064390D02*
X0038960D01*
X0039210Y0064640D02*
Y0064390D01*
X0038710Y0064640D02*
X0039210D01*
X0043750Y0064890D02*
Y0064640D01*
X0044000Y0064890D02*
X0043750D01*
X0044000Y0064390D02*
Y0064890D01*
X0044250Y0064390D02*
X0044000D01*
X0044250Y0064640D02*
Y0064390D01*
X0043750Y0064640D02*
X0044250D01*
X0029350Y0064890D02*
Y0064640D01*
X0029600Y0064890D02*
X0029350D01*
X0029600Y0064390D02*
Y0064890D01*
X0029850Y0064390D02*
X0029600D01*
X0029850Y0064640D02*
Y0064390D01*
X0029350Y0064640D02*
X0029850D01*
X0032230Y0063930D02*
Y0063680D01*
X0032480Y0063930D02*
X0032230D01*
X0032480Y0063430D02*
Y0063930D01*
X0032730Y0063430D02*
X0032480D01*
X0032730Y0063680D02*
Y0063430D01*
X0032230Y0063680D02*
X0032730D01*
X0032230Y0062970D02*
Y0062720D01*
X0032480Y0062970D02*
X0032230D01*
X0032480Y0062470D02*
Y0062970D01*
X0032730Y0062470D02*
X0032480D01*
X0032730Y0062720D02*
Y0062470D01*
X0032230Y0062720D02*
X0032730D01*
X0032230Y0057930D02*
Y0057680D01*
X0032480Y0057930D02*
X0032230D01*
X0032480Y0057430D02*
Y0057930D01*
X0032730Y0057430D02*
X0032480D01*
X0032730Y0057680D02*
Y0057430D01*
X0032230Y0057680D02*
X0032730D01*
X0032230Y0063450D02*
Y0063200D01*
X0032480Y0063450D02*
X0032230D01*
X0032480Y0062950D02*
Y0063450D01*
X0032730Y0062950D02*
X0032480D01*
X0032730Y0063200D02*
Y0062950D01*
X0032230Y0063200D02*
X0032730D01*
X0029270Y0058890D02*
Y0058640D01*
X0029520Y0058890D02*
X0029270D01*
X0029520Y0058390D02*
Y0058890D01*
X0029770Y0058390D02*
X0029520D01*
X0029770Y0058640D02*
Y0058390D01*
X0029270Y0058640D02*
X0029770D01*
X0027750Y0049370D02*
Y0049120D01*
X0028000Y0049370D02*
X0027750D01*
X0028000Y0048870D02*
Y0049370D01*
X0028250Y0048870D02*
X0028000D01*
X0028250Y0049120D02*
Y0048870D01*
X0027750Y0049120D02*
X0028250D01*
X0044250Y0055250D02*
X0043750Y0054750D01*
X0044250D02*
X0043750Y0055250D01*
X0043250D02*
X0042750Y0054750D01*
X0043250D02*
X0042750Y0055250D01*
X0043250Y0052250D02*
X0042750Y0051750D01*
X0043250D02*
X0042750Y0052250D01*
X0044250D02*
X0043750Y0051750D01*
X0044250D02*
X0043750Y0052250D01*
X0044250Y0060490D02*
X0043750Y0059990D01*
X0044250D02*
X0043750Y0060490D01*
X0043250D02*
X0042750Y0059990D01*
X0043250D02*
X0042750Y0060490D01*
X0043250Y0057490D02*
X0042750Y0056990D01*
X0043250D02*
X0042750Y0057490D01*
X0044250D02*
X0043750Y0056990D01*
X0044250D02*
X0043750Y0057490D01*
X0040250Y0060490D02*
X0039750Y0059990D01*
X0040250D02*
X0039750Y0060490D01*
X0039250D02*
X0038750Y0059990D01*
X0039250D02*
X0038750Y0060490D01*
X0039250Y0057490D02*
X0038750Y0056990D01*
X0039250D02*
X0038750Y0057490D01*
X0040250D02*
X0039750Y0056990D01*
X0040250D02*
X0039750Y0057490D01*
X0036250Y0055250D02*
X0035750Y0054750D01*
X0036250D02*
X0035750Y0055250D01*
X0035250D02*
X0034750Y0054750D01*
X0035250D02*
X0034750Y0055250D01*
X0035250Y0052250D02*
X0034750Y0051750D01*
X0035250D02*
X0034750Y0052250D01*
X0036250D02*
X0035750Y0051750D01*
X0036250D02*
X0035750Y0052250D01*
X0036250Y0060490D02*
X0035750Y0059990D01*
X0036250D02*
X0035750Y0060490D01*
X0035250D02*
X0034750Y0059990D01*
X0035250D02*
X0034750Y0060490D01*
X0035250Y0057490D02*
X0034750Y0056990D01*
X0035250D02*
X0034750Y0057490D01*
X0036250D02*
X0035750Y0056990D01*
X0036250D02*
X0035750Y0057490D01*
X0021510Y0049050D02*
Y0048550D01*
X0022010Y0049050D02*
X0021510D01*
X0022010Y0048550D02*
Y0049050D01*
X0021510Y0048550D02*
X0022010D01*
Y0048800D02*
X0021510D01*
X0021760Y0049050D02*
Y0048550D01*
X0021510Y0050050D02*
Y0049550D01*
X0022010Y0050050D02*
X0021510D01*
X0022010Y0049550D02*
Y0050050D01*
X0021510Y0049550D02*
X0022010D01*
Y0049800D02*
X0021510D01*
X0021760Y0050050D02*
Y0049550D01*
X0021510Y0051050D02*
Y0050550D01*
X0022010Y0051050D02*
X0021510D01*
X0022010Y0050550D02*
Y0051050D01*
X0021510Y0050550D02*
X0022010D01*
Y0050800D02*
X0021510D01*
X0021760Y0051050D02*
Y0050550D01*
X0040250Y0055250D02*
X0039750Y0054750D01*
X0040250D02*
X0039750Y0055250D01*
X0039250D02*
X0038750Y0054750D01*
X0039250D02*
X0038750Y0055250D01*
X0039250Y0052250D02*
X0038750Y0051750D01*
X0039250D02*
X0038750Y0052250D01*
X0040250D02*
X0039750Y0051750D01*
X0040250D02*
X0039750Y0052250D01*
X0043130Y0067520D02*
X0042630D01*
X0042880Y0067770D02*
Y0067270D01*
X0044508Y0067520D02*
X0044008D01*
X0044258Y0067770D02*
Y0067270D01*
X0039770Y0067520D02*
X0039270D01*
X0039520Y0067770D02*
Y0067270D01*
X0041148Y0067520D02*
X0040648D01*
X0040898Y0067770D02*
Y0067270D01*
X0036570Y0067520D02*
X0036070D01*
X0036320Y0067770D02*
Y0067270D01*
X0037948Y0067520D02*
X0037448D01*
X0037698Y0067770D02*
Y0067270D01*
X0033050Y0067520D02*
X0032550D01*
X0032800Y0067770D02*
Y0067270D01*
X0034428Y0067520D02*
X0033928D01*
X0034178Y0067770D02*
Y0067270D01*
X0029690Y0067520D02*
X0029190D01*
X0029440Y0067770D02*
Y0067270D01*
X0031068Y0067520D02*
X0030568D01*
X0030818Y0067770D02*
Y0067270D01*
X0026410Y0067520D02*
X0025910D01*
X0026160Y0067770D02*
Y0067270D01*
X0027788Y0067520D02*
X0027288D01*
X0027538Y0067770D02*
Y0067270D01*
X0023050Y0067520D02*
X0022550D01*
X0022800Y0067770D02*
Y0067270D01*
X0024428Y0067520D02*
X0023928D01*
X0024178Y0067770D02*
Y0067270D01*
X0019690Y0067520D02*
X0019190D01*
X0019440Y0067770D02*
Y0067270D01*
X0021068Y0067520D02*
X0020568D01*
X0020818Y0067770D02*
Y0067270D01*
X0029350Y0056890D02*
Y0056390D01*
X0029850Y0056890D02*
X0029350D01*
X0029850Y0056390D02*
Y0056890D01*
X0029350Y0056390D02*
X0029850D01*
Y0056640D02*
X0029350D01*
X0029600Y0056890D02*
Y0056390D01*
X0029350Y0057890D02*
Y0057390D01*
X0029850Y0057890D02*
X0029350D01*
X0029850Y0057390D02*
Y0057890D01*
X0029350Y0057390D02*
X0029850D01*
Y0057640D02*
X0029350D01*
X0029600Y0057890D02*
Y0057390D01*
X0029350Y0058890D02*
Y0058390D01*
X0029850Y0058890D02*
X0029350D01*
X0029850Y0058390D02*
Y0058890D01*
X0029350Y0058390D02*
X0029850D01*
Y0058640D02*
X0029350D01*
X0029600Y0058890D02*
Y0058390D01*
X0029350Y0061930D02*
Y0061430D01*
X0029850Y0061930D02*
X0029350D01*
X0029850Y0061430D02*
Y0061930D01*
X0029350Y0061430D02*
X0029850D01*
Y0061680D02*
X0029350D01*
X0029600Y0061930D02*
Y0061430D01*
X0029350Y0062930D02*
Y0062430D01*
X0029850Y0062930D02*
X0029350D01*
X0029850Y0062430D02*
Y0062930D01*
X0029350Y0062430D02*
X0029850D01*
Y0062680D02*
X0029350D01*
X0029600Y0062930D02*
Y0062430D01*
X0029350Y0063930D02*
Y0063430D01*
X0029850Y0063930D02*
X0029350D01*
X0029850Y0063430D02*
Y0063930D01*
X0029350Y0063430D02*
X0029850D01*
Y0063680D02*
X0029350D01*
X0029600Y0063930D02*
Y0063430D01*
X0023430Y0056890D02*
Y0056390D01*
X0023930Y0056890D02*
X0023430D01*
X0023930Y0056390D02*
Y0056890D01*
X0023430Y0056390D02*
X0023930D01*
Y0056640D02*
X0023430D01*
X0023680Y0056890D02*
Y0056390D01*
X0023430Y0057890D02*
Y0057390D01*
X0023930Y0057890D02*
X0023430D01*
X0023930Y0057390D02*
Y0057890D01*
X0023430Y0057390D02*
X0023930D01*
Y0057640D02*
X0023430D01*
X0023680Y0057890D02*
Y0057390D01*
X0023430Y0058890D02*
Y0058390D01*
X0023930Y0058890D02*
X0023430D01*
X0023930Y0058390D02*
Y0058890D01*
X0023430Y0058390D02*
X0023930D01*
Y0058640D02*
X0023430D01*
X0023680Y0058890D02*
Y0058390D01*
X0023430Y0061930D02*
Y0061430D01*
X0023930Y0061930D02*
X0023430D01*
X0023930Y0061430D02*
Y0061930D01*
X0023430Y0061430D02*
X0023930D01*
Y0061680D02*
X0023430D01*
X0023680Y0061930D02*
Y0061430D01*
X0023430Y0062930D02*
Y0062430D01*
X0023930Y0062930D02*
X0023430D01*
X0023930Y0062430D02*
Y0062930D01*
X0023430Y0062430D02*
X0023930D01*
Y0062680D02*
X0023430D01*
X0023680Y0062930D02*
Y0062430D01*
X0023430Y0063930D02*
Y0063430D01*
X0023930Y0063930D02*
X0023430D01*
X0023930Y0063430D02*
Y0063930D01*
X0023430Y0063430D02*
X0023930D01*
Y0063680D02*
X0023430D01*
X0023680Y0063930D02*
Y0063430D01*
X0033930Y0060490D02*
X0033430Y0059990D01*
X0033930D02*
X0033430Y0060490D01*
X0033930Y0057490D02*
X0033430Y0056990D01*
X0033930D02*
X0033430Y0057490D01*
X0042000Y0055250D02*
X0041500Y0054750D01*
X0042000D02*
X0041500Y0055250D01*
X0042000Y0052250D02*
X0041500Y0051750D01*
X0042000D02*
X0041500Y0052250D01*
X0041930Y0060490D02*
X0041430Y0059990D01*
X0041930D02*
X0041430Y0060490D01*
X0041930Y0057490D02*
X0041430Y0056990D01*
X0041930D02*
X0041430Y0057490D01*
X0038000Y0055250D02*
X0037500Y0054750D01*
X0038000D02*
X0037500Y0055250D01*
X0038000Y0052250D02*
X0037500Y0051750D01*
X0038000D02*
X0037500Y0052250D01*
X0037930Y0060490D02*
X0037430Y0059990D01*
X0037930D02*
X0037430Y0060490D01*
X0037930Y0057490D02*
X0037430Y0056990D01*
X0037930D02*
X0037430Y0057490D01*
X0034000Y0055250D02*
X0033500Y0054750D01*
X0034000D02*
X0033500Y0055250D01*
X0034000Y0052250D02*
X0033500Y0051750D01*
X0034000D02*
X0033500Y0052250D01*
X0041797Y0063104D02*
Y0062854D01*
X0042047Y0063104D02*
X0041797D01*
X0042047Y0062604D02*
Y0063104D01*
X0042297Y0062604D02*
X0042047D01*
X0042297Y0062854D02*
Y0062604D01*
X0041797Y0062854D02*
X0042297D01*
X0041797Y0046372D02*
Y0046122D01*
X0042047Y0046372D02*
X0041797D01*
X0042047Y0045872D02*
Y0046372D01*
X0042297Y0045872D02*
X0042047D01*
X0042297Y0046122D02*
Y0045872D01*
X0041797Y0046122D02*
X0042297D01*
X0021285Y0063104D02*
Y0062854D01*
X0021535Y0063104D02*
X0021285D01*
X0021535Y0062604D02*
Y0063104D01*
X0021785Y0062604D02*
X0021535D01*
X0021785Y0062854D02*
Y0062604D01*
X0021285Y0062854D02*
X0021785D01*
X0021285Y0046372D02*
Y0046122D01*
X0021535Y0046372D02*
X0021285D01*
X0021535Y0045872D02*
Y0046372D01*
X0021785Y0045872D02*
X0021535D01*
X0021785Y0046122D02*
Y0045872D01*
X0021285Y0046122D02*
X0021785D01*
X0043110Y0039620D02*
X0042860Y0039370D01*
X0043360D02*
X0043110Y0039620D01*
Y0039120D02*
X0043360Y0039370D01*
X0042860D02*
X0043110Y0039120D01*
X0043897Y0039620D02*
X0043647Y0039370D01*
X0044147D02*
X0043897Y0039620D01*
Y0039120D02*
X0044147Y0039370D01*
X0043647D02*
X0043897Y0039120D01*
X0043110Y0043399D02*
X0042860Y0043149D01*
X0043360D02*
X0043110Y0043399D01*
Y0042899D02*
X0043360Y0043149D01*
X0042860D02*
X0043110Y0042899D01*
X0043897Y0043399D02*
X0043647Y0043149D01*
X0044147D02*
X0043897Y0043399D01*
Y0042899D02*
X0044147Y0043149D01*
X0043647D02*
X0043897Y0042899D01*
X0039764Y0039620D02*
X0039514Y0039370D01*
X0040014D02*
X0039764Y0039620D01*
Y0039120D02*
X0040014Y0039370D01*
X0039514D02*
X0039764Y0039120D01*
X0040551Y0039620D02*
X0040301Y0039370D01*
X0040801D02*
X0040551Y0039620D01*
Y0039120D02*
X0040801Y0039370D01*
X0040301D02*
X0040551Y0039120D01*
X0039764Y0043399D02*
X0039514Y0043149D01*
X0040014D02*
X0039764Y0043399D01*
Y0042899D02*
X0040014Y0043149D01*
X0039514D02*
X0039764Y0042899D01*
X0040551Y0043399D02*
X0040301Y0043149D01*
X0040801D02*
X0040551Y0043399D01*
Y0042899D02*
X0040801Y0043149D01*
X0040301D02*
X0040551Y0042899D01*
X0036417Y0039620D02*
X0036167Y0039370D01*
X0036667D02*
X0036417Y0039620D01*
Y0039120D02*
X0036667Y0039370D01*
X0036167D02*
X0036417Y0039120D01*
X0037205Y0039620D02*
X0036955Y0039370D01*
X0037455D02*
X0037205Y0039620D01*
Y0039120D02*
X0037455Y0039370D01*
X0036955D02*
X0037205Y0039120D01*
X0036417Y0043399D02*
X0036167Y0043149D01*
X0036667D02*
X0036417Y0043399D01*
Y0042899D02*
X0036667Y0043149D01*
X0036167D02*
X0036417Y0042899D01*
X0037205Y0043399D02*
X0036955Y0043149D01*
X0037455D02*
X0037205Y0043399D01*
Y0042899D02*
X0037455Y0043149D01*
X0036955D02*
X0037205Y0042899D01*
X0033071Y0039620D02*
X0032821Y0039370D01*
X0033321D02*
X0033071Y0039620D01*
Y0039120D02*
X0033321Y0039370D01*
X0032821D02*
X0033071Y0039120D01*
X0033858Y0039620D02*
X0033608Y0039370D01*
X0034108D02*
X0033858Y0039620D01*
Y0039120D02*
X0034108Y0039370D01*
X0033608D02*
X0033858Y0039120D01*
X0033071Y0043399D02*
X0032821Y0043149D01*
X0033321D02*
X0033071Y0043399D01*
Y0042899D02*
X0033321Y0043149D01*
X0032821D02*
X0033071Y0042899D01*
X0033858Y0043399D02*
X0033608Y0043149D01*
X0034108D02*
X0033858Y0043399D01*
Y0042899D02*
X0034108Y0043149D01*
X0033608D02*
X0033858Y0042899D01*
X0029724Y0039620D02*
X0029474Y0039370D01*
X0029974D02*
X0029724Y0039620D01*
Y0039120D02*
X0029974Y0039370D01*
X0029474D02*
X0029724Y0039120D01*
X0030512Y0039620D02*
X0030262Y0039370D01*
X0030762D02*
X0030512Y0039620D01*
Y0039120D02*
X0030762Y0039370D01*
X0030262D02*
X0030512Y0039120D01*
X0029724Y0043399D02*
X0029474Y0043149D01*
X0029974D02*
X0029724Y0043399D01*
Y0042899D02*
X0029974Y0043149D01*
X0029474D02*
X0029724Y0042899D01*
X0030512Y0043399D02*
X0030262Y0043149D01*
X0030762D02*
X0030512Y0043399D01*
Y0042899D02*
X0030762Y0043149D01*
X0030262D02*
X0030512Y0042899D01*
X0026378Y0039620D02*
X0026128Y0039370D01*
X0026628D02*
X0026378Y0039620D01*
Y0039120D02*
X0026628Y0039370D01*
X0026128D02*
X0026378Y0039120D01*
X0027165Y0039620D02*
X0026915Y0039370D01*
X0027415D02*
X0027165Y0039620D01*
Y0039120D02*
X0027415Y0039370D01*
X0026915D02*
X0027165Y0039120D01*
X0026378Y0043399D02*
X0026128Y0043149D01*
X0026628D02*
X0026378Y0043399D01*
Y0042899D02*
X0026628Y0043149D01*
X0026128D02*
X0026378Y0042899D01*
X0027165Y0043399D02*
X0026915Y0043149D01*
X0027415D02*
X0027165Y0043399D01*
Y0042899D02*
X0027415Y0043149D01*
X0026915D02*
X0027165Y0042899D01*
X0023031Y0039620D02*
X0022781Y0039370D01*
X0023281D02*
X0023031Y0039620D01*
Y0039120D02*
X0023281Y0039370D01*
X0022781D02*
X0023031Y0039120D01*
X0023819Y0039620D02*
X0023569Y0039370D01*
X0024069D02*
X0023819Y0039620D01*
Y0039120D02*
X0024069Y0039370D01*
X0023569D02*
X0023819Y0039120D01*
X0023031Y0043399D02*
X0022781Y0043149D01*
X0023281D02*
X0023031Y0043399D01*
Y0042899D02*
X0023281Y0043149D01*
X0022781D02*
X0023031Y0042899D01*
X0023819Y0043399D02*
X0023569Y0043149D01*
X0024069D02*
X0023819Y0043399D01*
Y0042899D02*
X0024069Y0043149D01*
X0023569D02*
X0023819Y0042899D01*
X0019685Y0039620D02*
X0019435Y0039370D01*
X0019935D02*
X0019685Y0039620D01*
Y0039120D02*
X0019935Y0039370D01*
X0019435D02*
X0019685Y0039120D01*
X0020472Y0039620D02*
X0020222Y0039370D01*
X0020722D02*
X0020472Y0039620D01*
Y0039120D02*
X0020722Y0039370D01*
X0020222D02*
X0020472Y0039120D01*
X0019685Y0043399D02*
X0019435Y0043149D01*
X0019935D02*
X0019685Y0043399D01*
Y0042899D02*
X0019935Y0043149D01*
X0019435D02*
X0019685Y0042899D01*
X0020472Y0043399D02*
X0020222Y0043149D01*
X0020722D02*
X0020472Y0043399D01*
Y0042899D02*
X0020722Y0043149D01*
X0020222D02*
X0020472Y0042899D01*
X0019685Y0066077D02*
X0019435Y0065827D01*
X0019935D02*
X0019685Y0066077D01*
Y0065577D02*
X0019935Y0065827D01*
X0019435D02*
X0019685Y0065577D01*
X0020472Y0066077D02*
X0020222Y0065827D01*
X0020722D02*
X0020472Y0066077D01*
Y0065577D02*
X0020722Y0065827D01*
X0020222D02*
X0020472Y0065577D01*
X0019685Y0069856D02*
X0019435Y0069606D01*
X0019935D02*
X0019685Y0069856D01*
Y0069356D02*
X0019935Y0069606D01*
X0019435D02*
X0019685Y0069356D01*
X0020472Y0069856D02*
X0020222Y0069606D01*
X0020722D02*
X0020472Y0069856D01*
Y0069356D02*
X0020722Y0069606D01*
X0020222D02*
X0020472Y0069356D01*
X0043110Y0066077D02*
X0042860Y0065827D01*
X0043360D02*
X0043110Y0066077D01*
Y0065577D02*
X0043360Y0065827D01*
X0042860D02*
X0043110Y0065577D01*
X0043897Y0066077D02*
X0043647Y0065827D01*
X0044147D02*
X0043897Y0066077D01*
Y0065577D02*
X0044147Y0065827D01*
X0043647D02*
X0043897Y0065577D01*
X0043110Y0069856D02*
X0042860Y0069606D01*
X0043360D02*
X0043110Y0069856D01*
Y0069356D02*
X0043360Y0069606D01*
X0042860D02*
X0043110Y0069356D01*
X0043897Y0069856D02*
X0043647Y0069606D01*
X0044147D02*
X0043897Y0069856D01*
Y0069356D02*
X0044147Y0069606D01*
X0043647D02*
X0043897Y0069356D01*
X0039764Y0066077D02*
X0039514Y0065827D01*
X0040014D02*
X0039764Y0066077D01*
Y0065577D02*
X0040014Y0065827D01*
X0039514D02*
X0039764Y0065577D01*
X0040551Y0066077D02*
X0040301Y0065827D01*
X0040801D02*
X0040551Y0066077D01*
Y0065577D02*
X0040801Y0065827D01*
X0040301D02*
X0040551Y0065577D01*
X0039764Y0069856D02*
X0039514Y0069606D01*
X0040014D02*
X0039764Y0069856D01*
Y0069356D02*
X0040014Y0069606D01*
X0039514D02*
X0039764Y0069356D01*
X0040551Y0069856D02*
X0040301Y0069606D01*
X0040801D02*
X0040551Y0069856D01*
Y0069356D02*
X0040801Y0069606D01*
X0040301D02*
X0040551Y0069356D01*
X0036417Y0066077D02*
X0036167Y0065827D01*
X0036667D02*
X0036417Y0066077D01*
Y0065577D02*
X0036667Y0065827D01*
X0036167D02*
X0036417Y0065577D01*
X0037205Y0066077D02*
X0036955Y0065827D01*
X0037455D02*
X0037205Y0066077D01*
Y0065577D02*
X0037455Y0065827D01*
X0036955D02*
X0037205Y0065577D01*
X0036417Y0069856D02*
X0036167Y0069606D01*
X0036667D02*
X0036417Y0069856D01*
Y0069356D02*
X0036667Y0069606D01*
X0036167D02*
X0036417Y0069356D01*
X0037205Y0069856D02*
X0036955Y0069606D01*
X0037455D02*
X0037205Y0069856D01*
Y0069356D02*
X0037455Y0069606D01*
X0036955D02*
X0037205Y0069356D01*
X0033071Y0066077D02*
X0032821Y0065827D01*
X0033321D02*
X0033071Y0066077D01*
Y0065577D02*
X0033321Y0065827D01*
X0032821D02*
X0033071Y0065577D01*
X0033858Y0066077D02*
X0033608Y0065827D01*
X0034108D02*
X0033858Y0066077D01*
Y0065577D02*
X0034108Y0065827D01*
X0033608D02*
X0033858Y0065577D01*
X0033071Y0069856D02*
X0032821Y0069606D01*
X0033321D02*
X0033071Y0069856D01*
Y0069356D02*
X0033321Y0069606D01*
X0032821D02*
X0033071Y0069356D01*
X0033858Y0069856D02*
X0033608Y0069606D01*
X0034108D02*
X0033858Y0069856D01*
Y0069356D02*
X0034108Y0069606D01*
X0033608D02*
X0033858Y0069356D01*
X0029724Y0066077D02*
X0029474Y0065827D01*
X0029974D02*
X0029724Y0066077D01*
Y0065577D02*
X0029974Y0065827D01*
X0029474D02*
X0029724Y0065577D01*
X0030512Y0066077D02*
X0030262Y0065827D01*
X0030762D02*
X0030512Y0066077D01*
Y0065577D02*
X0030762Y0065827D01*
X0030262D02*
X0030512Y0065577D01*
X0029724Y0069856D02*
X0029474Y0069606D01*
X0029974D02*
X0029724Y0069856D01*
Y0069356D02*
X0029974Y0069606D01*
X0029474D02*
X0029724Y0069356D01*
X0030512Y0069856D02*
X0030262Y0069606D01*
X0030762D02*
X0030512Y0069856D01*
Y0069356D02*
X0030762Y0069606D01*
X0030262D02*
X0030512Y0069356D01*
X0026378Y0066077D02*
X0026128Y0065827D01*
X0026628D02*
X0026378Y0066077D01*
Y0065577D02*
X0026628Y0065827D01*
X0026128D02*
X0026378Y0065577D01*
X0027165Y0066077D02*
X0026915Y0065827D01*
X0027415D02*
X0027165Y0066077D01*
Y0065577D02*
X0027415Y0065827D01*
X0026915D02*
X0027165Y0065577D01*
X0026378Y0069856D02*
X0026128Y0069606D01*
X0026628D02*
X0026378Y0069856D01*
Y0069356D02*
X0026628Y0069606D01*
X0026128D02*
X0026378Y0069356D01*
X0027165Y0069856D02*
X0026915Y0069606D01*
X0027415D02*
X0027165Y0069856D01*
Y0069356D02*
X0027415Y0069606D01*
X0026915D02*
X0027165Y0069356D01*
X0023031Y0066077D02*
X0022781Y0065827D01*
X0023281D02*
X0023031Y0066077D01*
Y0065577D02*
X0023281Y0065827D01*
X0022781D02*
X0023031Y0065577D01*
X0023819Y0066077D02*
X0023569Y0065827D01*
X0024069D02*
X0023819Y0066077D01*
Y0065577D02*
X0024069Y0065827D01*
X0023569D02*
X0023819Y0065577D01*
X0023031Y0069856D02*
X0022781Y0069606D01*
X0023281D02*
X0023031Y0069856D01*
Y0069356D02*
X0023281Y0069606D01*
X0022781D02*
X0023031Y0069356D01*
X0023819Y0069856D02*
X0023569Y0069606D01*
X0024069D02*
X0023819Y0069856D01*
Y0069356D02*
X0024069Y0069606D01*
X0023569D02*
X0023819Y0069356D01*
X0039110Y0047050D02*
Y0046550D01*
X0039610Y0047050D02*
X0039110D01*
X0039610Y0046550D02*
Y0047050D01*
X0039110Y0046550D02*
X0039610D01*
Y0047050D02*
X0039110Y0046550D01*
X0039610D02*
X0039110Y0047050D01*
Y0046050D02*
Y0045550D01*
X0039610Y0046050D02*
X0039110D01*
X0039610Y0045550D02*
Y0046050D01*
X0039110Y0045550D02*
X0039610D01*
Y0046050D02*
X0039110Y0045550D01*
X0039610D02*
X0039110Y0046050D01*
X0038110Y0047050D02*
Y0046550D01*
X0038610Y0047050D02*
X0038110D01*
X0038610Y0046550D02*
Y0047050D01*
X0038110Y0046550D02*
X0038610D01*
Y0047050D02*
X0038110Y0046550D01*
X0038610D02*
X0038110Y0047050D01*
Y0046050D02*
Y0045550D01*
X0038610Y0046050D02*
X0038110D01*
X0038610Y0045550D02*
Y0046050D01*
X0038110Y0045550D02*
X0038610D01*
Y0046050D02*
X0038110Y0045550D01*
X0038610D02*
X0038110Y0046050D01*
X0037110Y0047050D02*
Y0046550D01*
X0037610Y0047050D02*
X0037110D01*
X0037610Y0046550D02*
Y0047050D01*
X0037110Y0046550D02*
X0037610D01*
Y0047050D02*
X0037110Y0046550D01*
X0037610D02*
X0037110Y0047050D01*
Y0046050D02*
Y0045550D01*
X0037610Y0046050D02*
X0037110D01*
X0037610Y0045550D02*
Y0046050D01*
X0037110Y0045550D02*
X0037610D01*
Y0046050D02*
X0037110Y0045550D01*
X0037610D02*
X0037110Y0046050D01*
X0036110Y0047050D02*
Y0046550D01*
X0036610Y0047050D02*
X0036110D01*
X0036610Y0046550D02*
Y0047050D01*
X0036110Y0046550D02*
X0036610D01*
Y0047050D02*
X0036110Y0046550D01*
X0036610D02*
X0036110Y0047050D01*
Y0046050D02*
Y0045550D01*
X0036610Y0046050D02*
X0036110D01*
X0036610Y0045550D02*
Y0046050D01*
X0036110Y0045550D02*
X0036610D01*
Y0046050D02*
X0036110Y0045550D01*
X0036610D02*
X0036110Y0046050D01*
X0035110Y0047050D02*
Y0046550D01*
X0035610Y0047050D02*
X0035110D01*
X0035610Y0046550D02*
Y0047050D01*
X0035110Y0046550D02*
X0035610D01*
Y0047050D02*
X0035110Y0046550D01*
X0035610D02*
X0035110Y0047050D01*
Y0046050D02*
Y0045550D01*
X0035610Y0046050D02*
X0035110D01*
X0035610Y0045550D02*
Y0046050D01*
X0035110Y0045550D02*
X0035610D01*
Y0046050D02*
X0035110Y0045550D01*
X0035610D02*
X0035110Y0046050D01*
X0033050Y0041360D02*
X0032550D01*
X0032800Y0041610D02*
Y0041110D01*
X0034428Y0041360D02*
X0033928D01*
X0034178Y0041610D02*
Y0041110D01*
X0043050Y0041440D02*
X0042550D01*
X0042800Y0041690D02*
Y0041190D01*
X0044428Y0041440D02*
X0043928D01*
X0044178Y0041690D02*
Y0041190D01*
X0039690Y0041440D02*
X0039190D01*
X0039440Y0041690D02*
Y0041190D01*
X0041068Y0041440D02*
X0040568D01*
X0040818Y0041690D02*
Y0041190D01*
X0036250Y0041360D02*
X0035750D01*
X0036000Y0041610D02*
Y0041110D01*
X0037628Y0041360D02*
X0037128D01*
X0037378Y0041610D02*
Y0041110D01*
X0029770Y0041360D02*
X0029270D01*
X0029520Y0041610D02*
Y0041110D01*
X0031148Y0041360D02*
X0030648D01*
X0030898Y0041610D02*
Y0041110D01*
X0026410Y0041360D02*
X0025910D01*
X0026160Y0041610D02*
Y0041110D01*
X0027788Y0041360D02*
X0027288D01*
X0027538Y0041610D02*
Y0041110D01*
X0019690Y0041360D02*
X0019190D01*
X0019440Y0041610D02*
Y0041110D01*
X0021068Y0041360D02*
X0020568D01*
X0020818Y0041610D02*
Y0041110D01*
X0024428Y0041360D02*
X0023928D01*
X0024178Y0041610D02*
Y0041110D01*
X0023050Y0041360D02*
X0022550D01*
X0022800Y0041610D02*
Y0041110D01*
G54D49*
G01X0018880Y0038547D02*
X0044683D01*
Y0070446D01*
X0018880D01*
Y0038547D01*
M02*
