*
G04 Mass Parameters ***
*
G04 Image ***
*
%INC:\MYWORKS\HOMELIGHTING\02_HW\HOMELIGHTING.SST*%
%ICAS*%
%MOIN*%
%IPPOS*%
%ASAXBY*%
G74*%FSLAN2X34Y34*%
*
G04 Aperture Definitions ***
*
%ADD10C,0.0600*%
%ADD11R,0.0700X0.0500*%
%ADD12R,0.0600X0.0600*%
%ADD13R,0.0480X0.0860*%
%ADD14R,0.0500X0.0700*%
%ADD15R,0.0760X0.0480*%
%ADD16C,0.0620*%
%ADD17R,0.0620X0.0620*%
%ADD18C,0.1200*%
%ADD19C,0.0580*%
%ADD20R,0.0580X0.0580*%
%ADD21C,0.0750*%
%ADD22R,0.0750X0.0750*%
%ADD23R,0.0500X0.0500*%
%ADD24O,0.0180X0.0700*%
%ADD25R,0.0180X0.0700*%
%ADD26O,0.0700X0.0180*%
%ADD27R,0.0700X0.0180*%
%ADD28C,0.0400*%
%ADD29C,0.0260*%
%ADD30C,0.0010*%
%ADD31C,0.0120*%
%ADD32C,0.0180*%
%ADD33C,0.0400*%
%ADD34C,0.0600*%
%ADD35C,0.0080*%
%ADD36C,0.0800*%
%ADD37C,0.0320*%
%ADD38C,0.0400*%
%ADD39C,0.0060*%
%ADD40R,0.0750X0.0550*%
%ADD41R,0.0550X0.0750*%
%ADD42C,0.0670*%
%ADD43R,0.0670X0.0670*%
%ADD44C,0.1250*%
%ADD45R,0.0720X0.0720*%
%ADD46C,0.0420*%
%ADD47C,0.0420*%
%ADD48C,0.0100*%
*
G04 Plot Data ***
*
G54D30*
G01X0032112Y0067461D02*
Y0066891D01*
X0034865D01*
Y0068149D01*
X0032112D01*
Y0067441D01*
X0042192Y0067461D02*
Y0066891D01*
X0044945D01*
Y0068149D01*
X0042192D01*
Y0067441D01*
X0038752Y0041381D02*
Y0040811D01*
X0041505D01*
Y0042069D01*
X0038752D01*
Y0041361D01*
X0018752Y0041301D02*
Y0040731D01*
X0021505D01*
Y0041989D01*
X0018752D01*
Y0041281D01*
X0032112Y0041301D02*
Y0040731D01*
X0034865D01*
Y0041989D01*
X0032112D01*
Y0041281D01*
X0022112Y0067461D02*
Y0066891D01*
X0024865D01*
Y0068149D01*
X0022112D01*
Y0067441D01*
X0018752Y0067461D02*
Y0066891D01*
X0021505D01*
Y0068149D01*
X0018752D01*
Y0067441D01*
X0035632Y0067461D02*
Y0066891D01*
X0038385D01*
Y0068149D01*
X0035632D01*
Y0067441D01*
X0028752Y0067461D02*
Y0066891D01*
X0031505D01*
Y0068149D01*
X0028752D01*
Y0067441D01*
X0042112Y0041381D02*
Y0040811D01*
X0044865D01*
Y0042069D01*
X0042112D01*
Y0041361D01*
X0028832Y0041301D02*
Y0040731D01*
X0031585D01*
Y0041989D01*
X0028832D01*
Y0041281D01*
X0025472Y0067461D02*
Y0066891D01*
X0028225D01*
Y0068149D01*
X0025472D01*
Y0067441D01*
X0038832Y0067461D02*
Y0066891D01*
X0041585D01*
Y0068149D01*
X0038832D01*
Y0067441D01*
X0025472Y0041301D02*
Y0040731D01*
X0028225D01*
Y0041989D01*
X0025472D01*
Y0041281D01*
X0024866Y0041419D02*
Y0041989D01*
X0022113D01*
Y0040731D01*
X0024866D01*
Y0041439D01*
X0035312Y0041301D02*
Y0040731D01*
X0038065D01*
Y0041989D01*
X0035312D01*
Y0041281D01*
G54D35*
G01X0040500Y0057740D02*
X0038500D01*
Y0059690D01*
X0040500D01*
Y0057740D01*
X0040000Y0059240D02*
X0040500D01*
Y0059690D01*
X0040000D01*
Y0059240D01*
X0022530Y0055540D02*
Y0059740D01*
X0024780D01*
Y0055540D01*
X0022530D01*
X0023080Y0059740D02*
Y0055540D01*
X0022530Y0060580D02*
Y0064780D01*
X0024780D01*
Y0060580D01*
X0022530D01*
X0023080Y0064780D02*
Y0060580D01*
X0034450Y0052500D02*
Y0054450D01*
X0033050D01*
Y0052500D01*
X0034450D01*
X0042380Y0057740D02*
Y0059690D01*
X0040980D01*
Y0057740D01*
X0042380D01*
X0020610Y0047700D02*
Y0051900D01*
X0022860D01*
Y0047700D01*
X0020610D01*
X0021160Y0051900D02*
Y0047700D01*
X0034380Y0057740D02*
Y0059690D01*
X0032980D01*
Y0057740D01*
X0034380D01*
X0038450Y0052500D02*
Y0054450D01*
X0037050D01*
Y0052500D01*
X0038450D01*
X0036500Y0057740D02*
X0034500D01*
Y0059690D01*
X0036500D01*
Y0057740D01*
X0036000Y0059240D02*
X0036500D01*
Y0059690D01*
X0036000D01*
Y0059240D01*
X0044500Y0052500D02*
X0042500D01*
Y0054450D01*
X0044500D01*
Y0052500D01*
X0044000Y0054000D02*
X0044500D01*
Y0054450D01*
X0044000D01*
Y0054000D01*
X0038380Y0057740D02*
Y0059690D01*
X0036980D01*
Y0057740D01*
X0038380D01*
X0028450Y0055540D02*
Y0059740D01*
X0030700D01*
Y0055540D01*
X0028450D01*
X0029000Y0059740D02*
Y0055540D01*
X0044500Y0057740D02*
X0042500D01*
Y0059690D01*
X0044500D01*
Y0057740D01*
X0044000Y0059240D02*
X0044500D01*
Y0059690D01*
X0044000D01*
Y0059240D01*
X0028450Y0060580D02*
Y0064780D01*
X0030700D01*
Y0060580D01*
X0028450D01*
X0029000Y0064780D02*
Y0060580D01*
X0036500Y0052500D02*
X0034500D01*
Y0054450D01*
X0036500D01*
Y0052500D01*
X0036000Y0054000D02*
X0036500D01*
Y0054450D01*
X0036000D01*
Y0054000D01*
X0040500Y0052500D02*
X0038500D01*
Y0054450D01*
X0040500D01*
Y0052500D01*
X0040000Y0054000D02*
X0040500D01*
Y0054450D01*
X0040000D01*
Y0054000D01*
X0042450Y0052500D02*
Y0054450D01*
X0041050D01*
Y0052500D01*
X0042450D01*
G54D39*
G01X0040851Y0050459D02*
X0040874Y0050503D01*
Y0050548D01*
X0040851Y0050592D01*
X0040718D01*
X0040696Y0050548D01*
Y0050503D01*
X0040718Y0050459D01*
X0040851D01*
X0040874Y0050414D01*
Y0050370D01*
X0040851Y0050325D01*
X0040718D01*
X0040696Y0050370D01*
Y0050414D01*
X0040718Y0050459D01*
X0040487D02*
X0040554Y0050325D01*
X0040376Y0050459D02*
X0040509D01*
X0040554Y0050503D01*
Y0050548D01*
X0040509Y0050592D01*
X0040376D01*
Y0050325D01*
X0021115Y0064911D02*
X0021027D01*
X0021071D02*
Y0065178D01*
X0021027Y0065133D01*
X0020840Y0065044D02*
X0020662D01*
X0020840Y0064911D02*
Y0065178D01*
X0020662Y0064911D02*
Y0065178D01*
X0020520Y0064955D02*
X0020498Y0064911D01*
X0020364D01*
X0020342Y0064955D01*
Y0065133D01*
X0020364Y0065178D01*
X0020498D01*
X0020520Y0065133D01*
X0020200Y0065044D02*
X0020022D01*
X0043864Y0063840D02*
X0043730D01*
X0043708Y0063884D01*
Y0063929D01*
X0043730Y0063973D01*
X0043864D01*
X0043886Y0063929D01*
Y0063884D01*
X0043797Y0063706D01*
X0043499Y0063840D02*
X0043566Y0063706D01*
X0043388Y0063840D02*
X0043522D01*
X0043566Y0063884D01*
Y0063929D01*
X0043522Y0063973D01*
X0043388D01*
Y0063706D01*
X0035414Y0056556D02*
X0035237D01*
X0035325Y0056734D01*
X0035370D01*
Y0056467D01*
X0035094Y0056734D02*
Y0056512D01*
X0035072Y0056467D01*
X0034939D01*
X0034917Y0056512D01*
Y0056734D01*
X0022408Y0052096D02*
X0022453Y0052051D01*
X0022542D01*
X0022586Y0052096D01*
Y0052140D01*
X0022497Y0052229D01*
X0022586Y0052318D01*
X0022408D01*
X0022266D02*
Y0052096D01*
X0022244Y0052051D01*
X0022111D01*
X0022088Y0052096D01*
Y0052318D01*
X0028935Y0053979D02*
X0029068Y0054112D01*
X0029201Y0053979D01*
Y0054157D02*
X0028935D01*
Y0054299D02*
Y0054388D01*
Y0054343D02*
X0029201D01*
X0029157Y0054388D01*
X0036962Y0064684D02*
X0036939Y0064640D01*
X0036850Y0064551D01*
X0036828Y0064506D01*
X0036962D02*
X0036939Y0064551D01*
X0036850Y0064640D01*
X0036828Y0064684D01*
X0036530Y0064640D02*
X0036664D01*
X0036686Y0064595D01*
Y0064551D01*
X0036664Y0064506D01*
X0036530D01*
X0036508Y0064551D01*
Y0064595D01*
X0036597Y0064773D01*
X0037850Y0056005D02*
X0037828Y0055960D01*
X0037739Y0055872D01*
X0037717Y0055827D01*
X0037850D02*
X0037828Y0055872D01*
X0037739Y0055960D01*
X0037717Y0056005D01*
X0037419Y0055960D02*
X0037552D01*
X0037574Y0055916D01*
Y0055872D01*
X0037552Y0055827D01*
X0037419D01*
X0037397Y0055872D01*
Y0055916D01*
X0037485Y0056094D01*
X0038818Y0050439D02*
X0038951D01*
X0038974Y0050394D01*
Y0050350D01*
X0038951Y0050305D01*
X0038818D01*
X0038796Y0050350D01*
Y0050394D01*
X0038885Y0050572D01*
X0038587Y0050439D02*
X0038654Y0050305D01*
X0038476Y0050439D02*
X0038609D01*
X0038654Y0050483D01*
Y0050528D01*
X0038609Y0050572D01*
X0038476D01*
Y0050305D01*
X0032001Y0049349D02*
X0032024Y0049393D01*
Y0049438D01*
X0032001Y0049482D01*
X0031868D01*
X0031846Y0049438D01*
Y0049393D01*
X0031868Y0049349D01*
X0032001D01*
X0032024Y0049304D01*
Y0049260D01*
X0032001Y0049215D01*
X0031868D01*
X0031846Y0049260D01*
Y0049304D01*
X0031868Y0049349D01*
X0031704Y0049260D02*
X0031681Y0049215D01*
X0031548D01*
X0031526Y0049260D01*
Y0049438D01*
X0031548Y0049482D01*
X0031681D01*
X0031704Y0049438D01*
X0037484Y0050245D02*
X0037306D01*
X0037484Y0050423D01*
Y0050468D01*
X0037461Y0050512D01*
X0037328D01*
X0037306Y0050468D01*
X0037097Y0050379D02*
X0037164Y0050245D01*
X0036986Y0050379D02*
X0037119D01*
X0037164Y0050423D01*
Y0050468D01*
X0037119Y0050512D01*
X0036986D01*
Y0050245D01*
X0028635Y0065065D02*
X0028502D01*
Y0064931D02*
Y0065198D01*
X0028679D01*
X0028204Y0064931D02*
Y0065198D01*
X0028182Y0064931D02*
X0028315D01*
X0028359Y0064976D01*
Y0065020D01*
X0028337Y0065065D01*
X0028204D02*
X0028337D01*
X0028359Y0065109D01*
Y0065154D01*
X0028315Y0065198D01*
X0028182D01*
X0027862Y0065065D02*
X0027995D01*
X0028039Y0065109D01*
Y0065154D01*
X0027995Y0065198D01*
X0027862D01*
Y0064931D01*
X0027719Y0065198D02*
Y0064931D01*
X0027675Y0064976D01*
X0027586Y0065154D01*
X0027542Y0065198D01*
Y0064931D01*
X0027222Y0064976D02*
X0027266Y0064931D01*
X0027355D01*
X0027399Y0064976D01*
Y0065020D01*
X0027310Y0065109D01*
X0027399Y0065198D01*
X0027222D01*
X0026968Y0064931D02*
X0026924Y0064976D01*
X0026902Y0065020D01*
Y0065109D01*
X0026924Y0065154D01*
X0026968Y0065198D01*
X0027013D01*
X0027057Y0065154D01*
X0027079Y0065109D01*
Y0065020D01*
X0027057Y0064976D01*
X0027013Y0064931D01*
X0026968D01*
X0026759D02*
X0026582D01*
X0026759Y0065109D01*
Y0065154D01*
X0026737Y0065198D01*
X0026604D01*
X0026582Y0065154D01*
X0026439Y0064931D02*
X0026262D01*
X0026439Y0065109D01*
Y0065154D01*
X0026417Y0065198D01*
X0026284D01*
X0026262Y0065154D01*
X0026119Y0064931D02*
X0025964D01*
Y0065198D01*
X0025755Y0065065D02*
X0025822Y0064931D01*
X0025644Y0065065D02*
X0025777D01*
X0025822Y0065109D01*
Y0065154D01*
X0025777Y0065198D01*
X0025644D01*
Y0064931D01*
X0025502D02*
X0025413D01*
X0025457D02*
Y0065198D01*
X0025502D02*
X0025413D01*
X0028588Y0054241D02*
X0028633Y0054219D01*
X0028677D01*
X0028721Y0054241D01*
Y0054375D01*
X0028677Y0054397D01*
X0028633D01*
X0028588Y0054375D01*
Y0054241D01*
X0028544Y0054219D01*
X0028499D01*
X0028455Y0054241D01*
Y0054375D01*
X0028499Y0054397D01*
X0028544D01*
X0028588Y0054375D01*
X0028455Y0054539D02*
Y0054628D01*
Y0054583D02*
X0028721D01*
X0028677Y0054628D01*
X0028588Y0054881D02*
X0028455Y0054814D01*
X0028588Y0054992D02*
Y0054859D01*
X0028633Y0054814D01*
X0028677D01*
X0028721Y0054859D01*
Y0054992D01*
X0028455D01*
X0024222Y0064931D02*
X0024133D01*
X0024177D02*
Y0065198D01*
X0024133Y0065154D01*
X0023857Y0065020D02*
X0023946Y0064931D01*
X0023768Y0064976D02*
X0023791Y0064931D01*
X0023880D01*
X0023902Y0064976D01*
X0023946Y0065020D01*
Y0065154D01*
X0023924Y0065198D01*
X0023791D01*
X0023768Y0065154D01*
Y0064976D01*
X0044182Y0066475D02*
X0044204Y0066431D01*
X0044338D01*
X0044360Y0066475D01*
Y0066564D01*
X0044315Y0066609D01*
X0044182D01*
Y0066698D01*
X0044360D01*
X0044040D02*
Y0066475D01*
X0044018Y0066431D01*
X0043951Y0066564D01*
Y0066609D02*
Y0066564D01*
X0043884Y0066431D01*
X0043862Y0066475D01*
Y0066698D01*
X0043720Y0066653D02*
X0043698Y0066698D01*
X0043564D01*
X0043542Y0066653D01*
Y0066609D01*
X0043564Y0066564D01*
X0043698D01*
X0043720Y0066520D01*
Y0066475D01*
X0043698Y0066431D01*
X0043564D01*
X0043542Y0066475D01*
X0043311Y0066653D02*
Y0066475D01*
X0043400Y0066564D02*
X0043222D01*
X0021172Y0057816D02*
X0021038Y0057950D01*
X0021172Y0058083D01*
X0020994D02*
Y0057816D01*
X0020740D02*
X0020696Y0057861D01*
X0020674Y0057905D01*
Y0057994D01*
X0020696Y0058039D01*
X0020740Y0058083D01*
X0020785D01*
X0020829Y0058039D01*
X0020852Y0057994D01*
Y0057905D01*
X0020829Y0057861D01*
X0020785Y0057816D01*
X0020740D01*
X0020532D02*
X0020443D01*
X0020487D02*
Y0058083D01*
X0020443Y0058039D01*
X0039433Y0063786D02*
X0039566Y0064053D01*
X0039388D01*
X0039179Y0063920D02*
X0039246Y0063786D01*
X0039068Y0063920D02*
X0039202D01*
X0039246Y0063964D01*
Y0064009D01*
X0039202Y0064053D01*
X0039068D01*
Y0063786D01*
X0041477Y0064426D02*
X0041388D01*
X0041433D02*
Y0064693D01*
X0041388Y0064649D01*
X0041202Y0064426D02*
X0041113D01*
X0041157D02*
Y0064693D01*
X0041113Y0064649D01*
X0040859Y0064560D02*
X0040926Y0064426D01*
X0040748Y0064560D02*
X0040882D01*
X0040926Y0064604D01*
Y0064649D01*
X0040882Y0064693D01*
X0040748D01*
Y0064426D01*
X0043640Y0068600D02*
X0043462D01*
X0043551Y0068778D01*
X0043595D01*
Y0068511D01*
X0043320Y0068778D02*
Y0068555D01*
X0043298Y0068511D01*
X0043231Y0068644D01*
Y0068689D02*
Y0068644D01*
X0043164Y0068511D01*
X0043142Y0068555D01*
Y0068778D01*
X0043000Y0068733D02*
X0042978Y0068778D01*
X0042844D01*
X0042822Y0068733D01*
Y0068689D01*
X0042844Y0068644D01*
X0042978D01*
X0043000Y0068600D01*
Y0068555D01*
X0042978Y0068511D01*
X0042844D01*
X0042822Y0068555D01*
X0042591Y0068733D02*
Y0068555D01*
X0042680Y0068644D02*
X0042502D01*
X0022766Y0053170D02*
X0022810Y0053125D01*
X0022899D01*
X0022944Y0053170D01*
Y0053214D01*
X0022855Y0053303D01*
X0022944Y0053392D01*
X0022766D01*
X0022624Y0053125D02*
X0022446D01*
X0022624Y0053303D01*
Y0053348D01*
X0022601Y0053392D01*
X0022468D01*
X0022446Y0053348D01*
X0022237Y0053259D02*
X0022304Y0053125D01*
X0022126Y0053259D02*
X0022259D01*
X0022304Y0053303D01*
Y0053348D01*
X0022259Y0053392D01*
X0022126D01*
Y0053125D01*
X0040822Y0066475D02*
X0040867Y0066431D01*
X0040955D01*
X0041000Y0066475D01*
Y0066520D01*
X0040911Y0066609D01*
X0041000Y0066698D01*
X0040822D01*
X0040680D02*
Y0066475D01*
X0040658Y0066431D01*
X0040591Y0066564D01*
Y0066609D02*
Y0066564D01*
X0040524Y0066431D01*
X0040502Y0066475D01*
Y0066698D01*
X0040360Y0066653D02*
X0040338Y0066698D01*
X0040204D01*
X0040182Y0066653D01*
Y0066609D01*
X0040204Y0066564D01*
X0040338D01*
X0040360Y0066520D01*
Y0066475D01*
X0040338Y0066431D01*
X0040204D01*
X0040182Y0066475D01*
X0039951Y0066653D02*
Y0066475D01*
X0040040Y0066564D02*
X0039862D01*
X0023480Y0068511D02*
X0023302D01*
X0023480Y0068689D01*
Y0068733D01*
X0023458Y0068778D01*
X0023324D01*
X0023302Y0068733D01*
X0023160Y0068644D02*
X0022982D01*
X0023160Y0068511D02*
Y0068778D01*
X0022982Y0068511D02*
Y0068778D01*
X0022840Y0068555D02*
X0022818Y0068511D01*
X0022684D01*
X0022662Y0068555D01*
Y0068733D01*
X0022684Y0068778D01*
X0022818D01*
X0022840Y0068733D01*
X0022520Y0068644D02*
X0022342D01*
X0020316Y0050936D02*
X0020138D01*
X0020316Y0051114D01*
Y0051159D01*
X0020294Y0051203D01*
X0020160D01*
X0020138Y0051159D01*
X0019996Y0050981D02*
X0019974Y0050936D01*
X0019840D01*
X0019818Y0050981D01*
Y0051159D01*
X0019840Y0051203D01*
X0019974D01*
X0019996Y0051159D01*
X0023838Y0052456D02*
X0023972Y0052723D01*
X0023794D01*
X0023652Y0052456D02*
X0023563D01*
X0023607D02*
Y0052723D01*
X0023563Y0052679D01*
X0023309Y0052590D02*
X0023376Y0052456D01*
X0023198Y0052590D02*
X0023332D01*
X0023376Y0052634D01*
Y0052679D01*
X0023332Y0052723D01*
X0023198D01*
Y0052456D01*
X0043312Y0051200D02*
X0043334Y0051245D01*
Y0051289D01*
X0043312Y0051334D01*
X0043179D01*
X0043157Y0051289D01*
Y0051245D01*
X0043179Y0051200D01*
X0043312D01*
X0043334Y0051156D01*
Y0051112D01*
X0043312Y0051067D01*
X0043179D01*
X0043157Y0051112D01*
Y0051156D01*
X0043179Y0051200D01*
X0043014Y0051334D02*
Y0051112D01*
X0042992Y0051067D01*
X0042859D01*
X0042837Y0051112D01*
Y0051334D01*
X0040280Y0068511D02*
X0040102D01*
X0040280Y0068689D01*
Y0068733D01*
X0040258Y0068778D01*
X0040124D01*
X0040102Y0068733D01*
X0039960Y0068778D02*
Y0068555D01*
X0039938Y0068511D01*
X0039871Y0068644D01*
Y0068689D02*
Y0068644D01*
X0039804Y0068511D01*
X0039782Y0068555D01*
Y0068778D01*
X0039640Y0068733D02*
X0039618Y0068778D01*
X0039484D01*
X0039462Y0068733D01*
Y0068689D01*
X0039484Y0068644D01*
X0039618D01*
X0039640Y0068600D01*
Y0068555D01*
X0039618Y0068511D01*
X0039484D01*
X0039462Y0068555D01*
X0039231Y0068733D02*
Y0068555D01*
X0039320Y0068644D02*
X0039142D01*
X0037890Y0064506D02*
X0037846Y0064551D01*
X0037824Y0064595D01*
Y0064684D01*
X0037846Y0064729D01*
X0037890Y0064773D01*
X0037935D01*
X0037979Y0064729D01*
X0038002Y0064684D01*
Y0064595D01*
X0037979Y0064551D01*
X0037935Y0064506D01*
X0037890D01*
X0037682D02*
X0037593D01*
X0037637D02*
Y0064773D01*
X0037593Y0064729D01*
X0037228Y0064551D02*
X0037250Y0064506D01*
X0037384D01*
X0037406Y0064551D01*
Y0064640D01*
X0037362Y0064684D01*
X0037228D01*
Y0064773D01*
X0037406D01*
X0020327Y0056056D02*
X0020194Y0056190D01*
X0020327Y0056323D01*
X0020149D02*
Y0056056D01*
X0020007D02*
X0019829D01*
X0020007Y0056234D01*
Y0056279D01*
X0019985Y0056323D01*
X0019851D01*
X0019829Y0056279D01*
X0019643Y0056056D02*
X0019687D01*
Y0056101D01*
X0019643D01*
Y0056056D01*
X0019456D02*
X0019278D01*
X0019456Y0056234D01*
Y0056279D01*
X0019434Y0056323D01*
X0019300D01*
X0019278Y0056279D01*
X0023536Y0049530D02*
X0023558Y0049485D01*
X0023691D01*
X0023714Y0049530D01*
Y0049619D01*
X0023669Y0049663D01*
X0023536D01*
Y0049752D01*
X0023714D01*
X0023394Y0049530D02*
X0023371Y0049485D01*
X0023238D01*
X0023216Y0049530D01*
Y0049708D01*
X0023238Y0049752D01*
X0023371D01*
X0023394Y0049708D01*
X0037835Y0066431D02*
X0037747D01*
X0037791D02*
Y0066698D01*
X0037747Y0066653D01*
X0037560Y0066698D02*
Y0066475D01*
X0037538Y0066431D01*
X0037471Y0066564D01*
Y0066609D02*
Y0066564D01*
X0037404Y0066431D01*
X0037382Y0066475D01*
Y0066698D01*
X0037240Y0066653D02*
X0037218Y0066698D01*
X0037084D01*
X0037062Y0066653D01*
Y0066609D01*
X0037084Y0066564D01*
X0037218D01*
X0037240Y0066520D01*
Y0066475D01*
X0037218Y0066431D01*
X0037084D01*
X0037062Y0066475D01*
X0036831Y0066653D02*
Y0066475D01*
X0036920Y0066564D02*
X0036742D01*
X0036649Y0068511D02*
X0036604Y0068555D01*
X0036582Y0068600D01*
Y0068689D01*
X0036604Y0068733D01*
X0036649Y0068778D01*
X0036693D01*
X0036738Y0068733D01*
X0036760Y0068689D01*
Y0068600D01*
X0036738Y0068555D01*
X0036693Y0068511D01*
X0036649D01*
X0036440Y0068778D02*
Y0068555D01*
X0036418Y0068511D01*
X0036351Y0068644D01*
Y0068689D02*
Y0068644D01*
X0036284Y0068511D01*
X0036262Y0068555D01*
Y0068778D01*
X0036120Y0068733D02*
X0036098Y0068778D01*
X0035964D01*
X0035942Y0068733D01*
Y0068689D01*
X0035964Y0068644D01*
X0036098D01*
X0036120Y0068600D01*
Y0068555D01*
X0036098Y0068511D01*
X0035964D01*
X0035942Y0068555D01*
X0035711Y0068733D02*
Y0068555D01*
X0035800Y0068644D02*
X0035622D01*
X0035922Y0063786D02*
X0035833D01*
X0035877D02*
Y0064053D01*
X0035833Y0064009D01*
X0035579Y0063920D02*
X0035646Y0063786D01*
X0035468Y0063920D02*
X0035602D01*
X0035646Y0063964D01*
Y0064009D01*
X0035602Y0064053D01*
X0035468D01*
Y0063786D01*
X0020626Y0055040D02*
X0020670Y0054995D01*
X0020759D01*
X0020804Y0055040D01*
Y0055084D01*
X0020715Y0055173D01*
X0020804Y0055262D01*
X0020626D01*
X0020484Y0055040D02*
X0020461Y0054995D01*
X0020328D01*
X0020306Y0055040D01*
Y0055218D01*
X0020328Y0055262D01*
X0020461D01*
X0020484Y0055218D01*
X0021207Y0059256D02*
X0021074Y0059390D01*
X0021207Y0059523D01*
X0021029D02*
Y0059256D01*
X0020887D02*
X0020709D01*
X0020887Y0059434D01*
Y0059479D01*
X0020865Y0059523D01*
X0020731D01*
X0020709Y0059479D01*
X0020523Y0059256D02*
X0020567D01*
Y0059301D01*
X0020523D01*
Y0059256D01*
X0020336D02*
X0020158D01*
X0020336Y0059434D01*
Y0059479D01*
X0020314Y0059523D01*
X0020180D01*
X0020158Y0059479D01*
X0035644Y0050314D02*
X0035466D01*
X0035555Y0050492D01*
X0035599D01*
Y0050225D01*
X0035257Y0050359D02*
X0035324Y0050225D01*
X0035146Y0050359D02*
X0035279D01*
X0035324Y0050403D01*
Y0050448D01*
X0035279Y0050492D01*
X0035146D01*
Y0050225D01*
X0039317Y0055827D02*
X0039450Y0056094D01*
X0039272D01*
X0039130Y0055827D02*
X0039041D01*
X0039085D02*
Y0056094D01*
X0039041Y0056049D01*
X0038832Y0055960D02*
X0038854Y0056005D01*
Y0056049D01*
X0038832Y0056094D01*
X0038699D01*
X0038677Y0056049D01*
Y0056005D01*
X0038699Y0055960D01*
X0038832D01*
X0038854Y0055916D01*
Y0055872D01*
X0038832Y0055827D01*
X0038699D01*
X0038677Y0055872D01*
Y0055916D01*
X0038699Y0055960D01*
X0038534Y0055872D02*
X0038512Y0055827D01*
X0038379D01*
X0038357Y0055872D01*
Y0056049D01*
X0038379Y0056094D01*
X0038512D01*
X0038534Y0056049D01*
X0038037Y0055960D02*
X0038170D01*
X0038214Y0056005D01*
Y0056049D01*
X0038170Y0056094D01*
X0038037D01*
Y0055827D01*
X0026606Y0056610D02*
X0026628Y0056565D01*
X0026761D01*
X0026784Y0056610D01*
Y0056699D01*
X0026739Y0056743D01*
X0026606D01*
Y0056832D01*
X0026784D01*
X0026464Y0056565D02*
X0026286D01*
X0026464Y0056743D01*
Y0056788D01*
X0026441Y0056832D01*
X0026308D01*
X0026286Y0056788D01*
X0026077Y0056699D02*
X0026144Y0056565D01*
X0025966Y0056699D02*
X0026099D01*
X0026144Y0056743D01*
Y0056788D01*
X0026099Y0056832D01*
X0025966D01*
Y0056565D01*
X0026456Y0059230D02*
X0026589D01*
X0026612Y0059185D01*
Y0059141D01*
X0026589Y0059096D01*
X0026456D01*
X0026434Y0059141D01*
Y0059185D01*
X0026523Y0059363D01*
X0026292Y0059096D02*
X0026203D01*
X0026247D02*
Y0059363D01*
X0026203Y0059319D01*
X0025949Y0059230D02*
X0026016Y0059096D01*
X0025838Y0059230D02*
X0025972D01*
X0026016Y0059274D01*
Y0059319D01*
X0025972Y0059363D01*
X0025838D01*
Y0059096D01*
X0038028Y0063831D02*
X0038050Y0063786D01*
X0038184D01*
X0038206Y0063831D01*
Y0063920D01*
X0038162Y0063964D01*
X0038028D01*
Y0064053D01*
X0038206D01*
X0037819Y0063920D02*
X0037886Y0063786D01*
X0037708Y0063920D02*
X0037842D01*
X0037886Y0063964D01*
Y0064009D01*
X0037842Y0064053D01*
X0037708D01*
Y0063786D01*
X0030026Y0059980D02*
X0029848D01*
X0029937Y0060158D01*
X0029982D01*
Y0059891D01*
X0029617Y0059980D02*
X0029706Y0059891D01*
X0029528Y0059936D02*
X0029551Y0059891D01*
X0029640D01*
X0029662Y0059936D01*
X0029706Y0059980D01*
Y0060114D01*
X0029684Y0060158D01*
X0029551D01*
X0029528Y0060114D01*
Y0059936D01*
X0028188Y0054241D02*
Y0054375D01*
X0028233Y0054397D01*
X0028277D01*
X0028321Y0054375D01*
Y0054241D01*
X0028277Y0054219D01*
X0028233D01*
X0028055Y0054308D01*
Y0054539D02*
Y0054628D01*
Y0054583D02*
X0028321D01*
X0028277Y0054628D01*
X0028188Y0054881D02*
X0028055Y0054814D01*
X0028188Y0054992D02*
Y0054859D01*
X0028233Y0054814D01*
X0028277D01*
X0028321Y0054859D01*
Y0054992D01*
X0028055D01*
X0029113Y0054619D02*
X0029068Y0054641D01*
X0028979Y0054730D01*
X0028935Y0054752D01*
Y0054619D02*
X0028979Y0054641D01*
X0029068Y0054730D01*
X0029113Y0054752D01*
X0029024Y0054894D02*
Y0055072D01*
X0029201Y0054983D01*
Y0054939D01*
X0028935D01*
X0019749Y0045165D02*
X0019660D01*
X0019705D02*
Y0045432D01*
X0019660Y0045388D01*
X0019474Y0045210D02*
X0019451Y0045165D01*
X0019318D01*
X0019296Y0045210D01*
Y0045388D01*
X0019318Y0045432D01*
X0019451D01*
X0019474Y0045388D01*
X0027655Y0054286D02*
X0027699Y0054330D01*
X0027744Y0054352D01*
X0027833D01*
X0027877Y0054330D01*
X0027921Y0054286D01*
Y0054241D01*
X0027877Y0054197D01*
X0027833Y0054174D01*
X0027744D01*
X0027699Y0054197D01*
X0027655Y0054241D01*
Y0054286D01*
Y0054494D02*
Y0054672D01*
X0027833Y0054494D01*
X0027877D01*
X0027921Y0054517D01*
Y0054650D01*
X0027877Y0054672D01*
X0027788Y0054881D02*
X0027655Y0054814D01*
X0027788Y0054992D02*
Y0054859D01*
X0027833Y0054814D01*
X0027877D01*
X0027921Y0054859D01*
Y0054992D01*
X0027655D01*
X0027255Y0054219D02*
Y0054308D01*
Y0054263D02*
X0027521D01*
X0027477Y0054308D01*
X0027255Y0054494D02*
Y0054672D01*
X0027433Y0054494D01*
X0027477D01*
X0027521Y0054517D01*
Y0054650D01*
X0027477Y0054672D01*
X0027388Y0054881D02*
X0027255Y0054814D01*
X0027388Y0054992D02*
Y0054859D01*
X0027433Y0054814D01*
X0027477D01*
X0027521Y0054859D01*
Y0054992D01*
X0027255D01*
X0025079Y0051401D02*
X0024990D01*
X0025035D02*
Y0051668D01*
X0024990Y0051624D01*
X0024804Y0051668D02*
Y0051446D01*
X0024781Y0051401D01*
X0024648D01*
X0024626Y0051446D01*
Y0051668D01*
X0026213Y0046855D02*
X0026035D01*
X0026213Y0047032D01*
Y0047077D01*
X0026190Y0047121D01*
X0026057D01*
X0026035Y0047077D01*
X0025893Y0046855D02*
X0025804D01*
X0025848D02*
Y0047121D01*
X0025804Y0047077D01*
X0028791Y0047364D02*
X0028835Y0047409D01*
Y0047498D01*
X0028791Y0047542D01*
X0028746D01*
X0028657Y0047453D01*
X0028569Y0047542D01*
Y0047364D01*
X0028835Y0047222D02*
Y0047044D01*
X0028657Y0047222D01*
X0028613D01*
X0028569Y0047200D01*
Y0047066D01*
X0028613Y0047044D01*
X0028273Y0049906D02*
X0028451D01*
X0028362Y0049729D01*
X0028317D01*
Y0049995D01*
X0028771Y0049951D02*
X0028726Y0049995D01*
X0028637D01*
X0028593Y0049951D01*
Y0049906D01*
X0028682Y0049817D01*
X0028593Y0049729D01*
X0028771D01*
X0025695Y0049908D02*
Y0049997D01*
Y0049953D02*
X0025961D01*
X0025917Y0049997D01*
X0019794Y0054854D02*
X0019616D01*
X0019705Y0055032D01*
X0019749D01*
Y0054765D01*
X0019474Y0054810D02*
X0019451Y0054765D01*
X0019318D01*
X0019296Y0054810D01*
Y0054988D01*
X0019318Y0055032D01*
X0019451D01*
X0019474Y0054988D01*
X0026323Y0044878D02*
X0026190D01*
X0026168Y0044923D01*
Y0044967D01*
X0026190Y0045011D01*
X0026323D01*
X0026345Y0044967D01*
Y0044923D01*
X0026256Y0044745D01*
X0026025Y0044789D02*
X0026003Y0044745D01*
X0025870D01*
X0025848Y0044789D01*
Y0044967D01*
X0025870Y0045011D01*
X0026003D01*
X0026025Y0044967D01*
X0026274Y0063381D02*
X0026296Y0063336D01*
X0026429D01*
X0026452Y0063381D01*
Y0063470D01*
X0026407Y0063514D01*
X0026274D01*
Y0063603D01*
X0026452D01*
X0026132Y0063336D02*
X0026043D01*
X0026087D02*
Y0063603D01*
X0026043Y0063559D01*
X0025789Y0063470D02*
X0025856Y0063336D01*
X0025678Y0063470D02*
X0025812D01*
X0025856Y0063514D01*
Y0063559D01*
X0025812Y0063603D01*
X0025678D01*
Y0063336D01*
X0034559Y0049603D02*
X0034537Y0049559D01*
X0034448Y0049470D01*
X0034426Y0049425D01*
X0034559D02*
X0034537Y0049470D01*
X0034448Y0049559D01*
X0034426Y0049603D01*
X0034128Y0049559D02*
X0034261D01*
X0034284Y0049514D01*
Y0049470D01*
X0034261Y0049425D01*
X0034128D01*
X0034106Y0049470D01*
Y0049514D01*
X0034195Y0049692D01*
X0035439Y0049425D02*
X0035306Y0049559D01*
X0035439Y0049692D01*
X0035261D02*
Y0049425D01*
X0035008D02*
X0034964Y0049470D01*
X0034941Y0049514D01*
Y0049603D01*
X0034964Y0049648D01*
X0035008Y0049692D01*
X0035053D01*
X0035097Y0049648D01*
X0035119Y0049603D01*
Y0049514D01*
X0035097Y0049470D01*
X0035053Y0049425D01*
X0035008D01*
X0034799D02*
X0034710D01*
X0034755D02*
Y0049692D01*
X0034710Y0049648D01*
X0043121Y0056467D02*
X0043254Y0056734D01*
X0043077D01*
X0042934D02*
Y0056512D01*
X0042912Y0056467D01*
X0042779D01*
X0042757Y0056512D01*
Y0056734D01*
X0042388Y0050315D02*
X0042344Y0050360D01*
X0042321Y0050404D01*
Y0050493D01*
X0042344Y0050538D01*
X0042388Y0050582D01*
X0042433D01*
X0042477Y0050538D01*
X0042499Y0050493D01*
Y0050404D01*
X0042477Y0050360D01*
X0042433Y0050315D01*
X0042388D01*
X0042179D02*
X0042090D01*
X0042135D02*
Y0050582D01*
X0042090Y0050538D01*
X0041837Y0050449D02*
X0041904Y0050315D01*
X0041726Y0050449D02*
X0041859D01*
X0041904Y0050493D01*
Y0050538D01*
X0041859Y0050582D01*
X0041726D01*
Y0050315D01*
X0026736Y0060625D02*
X0026558D01*
X0026647Y0060803D01*
X0026692D01*
Y0060536D01*
X0026416D02*
X0026238D01*
X0026416Y0060714D01*
Y0060759D01*
X0026394Y0060803D01*
X0026260D01*
X0026238Y0060759D01*
X0026029Y0060670D02*
X0026096Y0060536D01*
X0025918Y0060670D02*
X0026052D01*
X0026096Y0060714D01*
Y0060759D01*
X0026052Y0060803D01*
X0025918D01*
Y0060536D01*
X0023972Y0051976D02*
X0023838Y0052110D01*
X0023972Y0052243D01*
X0023794D02*
Y0051976D01*
X0023540D02*
X0023496Y0052021D01*
X0023474Y0052065D01*
Y0052154D01*
X0023496Y0052199D01*
X0023540Y0052243D01*
X0023585D01*
X0023629Y0052199D01*
X0023652Y0052154D01*
Y0052065D01*
X0023629Y0052021D01*
X0023585Y0051976D01*
X0023540D01*
X0023332D02*
X0023243D01*
X0023287D02*
Y0052243D01*
X0023243Y0052199D01*
X0021448Y0054995D02*
X0021404Y0055040D01*
X0021381Y0055084D01*
Y0055173D01*
X0021404Y0055218D01*
X0021448Y0055262D01*
X0021493D01*
X0021537Y0055218D01*
X0021559Y0055173D01*
Y0055084D01*
X0021537Y0055040D01*
X0021493Y0054995D01*
X0021448D01*
X0021239D02*
X0021150D01*
X0021195D02*
Y0055262D01*
X0021150Y0055218D01*
X0030008Y0064976D02*
X0030053Y0064931D01*
X0030142D01*
X0030186Y0064976D01*
Y0065020D01*
X0030097Y0065109D01*
X0030186Y0065198D01*
X0030008D01*
X0029777Y0065020D02*
X0029866Y0064931D01*
X0029688Y0064976D02*
X0029711Y0064931D01*
X0029800D01*
X0029822Y0064976D01*
X0029866Y0065020D01*
Y0065154D01*
X0029844Y0065198D01*
X0029711D01*
X0029688Y0065154D01*
Y0064976D01*
X0035557Y0051272D02*
X0035579Y0051227D01*
X0035712D01*
X0035734Y0051272D01*
Y0051360D01*
X0035690Y0051405D01*
X0035557D01*
Y0051494D01*
X0035734D01*
X0035414D02*
Y0051272D01*
X0035392Y0051227D01*
X0035259D01*
X0035237Y0051272D01*
Y0051494D01*
X0023142Y0064955D02*
X0023187Y0064911D01*
X0023275D01*
X0023320Y0064955D01*
Y0065000D01*
X0023231Y0065089D01*
X0023320Y0065178D01*
X0023142D01*
X0023000Y0065044D02*
X0022822D01*
X0023000Y0064911D02*
Y0065178D01*
X0022822Y0064911D02*
Y0065178D01*
X0022680Y0064955D02*
X0022658Y0064911D01*
X0022524D01*
X0022502Y0064955D01*
Y0065133D01*
X0022524Y0065178D01*
X0022658D01*
X0022680Y0065133D01*
X0022360Y0065044D02*
X0022182D01*
X0020212Y0056705D02*
X0020034D01*
X0020123Y0056883D01*
X0020167D01*
Y0056616D01*
X0019892D02*
X0019803D01*
X0019847D02*
Y0056883D01*
X0019803Y0056839D01*
X0019549Y0056750D02*
X0019616Y0056616D01*
X0019438Y0056750D02*
X0019572D01*
X0019616Y0056794D01*
Y0056839D01*
X0019572Y0056883D01*
X0019438D01*
Y0056616D01*
X0028233Y0053696D02*
X0028366Y0053963D01*
X0028188D01*
X0028046Y0053741D02*
X0028024Y0053696D01*
X0027890D01*
X0027868Y0053741D01*
Y0053919D01*
X0027890Y0053963D01*
X0028024D01*
X0028046Y0053919D01*
X0021576Y0054506D02*
X0021398D01*
X0021487Y0054417D02*
Y0054594D01*
X0040694Y0051227D02*
X0040517D01*
X0040694Y0051405D01*
Y0051449D01*
X0040672Y0051494D01*
X0040539D01*
X0040517Y0051449D01*
X0040374Y0051494D02*
Y0051272D01*
X0040352Y0051227D01*
X0040219D01*
X0040197Y0051272D01*
Y0051494D01*
X0020169Y0068431D02*
X0020124Y0068475D01*
X0020102Y0068520D01*
Y0068609D01*
X0020124Y0068653D01*
X0020169Y0068698D01*
X0020213D01*
X0020258Y0068653D01*
X0020280Y0068609D01*
Y0068520D01*
X0020258Y0068475D01*
X0020213Y0068431D01*
X0020169D01*
X0019960Y0068564D02*
X0019782D01*
X0019960Y0068431D02*
Y0068698D01*
X0019782Y0068431D02*
Y0068698D01*
X0019640Y0068475D02*
X0019618Y0068431D01*
X0019484D01*
X0019462Y0068475D01*
Y0068653D01*
X0019484Y0068698D01*
X0019618D01*
X0019640Y0068653D01*
X0019320Y0068564D02*
X0019142D01*
X0025262Y0065109D02*
X0025240Y0065065D01*
X0025151Y0064976D01*
X0025128Y0064931D01*
X0025262D02*
X0025240Y0064976D01*
X0025151Y0065065D01*
X0025128Y0065109D01*
X0024986Y0065020D02*
X0024808D01*
X0024897Y0065198D01*
X0024942D01*
Y0064931D01*
X0021216Y0058216D02*
X0021038D01*
X0021216Y0058394D01*
Y0058439D01*
X0021194Y0058483D01*
X0021060D01*
X0021038Y0058439D01*
X0020896Y0058216D02*
X0020718D01*
X0020896Y0058394D01*
Y0058439D01*
X0020874Y0058483D01*
X0020740D01*
X0020718Y0058439D01*
X0020509Y0058350D02*
X0020576Y0058216D01*
X0020398Y0058350D02*
X0020532D01*
X0020576Y0058394D01*
Y0058439D01*
X0020532Y0058483D01*
X0020398D01*
Y0058216D01*
X0044439Y0050285D02*
X0044261D01*
X0044439Y0050463D01*
Y0050508D01*
X0044417Y0050552D01*
X0044284D01*
X0044261Y0050508D01*
X0044119Y0050285D02*
X0044030D01*
X0044075D02*
Y0050552D01*
X0044030Y0050508D01*
X0043777Y0050419D02*
X0043844Y0050285D01*
X0043666Y0050419D02*
X0043799D01*
X0043844Y0050463D01*
Y0050508D01*
X0043799Y0050552D01*
X0043666D01*
Y0050285D01*
X0031890Y0047750D02*
X0032024D01*
X0032046Y0047705D01*
Y0047661D01*
X0032024Y0047616D01*
X0031890D01*
X0031868Y0047661D01*
Y0047705D01*
X0031957Y0047883D01*
X0031726Y0047661D02*
X0031704Y0047616D01*
X0031570D01*
X0031548Y0047661D01*
Y0047839D01*
X0031570Y0047883D01*
X0031704D01*
X0031726Y0047839D01*
X0020414Y0050376D02*
X0020547Y0050643D01*
X0020369D01*
X0020183Y0050376D02*
X0020227D01*
Y0050421D01*
X0020183D01*
Y0050376D01*
X0019996Y0050465D02*
X0019818D01*
X0019907Y0050643D01*
X0019952D01*
Y0050376D01*
X0034428Y0063831D02*
X0034473Y0063786D01*
X0034562D01*
X0034606Y0063831D01*
Y0063875D01*
X0034517Y0063964D01*
X0034606Y0064053D01*
X0034428D01*
X0034219Y0063920D02*
X0034286Y0063786D01*
X0034108Y0063920D02*
X0034242D01*
X0034286Y0063964D01*
Y0064009D01*
X0034242Y0064053D01*
X0034108D01*
Y0063786D01*
X0020167Y0044730D02*
X0020211Y0044685D01*
X0020300D01*
X0020345Y0044730D01*
Y0044774D01*
X0020256Y0044863D01*
X0020345Y0044952D01*
X0020167D01*
X0019847Y0044730D02*
X0019891Y0044685D01*
X0019980D01*
X0020025Y0044730D01*
Y0044774D01*
X0019936Y0044863D01*
X0020025Y0044952D01*
X0019847D01*
X0019660Y0044685D02*
X0019705D01*
Y0044730D01*
X0019660D01*
Y0044685D01*
X0019363D02*
X0019318Y0044730D01*
X0019296Y0044774D01*
Y0044863D01*
X0019318Y0044908D01*
X0019363Y0044952D01*
X0019407D01*
X0019451Y0044908D01*
X0019474Y0044863D01*
Y0044774D01*
X0019451Y0044730D01*
X0019407Y0044685D01*
X0019363D01*
X0020914Y0059701D02*
X0020958Y0059656D01*
X0021047D01*
X0021092Y0059701D01*
Y0059745D01*
X0021003Y0059834D01*
X0021092Y0059923D01*
X0020914D01*
X0020772Y0059656D02*
X0020683D01*
X0020727D02*
Y0059923D01*
X0020683Y0059879D01*
X0020429Y0059790D02*
X0020496Y0059656D01*
X0020318Y0059790D02*
X0020452D01*
X0020496Y0059834D01*
Y0059879D01*
X0020452Y0059923D01*
X0020318D01*
Y0059656D01*
X0039099Y0056600D02*
X0039232D01*
X0039254Y0056556D01*
Y0056512D01*
X0039232Y0056467D01*
X0039099D01*
X0039077Y0056512D01*
Y0056556D01*
X0039165Y0056734D01*
X0038934D02*
Y0056512D01*
X0038912Y0056467D01*
X0038779D01*
X0038757Y0056512D01*
Y0056734D01*
X0024266Y0059891D02*
X0024088D01*
X0024266Y0060069D01*
Y0060114D01*
X0024244Y0060158D01*
X0024111D01*
X0024088Y0060114D01*
X0023857Y0059980D02*
X0023946Y0059891D01*
X0023768Y0059936D02*
X0023791Y0059891D01*
X0023880D01*
X0023902Y0059936D01*
X0023946Y0059980D01*
Y0060114D01*
X0023924Y0060158D01*
X0023791D01*
X0023768Y0060114D01*
Y0059936D01*
X0020050Y0050150D02*
Y0047950D01*
X0019150D01*
Y0050150D01*
X0020050D01*
X0040850Y0064230D02*
Y0062030D01*
X0039950D01*
Y0064230D01*
X0040850D01*
X0026985Y0055260D02*
X0027735D01*
Y0056860D01*
X0026985D01*
Y0055260D01*
X0024345Y0053020D02*
X0025095D01*
Y0054620D01*
X0024345D01*
Y0053020D01*
X0042585Y0048460D02*
X0043335D01*
Y0050060D01*
X0042585D01*
Y0048460D01*
X0030585Y0048380D02*
X0030540D01*
Y0049980D01*
X0031380D01*
Y0048380D01*
X0030585D01*
X0019225Y0045580D02*
X0019180D01*
Y0047180D01*
X0020020D01*
Y0045580D01*
X0019225D01*
X0020755Y0054675D02*
X0020480D01*
Y0052225D01*
X0021280D01*
Y0054675D01*
X0021005D01*
X0020880Y0054800D01*
X0020755Y0054675D01*
X0027885Y0058860D02*
X0026835D01*
Y0057280D01*
X0027275D01*
X0027360Y0057195D01*
X0027445Y0057280D01*
X0027885D01*
Y0058860D01*
X0039865Y0048460D02*
X0040615D01*
Y0050060D01*
X0039865D01*
Y0048460D01*
X0044450Y0063590D02*
Y0061390D01*
X0043550D01*
Y0063590D01*
X0044450D01*
X0027885Y0062940D02*
X0026835D01*
Y0061360D01*
X0027275D01*
X0027360Y0061275D01*
X0027445Y0061360D01*
X0027885D01*
Y0062940D01*
X0038985Y0048460D02*
X0039735D01*
Y0050060D01*
X0038985D01*
Y0048460D01*
X0036505D02*
X0037255D01*
Y0050060D01*
X0036505D01*
Y0048460D01*
X0026345Y0053020D02*
X0027095D01*
Y0054620D01*
X0026345D01*
Y0053020D01*
X0022365Y0057100D02*
X0021315D01*
Y0055520D01*
X0021755D01*
X0021840Y0055435D01*
X0021925Y0055520D01*
X0022365D01*
Y0057100D01*
X0039410Y0063590D02*
Y0061390D01*
X0038510D01*
Y0063590D01*
X0039410D01*
X0022105Y0053580D02*
X0022855D01*
Y0055180D01*
X0022105D01*
Y0053580D01*
X0023975Y0051780D02*
X0023225D01*
Y0050180D01*
X0023975D01*
Y0051780D01*
X0023145Y0047580D02*
X0023100D01*
Y0049180D01*
X0023940D01*
Y0047580D01*
X0023145D01*
X0035730Y0063590D02*
Y0061390D01*
X0034830D01*
Y0063590D01*
X0035730D01*
X0022365Y0061660D02*
X0021315D01*
Y0060080D01*
X0021755D01*
X0021840Y0059995D01*
X0021925Y0060080D01*
X0022365D01*
Y0061660D01*
X0035625Y0048460D02*
X0036375D01*
Y0050060D01*
X0035625D01*
Y0048460D01*
X0026695Y0058900D02*
X0025945D01*
Y0057300D01*
X0026695D01*
Y0058900D01*
X0038290Y0063590D02*
Y0061390D01*
X0037390D01*
Y0063590D01*
X0038290D01*
X0025305Y0053020D02*
X0026055D01*
Y0054620D01*
X0025305D01*
Y0053020D01*
X0023385D02*
X0024135D01*
Y0054620D01*
X0023385D01*
Y0053020D01*
X0019225Y0052860D02*
X0019180D01*
Y0054460D01*
X0020020D01*
Y0052860D01*
X0019225D01*
X0026695Y0062980D02*
X0025945D01*
Y0061380D01*
X0026695D01*
Y0062980D01*
X0027655Y0060900D02*
X0026905D01*
Y0059300D01*
X0027655D01*
Y0060900D01*
X0021175Y0057140D02*
X0020425D01*
Y0055540D01*
X0021175D01*
Y0057140D01*
X0028455Y0053540D02*
X0028500D01*
Y0051940D01*
X0027660D01*
Y0053540D01*
X0028455D01*
X0022215Y0059700D02*
X0021465D01*
Y0058100D01*
X0022215D01*
Y0059700D01*
X0043465Y0048460D02*
X0044215D01*
Y0050060D01*
X0043465D01*
Y0048460D01*
X0031335Y0048180D02*
X0031380D01*
Y0046580D01*
X0030540D01*
Y0048180D01*
X0031335D01*
X0034610Y0063590D02*
Y0061390D01*
X0033710D01*
Y0063590D01*
X0034610D01*
X0021175Y0061700D02*
X0020425D01*
Y0060100D01*
X0021175D01*
Y0061700D01*
X0028180Y0044345D02*
Y0044300D01*
X0026580D01*
Y0045140D01*
X0028180D01*
Y0044345D01*
G54D48*
G01X0025390Y0046425D02*
X0025265D01*
Y0046550D01*
X0029265D02*
Y0046425D01*
X0029140D01*
Y0050425D02*
X0029265D01*
Y0050300D01*
X0025390Y0050425D02*
X0025203Y0050238D01*
Y0050237D01*
X0024765D01*
X0041360Y0048050D02*
Y0044550D01*
X0033360D01*
Y0048050D01*
X0041360D01*
X0040860D02*
X0040410Y0047600D01*
X0039960Y0048050D01*
M02*
